<svg width="642" height="701" viewBox="0 0 642 701" fill="none" xmlns="http://www.w3.org/2000/svg">
<rect y="208.924" width="383.203" height="586.84" transform="rotate(-33.0386 0 208.924)" fill="#E82D34"/>
<rect x="38.0804" y="224.416" width="326.896" height="6.12888" transform="rotate(-33.0386 38.0804 224.416)" fill="white"/>
<rect x="131.676" y="362.74" width="326.896" height="6.12888" transform="rotate(-33.0386 131.676 362.74)" fill="white"/>
<rect x="43.048" y="232.154" width="328.46" height="153.222" transform="rotate(-33.0386 43.048 232.154)" fill="white"/>
<rect x="138.182" y="371.294" width="326.896" height="72.0144" transform="rotate(-33.0386 138.182 371.294)" fill="black"/>
<path d="M198.084 334.277L237.347 394.647" stroke="#E82D34" stroke-width="3"/>
<rect x="180.863" y="433.076" width="326.896" height="151.69" transform="rotate(-33.0386 180.863 433.076)" fill="black"/>
<rect x="267.666" y="562.508" width="201.768" height="82.7399" transform="rotate(-33.0386 267.666 562.508)" fill="black"/>
<rect x="315.562" y="634.224" width="326.896" height="24.5155" transform="rotate(-33.0386 315.562 634.224)" fill="white"/>
<path d="M461.994 465.836L462.674 468.905L463.264 468.521C463.822 468.159 464.134 467.746 464.2 467.283C464.225 467 464.216 466.659 464.173 466.259C464.129 465.755 464.101 465.333 464.09 464.994C464.085 464.383 464.268 463.957 464.637 463.717C465.007 463.476 465.31 463.538 465.546 463.901C465.635 464.037 465.675 464.201 465.666 464.392C465.635 464.614 465.525 464.786 465.337 464.909C465.226 464.981 465.108 465.005 464.984 464.981C464.851 464.97 464.745 464.903 464.663 464.778C464.527 464.568 464.518 464.336 464.636 464.081C464.457 464.23 464.375 464.489 464.39 464.859C464.393 465.325 464.416 465.734 464.461 466.084C464.463 466.139 464.469 466.22 464.48 466.326C464.49 466.432 464.497 466.513 464.499 466.568C464.506 466.668 464.511 466.823 464.513 467.031C464.497 467.469 464.376 467.798 464.151 468.017L464.165 468.057L464.209 468.028C464.766 467.665 465.176 467.685 465.438 468.088C465.519 468.213 465.584 468.332 465.633 468.446L466.304 469.862C466.352 469.976 466.412 470.086 466.482 470.194C466.574 470.336 466.668 470.416 466.764 470.435C466.857 470.463 466.986 470.423 467.15 470.317L467.432 470.133L467.502 470.415L466.816 470.861C466.352 471.163 466.004 471.135 465.771 470.778C465.745 470.738 465.719 470.691 465.692 470.636C465.653 470.564 465.612 470.482 465.569 470.389L464.869 468.87C464.862 468.859 464.849 468.839 464.83 468.81C464.818 468.778 464.811 468.755 464.809 468.739L464.743 468.637C464.599 468.416 464.439 468.318 464.263 468.344C464.084 468.363 463.868 468.455 463.616 468.619L462.744 469.186L463.523 472.676L464.324 472.155L464.394 472.436L461.964 474.017L461.894 473.735L462.686 473.22L461.157 466.38L460.356 466.901L460.294 466.614L462.725 465.034L462.786 465.321L461.994 465.836Z" fill="white"/>
<path d="M468.137 464.456L468.664 466.789L470.047 465.89L469.556 463.691L470.392 463.147C470.444 463.38 470.573 463.937 470.779 464.82C470.8 464.904 470.826 465.02 470.856 465.17C470.889 465.31 470.911 465.409 470.923 465.465C470.944 465.549 470.968 465.662 470.995 465.806C471.027 465.947 471.048 466.03 471.057 466.056C471.084 466.176 471.122 466.329 471.168 466.517C471.208 466.668 471.231 466.754 471.236 466.775C471.275 466.912 471.324 467.025 471.383 467.116C471.49 467.281 471.625 467.309 471.79 467.202C472.107 466.996 472.178 466.502 472.003 465.72C471.945 465.515 471.897 465.377 471.859 465.305L472.15 465.309C472.522 466.537 472.382 467.362 471.731 467.786C471.578 467.885 471.445 467.943 471.331 467.961C471.092 467.979 470.897 467.916 470.745 467.773C470.677 467.72 470.614 467.648 470.555 467.558C470.474 467.433 470.407 467.286 470.356 467.118C470.305 466.949 470.237 466.69 470.153 466.342L470.108 466.177L468.726 467.076L469.236 469.287L468.4 469.831L467.398 465.421L466.571 465.959L466.5 465.678L468.137 464.456Z" fill="white"/>
<path d="M474.599 460.411L475.436 459.867C475.487 460.1 475.616 460.657 475.823 461.54C475.843 461.624 475.869 461.74 475.9 461.89C475.932 462.03 475.955 462.129 475.966 462.185C475.987 462.269 476.011 462.382 476.038 462.526C476.071 462.667 476.091 462.75 476.1 462.776C476.128 462.896 476.165 463.049 476.212 463.237C476.246 463.392 476.269 463.478 476.28 463.495C476.318 463.632 476.367 463.745 476.426 463.836C476.526 463.989 476.658 464.012 476.822 463.905C477.01 463.783 477.117 463.576 477.145 463.284C477.172 462.992 477.154 462.708 477.093 462.434C477.035 462.229 476.983 462.085 476.937 462.002L477.228 462.006C477.413 462.444 477.472 462.914 477.406 463.416C477.343 463.91 477.123 464.279 476.748 464.523C476.536 464.66 476.336 464.726 476.148 464.719C475.956 464.707 475.798 464.604 475.672 464.411C475.65 464.377 475.615 464.311 475.568 464.212C475.559 464.186 475.547 464.154 475.53 464.116C475.516 464.068 475.504 464.036 475.493 464.019C475.525 464.878 475.277 465.479 474.749 465.823C474.502 465.983 474.254 466.044 474.003 466.005C473.752 465.967 473.551 465.831 473.4 465.598C473.278 465.411 473.185 465.197 473.12 464.957L472.474 462.132L471.681 462.648L471.614 462.352L473.214 461.19L473.935 464.379C474.007 464.695 474.093 464.93 474.192 465.083C474.27 465.202 474.364 465.27 474.475 465.287C474.59 465.309 474.7 465.286 474.806 465.217C475.081 465.037 475.238 464.726 475.275 464.282C475.308 463.832 475.277 463.392 475.181 462.962L474.599 460.411Z" fill="white"/>
<path d="M478.155 457.977C478.425 457.801 478.704 457.709 478.99 457.7C479.277 457.691 479.502 457.812 479.664 458.061C479.922 458.458 479.864 459.082 479.489 459.931C479.224 460.499 479.055 460.959 478.984 461.313C478.946 461.523 478.98 461.711 479.087 461.875C479.176 462.011 479.291 462.086 479.433 462.098C479.581 462.107 479.728 462.064 479.875 461.969C480.174 461.774 480.354 461.459 480.413 461.025C480.47 460.585 480.427 460.185 480.285 459.825L480.576 459.829C480.73 460.375 480.746 460.893 480.623 461.385C480.506 461.873 480.218 462.266 479.76 462.564C479.484 462.743 479.209 462.833 478.934 462.835C478.656 462.83 478.433 462.7 478.267 462.445C478.038 462.093 478.062 461.565 478.339 460.86C478.366 460.786 478.406 460.687 478.46 460.564C478.509 460.435 478.544 460.347 478.565 460.302C478.744 459.87 478.868 459.528 478.936 459.273C478.993 459.026 478.969 458.824 478.866 458.665C478.674 458.37 478.411 458.331 478.076 458.549C477.777 458.743 477.607 459.028 477.566 459.401C477.527 459.766 477.573 460.131 477.703 460.499L477.412 460.494C477.258 459.949 477.229 459.467 477.325 459.05C477.421 458.632 477.698 458.274 478.155 457.977Z" fill="white"/>
<path d="M483.147 454.852L483.983 454.308C484.035 454.541 484.164 455.099 484.37 455.981C484.391 456.065 484.417 456.181 484.447 456.331C484.48 456.471 484.502 456.57 484.514 456.626C484.535 456.71 484.559 456.823 484.585 456.967C484.618 457.108 484.639 457.191 484.648 457.217C484.675 457.337 484.712 457.49 484.759 457.678C484.793 457.833 484.816 457.919 484.827 457.936C484.866 458.073 484.914 458.186 484.974 458.277C485.073 458.43 485.205 458.453 485.37 458.346C485.557 458.224 485.665 458.017 485.692 457.725C485.719 457.433 485.702 457.149 485.64 456.875C485.582 456.67 485.531 456.526 485.485 456.443L485.776 456.447C485.96 456.885 486.019 457.355 485.954 457.858C485.89 458.351 485.671 458.72 485.295 458.964C485.084 459.101 484.884 459.167 484.696 459.16C484.504 459.148 484.345 459.045 484.22 458.852C484.198 458.818 484.163 458.752 484.116 458.653C484.107 458.627 484.094 458.595 484.078 458.557C484.064 458.509 484.051 458.477 484.04 458.46C484.072 459.319 483.824 459.92 483.296 460.264C483.05 460.424 482.801 460.485 482.55 460.446C482.299 460.408 482.098 460.272 481.947 460.039C481.825 459.852 481.732 459.638 481.668 459.398L481.021 456.573L480.229 457.089L480.162 456.793L481.762 455.631L482.482 458.82C482.554 459.136 482.64 459.371 482.74 459.524C482.817 459.643 482.911 459.711 483.022 459.728C483.137 459.75 483.247 459.727 483.353 459.658C483.629 459.478 483.785 459.167 483.823 458.723C483.856 458.273 483.825 457.833 483.729 457.403L483.147 454.852Z" fill="white"/>
<path d="M488.26 458.646L488.041 458.559C488.362 457.898 488.385 457.354 488.108 456.929C488.075 456.878 488.041 456.839 488.007 456.812C488.018 457.048 487.933 457.224 487.751 457.343C487.61 457.434 487.475 457.465 487.347 457.435C487.214 457.409 487.108 457.337 487.031 457.218C486.916 457.042 486.886 456.86 486.939 456.672C486.992 456.484 487.109 456.331 487.291 456.213C487.485 456.087 487.668 456.053 487.839 456.111C488.011 456.169 488.159 456.294 488.284 456.487C488.561 456.912 488.624 457.453 488.474 458.108C488.417 458.29 488.346 458.469 488.26 458.646Z" fill="white"/>
<path d="M492.528 448.75L493.365 448.206C493.416 448.439 493.545 448.997 493.752 449.88C493.772 449.963 493.798 450.08 493.829 450.229C493.861 450.37 493.884 450.468 493.896 450.525C493.916 450.608 493.94 450.722 493.967 450.866C494 451.006 494.02 451.089 494.029 451.116C494.057 451.235 494.094 451.389 494.141 451.576C494.175 451.732 494.198 451.818 494.209 451.835C494.247 451.971 494.296 452.085 494.355 452.176C494.455 452.329 494.587 452.352 494.751 452.245C494.939 452.123 495.046 451.916 495.074 451.623C495.101 451.331 495.084 451.048 495.022 450.773C494.964 450.569 494.912 450.425 494.866 450.342L495.157 450.346C495.342 450.783 495.401 451.253 495.335 451.756C495.272 452.249 495.052 452.618 494.677 452.863C494.465 453 494.266 453.065 494.077 453.059C493.885 453.046 493.727 452.943 493.601 452.751C493.579 452.716 493.544 452.65 493.497 452.552C493.488 452.525 493.476 452.493 493.459 452.455C493.445 452.408 493.433 452.376 493.422 452.359C493.454 453.218 493.206 453.819 492.678 454.163C492.431 454.323 492.183 454.384 491.932 454.345C491.681 454.306 491.48 454.171 491.329 453.938C491.207 453.751 491.114 453.537 491.049 453.296L490.403 450.472L489.61 450.987L489.543 450.692L491.143 449.53L491.864 452.718C491.936 453.035 492.022 453.269 492.121 453.423C492.199 453.542 492.293 453.609 492.404 453.626C492.519 453.648 492.629 453.625 492.735 453.556C493.011 453.377 493.167 453.065 493.204 452.621C493.238 452.172 493.206 451.732 493.11 451.302L492.528 448.75Z" fill="white"/>
<path d="M495.507 448.472L495.218 448.394C495.12 447.973 495.147 447.584 495.299 447.227C495.447 446.864 495.706 446.563 496.076 446.322C496.592 445.986 497.04 445.897 497.418 446.055C497.553 446.12 497.668 446.227 497.764 446.374C497.849 446.505 497.903 446.659 497.927 446.837C497.964 447.37 497.729 447.862 497.221 448.314L497.234 448.354C497.959 447.914 498.471 447.924 498.77 448.384C498.943 448.651 498.994 448.953 498.921 449.291C498.845 449.623 498.698 449.924 498.481 450.194C498.27 450.461 498.03 450.682 497.76 450.857C497.507 451.021 497.24 451.131 496.958 451.185C496.678 451.23 496.437 451.181 496.235 451.037C496.116 450.97 496.022 450.882 495.951 450.774C495.863 450.638 495.827 450.5 495.845 450.359C495.864 450.209 495.941 450.091 496.076 450.003C496.194 449.926 496.317 449.898 496.448 449.919C496.574 449.933 496.674 449.997 496.748 450.111C496.896 450.338 496.868 450.59 496.664 450.868C496.784 450.911 496.91 450.918 497.041 450.889C497.18 450.871 497.329 450.811 497.487 450.708C497.722 450.555 497.892 450.36 497.996 450.122C498.106 449.881 498.134 449.629 498.08 449.365C498.039 449.199 497.977 449.053 497.896 448.928C497.645 448.542 497.267 448.514 496.762 448.842L496.516 449.002L496.414 448.73L496.625 448.592C496.919 448.401 497.095 448.166 497.155 447.885C497.211 447.598 497.146 447.313 496.962 447.029C496.718 446.655 496.394 446.599 495.989 446.863C495.783 446.996 495.633 447.183 495.538 447.422C495.429 447.768 495.418 448.118 495.507 448.472Z" fill="white"/>
<path d="M503.386 444.728L502.998 442.994L502.763 447.603L502.49 447.781L500.409 444.678C500.553 445.271 500.678 445.823 500.785 446.335C500.827 446.541 500.863 446.724 500.891 446.883C500.916 447.037 500.936 447.242 500.952 447.498C500.971 447.744 500.966 447.961 500.937 448.149C500.915 448.333 500.86 448.518 500.772 448.704C500.685 448.891 500.562 449.035 500.403 449.138C500.198 449.272 499.994 449.319 499.794 449.28C499.593 449.241 499.428 449.123 499.299 448.924C499.199 448.771 499.157 448.616 499.173 448.461C499.185 448.3 499.268 448.169 499.42 448.07C499.555 447.982 499.685 447.95 499.809 447.975C499.931 448.008 500.031 448.085 500.108 448.204C500.245 448.414 500.225 448.64 500.05 448.884C500.114 448.906 500.197 448.885 500.296 448.82C500.825 448.477 500.714 446.99 499.965 444.361L499.17 444.757L499.021 444.528L500.667 443.457L502.519 446.188L502.79 442.077L503.626 441.533C503.759 442.148 503.885 442.708 504.004 443.212C504.025 443.295 504.051 443.412 504.081 443.562C504.114 443.702 504.136 443.8 504.148 443.857C504.169 443.94 504.193 444.054 504.219 444.198C504.252 444.338 504.273 444.422 504.282 444.448C504.309 444.568 504.346 444.721 504.393 444.908C504.413 445.041 504.432 445.129 504.452 445.173C504.491 445.309 504.54 445.423 504.599 445.513C504.65 445.593 504.718 445.633 504.803 445.635C504.891 445.642 504.979 445.617 505.067 445.56C505.308 445.403 505.421 445.12 505.405 444.711C505.395 444.297 505.32 443.938 505.18 443.634L505.472 443.638C505.626 444.094 505.68 444.568 505.632 445.06C505.586 445.541 505.384 445.899 505.026 446.132C504.75 446.311 504.495 446.368 504.26 446.303C504.069 446.266 503.912 446.154 503.791 445.966C503.673 445.785 503.569 445.517 503.481 445.163C503.43 444.93 503.398 444.785 503.386 444.728Z" fill="white"/>
<path d="M507.539 439.714C507.462 439.595 507.374 439.523 507.274 439.499C507.169 439.479 507.052 439.51 506.923 439.594C506.618 439.793 506.464 440.192 506.461 440.791C506.458 441.39 506.547 441.893 506.728 442.3C506.915 442.138 507.046 442.013 507.122 441.923C507.397 441.639 507.584 441.279 507.685 440.843C507.787 440.397 507.739 440.02 507.539 439.714ZM506.853 439.313C507.134 439.13 507.416 439.023 507.697 438.994C507.975 438.958 508.193 439.063 508.352 439.307C508.511 439.551 508.568 439.832 508.525 440.151C508.482 440.469 508.363 440.781 508.168 441.085C507.976 441.38 507.765 441.654 507.537 441.907C507.312 442.151 507.08 442.366 506.842 442.553C506.944 442.761 507.028 442.916 507.095 443.018C507.272 443.291 507.476 443.476 507.708 443.576C507.94 443.676 508.188 443.639 508.452 443.468C508.74 443.28 508.923 443.004 509.002 442.637C509.084 442.262 509.079 441.889 508.989 441.52L509.274 441.553C509.379 442.009 509.358 442.459 509.211 442.901C509.067 443.334 508.801 443.677 508.413 443.929C507.973 444.215 507.56 444.318 507.174 444.238C506.788 444.158 506.456 443.906 506.18 443.48C505.737 442.799 505.565 442.047 505.665 441.224C505.77 440.397 506.166 439.76 506.853 439.313Z" fill="white"/>
<path d="M510.651 436.807L511.178 439.14L512.56 438.241L512.07 436.041L512.906 435.497C512.958 435.73 513.086 436.288 513.293 437.171C513.314 437.254 513.34 437.371 513.37 437.52C513.403 437.661 513.425 437.759 513.437 437.816C513.458 437.899 513.482 438.013 513.508 438.157C513.541 438.297 513.562 438.38 513.571 438.407C513.598 438.526 513.635 438.68 513.682 438.867C513.722 439.019 513.745 439.105 513.75 439.126C513.789 439.262 513.837 439.376 513.897 439.467C514.004 439.631 514.139 439.66 514.304 439.553C514.621 439.347 514.692 438.852 514.517 438.07C514.459 437.866 514.411 437.727 514.373 437.655L514.664 437.66C515.036 438.887 514.896 439.713 514.244 440.136C514.092 440.236 513.959 440.294 513.845 440.312C513.606 440.33 513.411 440.267 513.259 440.123C513.191 440.071 513.128 439.999 513.069 439.908C512.987 439.783 512.921 439.637 512.87 439.468C512.819 439.3 512.751 439.041 512.666 438.692L512.622 438.528L511.239 439.427L511.75 441.638L510.913 442.182L509.912 437.771L509.084 438.31L509.014 438.028L510.651 436.807Z" fill="white"/>
<path d="M517.113 432.761L517.95 432.217C518.001 432.45 518.13 433.008 518.336 433.891C518.357 433.974 518.383 434.091 518.413 434.24C518.446 434.381 518.468 434.479 518.48 434.536C518.501 434.619 518.525 434.733 518.552 434.877C518.584 435.017 518.605 435.1 518.614 435.127C518.642 435.246 518.679 435.4 518.726 435.587C518.76 435.743 518.782 435.829 518.793 435.846C518.832 435.982 518.881 436.096 518.94 436.187C519.039 436.34 519.171 436.363 519.336 436.256C519.524 436.134 519.631 435.927 519.658 435.634C519.686 435.342 519.668 435.059 519.607 434.784C519.549 434.58 519.497 434.436 519.451 434.352L519.742 434.357C519.926 434.794 519.986 435.264 519.92 435.767C519.857 436.26 519.637 436.629 519.261 436.873C519.05 437.011 518.85 437.076 518.662 437.069C518.47 437.057 518.312 436.954 518.186 436.761C518.164 436.727 518.129 436.661 518.082 436.563C518.073 436.536 518.06 436.504 518.044 436.466C518.03 436.419 518.018 436.387 518.006 436.37C518.039 437.229 517.791 437.83 517.262 438.173C517.016 438.334 516.767 438.395 516.517 438.356C516.266 438.317 516.065 438.181 515.914 437.949C515.792 437.762 515.699 437.548 515.634 437.307L514.987 434.483L514.195 434.998L514.128 434.702L515.728 433.541L516.448 436.729C516.521 437.045 516.606 437.28 516.706 437.433C516.784 437.553 516.878 437.62 516.989 437.637C517.104 437.659 517.214 437.636 517.319 437.567C517.595 437.388 517.752 437.076 517.789 436.632C517.822 436.183 517.791 435.743 517.695 435.313L517.113 432.761Z" fill="white"/>
<path d="M523.522 431.959C523.777 432.35 523.804 432.829 523.604 433.395C523.404 433.961 523.093 434.381 522.67 434.656C522.242 434.935 521.825 435.02 521.421 434.912C521.016 434.804 520.676 434.537 520.399 434.111C519.952 433.425 519.8 432.664 519.942 431.829C520.084 430.994 520.504 430.35 521.203 429.895C521.449 429.735 521.709 429.639 521.98 429.608C522.252 429.576 522.458 429.668 522.599 429.884C522.802 430.196 522.819 430.544 522.651 430.927C522.483 431.311 522.236 431.677 521.912 432.026C521.929 432.014 521.948 431.998 521.968 431.977C521.988 431.956 522.006 431.94 522.024 431.928C522.717 431.478 523.216 431.488 523.522 431.959ZM520.973 433.048C521.048 433.241 521.171 433.468 521.341 433.729C521.51 433.99 521.71 434.187 521.939 434.321C522.17 434.445 522.406 434.429 522.646 434.272C522.904 434.104 523.028 433.858 523.018 433.534C523.014 433.206 522.923 432.906 522.746 432.634C522.473 432.214 522.119 432.145 521.685 432.428C521.561 432.508 521.432 432.604 521.296 432.717C521.138 432.86 521.031 432.97 520.973 433.048ZM521.894 431.189C521.929 430.909 521.867 430.646 521.708 430.402C521.549 430.158 521.347 430.117 521.1 430.277C520.818 430.46 520.67 430.823 520.655 431.365C520.641 431.908 520.709 432.372 520.86 432.758C521.168 432.501 521.407 432.257 521.574 432.027C521.744 431.787 521.851 431.508 521.894 431.189Z" fill="white"/>
<path d="M528.187 425.559L529.023 425.015L529.843 428.587C529.884 428.754 529.933 428.88 529.988 428.965C530.099 429.135 530.248 429.159 530.436 429.037C530.618 428.919 530.719 428.715 530.741 428.427C530.768 428.135 530.749 427.848 530.683 427.568C530.626 427.364 530.576 427.222 530.533 427.145L530.825 427.149C531.009 427.562 531.071 428.022 531.009 428.531C530.947 429.039 530.734 429.412 530.37 429.649C530.235 429.737 530.105 429.801 529.981 429.841C529.865 429.868 529.762 429.87 529.673 429.848C529.577 429.829 529.498 429.792 529.436 429.735C529.372 429.688 529.313 429.622 529.257 429.537C529.239 429.509 529.206 429.445 529.159 429.347C529.15 429.32 529.135 429.285 529.115 429.242C529.101 429.194 529.091 429.165 529.083 429.154C529.137 430.007 528.917 430.594 528.424 430.914C528.113 431.117 527.828 431.173 527.569 431.083C527.348 431.025 527.169 430.891 527.032 430.681L526.966 430.579C527.022 431.398 526.777 431.985 526.232 432.34C525.979 432.504 525.728 432.567 525.477 432.528C525.222 432.484 525.016 432.34 524.857 432.096C524.791 431.994 524.742 431.893 524.71 431.792C524.686 431.743 524.651 431.637 524.603 431.474L523.965 428.644L523.155 429.171L523.088 428.875L524.706 427.702L525.434 430.922C525.481 431.109 525.519 431.245 525.55 431.331C525.587 431.452 525.629 431.549 525.677 431.623C525.733 431.708 525.821 431.767 525.943 431.801C526.05 431.837 526.171 431.811 526.306 431.723C526.564 431.555 526.706 431.265 526.73 430.853C526.761 430.438 526.732 430.021 526.643 429.602L526.038 426.957L526.875 426.413L527.544 429.368C527.603 429.588 527.649 429.748 527.68 429.848C527.73 430.001 527.781 430.118 527.832 430.197C527.995 430.447 528.208 430.486 528.472 430.314C528.719 430.154 528.855 429.863 528.882 429.442C528.911 429.011 528.881 428.599 528.792 428.205L528.187 425.559Z" fill="white"/>
<path d="M533.279 422.247L534.116 421.703C534.167 421.936 534.296 422.494 534.503 423.377C534.523 423.46 534.549 423.577 534.58 423.726C534.612 423.867 534.635 423.965 534.647 424.022C534.667 424.105 534.691 424.219 534.718 424.363C534.751 424.503 534.771 424.586 534.78 424.613C534.808 424.732 534.845 424.886 534.892 425.073C534.926 425.229 534.949 425.315 534.96 425.332C534.998 425.468 535.047 425.582 535.106 425.673C535.206 425.826 535.338 425.849 535.502 425.742C535.69 425.62 535.797 425.413 535.825 425.12C535.852 424.828 535.835 424.545 535.773 424.27C535.715 424.066 535.663 423.922 535.617 423.839L535.908 423.843C536.093 424.28 536.152 424.75 536.086 425.253C536.023 425.746 535.803 426.115 535.428 426.36C535.216 426.497 535.016 426.562 534.828 426.556C534.636 426.543 534.478 426.44 534.352 426.248C534.33 426.213 534.295 426.147 534.248 426.049C534.239 426.022 534.227 425.99 534.21 425.952C534.196 425.905 534.184 425.873 534.173 425.856C534.205 426.715 533.957 427.316 533.429 427.659C533.182 427.82 532.934 427.881 532.683 427.842C532.432 427.803 532.231 427.667 532.08 427.435C531.958 427.248 531.865 427.034 531.8 426.793L531.154 423.969L530.361 424.484L530.294 424.189L531.894 423.027L532.615 426.215C532.687 426.532 532.773 426.766 532.872 426.919C532.95 427.039 533.044 427.106 533.155 427.123C533.27 427.145 533.38 427.122 533.486 427.053C533.762 426.874 533.918 426.562 533.955 426.118C533.988 425.669 533.957 425.229 533.861 424.799L533.279 422.247Z" fill="white"/>
<path d="M537.98 419.916C537.903 419.797 537.814 419.726 537.715 419.701C537.61 419.681 537.493 419.713 537.364 419.797C537.058 419.995 536.904 420.394 536.901 420.993C536.898 421.593 536.988 422.096 537.169 422.503C537.356 422.341 537.487 422.215 537.562 422.125C537.837 421.842 538.025 421.482 538.125 421.045C538.228 420.599 538.179 420.223 537.98 419.916ZM537.293 419.515C537.575 419.332 537.857 419.226 538.138 419.196C538.416 419.161 538.634 419.265 538.793 419.509C538.951 419.753 539.009 420.034 538.966 420.353C538.923 420.672 538.804 420.983 538.609 421.288C538.416 421.582 538.206 421.856 537.978 422.109C537.752 422.353 537.521 422.568 537.283 422.755C537.385 422.963 537.469 423.119 537.535 423.221C537.713 423.493 537.917 423.679 538.149 423.778C538.381 423.878 538.629 423.842 538.893 423.67C539.18 423.483 539.364 423.206 539.443 422.84C539.524 422.464 539.52 422.091 539.43 421.722L539.715 421.755C539.819 422.212 539.799 422.661 539.652 423.104C539.508 423.536 539.242 423.879 538.854 424.131C538.414 424.417 538.001 424.521 537.615 424.441C537.229 424.361 536.897 424.108 536.62 423.683C536.178 423.002 536.006 422.25 536.105 421.426C536.211 420.599 536.607 419.962 537.293 419.515Z" fill="white"/>
<path d="M546.528 416.67L546.14 414.937L545.904 419.546L545.631 419.723L543.551 416.62C543.694 417.213 543.819 417.766 543.927 418.277C543.969 418.484 544.004 418.666 544.033 418.826C544.057 418.979 544.078 419.184 544.094 419.44C544.112 419.686 544.107 419.903 544.079 420.091C544.057 420.275 544.002 420.46 543.914 420.647C543.826 420.833 543.703 420.977 543.545 421.081C543.339 421.214 543.136 421.261 542.935 421.223C542.734 421.184 542.57 421.065 542.44 420.866C542.341 420.713 542.299 420.559 542.315 420.403C542.327 420.242 542.409 420.112 542.562 420.012C542.697 419.925 542.826 419.893 542.951 419.917C543.073 419.95 543.172 420.027 543.25 420.146C543.386 420.356 543.367 420.583 543.191 420.826C543.256 420.849 543.338 420.827 543.438 420.762C543.966 420.419 543.856 418.933 543.107 416.304L542.312 416.7L542.162 416.47L543.809 415.399L545.66 418.13L545.931 414.019L546.768 413.475C546.901 414.091 547.027 414.65 547.146 415.154C547.166 415.238 547.192 415.354 547.223 415.504C547.255 415.644 547.278 415.743 547.289 415.799C547.31 415.883 547.334 415.996 547.361 416.14C547.394 416.281 547.414 416.364 547.423 416.39C547.451 416.51 547.488 416.663 547.535 416.851C547.554 416.983 547.574 417.071 547.594 417.115C547.632 417.251 547.681 417.365 547.74 417.456C547.792 417.535 547.86 417.576 547.945 417.577C548.033 417.584 548.121 417.559 548.209 417.502C548.45 417.346 548.562 417.062 548.546 416.653C548.536 416.24 548.462 415.881 548.322 415.576L548.613 415.58C548.768 416.037 548.821 416.51 548.773 417.002C548.727 417.484 548.525 417.841 548.167 418.074C547.891 418.253 547.636 418.31 547.402 418.245C547.21 418.208 547.054 418.096 546.932 417.909C546.814 417.727 546.711 417.459 546.623 417.105C546.571 416.872 546.54 416.727 546.528 416.67Z" fill="white"/>
<path d="M551.062 410.682L551.899 410.138C551.95 410.371 552.079 410.929 552.286 411.811C552.306 411.895 552.332 412.011 552.362 412.161C552.395 412.301 552.417 412.4 552.429 412.457C552.45 412.54 552.474 412.654 552.501 412.798C552.534 412.938 552.554 413.021 552.563 413.048C552.591 413.167 552.628 413.32 552.675 413.508C552.709 413.663 552.731 413.749 552.743 413.766C552.781 413.903 552.83 414.016 552.889 414.107C552.989 414.26 553.121 414.283 553.285 414.177C553.473 414.054 553.58 413.847 553.607 413.555C553.635 413.263 553.617 412.98 553.556 412.705C553.498 412.5 553.446 412.356 553.4 412.273L553.691 412.278C553.875 412.715 553.935 413.185 553.869 413.688C553.806 414.181 553.586 414.55 553.21 414.794C552.999 414.932 552.799 414.997 552.611 414.99C552.419 414.978 552.261 414.875 552.135 414.682C552.113 414.648 552.078 414.582 552.031 414.483C552.022 414.457 552.01 414.425 551.993 414.387C551.979 414.34 551.967 414.307 551.956 414.29C551.988 415.149 551.74 415.751 551.212 416.094C550.965 416.254 550.716 416.315 550.466 416.277C550.215 416.238 550.014 416.102 549.863 415.87C549.741 415.682 549.648 415.468 549.583 415.228L548.937 412.403L548.144 412.919L548.077 412.623L549.677 411.461L550.398 414.65C550.47 414.966 550.556 415.201 550.655 415.354C550.733 415.473 550.827 415.541 550.938 415.558C551.053 415.58 551.163 415.557 551.268 415.488C551.544 415.309 551.701 414.997 551.738 414.553C551.771 414.103 551.74 413.664 551.644 413.234L551.062 410.682Z" fill="white"/>
<path d="M556.703 411.954C556.914 411.816 557.056 411.566 557.13 411.204C557.199 410.836 557.216 410.489 557.181 410.165C557.148 409.832 557.094 409.524 557.019 409.242C556.925 408.891 556.793 408.586 556.623 408.325C556.368 407.933 556.094 407.833 555.801 408.024C555.525 408.203 555.366 408.549 555.323 409.061C555.28 409.573 555.302 410.063 555.389 410.531L555.442 410.824C555.527 411.148 555.644 411.424 555.791 411.65C555.906 411.826 556.046 411.945 556.211 412.007C556.369 412.082 556.533 412.064 556.703 411.954ZM555.904 407.412C556.227 407.202 556.525 407.141 556.8 407.229C557.08 407.313 557.324 407.514 557.53 407.831C557.781 408.217 557.955 408.697 558.053 409.271C558.147 409.84 558.118 410.412 557.966 410.987C557.814 411.562 557.526 411.987 557.104 412.262C556.845 412.43 556.598 412.486 556.361 412.43C556.121 412.369 555.919 412.213 555.757 411.964C555.731 411.924 555.714 411.891 555.705 411.864C555.679 411.824 555.662 411.791 555.653 411.765L556.473 415.397L557.178 414.938L557.239 415.225L554.994 416.686L554.932 416.399L555.637 415.941L554.08 409.058L553.288 409.573L553.221 409.278L554.616 408.225C554.815 408.531 554.95 408.957 555.02 409.501L555.057 409.5C554.999 408.513 555.282 407.816 555.904 407.412Z" fill="white"/>
<path d="M559.62 409.887C559.528 409.745 559.5 409.593 559.537 409.432C559.574 409.271 559.666 409.142 559.813 409.047C559.972 408.944 560.127 408.907 560.28 408.937C560.433 408.967 560.56 409.058 560.659 409.211C560.755 409.359 560.784 409.513 560.747 409.674C560.713 409.826 560.619 409.952 560.466 410.051C560.313 410.15 560.158 410.187 559.999 410.161C559.842 410.126 559.716 410.034 559.62 409.887Z" fill="white"/>
<path d="M471.931 471.482L471.138 471.998L472.667 478.838L473.46 478.322L473.53 478.603L471.108 480.178L471.038 479.897L471.831 479.382L470.302 472.542L467.537 474.34L469.057 481.186L469.858 480.664L469.928 480.946L467.498 482.526L467.428 482.245L468.22 481.73L466.7 474.884L465.899 475.405L465.838 475.118L471.869 471.195L471.931 471.482Z" fill="white"/>
<path d="M475.653 471.834L476.49 471.29C476.541 471.523 476.67 472.081 476.877 472.964C476.898 473.047 476.923 473.163 476.954 473.313C476.986 473.453 477.009 473.552 477.021 473.609C477.041 473.692 477.065 473.806 477.092 473.95C477.125 474.09 477.146 474.173 477.154 474.2C477.182 474.319 477.219 474.472 477.266 474.66C477.3 474.815 477.323 474.902 477.334 474.919C477.372 475.055 477.421 475.168 477.48 475.259C477.58 475.412 477.712 475.436 477.876 475.329C478.064 475.206 478.172 474.999 478.199 474.707C478.226 474.415 478.209 474.132 478.147 473.857C478.089 473.652 478.037 473.508 477.992 473.425L478.283 473.43C478.467 473.867 478.526 474.337 478.46 474.84C478.397 475.333 478.177 475.702 477.802 475.946C477.59 476.084 477.391 476.149 477.202 476.142C477.011 476.13 476.852 476.027 476.726 475.834C476.704 475.8 476.67 475.734 476.622 475.636C476.613 475.609 476.601 475.577 476.585 475.539C476.571 475.492 476.558 475.459 476.547 475.442C476.579 476.301 476.331 476.903 475.803 477.246C475.556 477.407 475.308 477.467 475.057 477.429C474.806 477.39 474.605 477.254 474.454 477.022C474.332 476.834 474.239 476.62 474.174 476.38L473.528 473.555L472.735 474.071L472.668 473.775L474.268 472.613L474.989 475.802C475.061 476.118 475.147 476.353 475.246 476.506C475.324 476.625 475.418 476.693 475.529 476.71C475.644 476.732 475.754 476.709 475.86 476.64C476.136 476.461 476.292 476.149 476.329 475.705C476.363 475.256 476.331 474.816 476.235 474.386L475.653 471.834Z" fill="white"/>
<path d="M479.518 469.199C479.817 469.005 480.132 468.905 480.463 468.9C480.794 468.894 481.048 469.028 481.225 469.3C481.317 469.442 481.355 469.591 481.339 469.746C481.32 469.896 481.24 470.017 481.099 470.109C480.982 470.185 480.864 470.209 480.745 470.181C480.621 470.157 480.524 470.091 480.454 469.983C480.376 469.864 480.35 469.74 480.374 469.611C480.395 469.476 480.46 469.358 480.569 469.255C480.366 469.136 480.136 469.161 479.878 469.329C479.561 469.535 479.37 469.865 479.306 470.318C479.247 470.768 479.279 471.208 479.399 471.638C479.52 472.068 479.682 472.439 479.885 472.751C480.062 473.023 480.273 473.205 480.516 473.297C480.756 473.383 481.011 473.338 481.281 473.163C481.545 472.991 481.716 472.727 481.793 472.37C481.876 472.009 481.875 471.662 481.792 471.329L482.071 471.353C482.192 471.783 482.169 472.23 482.003 472.693C481.839 473.147 481.566 473.498 481.184 473.746C480.773 474.014 480.371 474.102 479.978 474.01C479.581 473.913 479.255 473.669 479 473.278C478.723 472.852 478.543 472.389 478.459 471.886C478.371 471.379 478.413 470.879 478.586 470.387C478.761 469.885 479.072 469.49 479.518 469.199Z" fill="white"/>
<path d="M484.705 470.839C484.957 470.675 485.102 470.351 485.138 469.867C485.176 469.374 485.145 468.934 485.044 468.548L484.953 468.196C484.921 468.095 484.872 467.962 484.805 467.795C484.734 467.647 484.656 467.508 484.571 467.378C484.298 466.958 483.995 466.857 483.66 467.075C483.384 467.254 483.221 467.574 483.17 468.035C483.115 468.491 483.143 468.945 483.254 469.397C483.37 469.846 483.521 470.213 483.705 470.496C483.831 470.689 483.982 470.825 484.158 470.904C484.335 470.983 484.517 470.961 484.705 470.839ZM485.055 465.598L485.313 465.551L486.093 469.004C486.143 469.222 486.199 469.379 486.261 469.476C486.372 469.646 486.516 469.674 486.692 469.559C486.833 469.467 486.912 469.295 486.931 469.04C486.945 468.78 486.93 468.544 486.884 468.332C486.84 468.111 486.787 467.915 486.727 467.744L487.018 467.749C487.119 468.046 487.184 468.339 487.213 468.627C487.242 468.915 487.208 469.215 487.111 469.529C487.016 469.833 486.842 470.067 486.59 470.231C486.42 470.341 486.246 470.39 486.07 470.375C485.885 470.374 485.725 470.269 485.588 470.059C485.489 469.906 485.421 469.744 485.385 469.573C485.403 469.973 485.346 470.354 485.213 470.715C485.08 471.075 484.858 471.357 484.547 471.559C484.236 471.762 483.921 471.805 483.603 471.689C483.292 471.569 483.034 471.353 482.831 471.041C482.58 470.655 482.401 470.199 482.292 469.672C482.185 469.136 482.202 468.596 482.342 468.053C482.478 467.505 482.754 467.095 483.171 466.824C483.476 466.625 483.768 466.56 484.047 466.629C484.328 466.689 484.564 466.866 484.756 467.161L485.055 465.598Z" fill="white"/>
<path d="M489.276 462.853C489.499 462.708 489.72 462.649 489.938 462.677C490.158 462.719 490.336 462.846 490.473 463.056C490.521 463.129 490.555 463.188 490.575 463.232C490.583 463.258 490.597 463.298 490.615 463.351C490.638 463.4 490.657 463.436 490.672 463.459L490.718 463.453C490.691 462.986 490.731 462.585 490.838 462.249C490.947 461.904 491.172 461.62 491.512 461.399C492.023 461.066 492.432 461.136 492.738 461.607C492.897 461.851 493.03 462.216 493.138 462.703L493.497 464.431C493.536 464.567 493.575 464.667 493.616 464.729C493.66 464.797 493.717 464.84 493.788 464.859C493.865 464.874 493.938 464.858 494.008 464.813C494.226 464.671 494.324 464.405 494.304 464.015C494.28 463.619 494.206 463.267 494.082 462.961L494.368 462.956C494.749 464.185 494.6 465.021 493.919 465.464C493.707 465.602 493.502 465.659 493.303 465.635C493.104 465.611 492.937 465.497 492.805 465.293C492.749 465.208 492.706 465.115 492.674 465.015C492.645 464.945 492.607 464.816 492.56 464.628L492.274 463.167C492.218 462.849 492.112 462.571 491.957 462.332C491.894 462.236 491.811 462.165 491.706 462.12C491.603 462.09 491.484 462.119 491.349 462.207C491.15 462.337 491.019 462.599 490.959 462.994C490.9 463.379 490.888 463.746 490.923 464.095C490.964 464.44 491.022 464.761 491.098 465.058L491.521 466.903L490.685 467.447L490.031 464.554C489.97 464.254 489.869 463.997 489.729 463.781C489.571 463.537 489.368 463.496 489.121 463.656C488.91 463.793 488.778 464.073 488.727 464.494C488.681 464.911 488.682 465.298 488.73 465.654C488.774 466.005 488.836 466.344 488.915 466.672L489.302 468.346L488.466 468.89L487.461 464.494L486.668 465.009L486.602 464.714L488.023 463.644C488.178 463.882 488.293 464.174 488.368 464.521L488.462 464.896L488.508 464.89C488.41 463.929 488.665 463.25 489.276 462.853Z" fill="white"/>
<path d="M496.478 459.017C496.4 458.898 496.312 458.826 496.212 458.802C496.107 458.782 495.99 458.813 495.861 458.897C495.556 459.096 495.402 459.495 495.399 460.094C495.396 460.693 495.485 461.196 495.666 461.603C495.853 461.441 495.984 461.316 496.06 461.226C496.335 460.942 496.522 460.582 496.623 460.146C496.725 459.7 496.677 459.323 496.478 459.017ZM495.791 458.616C496.073 458.433 496.354 458.326 496.636 458.297C496.913 458.261 497.132 458.366 497.29 458.61C497.449 458.854 497.507 459.135 497.463 459.454C497.42 459.773 497.301 460.084 497.106 460.388C496.914 460.683 496.703 460.957 496.475 461.21C496.25 461.454 496.018 461.669 495.78 461.856C495.882 462.064 495.966 462.219 496.033 462.321C496.21 462.594 496.414 462.78 496.646 462.879C496.878 462.979 497.126 462.942 497.39 462.771C497.678 462.584 497.861 462.307 497.94 461.941C498.022 461.565 498.017 461.192 497.928 460.823L498.212 460.856C498.317 461.312 498.296 461.762 498.149 462.204C498.005 462.637 497.739 462.98 497.352 463.232C496.911 463.518 496.498 463.621 496.112 463.541C495.726 463.461 495.395 463.209 495.118 462.783C494.675 462.103 494.503 461.35 494.603 460.527C494.708 459.7 495.104 459.063 495.791 458.616Z" fill="white"/>
<path d="M501.252 458.225L500.708 455.866L499.836 456.433C500.061 457.28 500.234 458.007 500.354 458.615C500.59 459.762 500.621 460.548 500.448 460.976C500.351 461.2 500.209 461.373 500.021 461.495C499.816 461.629 499.613 461.676 499.412 461.637C499.202 461.597 499.034 461.48 498.908 461.287C498.816 461.145 498.784 460.992 498.811 460.829C498.835 460.66 498.917 460.53 499.058 460.438C499.182 460.358 499.298 460.331 499.407 460.357C499.521 460.38 499.617 460.45 499.695 460.569C499.776 460.694 499.808 460.815 499.792 460.93C499.768 461.035 499.718 461.144 499.641 461.258C499.706 461.28 499.78 461.265 499.862 461.212C500.161 461.017 500.281 460.559 500.222 459.839C500.165 459.109 499.944 458.075 499.557 456.736L498.762 457.132L498.613 456.902L501.475 455.041C501.526 455.274 501.655 455.832 501.861 456.714C501.882 456.798 501.908 456.914 501.938 457.064C501.971 457.204 501.993 457.303 502.005 457.36C502.026 457.443 502.05 457.557 502.077 457.701C502.109 457.841 502.13 457.924 502.139 457.951C502.167 458.07 502.204 458.223 502.25 458.411C502.291 458.562 502.313 458.649 502.318 458.669C502.355 458.791 502.403 458.897 502.463 458.987C502.57 459.152 502.711 459.177 502.887 459.062C503.11 458.917 503.218 458.633 503.21 458.21C503.203 457.788 503.127 457.441 502.985 457.17L503.276 457.175C503.449 457.66 503.515 458.133 503.474 458.596C503.432 459.059 503.221 459.415 502.839 459.663C502.704 459.751 502.579 459.808 502.462 459.835C502.13 459.89 501.865 459.764 501.666 459.457C501.577 459.321 501.507 459.169 501.456 459C501.405 458.832 501.337 458.573 501.252 458.225Z" fill="white"/>
<path d="M505.724 452.277L506.561 451.733C506.612 451.966 506.741 452.524 506.948 453.406C506.969 453.49 506.994 453.606 507.025 453.756C507.057 453.896 507.08 453.995 507.092 454.051C507.112 454.135 507.136 454.249 507.163 454.393C507.196 454.533 507.217 454.616 507.225 454.643C507.253 454.762 507.29 454.915 507.337 455.103C507.371 455.258 507.394 455.344 507.405 455.361C507.443 455.498 507.492 455.611 507.551 455.702C507.651 455.855 507.783 455.878 507.947 455.772C508.135 455.649 508.243 455.442 508.27 455.15C508.297 454.858 508.28 454.575 508.218 454.3C508.16 454.095 508.108 453.951 508.062 453.868L508.354 453.873C508.538 454.31 508.597 454.78 508.531 455.283C508.468 455.776 508.248 456.145 507.873 456.389C507.661 456.527 507.462 456.592 507.273 456.585C507.082 456.573 506.923 456.47 506.797 456.277C506.775 456.243 506.741 456.177 506.693 456.078C506.684 456.052 506.672 456.02 506.656 455.982C506.641 455.935 506.629 455.902 506.618 455.885C506.65 456.744 506.402 457.345 505.874 457.689C505.627 457.849 505.379 457.91 505.128 457.871C504.877 457.833 504.676 457.697 504.525 457.464C504.403 457.277 504.31 457.063 504.245 456.823L503.599 453.998L502.806 454.514L502.739 454.218L504.339 453.056L505.06 456.245C505.132 456.561 505.218 456.796 505.317 456.949C505.395 457.068 505.489 457.136 505.6 457.153C505.715 457.175 505.825 457.152 505.931 457.083C506.207 456.904 506.363 456.592 506.4 456.148C506.434 455.698 506.402 455.259 506.306 454.829L505.724 452.277Z" fill="white"/>
<path d="M510.838 456.071L510.618 455.984C510.94 455.323 510.962 454.779 510.686 454.354C510.652 454.303 510.619 454.264 510.585 454.238C510.596 454.473 510.51 454.649 510.328 454.768C510.188 454.859 510.053 454.89 509.925 454.861C509.791 454.835 509.686 454.762 509.608 454.643C509.494 454.467 509.463 454.285 509.516 454.097C509.57 453.909 509.687 453.756 509.869 453.638C510.063 453.512 510.245 453.478 510.417 453.536C510.588 453.594 510.737 453.719 510.862 453.912C511.139 454.338 511.202 454.878 511.051 455.533C510.995 455.715 510.923 455.894 510.838 456.071Z" fill="white"/>
<path d="M514.038 446.749C514.531 446.428 514.999 446.306 515.441 446.382C515.882 446.457 516.255 446.728 516.557 447.193C516.97 447.828 517.11 448.557 516.976 449.379C516.839 450.195 516.447 450.813 515.801 451.233C515.326 451.542 514.869 451.674 514.43 451.628C513.997 451.579 513.634 451.33 513.343 450.882C512.9 450.201 512.735 449.453 512.848 448.637C512.96 447.821 513.357 447.192 514.038 446.749ZM514.324 450.522C514.494 450.783 514.675 450.964 514.866 451.066C515.093 451.209 515.344 451.191 515.62 451.011C515.919 450.817 516.092 450.478 516.138 449.997C516.184 449.515 516.143 449.041 516.015 448.575C515.884 448.103 515.72 447.717 515.525 447.417C515.259 447.008 514.959 446.804 514.625 446.803C514.513 446.811 514.395 446.855 514.272 446.936C513.955 447.142 513.769 447.485 513.714 447.965C513.664 448.441 513.701 448.909 513.825 449.369C513.955 449.826 514.121 450.21 514.324 450.522Z" fill="white"/>
<path d="M517.918 447.846C517.527 447.245 517.285 446.449 517.193 445.46C517.107 444.466 517.225 443.647 517.548 443.001C517.67 442.712 517.949 442.352 518.388 441.922C518.607 441.707 518.732 441.585 518.764 441.556C518.875 441.444 518.961 441.351 519.022 441.279C519.151 441.131 519.227 440.984 519.251 440.84C519.274 440.696 519.267 440.506 519.231 440.271L519.511 440.259C519.765 440.893 519.831 441.379 519.708 441.717C519.585 442.055 519.252 442.461 518.709 442.936C518.669 442.978 518.617 443.032 518.552 443.099C518.483 443.16 518.443 443.194 518.431 443.202C517.604 443.998 517.351 445.042 517.674 446.334C517.562 445.276 517.917 444.48 518.739 443.946C519.185 443.655 519.611 443.54 520.017 443.599C520.429 443.654 520.773 443.894 521.05 444.32C521.301 444.705 521.441 445.159 521.471 445.68C521.503 446.192 521.416 446.693 521.208 447.183C521.003 447.664 520.698 448.036 520.293 448.299C519.835 448.597 519.397 448.708 518.98 448.632C518.56 448.551 518.206 448.288 517.918 447.846ZM518.845 444.204C518.569 444.383 518.412 444.707 518.374 445.176C518.333 445.639 518.375 446.096 518.501 446.546C518.627 446.997 518.782 447.364 518.967 447.648C519.17 447.96 519.376 448.137 519.587 448.177C519.779 448.23 519.97 448.195 520.158 448.072C520.322 447.966 520.442 447.803 520.517 447.585C520.594 447.357 520.628 447.113 520.618 446.853C520.613 446.589 520.59 446.342 520.548 446.111C520.513 445.876 520.463 445.666 520.401 445.48C520.284 445.12 520.141 444.81 519.971 444.549C519.827 444.328 519.656 444.181 519.458 444.107C519.266 444.031 519.062 444.063 518.845 444.204Z" fill="white"/>
<path d="M525.926 441.936C526.247 442.429 526.314 443.015 526.129 443.693C525.939 444.365 525.586 444.869 525.07 445.205C524.694 445.449 524.372 445.545 524.104 445.493C523.829 445.455 523.593 445.285 523.398 444.984C523.099 444.525 523.007 443.935 523.123 443.214C523.235 442.487 523.449 441.795 523.765 441.137L523.725 441.115C523.562 441.544 523.324 441.86 523.013 442.062C522.89 442.142 522.701 442.212 522.448 442.272C522.427 442.278 522.386 442.292 522.326 442.315C522.268 442.329 522.22 442.339 522.184 442.347C522.104 442.367 522.024 442.403 521.941 442.456C521.571 442.697 521.527 443.174 521.807 443.888L521.544 443.926C521.431 443.676 521.345 443.434 521.284 443.199C521.229 442.96 521.226 442.699 521.276 442.417C521.326 442.134 521.463 441.92 521.686 441.775C521.827 441.683 522.056 441.611 522.372 441.558C522.701 441.498 522.947 441.415 523.111 441.308C523.387 441.128 523.587 440.902 523.709 440.628C523.762 440.529 523.826 440.391 523.902 440.212L524.154 440.291C523.913 441.101 523.826 441.945 523.895 442.821C523.981 442.555 524.078 442.338 524.186 442.171C524.295 442.003 524.452 441.853 524.657 441.719C524.904 441.559 525.138 441.495 525.36 441.529C525.582 441.562 525.771 441.697 525.926 441.936ZM525.182 442.661C524.961 442.321 524.709 442.242 524.427 442.426C524.146 442.609 524.01 442.959 524.021 443.477C524.028 443.989 524.131 444.398 524.331 444.705C524.427 444.852 524.537 444.938 524.661 444.962C524.793 444.997 524.929 444.969 525.07 444.878C525.269 444.748 525.392 444.519 525.437 444.191C525.485 443.853 525.48 443.537 525.423 443.244C525.366 443.014 525.285 442.82 525.182 442.661Z" fill="white"/>
<path d="M528.32 438.308C528.242 438.189 528.154 438.117 528.055 438.093C527.95 438.072 527.832 438.104 527.703 438.188C527.398 438.387 527.244 438.786 527.241 439.385C527.238 439.984 527.327 440.487 527.508 440.894C527.695 440.732 527.827 440.606 527.902 440.517C528.177 440.233 528.365 439.873 528.465 439.437C528.568 438.99 528.519 438.614 528.32 438.308ZM527.633 437.907C527.915 437.724 528.196 437.617 528.478 437.588C528.756 437.552 528.974 437.657 529.133 437.901C529.291 438.144 529.349 438.426 529.306 438.745C529.262 439.063 529.143 439.375 528.949 439.679C528.756 439.974 528.546 440.248 528.318 440.501C528.092 440.745 527.86 440.96 527.623 441.147C527.725 441.355 527.809 441.51 527.875 441.612C528.052 441.885 528.257 442.07 528.489 442.17C528.72 442.269 528.968 442.233 529.232 442.062C529.52 441.874 529.704 441.598 529.783 441.231C529.864 440.856 529.86 440.483 529.77 440.114L530.054 440.147C530.159 440.603 530.138 441.053 529.992 441.495C529.847 441.928 529.581 442.271 529.194 442.522C528.754 442.809 528.34 442.912 527.954 442.832C527.568 442.752 527.237 442.5 526.96 442.074C526.517 441.393 526.346 440.641 526.445 439.818C526.55 438.991 526.946 438.354 527.633 437.907Z" fill="white"/>
<path d="M529.638 435.09L529.369 434.986C529.375 434.134 529.707 433.495 530.364 433.067C531.427 432.376 532.406 432.72 533.303 434.098C533.576 434.518 533.797 435 533.967 435.543C534.139 436.077 534.242 436.628 534.277 437.195C534.313 437.752 534.224 438.295 534.007 438.823C533.793 439.341 533.455 439.752 532.991 440.053C532.768 440.198 532.555 440.288 532.352 440.323C531.766 440.462 531.275 440.228 530.881 439.621C530.604 439.196 530.43 438.716 530.358 438.181C530.292 437.643 530.355 437.118 530.548 436.605C530.743 436.082 531.066 435.674 531.518 435.38C531.988 435.075 532.442 435.074 532.882 435.377C532.808 435.199 532.735 435.029 532.662 434.866C532.584 434.707 532.491 434.546 532.384 434.381C531.724 433.366 531.053 433.079 530.372 433.522C529.891 433.835 529.646 434.358 529.638 435.09ZM533.08 439.632C533.321 439.475 533.48 439.226 533.559 438.884C533.643 438.539 533.669 438.212 533.635 437.903C533.603 437.584 533.543 437.28 533.455 436.991C533.344 436.627 533.192 436.298 533 436.003C532.845 435.764 532.664 435.595 532.458 435.496C532.253 435.387 532.036 435.407 531.807 435.555C531.555 435.72 531.378 435.968 531.277 436.3C531.181 436.629 531.154 436.978 531.193 437.347C531.239 437.713 531.32 438.068 531.435 438.413C531.551 438.758 531.684 439.046 531.836 439.279C531.987 439.511 532.173 439.669 532.394 439.751C532.616 439.824 532.845 439.784 533.08 439.632Z" fill="white"/>
<path d="M537.016 431.926L537.853 431.381C537.904 431.614 538.033 432.172 538.24 433.055C538.261 433.139 538.286 433.255 538.317 433.405C538.349 433.545 538.372 433.643 538.384 433.7C538.404 433.784 538.428 433.897 538.455 434.041C538.488 434.181 538.509 434.265 538.517 434.291C538.545 434.411 538.582 434.564 538.629 434.752C538.663 434.907 538.686 434.993 538.697 435.01C538.735 435.147 538.784 435.26 538.843 435.351C538.943 435.504 539.075 435.527 539.239 435.42C539.427 435.298 539.535 435.091 539.562 434.799C539.589 434.507 539.572 434.223 539.51 433.949C539.452 433.744 539.4 433.6 539.354 433.517L539.646 433.521C539.83 433.959 539.889 434.429 539.823 434.931C539.76 435.425 539.54 435.794 539.165 436.038C538.953 436.175 538.754 436.241 538.565 436.234C538.374 436.221 538.215 436.119 538.089 435.926C538.067 435.892 538.033 435.826 537.985 435.727C537.976 435.701 537.964 435.669 537.948 435.631C537.933 435.583 537.921 435.551 537.91 435.534C537.942 436.393 537.694 436.994 537.166 437.338C536.919 437.498 536.671 437.559 536.42 437.52C536.169 437.482 535.968 437.346 535.817 437.113C535.695 436.926 535.602 436.712 535.537 436.472L534.891 433.647L534.098 434.162L534.031 433.867L535.631 432.705L536.352 435.894C536.424 436.21 536.51 436.445 536.609 436.598C536.687 436.717 536.781 436.785 536.892 436.801C537.007 436.824 537.117 436.8 537.223 436.732C537.499 436.552 537.655 436.241 537.692 435.797C537.726 435.347 537.694 434.907 537.598 434.477L537.016 431.926Z" fill="white"/>
<path d="M540.864 429.266L541.392 431.599L542.774 430.7L542.283 428.5L543.12 427.956C543.171 428.189 543.3 428.747 543.507 429.63C543.528 429.713 543.553 429.83 543.584 429.979C543.616 430.119 543.639 430.218 543.651 430.275C543.671 430.358 543.695 430.472 543.722 430.616C543.755 430.756 543.776 430.839 543.784 430.866C543.812 430.985 543.849 431.139 543.896 431.326C543.936 431.478 543.959 431.564 543.964 431.585C544.002 431.721 544.051 431.835 544.11 431.925C544.217 432.09 544.353 432.119 544.517 432.012C544.834 431.806 544.905 431.311 544.731 430.529C544.673 430.324 544.625 430.186 544.586 430.114L544.877 430.119C545.249 431.346 545.11 432.171 544.458 432.595C544.305 432.695 544.172 432.753 544.058 432.77C543.819 432.789 543.624 432.726 543.472 432.582C543.405 432.53 543.341 432.458 543.282 432.367C543.201 432.242 543.135 432.096 543.084 431.927C543.033 431.758 542.965 431.5 542.88 431.151L542.835 430.987L541.453 431.886L541.964 434.096L541.127 434.641L540.126 430.23L539.298 430.769L539.228 430.487L540.864 429.266Z" fill="white"/>
<path d="M547.327 425.22L548.163 424.676C548.214 424.909 548.343 425.467 548.55 426.35C548.571 426.433 548.596 426.55 548.627 426.699C548.66 426.839 548.682 426.938 548.694 426.995C548.715 427.078 548.739 427.192 548.765 427.336C548.798 427.476 548.819 427.559 548.828 427.586C548.855 427.705 548.892 427.859 548.939 428.046C548.973 428.202 548.996 428.288 549.007 428.305C549.046 428.441 549.094 428.555 549.153 428.645C549.253 428.799 549.385 428.822 549.549 428.715C549.737 428.593 549.845 428.386 549.872 428.093C549.899 427.801 549.882 427.518 549.82 427.243C549.762 427.039 549.711 426.895 549.665 426.811L549.956 426.816C550.14 427.253 550.199 427.723 550.134 428.226C550.07 428.719 549.851 429.088 549.475 429.332C549.264 429.47 549.064 429.535 548.876 429.528C548.684 429.516 548.525 429.413 548.4 429.22C548.378 429.186 548.343 429.12 548.296 429.022C548.287 428.995 548.274 428.963 548.258 428.925C548.244 428.878 548.231 428.846 548.22 428.829C548.252 429.688 548.004 430.289 547.476 430.632C547.23 430.793 546.981 430.854 546.73 430.815C546.479 430.776 546.278 430.64 546.127 430.408C546.005 430.221 545.912 430.007 545.848 429.766L545.201 426.942L544.409 427.457L544.342 427.161L545.942 426L546.662 429.188C546.734 429.504 546.82 429.739 546.92 429.892C546.997 430.012 547.091 430.079 547.202 430.096C547.317 430.118 547.427 430.095 547.533 430.026C547.809 429.847 547.965 429.535 548.002 429.091C548.036 428.642 548.005 428.202 547.909 427.772L547.327 425.22Z" fill="white"/>
<path d="M553.736 424.418C553.99 424.809 554.018 425.288 553.818 425.854C553.618 426.42 553.307 426.84 552.884 427.115C552.455 427.394 552.039 427.479 551.634 427.371C551.23 427.263 550.889 426.996 550.612 426.57C550.166 425.884 550.014 425.123 550.156 424.288C550.298 423.453 550.718 422.809 551.416 422.354C551.663 422.194 551.922 422.098 552.194 422.067C552.466 422.035 552.672 422.127 552.812 422.343C553.015 422.655 553.033 423.003 552.864 423.386C552.696 423.77 552.45 424.136 552.125 424.485C552.143 424.473 552.162 424.457 552.181 424.436C552.201 424.415 552.22 424.399 552.238 424.387C552.93 423.937 553.43 423.947 553.736 424.418ZM551.186 425.507C551.262 425.7 551.384 425.927 551.554 426.188C551.724 426.449 551.923 426.646 552.152 426.78C552.383 426.904 552.619 426.888 552.86 426.731C553.118 426.563 553.242 426.317 553.232 425.993C553.227 425.665 553.136 425.365 552.959 425.093C552.686 424.673 552.333 424.604 551.898 424.887C551.775 424.967 551.645 425.063 551.51 425.176C551.352 425.319 551.244 425.429 551.186 425.507ZM552.108 423.648C552.142 423.368 552.08 423.105 551.922 422.861C551.763 422.617 551.56 422.576 551.314 422.736C551.032 422.919 550.884 423.282 550.869 423.824C550.854 424.367 550.922 424.831 551.073 425.217C551.382 424.96 551.62 424.716 551.788 424.486C551.958 424.246 552.064 423.967 552.108 423.648Z" fill="white"/>
<path d="M558.4 418.018L559.237 417.474L560.056 421.046C560.098 421.213 560.146 421.339 560.202 421.424C560.312 421.594 560.462 421.618 560.649 421.496C560.831 421.377 560.933 421.174 560.954 420.886C560.982 420.594 560.962 420.307 560.897 420.027C560.839 419.822 560.789 419.681 560.747 419.604L561.038 419.608C561.223 420.021 561.284 420.481 561.223 420.99C561.161 421.498 560.948 421.871 560.584 422.108C560.449 422.195 560.319 422.26 560.195 422.3C560.079 422.327 559.976 422.329 559.886 422.307C559.791 422.288 559.712 422.251 559.65 422.194C559.586 422.147 559.526 422.081 559.471 421.996C559.453 421.967 559.42 421.904 559.372 421.806C559.363 421.779 559.349 421.744 559.329 421.701C559.315 421.653 559.304 421.624 559.297 421.613C559.351 422.466 559.131 423.053 558.638 423.373C558.327 423.576 558.042 423.632 557.783 423.542C557.561 423.484 557.382 423.35 557.246 423.14L557.179 423.038C557.236 423.857 556.991 424.444 556.445 424.799C556.193 424.963 555.941 425.026 555.69 424.987C555.436 424.943 555.229 424.799 555.071 424.555C555.004 424.453 554.955 424.351 554.923 424.251C554.9 424.202 554.864 424.096 554.817 423.933L554.179 421.103L553.369 421.63L553.302 421.334L554.92 420.161L555.648 423.38C555.694 423.568 555.733 423.704 555.763 423.79C555.8 423.911 555.843 424.008 555.891 424.082C555.946 424.167 556.035 424.226 556.157 424.26C556.264 424.296 556.385 424.269 556.52 424.182C556.778 424.014 556.919 423.724 556.944 423.312C556.975 422.897 556.946 422.48 556.857 422.061L556.252 419.416L557.088 418.872L557.757 421.827C557.817 422.047 557.862 422.207 557.894 422.307C557.944 422.46 557.994 422.577 558.046 422.656C558.208 422.906 558.422 422.945 558.686 422.773C558.932 422.613 559.069 422.322 559.096 421.901C559.125 421.47 559.095 421.058 559.006 420.664L558.4 418.018Z" fill="white"/>
<path d="M563.493 414.706L564.329 414.162C564.381 414.395 564.51 414.953 564.716 415.836C564.737 415.919 564.763 416.036 564.793 416.185C564.826 416.325 564.848 416.424 564.86 416.481C564.881 416.564 564.905 416.678 564.932 416.822C564.964 416.962 564.985 417.045 564.994 417.072C565.021 417.191 565.059 417.345 565.105 417.532C565.14 417.688 565.162 417.774 565.173 417.791C565.212 417.927 565.261 418.041 565.32 418.131C565.419 418.285 565.551 418.308 565.716 418.201C565.904 418.079 566.011 417.872 566.038 417.579C566.065 417.287 566.048 417.004 565.986 416.729C565.929 416.525 565.877 416.381 565.831 416.297L566.122 416.302C566.306 416.739 566.365 417.209 566.3 417.712C566.236 418.205 566.017 418.574 565.641 418.818C565.43 418.956 565.23 419.021 565.042 419.014C564.85 419.002 564.691 418.899 564.566 418.706C564.544 418.672 564.509 418.606 564.462 418.508C564.453 418.481 564.44 418.449 564.424 418.411C564.41 418.364 564.397 418.332 564.386 418.315C564.419 419.174 564.171 419.775 563.642 420.118C563.396 420.279 563.147 420.34 562.896 420.301C562.646 420.262 562.445 420.126 562.293 419.894C562.172 419.707 562.078 419.493 562.014 419.252L561.367 416.428L560.575 416.943L560.508 416.647L562.108 415.486L562.828 418.674C562.9 418.99 562.986 419.225 563.086 419.378C563.163 419.498 563.258 419.565 563.369 419.582C563.483 419.604 563.594 419.581 563.699 419.512C563.975 419.333 564.132 419.021 564.169 418.577C564.202 418.128 564.171 417.688 564.075 417.258L563.493 414.706Z" fill="white"/>
<path d="M568.194 412.375C568.116 412.256 568.028 412.185 567.929 412.16C567.823 412.14 567.706 412.172 567.577 412.256C567.272 412.454 567.118 412.853 567.115 413.452C567.112 414.052 567.201 414.555 567.382 414.962C567.569 414.8 567.701 414.674 567.776 414.584C568.051 414.301 568.239 413.941 568.339 413.504C568.441 413.058 568.393 412.682 568.194 412.375ZM567.507 411.974C567.789 411.791 568.07 411.685 568.352 411.655C568.63 411.62 568.848 411.724 569.006 411.968C569.165 412.212 569.223 412.493 569.179 412.812C569.136 413.131 569.017 413.442 568.822 413.747C568.63 414.041 568.42 414.315 568.192 414.568C567.966 414.812 567.734 415.027 567.497 415.214C567.598 415.422 567.683 415.578 567.749 415.68C567.926 415.952 568.131 416.138 568.362 416.237C568.594 416.337 568.842 416.301 569.106 416.129C569.394 415.942 569.577 415.665 569.657 415.299C569.738 414.923 569.734 414.55 569.644 414.181L569.928 414.214C570.033 414.67 570.012 415.12 569.866 415.562C569.721 415.995 569.455 416.338 569.068 416.59C568.628 416.876 568.214 416.979 567.828 416.9C567.442 416.82 567.111 416.567 566.834 416.142C566.391 415.461 566.22 414.709 566.319 413.885C566.424 413.058 566.82 412.421 567.507 411.974Z" fill="white"/>
<path d="M474.415 484.627C474.668 484.463 474.906 484.405 475.129 484.453C475.355 484.492 475.545 484.631 475.7 484.869C475.818 485.05 475.927 485.315 476.027 485.661C476.034 485.697 476.051 485.775 476.079 485.894C476.103 486.008 476.122 486.096 476.138 486.158C476.15 486.215 476.168 486.308 476.194 486.437C476.219 486.566 476.238 486.659 476.249 486.715C476.259 486.782 476.275 486.877 476.297 487C476.324 487.119 476.343 487.2 476.353 487.241C476.394 487.457 476.419 487.586 476.429 487.628C476.451 487.751 476.489 487.855 476.545 487.94C476.593 488.014 476.658 488.056 476.74 488.067C476.807 488.08 476.879 488.062 476.955 488.012C477.131 487.898 477.238 487.715 477.276 487.465C477.315 487.205 477.311 486.974 477.263 486.771C477.217 486.559 477.153 486.346 477.073 486.132L477.364 486.136C477.429 486.352 477.48 486.565 477.516 486.775C477.549 486.98 477.563 487.201 477.559 487.438C477.554 487.675 477.503 487.898 477.405 488.107C477.304 488.31 477.159 488.473 476.971 488.595C476.724 488.756 476.49 488.832 476.267 488.823C476.05 488.811 475.866 488.688 475.715 488.456C475.656 488.365 475.605 488.236 475.564 488.07C475.541 487.931 475.505 487.761 475.457 487.558C475.355 487.043 475.275 486.655 475.215 486.396C475.151 486.13 475.118 485.99 475.116 485.975C475.105 485.918 475.081 485.837 475.045 485.731C475.005 485.644 474.967 485.572 474.93 485.515C474.768 485.265 474.566 485.219 474.325 485.375C474.149 485.49 474.018 485.68 473.932 485.946C473.848 486.202 473.81 486.49 473.816 486.808C473.823 487.127 473.844 487.416 473.879 487.676C473.915 487.935 473.96 488.185 474.015 488.423L474.397 490.148L473.561 490.692L472.556 486.296L471.764 486.812L471.697 486.516L473.127 485.44C473.279 485.713 473.398 486.023 473.482 486.372L473.566 486.693L473.603 486.693C473.612 486.219 473.669 485.811 473.772 485.469C473.878 485.118 474.092 484.837 474.415 484.627Z" fill="white"/>
<path d="M478.744 481.812C479.237 481.491 479.705 481.369 480.146 481.444C480.588 481.52 480.961 481.791 481.263 482.256C481.676 482.891 481.816 483.62 481.682 484.442C481.545 485.258 481.153 485.875 480.507 486.295C480.032 486.605 479.575 486.737 479.136 486.691C478.703 486.642 478.34 486.393 478.049 485.945C477.606 485.264 477.441 484.516 477.554 483.7C477.666 482.884 478.063 482.255 478.744 481.812ZM479.03 485.585C479.2 485.846 479.381 486.027 479.572 486.129C479.799 486.272 480.05 486.254 480.326 486.074C480.625 485.88 480.798 485.541 480.844 485.06C480.89 484.578 480.849 484.104 480.721 483.638C480.59 483.166 480.426 482.78 480.231 482.479C479.965 482.071 479.665 481.866 479.331 481.866C479.219 481.874 479.101 481.918 478.978 481.998C478.661 482.205 478.475 482.548 478.42 483.028C478.37 483.504 478.407 483.972 478.531 484.432C478.661 484.889 478.827 485.273 479.03 485.585Z" fill="white"/>
<path d="M483.355 484.322L482.376 479.946L481.583 480.461L481.522 480.174L483.109 478.973L483.586 481.133L484.062 480.823C484.379 480.617 484.517 480.329 484.477 479.96L484.35 478.82C484.297 478.418 484.415 478.123 484.703 477.936C484.89 477.814 485.081 477.767 485.274 477.795C485.464 477.816 485.618 477.918 485.736 478.1C485.821 478.23 485.851 478.38 485.828 478.549C485.806 478.708 485.731 478.83 485.601 478.914C485.49 478.986 485.374 479.013 485.253 478.995C485.133 478.977 485.037 478.913 484.967 478.806C484.901 478.704 484.873 478.584 484.885 478.448C484.884 478.319 484.937 478.2 485.041 478.091C484.984 478.08 484.914 478.101 484.832 478.155C484.762 478.201 484.71 478.263 484.677 478.34C484.641 478.413 484.62 478.478 484.617 478.537C484.619 478.592 484.624 478.67 484.631 478.77L484.754 479.768C484.777 479.971 484.777 480.132 484.755 480.252C484.732 480.371 484.669 480.505 484.565 480.653C484.827 480.556 485.054 480.525 485.245 480.562C485.433 480.594 485.596 480.717 485.737 480.933C485.807 481.041 485.862 481.203 485.902 481.419L485.918 481.481C485.932 481.593 485.967 481.691 486.022 481.776C486.066 481.844 486.13 481.884 486.212 481.895C486.279 481.908 486.348 481.892 486.418 481.846C486.571 481.747 486.66 481.576 486.686 481.333C486.714 481.08 486.705 480.848 486.659 480.636C486.613 480.424 486.553 480.216 486.48 480.014L486.771 480.018C486.92 480.478 486.979 480.948 486.948 481.428C486.914 481.902 486.727 482.25 486.387 482.472C486.175 482.609 485.968 482.675 485.764 482.671C485.561 482.666 485.394 482.564 485.265 482.366C485.206 482.275 485.156 482.146 485.114 481.979L485.03 481.562C485.022 481.51 485.003 481.442 484.973 481.357C484.933 481.27 484.894 481.198 484.857 481.141C484.699 480.897 484.467 480.875 484.161 481.073L483.651 481.405L484.192 483.778L483.355 484.322Z" fill="white"/>
<path d="M488.263 475.621C488.756 475.3 489.224 475.178 489.666 475.253C490.108 475.329 490.48 475.6 490.782 476.065C491.196 476.7 491.335 477.429 491.201 478.251C491.064 479.067 490.672 479.685 490.026 480.105C489.551 480.414 489.094 480.546 488.655 480.5C488.222 480.451 487.86 480.202 487.568 479.754C487.125 479.073 486.96 478.325 487.073 477.509C487.185 476.693 487.582 476.064 488.263 475.621ZM488.549 479.394C488.719 479.655 488.9 479.836 489.091 479.938C489.318 480.081 489.569 480.063 489.845 479.883C490.144 479.689 490.317 479.35 490.363 478.869C490.409 478.387 490.368 477.913 490.24 477.447C490.109 476.975 489.945 476.589 489.75 476.288C489.484 475.88 489.184 475.676 488.85 475.675C488.738 475.683 488.621 475.727 488.497 475.807C488.18 476.014 487.994 476.357 487.939 476.837C487.889 477.313 487.926 477.781 488.05 478.241C488.18 478.698 488.347 479.082 488.549 479.394Z" fill="white"/>
<path d="M494.275 474.871L493.731 472.513L492.859 473.08C493.084 473.926 493.256 474.654 493.376 475.262C493.612 476.408 493.644 477.195 493.47 477.622C493.374 477.847 493.232 478.02 493.044 478.142C492.839 478.276 492.635 478.323 492.435 478.284C492.224 478.243 492.057 478.126 491.931 477.933C491.839 477.792 491.806 477.639 491.834 477.476C491.858 477.307 491.94 477.177 492.081 477.085C492.204 477.005 492.32 476.978 492.429 477.004C492.544 477.026 492.64 477.097 492.718 477.216C492.799 477.341 492.831 477.461 492.814 477.577C492.79 477.681 492.74 477.791 492.664 477.905C492.729 477.927 492.802 477.912 492.885 477.858C493.184 477.664 493.304 477.206 493.245 476.486C493.188 475.756 492.966 474.721 492.58 473.382L491.785 473.778L491.635 473.549L494.497 471.687C494.548 471.92 494.677 472.478 494.884 473.361C494.905 473.444 494.93 473.561 494.961 473.711C494.994 473.851 495.016 473.949 495.028 474.006C495.049 474.09 495.073 474.203 495.099 474.347C495.132 474.487 495.153 474.571 495.162 474.597C495.189 474.717 495.226 474.87 495.273 475.058C495.313 475.209 495.336 475.295 495.341 475.316C495.378 475.437 495.426 475.543 495.485 475.634C495.592 475.799 495.734 475.824 495.91 475.709C496.133 475.564 496.241 475.28 496.233 474.857C496.225 474.434 496.15 474.088 496.008 473.817L496.299 473.822C496.472 474.306 496.538 474.78 496.496 475.243C496.455 475.706 496.243 476.061 495.862 476.309C495.727 476.397 495.601 476.455 495.485 476.482C495.153 476.536 494.887 476.41 494.688 476.104C494.6 475.968 494.53 475.815 494.479 475.647C494.427 475.478 494.36 475.22 494.275 474.871Z" fill="white"/>
<path d="M498.366 469.898C498.288 469.779 498.2 469.707 498.101 469.683C497.996 469.662 497.878 469.694 497.749 469.778C497.444 469.977 497.29 470.376 497.287 470.975C497.284 471.574 497.373 472.077 497.554 472.484C497.741 472.322 497.873 472.196 497.948 472.107C498.223 471.823 498.411 471.463 498.511 471.026C498.613 470.58 498.565 470.204 498.366 469.898ZM497.679 469.497C497.961 469.314 498.242 469.207 498.524 469.178C498.802 469.142 499.02 469.247 499.178 469.49C499.337 469.734 499.395 470.016 499.352 470.335C499.308 470.653 499.189 470.965 498.994 471.269C498.802 471.564 498.592 471.838 498.364 472.091C498.138 472.335 497.906 472.55 497.669 472.737C497.771 472.945 497.855 473.1 497.921 473.202C498.098 473.474 498.303 473.66 498.534 473.76C498.766 473.859 499.014 473.823 499.278 473.651C499.566 473.464 499.749 473.188 499.829 472.821C499.91 472.446 499.906 472.073 499.816 471.704L500.1 471.736C500.205 472.193 500.184 472.643 500.038 473.085C499.893 473.518 499.627 473.86 499.24 474.112C498.8 474.399 498.386 474.502 498 474.422C497.614 474.342 497.283 474.09 497.006 473.664C496.563 472.983 496.392 472.231 496.491 471.408C496.596 470.581 496.992 469.944 497.679 469.497Z" fill="white"/>
<path d="M501.477 466.991L502.004 469.324L503.387 468.424L502.896 466.225L503.733 465.681C503.784 465.914 503.913 466.472 504.119 467.355C504.14 467.438 504.166 467.555 504.196 467.704C504.229 467.844 504.251 467.943 504.263 468C504.284 468.083 504.308 468.197 504.335 468.341C504.367 468.481 504.388 468.564 504.397 468.591C504.425 468.71 504.462 468.864 504.509 469.051C504.549 469.203 504.571 469.289 504.577 469.31C504.615 469.446 504.664 469.56 504.723 469.65C504.83 469.815 504.966 469.844 505.13 469.737C505.447 469.531 505.518 469.036 505.343 468.254C505.286 468.049 505.237 467.911 505.199 467.839L505.49 467.844C505.862 469.071 505.722 469.896 505.071 470.32C504.918 470.419 504.785 470.478 504.671 470.495C504.432 470.514 504.237 470.451 504.085 470.307C504.017 470.255 503.954 470.183 503.895 470.092C503.814 469.967 503.748 469.821 503.696 469.652C503.645 469.483 503.577 469.225 503.493 468.876L503.448 468.712L502.066 469.611L502.576 471.821L501.74 472.365L500.739 467.955L499.911 468.493L499.841 468.212L501.477 466.991Z" fill="white"/>
<path d="M507.939 462.945L508.776 462.401C508.827 462.634 508.956 463.192 509.163 464.075C509.184 464.158 509.209 464.275 509.24 464.424C509.272 464.564 509.295 464.663 509.307 464.72C509.327 464.803 509.351 464.917 509.378 465.061C509.411 465.201 509.432 465.284 509.44 465.311C509.468 465.43 509.505 465.584 509.552 465.771C509.586 465.926 509.609 466.013 509.62 466.03C509.658 466.166 509.707 466.28 509.766 466.37C509.866 466.524 509.998 466.547 510.162 466.44C510.35 466.318 510.458 466.11 510.485 465.818C510.512 465.526 510.495 465.243 510.433 464.968C510.375 464.764 510.323 464.62 510.278 464.536L510.569 464.541C510.753 464.978 510.812 465.448 510.746 465.951C510.683 466.444 510.463 466.813 510.088 467.057C509.876 467.195 509.677 467.26 509.488 467.253C509.297 467.241 509.138 467.138 509.012 466.945C508.99 466.911 508.956 466.845 508.908 466.747C508.899 466.72 508.887 466.688 508.871 466.65C508.857 466.603 508.844 466.571 508.833 466.554C508.865 467.412 508.617 468.014 508.089 468.357C507.842 468.518 507.594 468.578 507.343 468.54C507.092 468.501 506.891 468.365 506.74 468.133C506.618 467.946 506.525 467.732 506.46 467.491L505.814 464.666L505.021 465.182L504.954 464.886L506.554 463.725L507.275 466.913C507.347 467.229 507.433 467.464 507.532 467.617C507.61 467.736 507.704 467.804 507.815 467.821C507.93 467.843 508.04 467.82 508.146 467.751C508.422 467.572 508.578 467.26 508.615 466.816C508.649 466.367 508.617 465.927 508.521 465.497L507.939 462.945Z" fill="white"/>
<path d="M513.487 462.437L513.469 462.351L513.056 462.621C512.844 462.758 512.724 462.888 512.696 463.012C512.654 463.152 512.657 463.344 512.706 463.586L512.832 464.28C512.923 464.883 512.739 465.333 512.282 465.631C511.953 465.844 511.623 465.825 511.291 465.572L511.328 465.282C511.492 465.458 511.654 465.494 511.812 465.391C511.994 465.272 512.049 465.023 511.977 464.642L511.909 464.19C511.888 464.042 511.882 463.925 511.892 463.837C511.899 463.502 512.107 463.153 512.515 462.791L512.501 462.751C512.251 462.906 511.989 462.984 511.714 462.985C511.441 462.977 511.231 462.859 511.083 462.632C510.836 462.252 510.839 461.826 511.092 461.355C511.345 460.883 511.686 460.508 512.115 460.23L513.691 459.205C513.742 459.438 513.871 459.996 514.078 460.878C514.098 460.962 514.124 461.078 514.155 461.228C514.187 461.368 514.21 461.467 514.221 461.523C514.242 461.607 514.266 461.72 514.293 461.864C514.326 462.005 514.346 462.088 514.355 462.114C514.383 462.234 514.42 462.387 514.467 462.575C514.507 462.726 514.529 462.812 514.535 462.833C514.573 462.97 514.622 463.083 514.681 463.174C514.788 463.339 514.924 463.367 515.088 463.26C515.405 463.054 515.476 462.56 515.301 461.778C515.244 461.573 515.195 461.435 515.157 461.363L515.448 461.367C515.82 462.595 515.68 463.42 515.029 463.844C514.559 464.149 514.173 464.069 513.871 463.604C513.812 463.513 513.752 463.383 513.691 463.212C513.63 463.042 513.562 462.783 513.487 462.437ZM513.399 462.07L512.933 460.024L512.44 460.345C512.123 460.551 511.923 460.834 511.84 461.195C511.754 461.55 511.808 461.878 512.004 462.179C512.247 462.553 512.592 462.595 513.038 462.305L513.399 462.07Z" fill="white"/>
<path d="M516.644 462.055C516.551 461.913 516.524 461.762 516.561 461.6C516.598 461.439 516.69 461.311 516.837 461.215C516.995 461.112 517.151 461.075 517.304 461.105C517.457 461.135 517.583 461.226 517.683 461.379C517.779 461.527 517.808 461.681 517.771 461.843C517.736 461.994 517.642 462.12 517.49 462.219C517.337 462.318 517.181 462.355 517.022 462.329C516.866 462.294 516.739 462.203 516.644 462.055Z" fill="white"/>
<path d="M258.104 304.791L252.122 308.681L274.025 342.359C276.672 346.43 277.81 350.429 277.438 354.358C277.066 358.286 274.928 361.52 271.025 364.058C268.674 365.587 266.258 366.281 263.777 366.139C261.295 365.998 259.333 364.816 257.888 362.596C257.166 361.486 256.918 360.185 257.142 358.693C257.462 357.256 258.314 356.087 259.7 355.186C260.959 354.367 262.207 354.082 263.444 354.331C264.692 354.689 265.691 355.444 266.44 356.596C267.215 357.788 267.445 359.014 267.129 360.273C266.813 361.531 266.046 362.557 264.829 363.348C265.627 364.117 266.866 363.955 268.545 362.863C270.392 361.661 271.185 360.034 270.924 357.98C270.663 355.926 269.864 353.871 268.527 351.815L243.937 314.005L237.955 317.895L236.672 315.921L256.82 302.817L258.104 304.791Z" fill="white"/>
<path d="M279.569 286.793L324.157 317.742L330.139 313.852L331.422 315.825L310.896 329.175L309.612 327.201L315.594 323.311L303.931 314.746L289.512 324.124L292.743 336.944L298.405 334.49L299.688 336.464L285.899 345.432L284.616 343.458L290.436 338.356L277.806 287.94L279.569 286.793ZM283.258 299.491L288.881 321.638L301.852 313.202L283.258 299.491Z" fill="white"/>
<path d="M336.26 250.187L338.337 248.836L347.764 263.331L345.687 264.682C343.039 261.254 339.994 259.051 336.55 258.073C333.08 257.053 329.581 257.69 326.055 259.983C323.705 261.512 322.124 263.535 321.312 266.052C320.515 268.501 320.385 271.102 320.921 273.855C321.499 276.58 322.308 279.155 323.347 281.58C324.387 284.006 325.602 286.287 326.993 288.426C328.383 290.564 329.984 292.566 331.794 294.431C333.578 296.255 335.613 297.915 337.901 299.412C340.188 300.908 342.62 301.755 345.197 301.952C347.789 302.08 350.26 301.379 352.611 299.851C355.675 297.858 357.458 295.089 357.96 291.544C358.504 287.972 357.941 284.535 356.271 281.233L358.286 279.922L367.152 293.554L365.2 294.823L360.565 289.763C360.44 292.418 359.657 294.888 358.215 297.171C356.789 299.386 354.9 301.258 352.55 302.787C346.463 306.745 340.272 307.788 333.976 305.914C327.696 303.972 322.603 299.999 318.699 293.995C316.158 290.089 314.526 285.972 313.802 281.644C313.12 277.29 313.582 273.04 315.187 268.895C316.765 264.709 319.548 261.319 323.535 258.726C328.824 255.286 333.943 254.385 338.891 256.024L336.26 250.187Z" fill="white"/>
<path d="M387.125 220.88L380.097 226.329L376.473 248.171L411.86 260.703L417.905 256.772L419.188 258.745L397.34 272.955L396.056 270.981L401.975 267.132L373.763 256.954L372.441 257.814L385.478 277.861L391.46 273.97L392.744 275.944L372.595 289.048L371.311 287.074L377.293 283.184L351.74 243.893L345.758 247.784L344.474 245.81L364.623 232.706L365.907 234.68L359.925 238.57L370.957 255.532L372.846 254.304L377.2 228.212L371.636 230.953L370.353 228.979L385.842 218.906L387.125 220.88Z" fill="white"/>
<path d="M181.722 359.269C182.623 359.415 184.875 361.062 186.827 364.064C188.528 366.68 188.99 369.491 189.191 372.473C189.72 381.403 189.515 386.052 188.991 386.392C188.599 386.648 187.768 386.516 186.631 385.914C184.015 384.564 183.184 384.433 183.013 384.361C176.073 381.614 170.252 376.674 168.607 374.144C167.77 372.858 167.171 371.173 166.71 369.032C171.382 369.533 173.83 372.151 176.682 376.154C179.199 379.642 181.123 382.601 185.387 383.428C185.441 382.843 185.006 381.601 183.946 379.972C183.556 379.371 179.985 377.605 176.974 372.974C174.185 368.686 173.244 364.661 173.824 362.88C177.567 365.388 180.273 368.022 181.918 370.552C184.261 374.153 184.749 377.863 186.366 380.35C186.673 380.822 187.023 381.265 187.501 381.809C188.379 378.004 186.271 374.189 183.845 368.932C182.122 365.232 181.132 362.277 181.722 359.269ZM190.714 354.763C191.418 355.465 192.286 356.609 193.29 358.152C195.354 361.325 195.718 364.75 195.413 369.341C195.02 375.516 193.047 382.412 192.808 390.256L191.717 390.965C174.689 387.029 164.667 384.7 161.822 380.326C161.181 379.34 160.797 377.699 161.023 375.66C166.998 376.35 170.085 380.81 174.444 383.406C177.808 385.428 180.8 385.923 183.188 386.444C186.248 387.139 188.2 387.944 190.251 386.61C191.386 385.872 191.874 383.663 192.176 379.927C192.475 376.377 192.467 373.881 192.206 372.525C191.623 369.243 189.916 365.472 189.328 361.034C189.001 358.623 189.093 356.855 190.714 354.763ZM211.362 380.02C210.839 381.03 210.555 381.643 210.293 381.813C209.9 382.068 209.384 382.038 208.656 381.779C205.492 380.542 203.075 379.307 199.933 381.351C197.663 382.827 197.107 384.836 196.66 387.872C196.425 389.612 196.276 390.624 195.84 390.908C195.229 391.305 194.212 391.173 193.989 390.83C193.822 390.573 194.034 389.276 194.454 386.867C195.2 382.476 197.422 379.018 201 376.691C203.924 374.789 206.871 374.642 210.389 376.137C213.124 377.287 215.555 379.306 216.754 381.15C217.535 382.35 218.626 386.034 218.37 388.885C218.264 389.869 217.904 390.652 217.337 391.021C217.075 391.192 216.73 391.233 216.356 391.232C216.058 391.06 215.875 390.874 215.708 390.617C214.983 389.502 216.995 386.485 214.373 382.454C213.425 380.996 212.264 380.165 211.362 380.02ZM195.2 392.788C194.844 393.386 194.678 393.799 194.547 393.884L194.503 393.912C193.943 393.911 193.629 393.81 193.434 393.51C193.295 393.295 193.286 392.996 193.368 392.454L193.543 392.34C194.241 391.886 194.627 392.002 195.2 392.788ZM201.496 396.931C202.193 398.003 201.614 400.454 200.392 401.249C198.865 402.242 196.218 401.706 195.131 400.033C194.434 398.961 194.718 396.152 195.984 395.329C197.555 394.308 200.353 395.173 201.496 396.931ZM191.481 392.034L192.122 393.02C192.016 393.334 191.869 393.49 191.694 393.604C191.258 393.887 190.145 393.513 188.198 393.193C184.276 392.509 181.12 393.098 179.2 394.347C177.454 395.482 177.02 397.106 176.942 399.659C176.867 402.027 176.953 403.496 176.124 404.035C175.731 404.291 174.726 404.273 173.198 404.596C173.22 405.68 173.727 406.937 174.731 408.48C175.986 410.41 180.495 411.138 181.611 412.853C182.057 413.539 181.927 414.295 181.316 414.692C179.745 415.714 174.986 413.074 171.862 408.271C169.91 405.27 169.763 401.033 171.793 397.089C172.869 394.925 174.455 393.162 176.244 391.998C178.906 390.267 183.556 389.683 187.964 391.209C189.005 391.569 190.867 391.091 191.481 392.034Z" fill="white"/>
<path d="M273.168 493.241L240.811 514.285L239.562 512.363L245.384 508.577L220.511 470.332L214.689 474.118L213.439 472.197L233.049 459.443L234.299 461.365L228.477 465.151L253.35 503.396L267.935 493.91L262.426 479.808L264.449 478.493L273.168 493.241Z" fill="white"/>
<path d="M299.42 476.851C293.169 480.916 286.83 482.163 280.401 480.591C274.013 478.993 268.841 475.152 264.884 469.068C260.849 462.864 259.378 456.445 260.47 449.812C261.603 443.151 265.254 437.815 271.423 433.803C277.633 429.764 283.971 428.604 290.437 430.322C296.944 432.014 302.175 435.902 306.132 441.986C309.907 447.789 311.172 454.115 309.927 460.961C308.724 467.781 305.221 473.078 299.42 476.851ZM272.673 435.724C270.793 436.946 269.397 438.509 268.484 440.413C267.545 442.277 267.082 444.201 267.094 446.187C267.081 448.132 267.353 450.205 267.912 452.404C268.47 454.604 269.187 456.644 270.061 458.525C270.95 460.339 271.941 462.086 273.035 463.767C275.377 467.37 278.235 470.467 281.606 473.058C284.951 475.61 288.459 476.803 292.13 476.637C294.267 476.614 296.254 476.005 298.093 474.81C300.34 473.348 301.897 471.452 302.765 469.122C303.648 466.725 303.888 464.234 303.485 461.648C303.097 458.996 302.431 456.496 301.486 454.149C300.581 451.775 299.453 449.548 298.099 447.467C297.188 446.066 296.195 444.718 295.12 443.423C294.087 442.102 292.891 440.8 291.535 439.519C290.193 438.17 288.778 437.068 287.291 436.212C285.779 435.317 284.222 434.621 282.62 434.125C281.059 433.602 279.409 433.479 277.671 433.755C275.973 434.005 274.307 434.661 272.673 435.724Z" fill="white"/>
<path d="M338.981 450.439L325.315 459.326L324.065 457.405L329.435 453.058L304.953 415.414L299.131 419.2L297.881 417.279L311.363 408.511L348.881 425.034L331.778 398.737L325.605 401.982L324.355 400.061L338.144 391.094L339.393 393.015L333.923 397.342L360.006 437.448L357.862 438.843L309.479 417.681L331.58 451.663L337.731 448.517L338.981 450.439Z" fill="white"/>
<path d="M387.197 419.08L369.18 430.798L367.931 428.877L373.753 425.09L348.879 386.845L343.058 390.632L341.808 388.71L360.376 376.634C367.526 371.984 374.222 370.079 380.465 370.917C386.722 371.689 392.037 375.437 396.41 382.161C400.888 389.046 402.198 395.797 400.34 402.416C398.523 409.009 394.142 414.563 387.197 419.08ZM381.719 419.909L385.948 417.159C388.195 415.698 389.949 414.015 391.211 412.112C392.488 410.143 393.275 408.179 393.571 406.221C393.882 404.196 393.845 402.084 393.461 399.884C393.051 397.645 392.404 395.532 391.518 393.545C390.648 391.491 389.561 389.463 388.26 387.462C386.49 384.74 384.67 382.478 382.8 380.675C380.971 378.846 378.965 377.417 376.784 376.386C374.602 375.356 372.232 375.018 369.672 375.373C367.086 375.688 364.404 376.749 361.626 378.555L356.846 381.664L381.719 419.909Z" fill="white"/>
<path d="M437.065 387.331C430.814 391.397 424.475 392.644 418.046 391.072C411.658 389.474 406.486 385.633 402.529 379.549C398.494 373.345 397.023 366.926 398.115 360.292C399.248 353.632 402.899 348.296 409.068 344.283C415.278 340.245 421.616 339.084 428.082 340.803C434.589 342.494 439.82 346.382 443.777 352.466C447.552 358.27 448.817 364.595 447.572 371.442C446.369 378.262 442.866 383.558 437.065 387.331ZM410.318 346.205C408.438 347.427 407.042 348.99 406.129 350.894C405.19 352.757 404.727 354.682 404.739 356.667C404.726 358.613 404.998 360.685 405.557 362.885C406.115 365.085 406.832 367.125 407.706 369.005C408.595 370.819 409.586 372.567 410.679 374.248C413.022 377.85 415.879 380.947 419.251 383.539C422.596 386.091 426.104 387.283 429.775 387.117C431.912 387.095 433.899 386.486 435.737 385.29C437.984 383.829 439.542 381.933 440.41 379.603C441.293 377.206 441.533 374.715 441.13 372.129C440.742 369.476 440.076 366.977 439.131 364.629C438.226 362.256 437.097 360.028 435.744 357.947C434.833 356.546 433.84 355.198 432.765 353.904C431.732 352.582 430.536 351.281 429.18 349.999C427.837 348.651 426.423 347.549 424.936 346.693C423.424 345.797 421.866 345.101 420.265 344.605C418.704 344.082 417.054 343.959 415.316 344.236C413.618 344.485 411.952 345.142 410.318 346.205Z" fill="white"/>
<path d="M476.626 360.919L462.96 369.807L461.71 367.886L467.08 363.539L442.598 325.894L436.776 329.681L435.526 327.759L449.008 318.991L486.526 335.514L469.423 309.217L463.25 312.463L462 310.542L475.789 301.574L477.038 303.495L471.568 307.822L497.651 347.928L495.506 349.323L447.124 328.162L469.225 362.144L475.376 358.998L476.626 360.919Z" fill="white"/>
<path d="M310.391 546.786L307.557 548.629L313.199 573.353L316.064 571.49L316.322 572.507L307.602 578.178L307.344 577.161L310.208 575.298L305.115 553.07L303.721 581.097L302.903 581.63L291.42 561.976L296.296 583.732L299.284 582.403L299.542 583.42L292.49 588.006L292.232 586.989L295.32 584.367L289.927 560.095L287.094 561.937L286.867 560.9L292.471 557.255L302.976 575.13L304.277 549.577L310.164 545.749L310.391 546.786Z" fill="white"/>
<path d="M324.823 565.179C325.725 564.592 326.236 563.426 326.355 561.681C326.482 559.902 326.36 558.313 325.989 556.916L325.653 555.643C325.537 555.28 325.357 554.797 325.114 554.194C324.856 553.659 324.574 553.156 324.266 552.683C323.277 551.161 322.184 550.79 320.987 551.568C320.001 552.209 319.421 553.362 319.249 555.025C319.062 556.667 319.173 558.307 319.58 559.943C320.009 561.566 320.557 562.892 321.226 563.92C321.681 564.619 322.226 565.113 322.861 565.402C323.497 565.69 324.151 565.616 324.823 565.179ZM325.963 546.269L326.888 546.107L329.763 558.587C329.947 559.374 330.153 559.943 330.38 560.292C330.781 560.909 331.296 561.013 331.926 560.603C332.43 560.276 332.712 559.653 332.772 558.736C332.82 557.799 332.758 556.946 332.588 556.179C332.425 555.378 332.233 554.669 332.011 554.053L333.056 554.075C333.427 555.151 333.667 556.209 333.777 557.249C333.886 558.29 333.77 559.375 333.429 560.504C333.096 561.598 332.478 562.439 331.575 563.026C330.967 563.422 330.345 563.592 329.712 563.536C329.049 563.528 328.471 563.143 327.976 562.382C327.615 561.827 327.368 561.242 327.236 560.625C327.31 562.07 327.112 563.442 326.643 564.741C326.174 566.041 325.384 567.053 324.271 567.776C323.159 568.499 322.031 568.648 320.888 568.221C319.765 567.781 318.836 566.996 318.101 565.865C317.191 564.467 316.536 562.816 316.134 560.912C315.74 558.974 315.787 557.027 316.277 555.07C316.753 553.093 317.736 551.62 319.226 550.651C320.318 549.941 321.364 549.714 322.367 549.969C323.376 550.19 324.229 550.835 324.924 551.904L325.963 546.269Z" fill="white"/>
<path d="M340.549 536.783C341.221 536.346 341.89 536.204 342.556 536.355C343.222 536.507 343.769 536.912 344.197 537.57C344.518 538.064 344.652 538.591 344.599 539.152C344.532 539.693 344.247 540.127 343.743 540.454C343.324 540.727 342.897 540.829 342.464 540.76C342.038 540.656 341.692 540.399 341.424 539.988C340.863 539.124 340.974 538.262 341.758 537.401C341.723 537.394 341.668 537.401 341.592 537.421C341.536 537.428 341.481 537.435 341.426 537.442C341.273 537.482 341.113 537.557 340.945 537.667C340.231 538.131 339.727 538.985 339.432 540.231C339.158 541.462 339.087 542.869 339.219 544.45C339.373 546.018 339.547 547.411 339.743 548.63C339.945 549.814 340.177 550.951 340.437 552.04L341.396 556.2L338.405 558.145L334.732 542.234L331.898 544.077L331.652 543.008L336.668 539.219C337.524 540.535 338.092 542.418 338.372 544.869L338.507 544.87C338.414 543.993 338.361 543.268 338.345 542.693C338.337 542.083 338.369 541.375 338.441 540.567C338.521 539.726 338.74 538.983 339.099 538.341C339.457 537.698 339.941 537.179 340.549 536.783Z" fill="white"/>
<path d="M347.96 524.371L348.842 523.798L350.466 530.772L354.212 528.336L354.45 529.322L350.672 531.779L353.304 543.058C353.482 543.79 353.718 544.383 354.012 544.835C354.239 545.185 354.555 545.418 354.96 545.535C355.344 545.666 355.808 545.554 356.354 545.199C357.257 544.612 357.825 543.672 358.059 542.379C358.293 541.085 358.303 539.792 358.088 538.498L359.13 538.654C359.314 540.085 359.298 541.368 359.081 542.504C358.864 543.64 358.368 544.737 357.594 545.797C357.184 546.268 356.738 546.661 356.255 546.975C355.268 547.617 354.296 547.913 353.338 547.863C352.387 547.779 351.604 547.264 350.989 546.318C350.802 546.03 350.64 545.712 350.502 545.362C350.349 545.081 350.226 544.708 350.132 544.243L347.682 533.724L345.383 535.219L345.145 534.233L347.475 532.717L347.96 524.371Z" fill="white"/>
<path d="M355.696 527.371L361.48 523.039L364.525 536.33C364.611 536.83 364.788 537.286 365.055 537.697C365.47 538.334 365.971 538.462 366.558 538.08C366.894 537.861 367.143 537.509 367.305 537.024C367.589 536.312 367.652 535.423 367.495 534.354C367.359 533.273 367.107 532.311 366.738 531.468L367.783 531.49C369.041 535.997 368.59 538.953 366.428 540.359C365.63 540.878 364.847 541.051 364.078 540.878C363.308 540.705 362.663 540.218 362.141 539.416C361.673 538.697 361.343 537.844 361.149 536.858L358.819 526.524L355.954 528.388L355.696 527.371ZM359.317 520.54C358.813 520.867 358.266 520.989 357.674 520.906C357.09 520.789 356.637 520.483 356.316 519.99C355.982 519.476 355.886 518.938 356.029 518.377C356.159 517.796 356.486 517.334 357.01 516.993C357.514 516.665 358.041 516.557 358.591 516.667C359.161 516.764 359.607 517.059 359.928 517.553C360.236 518.026 360.331 518.563 360.215 519.165C360.099 519.768 359.8 520.226 359.317 520.54Z" fill="white"/>
<path d="M376.262 513.557C377.164 512.97 378.017 512.766 378.821 512.946C379.632 513.091 380.318 513.595 380.88 514.459C381.308 515.117 381.705 516.072 382.073 517.326C382.097 517.456 382.161 517.737 382.262 518.168C382.35 518.579 382.423 518.897 382.48 519.123C382.524 519.329 382.593 519.664 382.687 520.13C382.781 520.596 382.849 520.931 382.893 521.136C382.93 521.376 382.988 521.718 383.069 522.164C383.17 522.595 383.24 522.886 383.278 523.037C383.427 523.817 383.521 524.283 383.559 524.434C383.64 524.879 383.78 525.255 383.981 525.564C384.155 525.831 384.39 525.986 384.685 526.027C384.926 526.076 385.183 526.011 385.456 525.834C386.085 525.424 386.465 524.768 386.594 523.864C386.731 522.927 386.71 522.092 386.532 521.359C386.362 520.592 386.13 519.822 385.835 519.048L386.881 519.07C387.12 519.851 387.307 520.621 387.443 521.381C387.565 522.121 387.621 522.918 387.61 523.774C387.599 524.63 387.42 525.433 387.073 526.186C386.713 526.917 386.197 527.502 385.525 527.939C384.644 528.512 383.803 528.781 383.003 528.745C382.225 528.695 381.561 528.249 381.013 527.406C380.799 527.077 380.616 526.611 380.463 526.009C380.376 525.509 380.244 524.893 380.066 524.16C379.691 522.297 379.393 520.897 379.171 519.959C378.936 519 378.815 518.493 378.809 518.439C378.765 518.233 378.678 517.939 378.548 517.555C378.403 517.24 378.264 516.98 378.13 516.774C377.542 515.869 376.817 515.697 375.957 516.257C375.327 516.666 374.861 517.35 374.558 518.307C374.262 519.231 374.13 520.268 374.161 521.418C374.193 522.568 374.274 523.612 374.407 524.55C374.539 525.488 374.706 526.388 374.909 527.251L376.321 533.486L373.33 535.431L369.625 519.54L366.792 521.383L366.545 520.315L371.657 516.464C372.209 517.451 372.641 518.574 372.952 519.834L373.259 520.995L373.394 520.995C373.416 519.284 373.609 517.813 373.973 516.581C374.344 515.316 375.107 514.308 376.262 513.557Z" fill="white"/>
<path d="M329.053 609.027L312.966 619.489L312.708 618.472L315.478 616.67L309.836 591.946L307.034 593.768L306.808 592.731L321.289 583.313L323.386 590.945L322.568 591.478L319.69 585.538L312.827 590.001L315.476 601.444L319.82 598.618L319.572 594.172L320.39 593.64L322.531 603.131L321.744 603.643L320.078 599.635L315.671 602.502L318.469 614.725L326.843 609.279L326.776 602.081L327.563 601.57L329.053 609.027Z" fill="white"/>
<path d="M337.796 601.541C338.656 600.982 339.195 599.973 339.412 598.516C339.615 597.038 339.573 595.573 339.286 594.121C339.02 592.656 338.641 591.454 338.15 590.515C337.812 589.857 337.529 589.354 337.302 589.004C336.888 588.367 336.404 587.921 335.85 587.667C335.283 587.392 334.706 587.445 334.118 587.828C333.11 588.483 332.51 589.649 332.316 591.325C332.13 592.968 332.241 594.607 332.648 596.244C333.076 597.867 333.625 599.193 334.293 600.221C334.735 600.899 335.269 601.4 335.898 601.723C336.512 602.025 337.145 601.965 337.796 601.541ZM332.05 576.314L337.797 572.269C338.14 573.714 338.596 575.656 339.166 578.093C339.723 580.511 340.112 582.188 340.334 583.127C340.751 584.962 341.067 586.321 341.284 587.205C341.485 588.156 341.994 590.341 342.813 593.758C342.966 594.361 343.073 594.847 343.135 595.217C343.268 595.744 343.436 596.162 343.636 596.47C344.037 597.087 344.532 597.204 345.119 596.822C345.875 596.331 346.202 595.387 346.1 593.99C346.019 592.58 345.752 591.32 345.299 590.21L346.344 590.233C346.92 592.082 347.161 593.739 347.068 595.204C346.857 597.038 346.133 598.357 344.895 599.163C344.202 599.613 343.498 599.793 342.782 599.703C342.053 599.592 341.468 599.197 341.026 598.519C340.852 598.251 340.721 597.957 340.631 597.635C340.539 597.402 340.422 597.039 340.281 596.546C340.586 600.092 339.679 602.555 337.559 603.933C336.363 604.711 335.199 604.942 334.067 604.625C332.935 604.308 331.981 603.553 331.205 602.361C330.523 601.312 329.98 600.086 329.574 598.682C329.169 597.278 328.94 595.847 328.888 594.389C328.822 592.91 329.062 591.511 329.607 590.191C330.16 588.836 331.013 587.784 332.168 587.033C334.497 585.518 336.505 586.056 338.19 588.646L338.295 588.534C338.127 587.999 337.972 587.486 337.831 586.993C337.647 586.527 337.512 586.044 337.426 585.544C337.279 584.996 337.142 584.442 337.016 583.88C336.884 583.264 336.723 582.535 336.534 581.692L335.11 575.509L332.277 577.351L332.05 576.314Z" fill="white"/>
<path d="M353.661 576.127C353.38 575.695 353.062 575.434 352.705 575.344C352.327 575.268 351.907 575.381 351.445 575.681C350.354 576.391 349.809 577.827 349.813 579.99C349.816 582.153 350.147 583.971 350.806 585.444C351.474 584.863 351.942 584.413 352.211 584.091C353.192 583.073 353.857 581.777 354.207 580.204C354.565 578.596 354.383 577.237 353.661 576.127ZM351.187 574.664C352.194 574.009 353.203 573.631 354.212 573.53C355.209 573.409 355.994 573.79 356.569 574.674C357.144 575.558 357.358 576.575 357.209 577.725C357.061 578.874 356.641 579.996 355.949 581.09C355.264 582.15 354.515 583.134 353.703 584.043C352.898 584.917 352.071 585.689 351.222 586.359C351.592 587.112 351.898 587.674 352.139 588.044C352.781 589.031 353.519 589.707 354.353 590.071C355.187 590.435 356.077 590.31 357.021 589.696C358.049 589.027 358.702 588.033 358.978 586.712C359.261 585.357 359.238 584.012 358.907 582.677L359.929 582.802C360.315 584.452 360.25 586.075 359.734 587.668C359.225 589.228 358.278 590.458 356.893 591.359C355.319 592.383 353.838 592.746 352.45 592.449C351.063 592.152 349.867 591.233 348.864 589.691C347.26 587.224 346.627 584.505 346.965 581.535C347.324 578.551 348.731 576.261 351.187 574.664Z" fill="white"/>
<path d="M368.76 563.235C369.662 562.648 370.515 562.444 371.319 562.624C372.13 562.769 372.817 563.274 373.378 564.137C373.806 564.795 374.204 565.751 374.571 567.004C374.596 567.134 374.659 567.415 374.76 567.846C374.848 568.257 374.921 568.576 374.978 568.801C375.022 569.007 375.091 569.342 375.185 569.808C375.279 570.274 375.348 570.609 375.392 570.815C375.428 571.054 375.487 571.397 375.567 571.842C375.668 572.273 375.738 572.564 375.776 572.715C375.926 573.495 376.019 573.961 376.058 574.112C376.138 574.557 376.279 574.934 376.479 575.242C376.653 575.509 376.888 575.664 377.184 575.705C377.424 575.754 377.681 575.689 377.954 575.512C378.583 575.102 378.963 574.446 379.092 573.543C379.229 572.605 379.209 571.77 379.031 571.037C378.86 570.27 378.628 569.5 378.334 568.726L379.379 568.748C379.618 569.529 379.805 570.299 379.941 571.06C380.064 571.799 380.12 572.597 380.109 573.452C380.098 574.308 379.919 575.112 379.572 575.864C379.211 576.596 378.695 577.18 378.024 577.617C377.142 578.19 376.302 578.459 375.502 578.423C374.723 578.374 374.06 577.927 373.511 577.084C373.297 576.756 373.114 576.29 372.961 575.687C372.875 575.187 372.743 574.571 372.565 573.838C372.19 571.976 371.891 570.575 371.669 569.637C371.434 568.678 371.313 568.172 371.308 568.117C371.264 567.911 371.177 567.617 371.047 567.233C370.901 566.918 370.762 566.658 370.628 566.452C370.04 565.548 369.315 565.375 368.455 565.935C367.825 566.344 367.359 567.028 367.056 567.986C366.761 568.909 366.629 569.946 366.66 571.096C366.691 572.246 366.773 573.29 366.905 574.228C367.037 575.166 367.205 576.066 367.407 576.929L368.819 583.164L365.828 585.109L362.124 569.218L359.29 571.061L359.044 569.993L364.155 566.142C364.707 567.129 365.139 568.252 365.451 569.512L365.758 570.673L365.892 570.673C365.914 568.962 366.107 567.491 366.471 566.26C366.843 564.994 367.606 563.986 368.76 563.235Z" fill="white"/>
</svg>
