<svg width="615" height="849" viewBox="0 0 615 849" fill="none" xmlns="http://www.w3.org/2000/svg">
<circle cx="405" cy="52" r="50.5" fill="black" stroke="#E82D34" stroke-width="3"/>
<circle cx="405.234" cy="52.235" r="38.0294" stroke="#E82D34" stroke-width="3"/>
<path d="M400.59 66.0006V49.6589C409.589 48.3338 414.089 44.2116 414.089 37.2921C414.089 34.4458 413.194 32.1884 411.404 30.5199C409.662 28.8513 407.388 28.0171 404.581 28.0171C401.001 28.0171 398.122 29.1948 395.945 31.5504C397.396 31.5504 398.557 31.9185 399.428 32.6546C400.348 33.3907 400.807 34.4703 400.807 35.8935C400.807 37.2185 400.372 38.3227 399.501 39.206C398.678 40.0894 397.614 40.531 396.307 40.531C394.953 40.531 393.84 40.0894 392.969 39.206C392.05 38.4208 391.59 37.243 391.59 35.6727C391.59 32.6791 393.017 30.299 395.872 28.5323C398.727 26.7657 401.775 25.8823 405.017 25.8823C409.565 25.8823 413.315 27.0601 416.266 29.4157C419.266 31.7712 420.766 35.1574 420.766 39.5741C420.766 44.1871 418.976 48.0885 415.396 51.2783C411.815 54.4191 407.654 56.2348 402.912 56.7256V66.0006H400.59ZM396.525 73.2882C396.525 71.7178 397.009 70.4419 397.977 69.4604C398.944 68.4789 400.202 67.9881 401.751 67.9881C403.202 67.9881 404.46 68.4789 405.525 69.4604C406.493 70.54 406.976 71.8159 406.976 73.2882C406.976 74.8586 406.468 76.1345 405.452 77.116C404.485 78.0975 403.251 78.5882 401.751 78.5882C400.202 78.5882 398.969 78.122 398.049 77.1896C397.033 76.3062 396.525 75.0058 396.525 73.2882Z" fill="#E82D34"/>
<circle cx="535.681" cy="175.681" r="77.1809" fill="#E82D34" stroke="black" stroke-width="3"/>
<circle cx="536.036" cy="176.036" r="58.3117" stroke="black" stroke-width="3"/>
<path d="M549.753 140.423L539.967 171.297L573.775 169.676L573.128 183.29L541.665 179.4L556.062 210.112L542.151 214.488L533.173 182.074L512.791 209.464L502.681 199.334L527.431 176.645L497.586 167.812L502.196 154.847L532.041 169.676L535.357 137.587L549.753 140.423Z" fill="black"/>
<rect x="1" y="271" width="418.311" height="577" fill="white" stroke="#E82D34" stroke-width="2"/>
<path d="M123.644 311.989H123.263V308.813H124.474C125.45 308.276 126.061 306.592 126.305 303.76C126.351 303.242 126.403 302.485 126.459 301.487C126.459 301.412 126.459 301.299 126.459 301.148C126.469 300.998 126.478 300.89 126.488 300.824C126.516 300.485 126.53 300.151 126.53 299.822L125.037 299.681V299.299H132.443V299.681H131.106V308.813H132.443V311.989H132.063L131.598 309.194H124.108L123.644 311.989ZM126.896 301.106C126.783 303.186 126.633 304.738 126.445 305.764C126.154 307.279 125.737 308.295 125.192 308.813H129.698V299.681H126.966C126.966 299.746 126.962 299.85 126.952 299.991C126.952 300.123 126.948 300.222 126.938 300.287C126.91 300.551 126.896 300.824 126.896 301.106Z" fill="black"/>
<path d="M137.664 309.194H133.637V308.813H134.975V299.681H133.637V299.299H137.579C139.785 299.299 140.888 300.033 140.888 301.501C140.888 302.16 140.653 302.696 140.184 303.11C139.715 303.524 139.142 303.783 138.466 303.887V303.943C139.217 304.009 139.855 304.23 140.381 304.607C140.907 305.049 141.169 305.623 141.169 306.329C141.169 306.95 140.991 307.486 140.634 307.938C140.287 308.38 139.855 308.7 139.339 308.898C138.823 309.095 138.264 309.194 137.664 309.194ZM136.382 308.813H137.537C138.232 308.813 138.757 308.587 139.114 308.135C139.48 307.684 139.663 307.1 139.663 306.385C139.663 304.879 138.954 304.127 137.537 304.127H136.382V308.813ZM136.382 303.746H137.537C138.166 303.746 138.63 303.543 138.931 303.139C139.231 302.734 139.381 302.202 139.381 301.544C139.381 300.302 138.738 299.681 137.452 299.681H136.382V303.746Z" fill="black"/>
<path d="M146.498 299.102L150.088 308.813H151.426V309.194H147.23V308.813H148.568L147.582 306.06H144.259L143.429 308.615L144.625 308.813V309.194H141.598V308.813L143.006 308.601L146.104 299.102H146.498ZM145.879 301.036L144.386 305.679H147.427L145.879 301.036Z" fill="black"/>
<path d="M152.16 311.989H151.779V308.813H152.99C153.966 308.276 154.577 306.592 154.821 303.76C154.868 303.242 154.919 302.485 154.975 301.487C154.975 301.412 154.975 301.299 154.975 301.148C154.985 300.998 154.994 300.89 155.004 300.824C155.032 300.485 155.046 300.151 155.046 299.822L153.553 299.681V299.299H160.959V299.681H159.622V308.813H160.959V311.989H160.579L160.114 309.194H152.624L152.16 311.989ZM155.412 301.106C155.299 303.186 155.149 304.738 154.961 305.764C154.67 307.279 154.253 308.295 153.708 308.813H158.214V299.681H155.482C155.482 299.746 155.478 299.85 155.468 299.991C155.468 300.123 155.464 300.222 155.454 300.287C155.426 300.551 155.412 300.824 155.412 301.106Z" fill="black"/>
<path d="M172.304 311.989L171.924 312.003L171.431 309.194H162.153V308.813H163.491V299.681H162.153V299.299H166.236V299.681H164.899V308.813H169.39V299.681H168.052V299.299H172.135V299.681H170.798V308.813H172.304V311.989Z" fill="black"/>
<path d="M177.833 299.102L181.423 308.813H182.76V309.194H178.565V308.813H179.902L178.917 306.06H175.594L174.763 308.615L175.96 308.813V309.194H172.933V308.813L174.341 308.601L177.438 299.102H177.833ZM177.213 301.036L175.721 305.679H178.762L177.213 301.036Z" fill="black"/>
<path d="M183.02 302.179H182.64V299.299H190.623V302.179H190.243L189.764 299.737H187.328V308.813H188.666V309.194H184.583V308.813H185.92V299.737H183.485L183.02 302.179Z" fill="black"/>
<path d="M193.093 299.681H191.755V299.299H195.838V299.681H194.501V303.675C194.651 303.647 194.867 303.619 195.148 303.59C195.468 303.572 195.716 303.562 195.895 303.562C198.26 303.562 199.443 304.433 199.443 306.173C199.443 307.152 199.109 307.9 198.443 308.418C197.786 308.935 196.965 309.194 195.979 309.194H191.755V308.813H193.093V299.681ZM194.501 308.813H195.796C196.538 308.813 197.082 308.568 197.429 308.079C197.777 307.59 197.95 306.964 197.95 306.202C197.95 304.705 197.232 303.957 195.796 303.957C195.665 303.957 195.439 303.967 195.12 303.986C194.857 304.014 194.651 304.047 194.501 304.084V308.813Z" fill="black"/>
<path d="M214.102 299.681H212.765V308.813H214.102V309.194H210.019V308.813H211.357V299.681H206.696V308.813H208.034V309.194H203.951V308.813H205.288V299.681H203.951V299.299H214.102V299.681Z" fill="black"/>
<path d="M222.587 309.194H215.294V308.813H216.632V299.681H215.294V299.299H222.221V302.193H221.841L221.362 299.681H218.04V303.915H220.109L220.405 302.264H220.785V305.933H220.419L220.109 304.296H218.04V308.813H221.728L222.207 306.159H222.587V309.194Z" fill="black"/>
<path d="M227.91 304.776C227.713 304.776 227.502 304.762 227.276 304.734C227.117 304.724 226.896 304.691 226.615 304.635V308.813H228.093V309.194H223.869V308.813H225.207V299.681H223.869V299.299H228.079C229.027 299.299 229.806 299.497 230.416 299.892C231.026 300.278 231.331 300.909 231.331 301.784C231.331 302.734 230.998 303.473 230.331 304C229.674 304.517 228.867 304.776 227.91 304.776ZM227.741 304.395C228.426 304.395 228.942 304.146 229.29 303.647C229.646 303.148 229.825 302.546 229.825 301.84C229.825 301.106 229.651 300.565 229.304 300.217C228.956 299.859 228.417 299.681 227.685 299.681H226.615V304.226C226.943 304.338 227.319 304.395 227.741 304.395Z" fill="black"/>
<path d="M236.535 309.194H232.508V308.813H233.846V299.681H232.508V299.299H236.45C238.656 299.299 239.759 300.033 239.759 301.501C239.759 302.16 239.524 302.696 239.055 303.11C238.586 303.524 238.013 303.783 237.337 303.887V303.943C238.088 304.009 238.727 304.23 239.252 304.607C239.778 305.049 240.041 305.623 240.041 306.329C240.041 306.95 239.862 307.486 239.506 307.938C239.158 308.38 238.727 308.7 238.21 308.898C237.694 309.095 237.136 309.194 236.535 309.194ZM235.254 308.813H236.408C237.103 308.813 237.628 308.587 237.985 308.135C238.351 307.684 238.534 307.1 238.534 306.385C238.534 304.879 237.826 304.127 236.408 304.127H235.254V308.813ZM235.254 303.746H236.408C237.037 303.746 237.502 303.543 237.802 303.139C238.102 302.734 238.253 302.202 238.253 301.544C238.253 300.302 237.61 299.681 236.324 299.681H235.254V303.746Z" fill="black"/>
<path d="M242.617 299.681H241.308V299.299H245.335V299.681H244.025V303.675C244.391 303.6 244.809 303.562 245.278 303.562C247.644 303.562 248.826 304.451 248.826 306.23C248.826 307.237 248.484 307.985 247.798 308.474C247.123 308.954 246.268 309.194 245.236 309.194H241.308V308.813H242.617V299.681ZM244.025 308.813H245.278C245.992 308.813 246.512 308.578 246.841 308.107C247.17 307.637 247.334 307.034 247.334 306.3C247.334 305.99 247.296 305.675 247.221 305.355C246.949 304.423 246.273 303.957 245.194 303.957C244.809 303.957 244.419 304 244.025 304.084V308.813ZM253.064 299.681H251.727V308.813H253.064V309.194H248.981V308.813H250.319V299.681H248.981V299.299H253.064V299.681Z" fill="black"/>
<path d="M264.411 299.681H263.073V308.813H264.411V309.194H260.328V308.813H261.665V301.247L257.005 307.966V308.813H258.343V309.194H254.26V308.813H255.597V299.681H254.26V299.299H258.343V299.681H257.005V307.288L261.665 300.57V299.681H260.328V299.299H264.411V299.681ZM259.385 298.382C258.493 298.382 257.887 298.156 257.568 297.704C257.446 297.554 257.385 297.37 257.385 297.154C257.385 296.956 257.442 296.792 257.554 296.66C257.676 296.519 257.836 296.448 258.033 296.448C258.221 296.448 258.376 296.505 258.498 296.618C258.61 296.731 258.666 296.881 258.666 297.069C258.666 297.229 258.61 297.366 258.498 297.479C258.385 297.582 258.244 297.643 258.075 297.662C258.338 297.926 258.76 298.057 259.342 298.057C259.924 298.057 260.347 297.926 260.609 297.662C260.431 297.643 260.286 297.582 260.173 297.479C260.07 297.366 260.018 297.22 260.018 297.041C260.018 296.872 260.079 296.731 260.201 296.618C260.333 296.505 260.483 296.448 260.652 296.448C260.858 296.448 261.018 296.514 261.13 296.646C261.243 296.778 261.299 296.947 261.299 297.154C261.299 297.577 261.098 297.888 260.694 298.086C260.29 298.283 259.854 298.382 259.385 298.382Z" fill="black"/>
<path d="M273.114 309.194H268.82V308.813H270.157V299.681H268.82V299.299H275.958V302.193H275.578L275.169 299.681H271.565V308.813H273.114V309.194Z" fill="black"/>
<path d="M281.634 309.307C280.236 309.307 279.128 308.818 278.312 307.839C277.495 306.86 277.087 305.67 277.087 304.268C277.087 302.809 277.49 301.6 278.298 300.64C279.114 299.671 280.227 299.187 281.634 299.187C283.071 299.187 284.183 299.666 284.971 300.626C285.76 301.586 286.154 302.791 286.154 304.24C286.154 305.105 285.966 305.924 285.591 306.696C285.225 307.458 284.69 308.084 283.986 308.573C283.282 309.062 282.498 309.307 281.634 309.307ZM281.634 299.568C281.081 299.568 280.593 299.723 280.17 300.033C279.757 300.344 279.443 300.749 279.227 301.247C279.011 301.737 278.851 302.24 278.748 302.758C278.645 303.275 278.593 303.793 278.593 304.31C278.593 305.166 278.743 305.99 279.044 306.78C279.354 307.561 279.823 308.149 280.452 308.545C280.808 308.78 281.203 308.898 281.634 308.898C282.32 308.898 282.906 308.625 283.394 308.079C283.882 307.533 284.225 306.889 284.422 306.145C284.572 305.609 284.647 304.997 284.647 304.31C284.647 303.774 284.6 303.252 284.507 302.743C284.413 302.235 284.258 301.732 284.042 301.233C283.835 300.734 283.521 300.335 283.099 300.033C282.686 299.723 282.198 299.568 281.634 299.568Z" fill="black"/>
<path d="M287.109 311.989H286.729V308.813H287.94C288.916 308.276 289.526 306.592 289.77 303.76C289.817 303.242 289.869 302.485 289.925 301.487C289.925 301.412 289.925 301.299 289.925 301.148C289.934 300.998 289.944 300.89 289.953 300.824C289.981 300.485 289.995 300.151 289.995 299.822L288.503 299.681V299.299H295.909V299.681H294.571V308.813H295.909V311.989H295.528L295.064 309.194H287.574L287.109 311.989ZM290.361 301.106C290.249 303.186 290.099 304.738 289.911 305.764C289.62 307.279 289.202 308.295 288.658 308.813H293.163V299.681H290.432C290.432 299.746 290.427 299.85 290.418 299.991C290.418 300.123 290.413 300.222 290.404 300.287C290.375 300.551 290.361 300.824 290.361 301.106Z" fill="black"/>
<path d="M87.0989 313.626H87.4791V316.943H87.0989C86.9769 315.513 86.4043 314.6 85.3812 314.205C85.0527 314.101 84.7383 314.049 84.4379 314.049C83.9874 314.049 83.5885 314.158 83.2412 314.374C82.8939 314.59 82.617 314.863 82.4105 315.193C82.204 315.513 82.0351 315.894 81.9037 316.336C81.7722 316.778 81.6831 317.197 81.6361 317.592C81.5892 317.987 81.5657 318.387 81.5657 318.792C81.5657 319.686 81.7018 320.533 81.974 321.333C82.2462 322.133 82.7015 322.711 83.3397 323.069C83.687 323.276 84.0672 323.379 84.4802 323.379C85.2217 323.379 85.813 323.125 86.2542 322.617C86.7047 322.1 86.9722 321.46 87.0567 320.698H87.4368V323.817H87.0708L86.8455 322.476C86.2448 323.342 85.4 323.775 84.3112 323.775C83.4101 323.775 82.6311 323.535 81.974 323.055C81.317 322.565 80.8336 321.954 80.5239 321.22C80.2141 320.476 80.0593 319.667 80.0593 318.792C80.0593 317.898 80.2188 317.07 80.538 316.308C80.8571 315.536 81.3499 314.906 82.0163 314.416C82.6827 313.918 83.4665 313.668 84.3675 313.668C85.4469 313.668 86.2964 314.073 86.9159 314.882L87.0989 313.626Z" fill="black"/>
<path d="M93.5714 323.775C92.1729 323.775 91.0653 323.285 90.2487 322.307C89.4321 321.328 89.0238 320.138 89.0238 318.736C89.0238 317.277 89.4274 316.068 90.2346 315.108C91.0512 314.139 92.1635 313.654 93.5714 313.654C95.0075 313.654 96.1198 314.134 96.9082 315.094C97.6967 316.054 98.0909 317.258 98.0909 318.707C98.0909 319.573 97.9032 320.392 97.5277 321.163C97.1616 321.925 96.6266 322.551 95.9227 323.041C95.2187 323.53 94.435 323.775 93.5714 323.775ZM93.5714 314.035C93.0176 314.035 92.5296 314.191 92.1072 314.501C91.6942 314.812 91.3797 315.216 91.1639 315.715C90.948 316.204 90.7884 316.708 90.6852 317.225C90.5819 317.743 90.5303 318.26 90.5303 318.778C90.5303 319.634 90.6805 320.458 90.9808 321.248C91.2906 322.029 91.7599 322.617 92.3888 323.012C92.7454 323.248 93.1397 323.365 93.5714 323.365C94.2566 323.365 94.8433 323.092 95.3313 322.547C95.8194 322.001 96.162 321.356 96.3591 320.613C96.5093 320.076 96.5844 319.465 96.5844 318.778C96.5844 318.242 96.5375 317.719 96.4436 317.211C96.3497 316.703 96.1949 316.2 95.979 315.701C95.7725 315.202 95.458 314.802 95.0357 314.501C94.6227 314.191 94.1346 314.035 93.5714 314.035Z" fill="black"/>
<path d="M109.525 326.456L109.145 326.47L108.652 323.662H99.3737V323.281H100.711V314.148H99.3737V313.767H103.457V314.148H102.119V323.281H106.61V314.148H105.273V313.767H109.356V314.148H108.018V323.281H109.525V326.456Z" fill="black"/>
<path d="M120.868 314.148H119.531V323.281H120.868V323.662H116.785V323.281H118.123V315.715L113.462 322.434V323.281H114.8V323.662H110.717V323.281H112.054V314.148H110.717V313.767H114.8V314.148H113.462V321.756L118.123 315.037V314.148H116.785V313.767H120.868V314.148Z" fill="black"/>
<path d="M126.397 313.57L129.987 323.281H131.324V323.662H127.129V323.281H128.466L127.481 320.528H124.158L123.327 323.083L124.524 323.281V323.662H121.497V323.281L122.905 323.069L126.002 313.57H126.397ZM125.777 315.503L124.285 320.147H127.326L125.777 315.503Z" fill="black"/>
<path d="M140.9 314.148H139.562V323.281H140.9V323.662H136.817V323.281H138.154V314.148H135.465C135.456 314.336 135.442 314.623 135.423 315.009C135.404 315.386 135.39 315.668 135.381 315.856C135.381 315.913 135.376 315.983 135.367 316.068C135.367 316.143 135.362 316.204 135.353 316.251C135.353 316.298 135.353 316.336 135.353 316.364C135.24 318.143 135.099 319.526 134.93 320.514C134.855 320.853 134.79 321.135 134.733 321.361C134.677 321.587 134.583 321.869 134.452 322.208C134.32 322.537 134.179 322.805 134.029 323.012C133.879 323.21 133.673 323.389 133.41 323.549C133.156 323.699 132.875 323.775 132.565 323.775C132.236 323.775 131.96 323.685 131.734 323.506C131.509 323.328 131.396 323.078 131.396 322.758C131.396 322.495 131.472 322.278 131.622 322.109C131.781 321.94 131.988 321.855 132.241 321.855C132.476 321.855 132.668 321.916 132.818 322.038C132.978 322.161 133.058 322.335 133.058 322.561C133.058 322.984 132.884 323.238 132.537 323.323C132.781 323.342 133.02 323.295 133.255 323.182C134.165 322.758 134.733 320.415 134.958 316.153C134.958 316.058 134.958 315.922 134.958 315.743C134.968 315.555 134.977 315.414 134.987 315.32C134.996 315.207 135.001 315.037 135.001 314.812C135.01 314.586 135.015 314.412 135.015 314.289L133.536 314.148V313.767H140.9V314.148Z" fill="black"/>
<path d="M152.244 314.148H150.906V323.281H152.244V323.662H148.161V323.281H149.499V315.715L144.838 322.434V323.281H146.176V323.662H142.093V323.281H143.43V314.148H142.093V313.767H146.176V314.148H144.838V321.756L149.499 315.037V314.148H148.161V313.767H152.244V314.148Z" fill="black"/>
<path d="M160.616 313.626H160.997V316.943H160.616C160.494 315.513 159.922 314.6 158.899 314.205C158.57 314.101 158.256 314.049 157.955 314.049C157.505 314.049 157.106 314.158 156.759 314.374C156.411 314.59 156.135 314.863 155.928 315.193C155.722 315.513 155.553 315.894 155.421 316.336C155.29 316.778 155.201 317.197 155.154 317.592C155.107 317.987 155.083 318.387 155.083 318.792C155.083 319.686 155.219 320.533 155.492 321.333C155.764 322.133 156.219 322.711 156.857 323.069C157.205 323.276 157.585 323.379 157.998 323.379C158.739 323.379 159.331 323.125 159.772 322.617C160.222 322.1 160.49 321.46 160.574 320.698H160.954V323.817H160.588L160.363 322.476C159.762 323.342 158.918 323.775 157.829 323.775C156.928 323.775 156.149 323.535 155.492 323.055C154.835 322.565 154.351 321.954 154.041 321.22C153.732 320.476 153.577 319.667 153.577 318.792C153.577 317.898 153.736 317.07 154.056 316.308C154.375 315.536 154.867 314.906 155.534 314.416C156.2 313.918 156.984 313.668 157.885 313.668C158.964 313.668 159.814 314.073 160.433 314.882L160.616 313.626Z" fill="black"/>
<path d="M162.795 316.647H162.415V313.767H170.398V316.647H170.017L169.539 314.205H167.103V323.281H168.441V323.662H164.358V323.281H165.695V314.205H163.259L162.795 316.647Z" fill="black"/>
<path d="M181.681 314.148H180.344V323.281H181.681V323.662H177.598V323.281H178.936V315.715L174.276 322.434V323.281H175.613V323.662H171.53V323.281H172.868V314.148H171.53V313.767H175.613V314.148H174.276V321.756L178.936 315.037V314.148H177.598V313.767H181.681V314.148Z" fill="black"/>
<path d="M192.461 314.148H191.124V323.281H192.461V323.662H188.378V323.281H189.716V319.103C188.937 319.507 188.078 319.709 187.139 319.709C185.14 319.709 184.14 318.698 184.14 316.675V314.148H182.803V313.767H186.886V314.148H185.548V316.887C185.548 318.477 186.234 319.272 187.604 319.272C188.345 319.272 189.049 319.084 189.716 318.707V314.148H188.378V313.767H192.461V314.148Z" fill="black"/>
<path d="M200.946 323.662H193.653V323.281H194.99V314.148H193.653V313.767H200.58V316.661H200.2L199.721 314.148H196.398V318.383H198.468L198.764 316.731H199.144V320.401H198.778L198.468 318.764H196.398V323.281H200.087L200.566 320.627H200.946V323.662Z" fill="black"/>
<path d="M209.605 313.626H209.985V316.943H209.605C209.483 315.513 208.911 314.6 207.888 314.205C207.559 314.101 207.245 314.049 206.944 314.049C206.494 314.049 206.095 314.158 205.748 314.374C205.4 314.59 205.123 314.863 204.917 315.193C204.71 315.513 204.541 315.894 204.41 316.336C204.279 316.778 204.189 317.197 204.142 317.592C204.096 317.987 204.072 318.387 204.072 318.792C204.072 319.686 204.208 320.533 204.48 321.333C204.753 322.133 205.208 322.711 205.846 323.069C206.193 323.276 206.573 323.379 206.986 323.379C207.728 323.379 208.319 323.125 208.76 322.617C209.211 322.1 209.479 321.46 209.563 320.698H209.943V323.817H209.577L209.352 322.476C208.751 323.342 207.906 323.775 206.818 323.775C205.916 323.775 205.137 323.535 204.48 323.055C203.823 322.565 203.34 321.954 203.03 321.22C202.72 320.476 202.566 319.667 202.566 318.792C202.566 317.898 202.725 317.07 203.044 316.308C203.363 315.536 203.856 314.906 204.523 314.416C205.189 313.918 205.973 313.668 206.874 313.668C207.953 313.668 208.803 314.073 209.422 314.882L209.605 313.626Z" fill="black"/>
<path d="M216.613 317.55C216.669 317.428 216.739 317.244 216.824 316.999C216.852 316.924 216.89 316.802 216.937 316.632C216.993 316.463 217.035 316.336 217.063 316.251C217.091 316.167 217.134 316.04 217.19 315.87C217.246 315.691 217.289 315.555 217.317 315.461C217.345 315.367 217.378 315.244 217.415 315.094C217.462 314.934 217.495 314.821 217.514 314.755C217.711 314.021 218.152 313.654 218.837 313.654C219.147 313.654 219.396 313.739 219.583 313.908C219.781 314.068 219.879 314.303 219.879 314.614C219.879 314.887 219.804 315.108 219.654 315.277C219.504 315.437 219.293 315.517 219.02 315.517C218.804 315.517 218.617 315.447 218.457 315.306C218.307 315.164 218.232 314.986 218.232 314.769C218.232 314.515 218.326 314.294 218.513 314.106C218.401 314.125 218.298 314.181 218.204 314.275C218.091 314.379 217.993 314.562 217.908 314.826C217.88 314.92 217.838 315.052 217.781 315.221C217.734 315.39 217.702 315.508 217.683 315.574C217.636 315.734 217.565 315.955 217.472 316.237C217.425 316.378 217.364 316.581 217.289 316.844C217.195 317.126 217.12 317.343 217.063 317.493C216.885 317.955 216.617 318.246 216.261 318.369V318.425H216.556C217.636 318.425 218.26 318.891 218.429 319.822C218.485 320.105 218.542 320.406 218.598 320.726C218.617 320.81 218.635 320.928 218.654 321.079C218.682 321.22 218.706 321.351 218.725 321.474C218.753 321.596 218.781 321.714 218.809 321.827C218.856 322.09 218.903 322.292 218.95 322.434C218.997 322.575 219.067 322.721 219.161 322.871C219.255 323.022 219.382 323.13 219.541 323.196C219.701 323.252 219.898 323.281 220.133 323.281H220.527V323.662H219.33C218.814 323.662 218.406 323.572 218.105 323.393C217.805 323.205 217.608 322.871 217.514 322.391C217.476 322.203 217.448 322.067 217.429 321.982C217.401 321.831 217.373 321.681 217.345 321.53C217.298 321.333 217.256 321.116 217.218 320.881C217.19 320.73 217.129 320.406 217.035 319.907C216.951 319.418 216.768 319.088 216.486 318.919C216.214 318.75 215.815 318.665 215.289 318.665H214.135V323.281H215.472V323.662H211.389V323.281H212.727V314.148H211.389V313.767H215.472V314.148H214.135V318.284H215.149C215.524 318.284 215.829 318.237 216.064 318.143C216.298 318.039 216.481 317.842 216.613 317.55Z" fill="black"/>
<path d="M225.908 323.775C224.51 323.775 223.402 323.285 222.586 322.307C221.769 321.328 221.361 320.138 221.361 318.736C221.361 317.277 221.764 316.068 222.572 315.108C223.388 314.139 224.501 313.654 225.908 313.654C227.345 313.654 228.457 314.134 229.245 315.094C230.034 316.054 230.428 317.258 230.428 318.707C230.428 319.573 230.24 320.392 229.865 321.163C229.499 321.925 228.964 322.551 228.26 323.041C227.556 323.53 226.772 323.775 225.908 323.775ZM225.908 314.035C225.355 314.035 224.867 314.191 224.444 314.501C224.031 314.812 223.717 315.216 223.501 315.715C223.285 316.204 223.125 316.708 223.022 317.225C222.919 317.743 222.867 318.26 222.867 318.778C222.867 319.634 223.018 320.458 223.318 321.248C223.628 322.029 224.097 322.617 224.726 323.012C225.083 323.248 225.477 323.365 225.908 323.365C226.594 323.365 227.18 323.092 227.668 322.547C228.156 322.001 228.499 321.356 228.696 320.613C228.846 320.076 228.921 319.465 228.921 318.778C228.921 318.242 228.875 317.719 228.781 317.211C228.687 316.703 228.532 316.2 228.316 315.701C228.11 315.202 227.795 314.802 227.373 314.501C226.96 314.191 226.472 314.035 225.908 314.035Z" fill="black"/>
<path d="M241.862 314.148H240.524V323.281H241.862V323.662H237.779V323.281H239.117V315.715L234.456 322.434V323.281H235.794V323.662H231.711V323.281H233.048V314.148H231.711V313.767H235.794V314.148H234.456V321.756L239.117 315.037V314.148H237.779V313.767H241.862V314.148ZM236.836 312.85C235.944 312.85 235.339 312.624 235.019 312.172C234.897 312.022 234.836 311.838 234.836 311.622C234.836 311.424 234.893 311.259 235.005 311.128C235.127 310.987 235.287 310.916 235.484 310.916C235.672 310.916 235.827 310.972 235.949 311.085C236.061 311.198 236.118 311.349 236.118 311.537C236.118 311.697 236.061 311.833 235.949 311.946C235.836 312.05 235.695 312.111 235.526 312.13C235.789 312.393 236.211 312.525 236.793 312.525C237.375 312.525 237.798 312.393 238.061 312.13C237.882 312.111 237.737 312.05 237.624 311.946C237.521 311.833 237.469 311.688 237.469 311.509C237.469 311.339 237.53 311.198 237.652 311.085C237.784 310.972 237.934 310.916 238.103 310.916C238.309 310.916 238.469 310.982 238.581 311.114C238.694 311.245 238.75 311.415 238.75 311.622C238.75 312.045 238.549 312.356 238.145 312.553C237.741 312.751 237.305 312.85 236.836 312.85Z" fill="black"/>
<path d="M250.142 319.244C249.945 319.244 249.734 319.23 249.509 319.201C249.349 319.192 249.129 319.159 248.847 319.103V323.281H250.326V323.662H246.102V323.281H247.439V314.148H246.102V313.767H250.311C251.259 313.767 252.038 313.965 252.649 314.36C253.259 314.746 253.564 315.376 253.564 316.251C253.564 317.202 253.231 317.94 252.564 318.467C251.907 318.985 251.1 319.244 250.142 319.244ZM249.974 318.863C250.659 318.863 251.175 318.613 251.522 318.114C251.879 317.616 252.057 317.014 252.057 316.308C252.057 315.574 251.884 315.033 251.536 314.685C251.189 314.327 250.649 314.148 249.917 314.148H248.847V318.693C249.176 318.806 249.551 318.863 249.974 318.863Z" fill="black"/>
<path d="M262.034 323.662H254.741V323.281H256.078V314.148H254.741V313.767H261.668V316.661H261.288L260.809 314.148H257.486V318.383H259.556L259.852 316.731H260.232V320.401H259.866L259.556 318.764H257.486V323.281H261.175L261.654 320.627H262.034V323.662Z" fill="black"/>
<path d="M267.54 323.662H263.513V323.281H264.85V314.148H263.513V313.767H267.455C269.661 313.767 270.764 314.501 270.764 315.969C270.764 316.628 270.529 317.164 270.06 317.578C269.591 317.992 269.018 318.251 268.342 318.354V318.411C269.093 318.477 269.731 318.698 270.257 319.074C270.783 319.517 271.045 320.091 271.045 320.796C271.045 321.417 270.867 321.954 270.51 322.405C270.163 322.848 269.731 323.168 269.215 323.365C268.699 323.563 268.14 323.662 267.54 323.662ZM266.258 323.281H267.413C268.107 323.281 268.633 323.055 268.99 322.603C269.356 322.151 269.539 321.568 269.539 320.853C269.539 319.347 268.83 318.594 267.413 318.594H266.258V323.281ZM266.258 318.213H267.413C268.042 318.213 268.506 318.011 268.807 317.606C269.107 317.202 269.257 316.67 269.257 316.011C269.257 314.769 268.614 314.148 267.328 314.148H266.258V318.213Z" fill="black"/>
<path d="M277.001 323.775C275.602 323.775 274.495 323.285 273.678 322.307C272.862 321.328 272.453 320.138 272.453 318.736C272.453 317.277 272.857 316.068 273.664 315.108C274.481 314.139 275.593 313.654 277.001 313.654C278.437 313.654 279.549 314.134 280.338 315.094C281.126 316.054 281.52 317.258 281.52 318.707C281.52 319.573 281.333 320.392 280.957 321.163C280.591 321.925 280.056 322.551 279.352 323.041C278.648 323.53 277.864 323.775 277.001 323.775ZM277.001 314.035C276.447 314.035 275.959 314.191 275.537 314.501C275.124 314.812 274.809 315.216 274.593 315.715C274.377 316.204 274.218 316.708 274.115 317.225C274.011 317.743 273.96 318.26 273.96 318.778C273.96 319.634 274.11 320.458 274.41 321.248C274.72 322.029 275.189 322.617 275.818 323.012C276.175 323.248 276.569 323.365 277.001 323.365C277.686 323.365 278.273 323.092 278.761 322.547C279.249 322.001 279.592 321.356 279.789 320.613C279.939 320.076 280.014 319.465 280.014 318.778C280.014 318.242 279.967 317.719 279.873 317.211C279.779 316.703 279.624 316.2 279.408 315.701C279.202 315.202 278.888 314.802 278.465 314.501C278.052 314.191 277.564 314.035 277.001 314.035Z" fill="black"/>
<path d="M291.317 314.148H289.98V323.281H291.317V323.662H287.234V323.281H288.572V314.148H285.883C285.873 314.336 285.859 314.623 285.841 315.009C285.822 315.386 285.808 315.668 285.798 315.856C285.798 315.913 285.794 315.983 285.784 316.068C285.784 316.143 285.779 316.204 285.77 316.251C285.77 316.298 285.77 316.336 285.77 316.364C285.657 318.143 285.517 319.526 285.348 320.514C285.273 320.853 285.207 321.135 285.151 321.361C285.094 321.587 285 321.869 284.869 322.208C284.738 322.537 284.597 322.805 284.447 323.012C284.296 323.21 284.09 323.389 283.827 323.549C283.574 323.699 283.292 323.775 282.982 323.775C282.654 323.775 282.377 323.685 282.152 323.506C281.926 323.328 281.814 323.078 281.814 322.758C281.814 322.495 281.889 322.278 282.039 322.109C282.199 321.94 282.405 321.855 282.659 321.855C282.893 321.855 283.086 321.916 283.236 322.038C283.395 322.161 283.475 322.335 283.475 322.561C283.475 322.984 283.302 323.238 282.954 323.323C283.198 323.342 283.438 323.295 283.672 323.182C284.583 322.758 285.151 320.415 285.376 316.153C285.376 316.058 285.376 315.922 285.376 315.743C285.385 315.555 285.395 315.414 285.404 315.32C285.413 315.207 285.418 315.037 285.418 314.812C285.428 314.586 285.432 314.412 285.432 314.289L283.954 314.148V313.767H291.317V314.148Z" fill="black"/>
<path d="M301.169 323.775C300.465 323.775 299.841 323.638 299.296 323.365C298.752 323.092 298.311 322.721 297.973 322.25C297.644 321.77 297.396 321.243 297.227 320.669C297.058 320.086 296.964 319.46 296.945 318.792H295.256V323.281H296.593V323.662H292.51V323.281H293.848V314.148H292.51V313.767H296.593V314.148H295.256V318.411H296.959C297.053 317.028 297.452 315.894 298.156 315.009C298.869 314.115 299.874 313.668 301.169 313.668C302.089 313.668 302.877 313.918 303.534 314.416C304.191 314.906 304.67 315.527 304.97 316.28C305.271 317.023 305.421 317.842 305.421 318.736C305.421 319.62 305.261 320.439 304.942 321.192C304.633 321.944 304.144 322.565 303.478 323.055C302.821 323.535 302.051 323.775 301.169 323.775ZM301.169 314.021C300.662 314.021 300.226 314.186 299.86 314.515C299.494 314.835 299.221 315.259 299.043 315.786C298.874 316.303 298.752 316.811 298.677 317.31C298.602 317.799 298.564 318.289 298.564 318.778C298.564 319.239 298.602 319.714 298.677 320.203C298.761 320.683 298.893 321.182 299.071 321.7C299.25 322.208 299.517 322.627 299.874 322.956C300.24 323.276 300.672 323.436 301.169 323.436C301.666 323.436 302.098 323.276 302.464 322.956C302.83 322.636 303.103 322.227 303.281 321.728C303.469 321.22 303.6 320.721 303.675 320.232C303.76 319.742 303.802 319.258 303.802 318.778C303.802 318.289 303.764 317.804 303.689 317.324C303.623 316.835 303.501 316.327 303.323 315.8C303.145 315.273 302.868 314.845 302.492 314.515C302.126 314.186 301.685 314.021 301.169 314.021Z" fill="black"/>
<path d="M316.851 326.456L316.471 326.47L315.978 323.662H306.7V323.281H308.037V314.148H306.7V313.767H310.783V314.148H309.445V323.281H313.936V314.148H312.599V313.767H316.682V314.148H315.344V323.281H316.851V326.456Z" fill="black"/>
<path d="M328.194 314.148H326.856V323.281H328.194V323.662H324.111V323.281H325.448V315.715L320.788 322.434V323.281H322.126V323.662H318.043V323.281H319.38V314.148H318.043V313.767H322.126V314.148H320.788V321.756L325.448 315.037V314.148H324.111V313.767H328.194V314.148Z" fill="black"/>
<path d="M339.537 314.148H338.2V323.281H339.537V323.662H335.454V323.281H336.792V315.715L332.131 322.434V323.281H333.469V323.662H329.386V323.281H330.723V314.148H329.386V313.767H333.469V314.148H332.131V321.756L336.792 315.037V314.148H335.454V313.767H339.537V314.148Z" fill="black"/>
<path d="M88.8765 426.545H87.2074V414.48H90.963C94.9967 411.962 97.2744 403.657 97.796 389.563C97.8308 388.724 97.883 387.5 97.9525 385.891C97.9525 385.437 97.9699 384.737 98.0047 383.793C98.0742 382.814 98.1264 382.079 98.1612 381.59L92.6321 381.065V379.387H121.216V381.065H116.261V414.48H121.216V426.545H119.547L117.826 416.159H90.5979L88.8765 426.545ZM99.6738 389.826C99.5 392.763 99.3435 395.124 99.2044 396.907C99.0653 398.656 98.7523 400.876 98.2655 403.569C97.7787 406.227 97.1527 408.5 96.3877 410.388C95.727 411.997 94.875 413.361 93.8318 414.48H109.48V381.065H100.143C100.109 381.625 100.056 382.359 99.9868 383.268C99.952 384.143 99.9346 384.737 99.9346 385.052C99.8303 385.996 99.7782 386.975 99.7782 387.99C99.7434 388.304 99.726 388.689 99.726 389.144C99.6912 389.353 99.6738 389.581 99.6738 389.826Z" fill="#E82D34"/>
<path d="M153.441 416.159H125.118V414.48H130.073V381.065H125.118V379.387H152.085V390.14H150.416L148.642 381.065H136.854V396.54H143.948L145.043 390.403H146.764V404.303H145.095L143.948 398.219H136.854V414.48H149.998L151.772 404.88H153.441V416.159Z" fill="#E82D34"/>
<path d="M178.775 393.445C178.984 392.99 179.245 392.308 179.558 391.399C179.662 391.119 179.801 390.665 179.975 390.035C180.184 389.406 180.34 388.934 180.444 388.619C180.549 388.304 180.705 387.832 180.914 387.203C181.123 386.538 181.279 386.031 181.383 385.681C181.488 385.332 181.609 384.877 181.748 384.318C181.922 383.723 182.044 383.303 182.114 383.059C182.844 380.331 184.652 378.967 187.538 378.967C188.929 378.967 190.059 379.317 190.929 380.016C191.798 380.681 192.233 381.695 192.233 383.059C192.233 384.108 191.885 384.982 191.19 385.681C190.494 386.381 189.625 386.731 188.582 386.731C187.573 386.731 186.739 386.433 186.078 385.839C185.417 385.244 185.087 384.44 185.087 383.426C185.087 382.412 185.434 381.555 186.13 380.856C185.713 380.925 185.33 381.1 184.982 381.38C184.565 381.695 184.2 382.342 183.887 383.321C183.783 383.671 183.626 384.16 183.418 384.79C183.244 385.419 183.122 385.856 183.052 386.101C182.879 386.696 182.618 387.517 182.27 388.567C182.096 389.091 181.87 389.843 181.592 390.822C181.244 391.871 180.966 392.676 180.757 393.235C180.097 394.949 179.106 396.033 177.784 396.487V396.697H178.88C179.992 396.697 180.966 396.785 181.801 396.96C182.635 397.099 183.331 397.379 183.887 397.799C184.443 398.184 184.896 398.568 185.243 398.953C185.591 399.338 185.887 399.95 186.13 400.789C186.408 401.593 186.599 402.293 186.704 402.887C186.843 403.447 187.017 404.321 187.225 405.51C187.364 406.384 187.521 407.189 187.695 407.923C187.799 408.587 187.903 409.164 188.008 409.654C188.112 410.144 188.216 410.668 188.321 411.228C188.773 413.396 190.233 414.48 192.702 414.48H194.319V416.159H188.529C186.2 416.159 184.461 415.686 183.313 414.742C182.201 413.798 181.522 412.189 181.279 409.916C181.279 409.846 181.227 409.619 181.123 409.234C181.053 408.85 180.983 408.517 180.914 408.238C180.74 407.503 180.584 406.699 180.444 405.825C180.305 404.88 180.097 403.674 179.819 402.205C179.575 400.946 179.21 399.985 178.723 399.32C178.271 398.621 177.489 398.149 176.376 397.904C175.68 397.799 174.846 397.746 173.872 397.746H170.117V414.48H175.072V416.159H158.38V414.48H163.336V381.065H158.38V379.387H175.072V381.065H170.117V396.068H173.351C174.742 396.068 175.872 395.91 176.741 395.596C177.61 395.246 178.288 394.529 178.775 393.445Z" fill="#E82D34"/>
<path d="M213.626 378.652L227.866 414.48H232.821V416.159H215.817V414.48H220.772L217.225 404.828H205.28L202.307 413.746L206.532 414.48V416.159H195.109V414.48L200.429 413.693L212.166 378.652H213.626ZM210.966 387.675L205.854 403.097H216.599L210.966 387.675Z" fill="#E82D34"/>
<path d="M239.692 381.065H234.737V379.387H262.382V390.14H260.661L259.148 381.065H246.473V395.596C247.447 395.351 248.942 395.229 250.959 395.229C252.732 395.229 254.384 395.386 255.914 395.701C257.444 396.015 258.905 396.54 260.296 397.274C261.687 397.974 262.782 398.988 263.582 400.317C264.382 401.646 264.782 403.237 264.782 405.09C264.782 408.692 263.425 411.438 260.713 413.326C258.035 415.214 254.854 416.159 251.168 416.159H234.737V414.48H239.692V381.065ZM246.473 414.48H249.968C252.576 414.48 254.506 413.641 255.758 411.962C257.044 410.249 257.688 408.063 257.688 405.405C257.688 402.747 257.044 400.684 255.758 399.215C254.506 397.711 252.593 396.96 250.02 396.96C248.594 396.96 247.412 397.082 246.473 397.327V414.48Z" fill="#E82D34"/>
<path d="M285.502 399.74C283.868 399.74 282.268 399.582 280.704 399.268V414.48H286.181V416.159H268.967V414.48H273.923V381.065H268.967V379.387H286.128C291.97 379.387 295.848 381.013 297.76 384.265C298.386 385.489 298.699 386.94 298.699 388.619C298.699 392.186 297.412 394.931 294.839 396.855C292.266 398.778 289.154 399.74 285.502 399.74ZM284.564 398.061C286.928 398.061 288.719 397.134 289.936 395.281C291.153 393.428 291.762 391.277 291.762 388.829C291.762 383.653 289.293 381.065 284.355 381.065H280.704V397.537C281.712 397.886 282.999 398.061 284.564 398.061Z" fill="#E82D34"/>
<path d="M306.778 381.065H301.823V379.387H318.514V381.065H313.559V395.648C314.15 395.543 314.915 395.438 315.854 395.333C316.897 395.264 317.853 395.229 318.723 395.229C320.531 395.229 322.183 395.386 323.678 395.701C325.208 395.98 326.651 396.47 328.007 397.169C329.398 397.834 330.476 398.831 331.241 400.159C332.006 401.488 332.389 403.079 332.389 404.933C332.389 408.57 331.085 411.35 328.477 413.273C325.869 415.197 322.722 416.159 319.036 416.159H301.823V414.48H306.778V381.065ZM313.559 414.48H317.836C320.409 414.48 322.287 413.588 323.469 411.805C324.686 409.986 325.295 407.731 325.295 405.038C325.295 402.52 324.669 400.544 323.417 399.11C322.165 397.676 320.305 396.96 317.836 396.96C316.48 396.96 315.054 397.099 313.559 397.379V414.48Z" fill="#E82D34"/>
<path d="M36.2699 399.444V398.895H40.9876V399.444H39.701V405.98H40.9876V406.529H36.2699V405.98H37.5565V399.444H36.2699Z" fill="black"/>
<path d="M45.5847 405.946C44.5325 405.946 43.6747 405.649 43.0113 405.054C42.348 404.448 42.0163 403.636 42.0163 402.618C42.0163 401.474 42.388 400.571 43.1314 399.907C43.8748 399.233 44.8127 398.895 45.9449 398.895C47.1229 398.895 48.0665 399.295 48.7756 400.096C49.4961 400.885 49.8564 401.869 49.8564 403.047C49.8564 404.9 49.2845 406.386 48.1408 407.507C47.0086 408.64 45.5103 409.377 43.6461 409.72L43.6118 409.171C44.6297 409.034 45.5446 408.542 46.3567 407.696C47.1687 406.85 47.6776 405.9 47.8835 404.848L47.8149 404.831C47.3117 405.574 46.5682 405.946 45.5847 405.946ZM45.9621 399.444C45.6075 399.444 45.2987 399.547 45.0357 399.753C44.7726 399.947 44.5782 400.21 44.4524 400.542C44.3266 400.874 44.2351 401.2 44.1779 401.52C44.1322 401.84 44.1093 402.166 44.1093 402.498C44.1093 402.955 44.1608 403.39 44.2637 403.802C44.3666 404.202 44.5668 404.568 44.8641 404.9C45.1615 405.22 45.5389 405.38 45.9964 405.38C46.3281 405.38 46.614 405.288 46.8542 405.106C47.1058 404.911 47.2888 404.659 47.4032 404.351C47.529 404.042 47.6205 403.739 47.6776 403.441C47.7348 403.133 47.7634 402.824 47.7634 402.515C47.7634 402.206 47.7348 401.892 47.6776 401.571C47.6205 401.24 47.529 400.908 47.4032 400.576C47.2773 400.245 47.0886 399.976 46.837 399.77C46.5968 399.553 46.3052 399.444 45.9621 399.444Z" fill="black"/>
<path d="M54.136 398.724C55.051 398.724 55.8402 398.941 56.5035 399.376C57.1783 399.799 57.5157 400.439 57.5157 401.297C57.5157 402.109 57.2183 402.749 56.6236 403.218C56.0289 403.676 55.3026 403.956 54.4448 404.059V404.128C56.6751 404.299 57.7902 405.117 57.7902 406.581C57.7902 407.496 57.407 408.205 56.6407 408.708C55.8859 409.211 55.0281 409.463 54.0674 409.463C53.2439 409.463 52.5291 409.28 51.923 408.914C51.3282 408.548 51.0309 407.988 51.0309 407.233C51.0309 406.855 51.1281 406.529 51.3225 406.255C51.517 405.969 51.7972 405.826 52.1631 405.826C52.4605 405.826 52.7007 405.912 52.8837 406.083C53.0781 406.255 53.1753 406.489 53.1753 406.787C53.1753 407.061 53.0895 407.301 52.918 407.507C52.7579 407.725 52.5406 407.833 52.2661 407.833C52.0602 407.833 51.8658 407.77 51.6828 407.645C51.7629 408.011 51.9859 408.291 52.3519 408.485C52.7178 408.691 53.1067 408.794 53.5184 408.794C54.2161 408.794 54.7422 408.582 55.0967 408.159C55.4627 407.736 55.6457 407.17 55.6457 406.461C55.6457 405.088 54.9309 404.402 53.5013 404.402H53.0552V403.853H53.5013C54.1303 403.853 54.5992 403.642 54.908 403.218C55.2283 402.795 55.3884 402.258 55.3884 401.606C55.3884 400.245 54.7022 399.564 53.3297 399.564C53.1353 399.564 52.9123 399.593 52.6607 399.65C52.2947 399.764 52.003 399.959 51.7857 400.233C51.5799 400.508 51.4769 400.839 51.4769 401.228C51.6942 400.931 51.9802 400.782 52.3347 400.782C52.6206 400.782 52.8494 400.868 53.0209 401.04C53.1925 401.2 53.2783 401.423 53.2783 401.709C53.2783 402.029 53.1753 402.292 52.9695 402.498C52.7636 402.704 52.4948 402.807 52.1631 402.807C51.7629 402.807 51.4483 402.675 51.2196 402.412C51.0023 402.149 50.8936 401.817 50.8936 401.417C50.8936 400.536 51.2082 399.867 51.8372 399.41C52.4662 398.952 53.2325 398.724 54.136 398.724Z" fill="black"/>
<path d="M61.3467 409.017C61.2667 408.948 61.2095 408.857 61.1752 408.742C61.1294 408.64 61.1066 408.525 61.1066 408.399C61.1066 408.159 61.1923 407.948 61.3639 407.765C61.5469 407.593 61.7585 407.507 61.9986 407.507C62.296 407.507 62.5419 407.593 62.7363 407.765C62.9422 407.936 63.0451 408.171 63.0451 408.468C63.0451 408.823 62.9079 409.103 62.6334 409.309C62.3589 409.514 62.0387 409.617 61.6727 409.617C61.2724 409.617 60.9407 409.503 60.6777 409.274C60.4146 409.046 60.2831 408.737 60.2831 408.348C60.2831 408.073 60.346 407.828 60.4718 407.61C60.5862 407.393 60.6891 407.204 60.7806 407.044L64.9322 400.371H60.4032L59.4253 402.412H58.8763L59.5969 398.741H66.2018V399.255L61.2438 407.284C60.9807 407.639 60.8492 407.982 60.8492 408.314C60.8492 408.497 60.895 408.651 60.9865 408.777C61.078 408.891 61.1981 408.971 61.3467 409.017Z" fill="black"/>
<path d="M353.648 399.444V398.895H358.365V399.444H357.079V405.98H358.365V406.529H353.648V405.98H354.934V399.444H353.648Z" fill="black"/>
<path d="M362.962 405.946C361.91 405.946 361.052 405.649 360.389 405.054C359.726 404.448 359.394 403.636 359.394 402.618C359.394 401.474 359.766 400.571 360.509 399.907C361.253 399.233 362.19 398.895 363.323 398.895C364.501 398.895 365.444 399.295 366.153 400.096C366.874 400.885 367.234 401.869 367.234 403.047C367.234 404.9 366.662 406.386 365.519 407.507C364.386 408.64 362.888 409.377 361.024 409.72L360.99 409.171C362.007 409.034 362.922 408.542 363.734 407.696C364.546 406.85 365.055 405.9 365.261 404.848L365.193 404.831C364.689 405.574 363.946 405.946 362.962 405.946ZM363.34 399.444C362.985 399.444 362.677 399.547 362.413 399.753C362.15 399.947 361.956 400.21 361.83 400.542C361.704 400.874 361.613 401.2 361.556 401.52C361.51 401.84 361.487 402.166 361.487 402.498C361.487 402.955 361.539 403.39 361.641 403.802C361.744 404.202 361.945 404.568 362.242 404.9C362.539 405.22 362.917 405.38 363.374 405.38C363.706 405.38 363.992 405.288 364.232 405.106C364.484 404.911 364.667 404.659 364.781 404.351C364.907 404.042 364.998 403.739 365.055 403.441C365.113 403.133 365.141 402.824 365.141 402.515C365.141 402.206 365.113 401.892 365.055 401.571C364.998 401.24 364.907 400.908 364.781 400.576C364.655 400.245 364.466 399.976 364.215 399.77C363.975 399.553 363.683 399.444 363.34 399.444Z" fill="black"/>
<path d="M371.514 398.724C372.429 398.724 373.218 398.941 373.881 399.376C374.556 399.799 374.893 400.439 374.893 401.297C374.893 402.109 374.596 402.749 374.001 403.218C373.407 403.676 372.68 403.956 371.823 404.059V404.128C374.053 404.299 375.168 405.117 375.168 406.581C375.168 407.496 374.785 408.205 374.019 408.708C373.264 409.211 372.406 409.463 371.445 409.463C370.622 409.463 369.907 409.28 369.301 408.914C368.706 408.548 368.409 407.988 368.409 407.233C368.409 406.855 368.506 406.529 368.7 406.255C368.895 405.969 369.175 405.826 369.541 405.826C369.838 405.826 370.078 405.912 370.261 406.083C370.456 406.255 370.553 406.489 370.553 406.787C370.553 407.061 370.467 407.301 370.296 407.507C370.136 407.725 369.918 407.833 369.644 407.833C369.438 407.833 369.244 407.77 369.061 407.645C369.141 408.011 369.364 408.291 369.73 408.485C370.096 408.691 370.484 408.794 370.896 408.794C371.594 408.794 372.12 408.582 372.475 408.159C372.841 407.736 373.024 407.17 373.024 406.461C373.024 405.088 372.309 404.402 370.879 404.402H370.433V403.853H370.879C371.508 403.853 371.977 403.642 372.286 403.218C372.606 402.795 372.766 402.258 372.766 401.606C372.766 400.245 372.08 399.564 370.708 399.564C370.513 399.564 370.29 399.593 370.038 399.65C369.672 399.764 369.381 399.959 369.164 400.233C368.958 400.508 368.855 400.839 368.855 401.228C369.072 400.931 369.358 400.782 369.712 400.782C369.998 400.782 370.227 400.868 370.399 401.04C370.57 401.2 370.656 401.423 370.656 401.709C370.656 402.029 370.553 402.292 370.347 402.498C370.141 402.704 369.873 402.807 369.541 402.807C369.141 402.807 368.826 402.675 368.597 402.412C368.38 402.149 368.271 401.817 368.271 401.417C368.271 400.536 368.586 399.867 369.215 399.41C369.844 398.952 370.61 398.724 371.514 398.724Z" fill="black"/>
<path d="M378.725 409.017C378.644 408.948 378.587 408.857 378.553 408.742C378.507 408.64 378.484 408.525 378.484 408.399C378.484 408.159 378.57 407.948 378.742 407.765C378.925 407.593 379.136 407.507 379.376 407.507C379.674 407.507 379.92 407.593 380.114 407.765C380.32 407.936 380.423 408.171 380.423 408.468C380.423 408.823 380.286 409.103 380.011 409.309C379.737 409.514 379.416 409.617 379.05 409.617C378.65 409.617 378.318 409.503 378.055 409.274C377.792 409.046 377.661 408.737 377.661 408.348C377.661 408.073 377.724 407.828 377.85 407.61C377.964 407.393 378.067 407.204 378.158 407.044L382.31 400.371H377.781L376.803 402.412H376.254L376.975 398.741H383.58V399.255L378.622 407.284C378.359 407.639 378.227 407.982 378.227 408.314C378.227 408.497 378.273 408.651 378.364 408.777C378.456 408.891 378.576 408.971 378.725 409.017Z" fill="black"/>
<path d="M72.1963 492.406V480.894H171.388V492.406H144.336V629.476H171.388V640.988H72.1963V629.476H99.2485V492.406H72.1963Z" fill="#E82D34"/>
<path d="M325.391 531.26C325.391 548.049 318.177 563.639 303.749 578.03C289.562 592.42 273.571 602.614 255.777 608.61H315.291L336.573 563.999H348.115L332.605 640.988H194.819V629.476C210.209 625.878 225.238 619.043 239.906 608.97C254.815 598.896 265.876 587.384 273.09 574.432C278.861 563.16 281.747 551.167 281.747 538.456C281.747 511.114 268.882 497.443 243.152 497.443C232.091 497.443 223.073 500.681 216.1 507.156C209.367 513.632 206.001 522.386 206.001 533.419C206.001 537.736 206.602 541.214 207.804 543.852C209.968 540.255 212.373 537.496 215.018 535.578C217.903 533.419 221.751 532.34 226.56 532.34C232.572 532.34 237.261 534.139 240.627 537.736C244.234 541.334 246.038 546.131 246.038 552.127C246.038 558.842 243.994 564.119 239.906 567.956C236.059 571.794 230.889 573.713 224.396 573.713C214.056 573.713 206.241 569.875 200.951 562.2C195.901 554.525 193.376 545.291 193.376 534.498C193.376 516.03 199.748 501.88 212.493 492.046C225.478 482.213 241.349 477.296 260.105 477.296C270.204 477.296 279.583 478.615 288.239 481.253C313.007 490.127 325.391 506.797 325.391 531.26Z" fill="#E82D34"/>
<path d="M87.6932 662.394H86.0634V673.322H87.6932V673.871H69.6456V673.322H71.2753V662.394H69.6456V661.845H74.9638V662.394H73.334V673.322H77.4685V662.394H75.8387V661.845H81.3285V662.394H79.6987V673.322H83.8332V662.394H82.2034V661.845H87.6932V662.394Z" fill="black"/>
<path d="M98.2945 673.871H88.9791V673.322H90.6089V662.394H88.9791V661.845H97.8485V665.361H97.2995L96.7162 662.394H92.8391V667.454H95.1722L95.5325 665.447H96.0986V669.993H95.5497L95.1722 668.003H92.8391V673.322H97.1623L97.7456 670.182H98.2945V673.871Z" fill="black"/>
<path d="M108.909 661.656H109.475V665.687H108.909C108.829 664.681 108.52 663.863 107.982 663.234C107.445 662.594 106.696 662.273 105.735 662.273C105.094 662.273 104.54 662.468 104.071 662.857C103.613 663.234 103.264 663.726 103.024 664.332C102.796 664.938 102.63 665.544 102.527 666.151C102.424 666.757 102.372 667.357 102.372 667.952C102.372 668.547 102.43 669.141 102.544 669.736C102.658 670.319 102.841 670.903 103.093 671.486C103.344 672.069 103.705 672.544 104.174 672.91C104.654 673.264 105.214 673.442 105.855 673.442C106.69 673.442 107.376 673.127 107.914 672.498C108.463 671.869 108.783 671.126 108.874 670.268H109.423V674.059H108.891L108.634 672.481C108.28 672.984 107.822 673.367 107.262 673.63C106.713 673.882 106.118 674.008 105.477 674.008C103.819 674.008 102.504 673.425 101.532 672.258C100.571 671.08 100.091 669.656 100.091 667.986C100.091 666.9 100.291 665.888 100.691 664.95C101.103 664.012 101.72 663.24 102.544 662.634C103.367 662.016 104.322 661.707 105.409 661.707C106.85 661.707 107.942 662.182 108.686 663.131L108.909 661.656Z" fill="black"/>
<path d="M111.49 665.344H110.941V661.845H120.96V665.344H120.411L119.845 662.462H117.065V673.322H118.695V673.871H113.205V673.322H114.835V662.462H112.056L111.49 665.344Z" fill="black"/>
<path d="M128.218 674.008C126.468 674.008 125.061 673.43 123.997 672.275C122.945 671.12 122.419 669.673 122.419 667.935C122.419 666.162 122.951 664.681 124.014 663.491C125.09 662.302 126.491 661.707 128.218 661.707C129.956 661.707 131.351 662.302 132.404 663.491C133.467 664.681 133.999 666.145 133.999 667.883C133.999 669.542 133.439 670.977 132.318 672.189C131.208 673.402 129.842 674.008 128.218 674.008ZM128.218 662.256C127.691 662.256 127.217 662.388 126.794 662.651C126.371 662.902 126.033 663.228 125.781 663.629C125.53 664.018 125.318 664.469 125.147 664.984C124.975 665.499 124.855 666.002 124.786 666.494C124.729 666.974 124.701 667.454 124.701 667.935C124.701 668.964 124.867 669.959 125.198 670.92C125.53 671.869 126.067 672.567 126.811 673.013C127.234 673.287 127.703 673.425 128.218 673.425C128.847 673.425 129.396 673.247 129.865 672.893C130.345 672.527 130.711 672.058 130.962 671.486C131.226 670.903 131.414 670.314 131.529 669.719C131.654 669.124 131.717 668.53 131.717 667.935C131.717 667.534 131.694 667.134 131.649 666.734C131.614 666.334 131.546 665.916 131.443 665.482C131.351 665.035 131.214 664.629 131.031 664.263C130.848 663.886 130.631 663.543 130.379 663.234C130.139 662.925 129.83 662.685 129.453 662.514C129.087 662.342 128.675 662.256 128.218 662.256Z" fill="black"/>
<path d="M148.592 662.394H146.963V673.322H148.592V673.871H143.103V673.322H144.732V664.384L139.397 672.378V673.322H141.027V673.871H135.537V673.322H137.167V662.394H135.537V661.845H141.027V662.394H139.397V671.349L144.732 663.389V662.394H143.103V661.845H148.592V662.394ZM142.073 660.832C141.421 660.832 140.832 660.701 140.306 660.438C139.78 660.163 139.517 659.734 139.517 659.151C139.517 658.865 139.609 658.636 139.792 658.465C139.975 658.282 140.209 658.19 140.495 658.19C140.747 658.19 140.97 658.27 141.164 658.431C141.336 658.602 141.421 658.802 141.421 659.031C141.421 659.306 141.33 659.517 141.147 659.666C141.021 659.792 140.844 659.855 140.615 659.855C140.512 659.855 140.432 659.849 140.375 659.837C140.718 660.18 141.284 660.352 142.073 660.352C142.874 660.352 143.446 660.18 143.789 659.837C143.732 659.849 143.652 659.855 143.549 659.855C143.32 659.855 143.143 659.792 143.017 659.666C142.822 659.506 142.725 659.294 142.725 659.031C142.725 658.779 142.817 658.579 143 658.431C143.183 658.27 143.406 658.19 143.669 658.19C143.932 658.19 144.155 658.288 144.338 658.482C144.532 658.665 144.629 658.888 144.629 659.151C144.629 659.677 144.378 660.089 143.875 660.386C143.451 660.684 142.851 660.832 142.073 660.832Z" fill="black"/>
<path d="M155.399 677.267H154.85V673.322H156.085C157.412 672.498 158.161 669.782 158.332 665.173C158.344 664.898 158.361 664.498 158.384 663.972C158.384 663.823 158.389 663.594 158.401 663.286C158.424 662.965 158.441 662.725 158.452 662.565L156.634 662.394V661.845H166.035V662.394H164.405V673.322H166.035V677.267H165.486L164.92 673.871H155.965L155.399 677.267ZM158.95 665.259C158.893 666.219 158.841 666.991 158.795 667.575C158.75 668.146 158.647 668.873 158.487 669.753C158.327 670.622 158.121 671.366 157.869 671.983C157.652 672.51 157.372 672.956 157.028 673.322H162.175V662.394H159.104C159.093 662.577 159.076 662.817 159.053 663.114C159.041 663.4 159.036 663.594 159.036 663.697C159.001 664.006 158.984 664.326 158.984 664.658C158.973 664.761 158.967 664.887 158.967 665.035C158.956 665.104 158.95 665.178 158.95 665.259Z" fill="black"/>
<path d="M176.634 673.871H167.318V673.322H168.948V662.394H167.318V661.845H176.188V665.361H175.639L175.055 662.394H171.178V667.454H173.511L173.872 665.447H174.438V669.993H173.889L173.511 668.003H171.178V673.322H175.502L176.085 670.182H176.634V673.871Z" fill="black"/>
<path d="M191.314 662.394H189.684V673.322H191.314V673.871H185.824V673.322H187.454V668.038H182.118V673.322H183.748V673.871H178.258V673.322H179.888V662.394H178.258V661.845H183.748V662.394H182.118V667.489H187.454V662.394H185.824V661.845H191.314V662.394Z" fill="black"/>
<path d="M194.229 662.394H192.599V661.845H198.089V662.394H196.459V667.163C196.654 667.128 196.905 667.094 197.214 667.06C197.557 667.037 197.872 667.026 198.158 667.026C198.752 667.026 199.296 667.077 199.787 667.18C200.291 667.271 200.765 667.432 201.211 667.66C201.669 667.878 202.023 668.204 202.275 668.638C202.527 669.073 202.652 669.593 202.652 670.199C202.652 671.389 202.224 672.298 201.366 672.927C200.508 673.556 199.473 673.871 198.261 673.871H192.599V673.322H194.229V662.394ZM196.459 673.322H197.866C198.712 673.322 199.33 673.03 199.719 672.447C200.119 671.852 200.319 671.114 200.319 670.234C200.319 669.41 200.113 668.764 199.702 668.295C199.29 667.826 198.678 667.592 197.866 667.592C197.42 667.592 196.951 667.637 196.459 667.729V673.322Z" fill="black"/>
<path d="M227.216 662.394H225.586V673.322H227.216V673.871H209.168V673.322H210.798V662.394H209.168V661.845H214.487V662.394H212.857V673.322H216.991V662.394H215.362V661.845H220.851V662.394H219.222V673.322H223.356V662.394H221.726V661.845H227.216V662.394Z" fill="black"/>
<path d="M237.817 673.871H228.502V673.322H230.132V662.394H228.502V661.845H237.371V665.361H236.822L236.239 662.394H232.362V667.454H234.695L235.055 665.447H235.622V669.993H235.073L234.695 668.003H232.362V673.322H236.685L237.268 670.182H237.817V673.871Z" fill="black"/>
<path d="M248.432 661.656H248.998V665.687H248.432C248.351 664.681 248.043 663.863 247.505 663.234C246.968 662.594 246.218 662.273 245.258 662.273C244.617 662.273 244.063 662.468 243.594 662.857C243.136 663.234 242.787 663.726 242.547 664.332C242.318 664.938 242.153 665.544 242.05 666.151C241.947 666.757 241.895 667.357 241.895 667.952C241.895 668.547 241.952 669.141 242.067 669.736C242.181 670.319 242.364 670.903 242.616 671.486C242.867 672.069 243.228 672.544 243.697 672.91C244.177 673.264 244.737 673.442 245.378 673.442C246.213 673.442 246.899 673.127 247.437 672.498C247.985 671.869 248.306 671.126 248.397 670.268H248.946V674.059H248.414L248.157 672.481C247.802 672.984 247.345 673.367 246.785 673.63C246.236 673.882 245.641 674.008 245 674.008C243.342 674.008 242.027 673.425 241.055 672.258C240.094 671.08 239.614 669.656 239.614 667.986C239.614 666.9 239.814 665.888 240.214 664.95C240.626 664.012 241.243 663.24 242.067 662.634C242.89 662.016 243.845 661.707 244.932 661.707C246.373 661.707 247.465 662.182 248.209 663.131L248.432 661.656Z" fill="black"/>
<path d="M251.013 665.344H250.464V661.845H260.483V665.344H259.934L259.368 662.462H256.588V673.322H258.218V673.871H252.728V673.322H254.358V662.462H251.579L251.013 665.344Z" fill="black"/>
<path d="M274.997 662.394H273.368V673.322H274.997V673.871H269.508V673.322H271.137V664.384L265.802 672.378V673.322H267.432V673.871H261.942V673.322H263.572V662.394H261.942V661.845H267.432V662.394H265.802V671.349L271.137 663.389V662.394H269.508V661.845H274.997V662.394Z" fill="black"/>
<path d="M276.66 677.267H276.111V673.322H277.347C278.673 672.498 279.422 669.782 279.594 665.173C279.605 664.898 279.623 664.498 279.645 663.972C279.645 663.823 279.651 663.594 279.663 663.286C279.685 662.965 279.703 662.725 279.714 662.565L277.896 662.394V661.845H287.297V662.394H285.667V673.322H287.297V677.267H286.748L286.182 673.871H277.226L276.66 677.267ZM280.212 665.259C280.154 666.219 280.103 666.991 280.057 667.575C280.011 668.146 279.908 668.873 279.748 669.753C279.588 670.622 279.382 671.366 279.131 671.983C278.913 672.51 278.633 672.956 278.29 673.322H283.437V662.394H280.366C280.354 662.577 280.337 662.817 280.314 663.114C280.303 663.4 280.297 663.594 280.297 663.697C280.263 664.006 280.246 664.326 280.246 664.658C280.234 664.761 280.229 664.887 280.229 665.035C280.217 665.104 280.212 665.178 280.212 665.259Z" fill="black"/>
<path d="M301.635 662.394H300.006V673.322H301.635V673.871H296.146V673.322H297.775V668.038H292.44V673.322H294.07V673.871H288.58V673.322H290.21V662.394H288.58V661.845H294.07V662.394H292.44V667.489H297.775V662.394H296.146V661.845H301.635V662.394Z" fill="black"/>
<path d="M312.236 673.871H302.921V673.322H304.551V662.394H302.921V661.845H311.79V665.361H311.241L310.658 662.394H306.781V667.454H309.114L309.474 665.447H310.04V669.993H309.491L309.114 668.003H306.781V673.322H311.104L311.687 670.182H312.236V673.871Z" fill="black"/>
<path d="M319.282 673.871H313.861V673.322H315.491V662.394H313.861V661.845H319.179C321.981 661.845 323.382 662.737 323.382 664.521C323.382 665.401 323.068 666.088 322.439 666.579C321.81 667.06 321.026 667.34 320.088 667.42V667.489C321.804 667.649 322.931 668.198 323.468 669.136C323.64 669.479 323.725 669.879 323.725 670.337C323.725 670.943 323.594 671.48 323.331 671.949C323.079 672.418 322.736 672.79 322.301 673.064C321.878 673.327 321.409 673.527 320.895 673.665C320.391 673.802 319.854 673.871 319.282 673.871ZM317.721 673.322H319.025C319.837 673.322 320.443 673.047 320.843 672.498C321.244 671.938 321.444 671.234 321.444 670.388C321.444 668.65 320.637 667.78 319.025 667.78H317.721V673.322ZM317.721 667.18H319.025C319.734 667.18 320.254 666.945 320.586 666.477C320.929 665.996 321.101 665.39 321.101 664.658C321.101 664.349 321.066 664.058 320.998 663.783C320.7 662.857 320.008 662.394 318.922 662.394H317.721V667.18Z" fill="black"/>
<path d="M331.81 666.442C331.879 666.294 331.965 666.071 332.068 665.773C332.102 665.682 332.148 665.533 332.205 665.327C332.274 665.121 332.325 664.967 332.359 664.864C332.394 664.761 332.445 664.607 332.514 664.401C332.582 664.183 332.634 664.018 332.668 663.903C332.702 663.789 332.742 663.64 332.788 663.457C332.845 663.263 332.885 663.126 332.908 663.045C333.148 662.153 333.743 661.707 334.693 661.707C335.15 661.707 335.522 661.822 335.808 662.05C336.094 662.268 336.236 662.599 336.236 663.045C336.236 663.389 336.122 663.674 335.893 663.903C335.665 664.132 335.379 664.246 335.036 664.246C334.704 664.246 334.429 664.149 334.212 663.955C333.995 663.76 333.886 663.497 333.886 663.166C333.886 662.834 334.001 662.554 334.229 662.325C334.092 662.348 333.966 662.405 333.852 662.496C333.715 662.599 333.595 662.811 333.492 663.131C333.457 663.246 333.406 663.406 333.337 663.612C333.28 663.817 333.24 663.96 333.217 664.04C333.16 664.235 333.074 664.504 332.96 664.847C332.903 665.018 332.828 665.264 332.737 665.584C332.622 665.928 332.531 666.191 332.462 666.374C332.245 666.934 331.919 667.289 331.484 667.437V667.506H331.845C332.211 667.506 332.531 667.534 332.805 667.592C333.08 667.637 333.309 667.729 333.492 667.866C333.675 667.992 333.823 668.118 333.938 668.244C334.052 668.369 334.149 668.57 334.229 668.844C334.321 669.107 334.384 669.336 334.418 669.53C334.464 669.713 334.521 669.999 334.59 670.388C334.635 670.674 334.687 670.937 334.744 671.177C334.778 671.394 334.813 671.583 334.847 671.743C334.881 671.903 334.915 672.075 334.95 672.258C335.098 672.967 335.579 673.322 336.391 673.322H336.923V673.871H335.018C334.252 673.871 333.68 673.716 333.303 673.407C332.937 673.099 332.714 672.573 332.634 671.829C332.634 671.806 332.617 671.732 332.582 671.606C332.559 671.48 332.537 671.372 332.514 671.28C332.457 671.04 332.405 670.777 332.359 670.491C332.314 670.182 332.245 669.788 332.153 669.307C332.073 668.895 331.953 668.581 331.793 668.364C331.645 668.135 331.387 667.981 331.021 667.9C330.792 667.866 330.518 667.849 330.198 667.849H328.963V673.322H330.592V673.871H325.103V673.322H326.732V662.394H325.103V661.845H330.592V662.394H328.963V667.3H330.026C330.484 667.3 330.855 667.249 331.141 667.146C331.427 667.031 331.65 666.797 331.81 666.442Z" fill="black"/>
<path d="M350.924 662.394H349.294V673.322H350.924V673.871H345.434V673.322H347.064V664.384L341.729 672.378V673.322H343.358V673.871H337.869V673.322H339.498V662.394H337.869V661.845H343.358V662.394H341.729V671.349L347.064 663.389V662.394H345.434V661.845H350.924V662.394Z" fill="black"/>
<path d="M35.7408 683.521H384.571" stroke="#E82D34" stroke-width="2"/>
<path d="M79.8106 744.473H78.8564L82.395 735.37H85.4963C86.5301 734.867 87.5904 733.992 88.6772 732.747C89.7904 731.475 90.7579 730.163 91.5797 728.812C92.4014 727.434 93.2893 725.751 94.2436 723.764C95.1978 721.776 95.9135 720.199 96.3906 719.033C96.8943 717.841 97.4774 716.41 98.1401 714.74C98.2196 714.555 98.3389 714.25 98.4979 713.826C98.6835 713.402 98.816 713.084 98.8955 712.872C99.1606 712.263 99.5317 711.322 100.009 710.05L96.1918 709.652L96.5497 708.579H116.311L115.913 709.652H112.334L103.07 735.37H106.649L103.667 744.473H102.713L104.025 736.444H84.4228L79.8106 744.473ZM99.81 713.667C98.7497 716.344 97.875 718.477 97.1858 720.067C96.5232 721.657 95.5954 723.631 94.4026 725.989C93.2363 728.321 92.0833 730.296 90.9435 731.912C89.8567 733.449 88.7699 734.602 87.6831 735.37H99.2931L108.557 709.652H101.48C101.268 710.129 101.029 710.699 100.764 711.362C100.499 711.945 100.314 712.382 100.208 712.673C100.155 712.806 100.102 712.938 100.049 713.071C99.9956 713.203 99.9426 713.336 99.8895 713.468C99.863 713.574 99.8365 713.641 99.81 713.667Z" fill="black"/>
<path d="M123.776 721.14C123.776 720.584 123.644 720.16 123.379 719.868C123.087 719.577 122.65 719.431 122.066 719.431C120.688 719.431 119.376 720.411 118.13 722.372C116.884 724.333 116.129 726.175 115.864 727.897C116.792 727.765 117.467 727.632 117.892 727.5C119.349 727.155 120.688 726.374 121.907 725.155C123.153 723.909 123.776 722.571 123.776 721.14ZM122.424 718.358C123.697 718.358 124.81 718.609 125.764 719.113C126.718 719.59 127.196 720.398 127.196 721.538C127.196 722.677 126.798 723.724 126.003 724.678C125.207 725.632 124.187 726.4 122.941 726.983C121.722 727.54 120.489 727.99 119.243 728.335C118.024 728.653 116.845 728.865 115.705 728.971C115.599 729.872 115.546 730.561 115.546 731.038C115.546 732.31 115.811 733.356 116.341 734.178C116.871 734.999 117.733 735.41 118.925 735.41C120.224 735.41 121.377 734.893 122.385 733.86C123.418 732.8 124.174 731.568 124.651 730.163L125.486 730.879C124.876 732.601 123.882 734.032 122.504 735.172C121.152 736.285 119.601 736.841 117.852 736.841C115.864 736.841 114.34 736.298 113.279 735.211C112.219 734.125 111.689 732.588 111.689 730.6C111.689 727.42 112.696 724.585 114.711 722.094C116.752 719.603 119.323 718.358 122.424 718.358Z" fill="black"/>
<path d="M139.648 718.238L136.507 727.023H142.75L145.732 718.755H149.509C149.191 719.63 148.448 721.736 147.282 725.075C147.176 725.393 147.017 725.83 146.805 726.387C146.62 726.917 146.487 727.288 146.407 727.5C146.301 727.818 146.142 728.242 145.93 728.772C145.745 729.302 145.639 729.62 145.612 729.726C145.453 730.176 145.254 730.759 145.016 731.475C144.83 732.058 144.724 732.389 144.698 732.469C144.539 732.999 144.459 733.476 144.459 733.9C144.459 734.668 144.83 735.052 145.573 735.052C147.004 735.052 148.25 733.582 149.31 730.64C149.549 729.845 149.681 729.289 149.708 728.971L150.622 729.607C149.27 734.43 147.123 736.841 144.181 736.841C143.492 736.841 142.948 736.748 142.551 736.563C141.756 736.112 141.265 735.49 141.08 734.695C140.974 734.377 140.921 734.006 140.921 733.582C140.921 732.999 141.013 732.376 141.199 731.713C141.384 731.051 141.702 730.057 142.153 728.732L142.352 728.096H136.11L133.167 736.444H129.39L135.314 719.828H131.577L131.935 718.755L139.648 718.238Z" fill="black"/>
<path d="M168.822 727.937C168.822 730.322 167.802 732.402 165.761 734.178C163.746 735.953 161.533 736.841 159.121 736.841C157.53 736.841 156.351 736.404 155.582 735.529C155.185 735.185 154.906 734.748 154.747 734.218C154.562 733.767 154.469 733.264 154.469 732.707C154.469 731.912 154.641 731.077 154.986 730.203L158.683 719.828H154.946L155.344 718.755L162.978 718.358L159.757 727.222C160.552 726.268 161.361 725.579 162.182 725.155C163.031 724.731 164.051 724.519 165.244 724.519C166.331 724.519 167.192 724.824 167.828 725.433C168.491 726.016 168.822 726.851 168.822 727.937ZM163.057 726.347C161.838 726.347 160.698 727.208 159.638 728.931C158.577 730.653 158.047 732.217 158.047 733.621C158.047 734.337 158.22 734.867 158.564 735.211C158.882 735.582 159.346 735.768 159.956 735.768C161.255 735.768 162.408 734.96 163.415 733.343C164.449 731.727 164.966 730.19 164.966 728.732C164.966 727.142 164.329 726.347 163.057 726.347Z" fill="black"/>
<path d="M195.312 729.805C195.312 731.634 194.411 733.264 192.609 734.695C190.806 736.126 188.951 736.841 187.042 736.841C185.107 736.841 183.609 736.232 182.549 735.013C181.489 733.794 180.959 732.19 180.959 730.203C180.959 726.996 182.046 724.174 184.219 721.736C186.393 719.298 189.057 718.079 192.211 718.079C193.324 718.079 194.345 718.318 195.272 718.795C196.2 719.272 196.664 720.014 196.664 721.021C196.664 722.478 196.001 723.658 194.676 724.559C193.351 725.46 191.813 726.135 190.064 726.586C190.143 726.586 190.236 726.572 190.342 726.546C190.448 726.519 190.541 726.506 190.621 726.506C193.748 726.506 195.312 727.606 195.312 729.805ZM184.975 727.937C184.816 728.732 184.736 729.739 184.736 730.958C184.736 732.177 184.961 733.25 185.412 734.178C185.889 735.079 186.671 735.529 187.758 735.529C188.924 735.529 189.825 734.986 190.461 733.9C191.124 732.813 191.455 731.634 191.455 730.362C191.455 728.401 190.475 727.42 188.513 727.42C187.957 727.42 187.347 727.46 186.684 727.54C185.889 727.672 185.319 727.805 184.975 727.937ZM191.734 723.803C192.423 722.955 192.768 721.962 192.768 720.822C192.768 719.683 192.211 719.113 191.098 719.113C189.825 719.113 188.606 719.987 187.44 721.736C186.273 723.485 185.531 725.155 185.213 726.745C186.724 726.559 187.983 726.268 188.99 725.87C190.024 725.446 190.939 724.757 191.734 723.803Z" fill="black"/>
<path d="M215.806 728.732L219.344 718.755H223.122L218.549 731.554C218.311 732.27 218.178 732.72 218.152 732.906C218.072 733.224 218.032 733.529 218.032 733.82C218.032 734.138 218.138 734.403 218.35 734.615C218.536 734.854 218.841 734.973 219.265 734.973C220.299 734.973 221.213 734.284 222.008 732.906C222.83 731.528 223.321 730.216 223.48 728.971L224.394 729.607C223.943 731.568 223.175 733.264 222.088 734.695C221.001 736.126 219.596 736.841 217.873 736.841C216.893 736.841 216.097 736.589 215.488 736.086C214.878 735.556 214.573 734.814 214.573 733.86C214.573 733.012 214.799 731.859 215.249 730.402C215.329 730.031 215.514 729.474 215.806 728.732ZM213.619 727.937C213.619 730.322 212.599 732.402 210.557 734.178C208.543 735.953 206.33 736.841 203.918 736.841C202.327 736.841 201.148 736.404 200.379 735.529C199.981 735.185 199.703 734.748 199.544 734.218C199.358 733.767 199.266 733.264 199.266 732.707C199.266 731.912 199.438 731.077 199.782 730.203L203.48 719.828H199.743L200.14 718.755L207.774 718.358L204.554 727.222C205.349 726.268 206.157 725.579 206.979 725.155C207.827 724.731 208.848 724.519 210.041 724.519C211.127 724.519 211.989 724.824 212.625 725.433C213.288 726.016 213.619 726.851 213.619 727.937ZM207.854 726.347C206.634 726.347 205.495 727.208 204.434 728.931C203.374 730.653 202.844 732.217 202.844 733.621C202.844 734.257 203.016 734.774 203.361 735.172C203.705 735.569 204.196 735.768 204.832 735.768C206.131 735.768 207.271 734.96 208.251 733.343C209.259 731.727 209.762 730.19 209.762 728.732C209.762 727.142 209.126 726.347 207.854 726.347Z" fill="black"/>
<path d="M227.368 730.243C227.368 727.434 228.243 724.307 229.992 720.862C231.768 717.417 233.836 714.979 236.195 713.548C237.176 712.859 238.806 712.276 241.085 711.799C242.225 711.56 242.874 711.428 243.034 711.401C243.617 711.269 244.081 711.15 244.425 711.044C245.141 710.832 245.684 710.514 246.055 710.09C246.426 709.666 246.798 709.03 247.169 708.182L248.083 708.738C247.579 711.362 246.784 713.097 245.697 713.945C244.611 714.793 242.715 715.416 240.012 715.814C239.8 715.867 239.521 715.933 239.177 716.012C238.832 716.065 238.633 716.092 238.58 716.092C234.313 716.94 231.357 719.828 229.714 724.757C231.543 721.047 234.313 719.192 238.024 719.192C240.038 719.192 241.629 719.722 242.795 720.782C243.988 721.842 244.584 723.366 244.584 725.354C244.584 727.155 244.094 728.944 243.113 730.72C242.159 732.469 240.847 733.926 239.177 735.092C237.533 736.232 235.797 736.801 233.968 736.801C231.901 736.801 230.284 736.232 229.117 735.092C227.951 733.926 227.368 732.31 227.368 730.243ZM237.825 720.266C236.579 720.266 235.413 720.994 234.326 722.452C233.239 723.883 232.431 725.473 231.901 727.222C231.371 728.971 231.105 730.508 231.105 731.833C231.105 733.29 231.397 734.31 231.98 734.893C232.484 735.476 233.16 735.768 234.008 735.768C234.75 735.768 235.466 735.49 236.155 734.933C236.871 734.35 237.48 733.621 237.984 732.747C238.514 731.872 238.951 731.011 239.296 730.163C239.667 729.315 239.945 728.52 240.131 727.778C240.502 726.347 240.688 725.022 240.688 723.803C240.688 722.77 240.449 721.922 239.972 721.259C239.521 720.597 238.806 720.266 237.825 720.266Z" fill="black"/>
<path d="M257.819 718.358C260.045 718.358 261.782 718.954 263.027 720.146C264.273 721.339 264.896 723.022 264.896 725.195C264.896 728.162 263.836 730.852 261.715 733.264C259.595 735.649 257.077 736.841 254.161 736.841C252.014 736.841 250.291 736.298 248.992 735.211C247.72 734.125 247.083 732.535 247.083 730.441C247.083 727.261 248.104 724.453 250.145 722.015C252.186 719.577 254.744 718.358 257.819 718.358ZM250.94 731.356C250.94 732.575 251.139 733.555 251.537 734.297C251.961 735.251 252.796 735.728 254.042 735.728C255.393 735.728 256.639 734.986 257.779 733.502C258.919 732.018 259.767 730.375 260.324 728.573C260.88 726.745 261.159 725.128 261.159 723.724C261.159 721.816 260.628 720.504 259.568 719.789C259.197 719.577 258.733 719.471 258.177 719.471C256.745 719.471 255.446 720.199 254.28 721.657C253.14 723.114 252.292 724.731 251.735 726.506C251.205 728.282 250.94 729.898 250.94 731.356Z" fill="black"/>
<path d="M275.102 734.973C276.057 734.973 277.024 734.456 278.005 733.423C278.986 732.363 279.754 731.263 280.311 730.123C280.894 728.957 281.358 727.831 281.703 726.745C282.127 725.393 282.339 724.108 282.339 722.889C282.339 721.061 281.676 720.146 280.351 720.146C279.105 720.146 277.886 720.941 276.693 722.531C275.5 724.121 274.559 725.778 273.87 727.5L273.432 728.573C273.035 729.819 272.836 730.971 272.836 732.031C272.836 732.853 273.035 733.542 273.432 734.098C273.777 734.681 274.334 734.973 275.102 734.973ZM281.941 718.358C283.399 718.358 284.473 718.795 285.162 719.669C285.877 720.544 286.235 721.723 286.235 723.207C286.235 725.009 285.798 726.957 284.923 729.05C284.048 731.117 282.776 732.932 281.106 734.496C279.436 736.059 277.647 736.841 275.738 736.841C274.572 736.841 273.671 736.497 273.035 735.808C272.399 735.092 272.081 734.151 272.081 732.985C272.081 732.8 272.094 732.654 272.12 732.548C272.12 732.363 272.134 732.217 272.16 732.111L267.27 745.785H270.45L270.053 746.858H259.914L260.312 745.785H263.492L272.756 719.868H269.178L269.576 718.755L276.176 718.278C276.176 719.709 275.725 721.392 274.824 723.326L274.943 723.406C276.799 720.04 279.131 718.358 281.941 718.358Z" fill="black"/>
<path d="M299.559 718.358C301.786 718.358 303.522 718.954 304.768 720.146C306.014 721.339 306.637 723.022 306.637 725.195C306.637 728.162 305.576 730.852 303.456 733.264C301.335 735.649 298.817 736.841 295.901 736.841C293.754 736.841 292.031 736.298 290.732 735.211C289.46 734.125 288.824 732.535 288.824 730.441C288.824 727.261 289.844 724.453 291.885 722.015C293.927 719.577 296.484 718.358 299.559 718.358ZM292.681 731.356C292.681 732.575 292.88 733.555 293.277 734.297C293.701 735.251 294.536 735.728 295.782 735.728C297.134 735.728 298.38 734.986 299.519 733.502C300.659 732.018 301.507 730.375 302.064 728.573C302.621 726.745 302.899 725.128 302.899 723.724C302.899 721.816 302.369 720.504 301.309 719.789C300.938 719.577 300.474 719.471 299.917 719.471C298.486 719.471 297.187 720.199 296.021 721.657C294.881 723.114 294.033 724.731 293.476 726.506C292.946 728.282 292.681 729.898 292.681 731.356Z" fill="black"/>
<path d="M323.562 729.805C323.562 731.634 322.661 733.264 320.859 734.695C319.056 736.126 317.201 736.841 315.292 736.841C313.357 736.841 311.86 736.232 310.799 735.013C309.739 733.794 309.209 732.19 309.209 730.203C309.209 726.996 310.296 724.174 312.469 721.736C314.643 719.298 317.307 718.079 320.461 718.079C321.574 718.079 322.595 718.318 323.523 718.795C324.45 719.272 324.914 720.014 324.914 721.021C324.914 722.478 324.251 723.658 322.926 724.559C321.601 725.46 320.063 726.135 318.314 726.586C318.393 726.586 318.486 726.572 318.592 726.546C318.698 726.519 318.791 726.506 318.871 726.506C321.998 726.506 323.562 727.606 323.562 729.805ZM313.225 727.937C313.066 728.732 312.986 729.739 312.986 730.958C312.986 732.177 313.211 733.25 313.662 734.178C314.139 735.079 314.921 735.529 316.008 735.529C317.174 735.529 318.075 734.986 318.712 733.9C319.374 732.813 319.706 731.634 319.706 730.362C319.706 728.401 318.725 727.42 316.763 727.42C316.207 727.42 315.597 727.46 314.934 727.54C314.139 727.672 313.569 727.805 313.225 727.937ZM319.984 723.803C320.673 722.955 321.018 721.962 321.018 720.822C321.018 719.683 320.461 719.113 319.348 719.113C318.075 719.113 316.856 719.987 315.69 721.736C314.523 723.485 313.781 725.155 313.463 726.745C314.974 726.559 316.233 726.268 317.24 725.87C318.274 725.446 319.189 724.757 319.984 723.803Z" fill="black"/>
<path d="M50.0942 771.211C50.0942 773.04 49.193 774.67 47.3905 776.101C45.588 777.532 43.7326 778.247 41.8241 778.247C39.8891 778.247 38.3914 777.638 37.3312 776.419C36.2709 775.2 35.7408 773.596 35.7408 771.609C35.7408 768.402 36.8275 765.58 39.0011 763.142C41.1747 760.704 43.8386 759.485 46.9929 759.485C48.1062 759.485 49.1267 759.724 50.0544 760.201C50.9822 760.678 51.446 761.42 51.446 762.427C51.446 763.884 50.7834 765.063 49.458 765.964C48.1327 766.865 46.5953 767.541 44.8458 767.992C44.9254 767.992 45.0181 767.978 45.1242 767.952C45.2302 767.925 45.323 767.912 45.4025 767.912C48.5303 767.912 50.0942 769.012 50.0942 771.211ZM39.7565 769.343C39.5975 770.138 39.518 771.145 39.518 772.364C39.518 773.583 39.7433 774.656 40.1939 775.584C40.671 776.485 41.453 776.935 42.5398 776.935C43.7061 776.935 44.6073 776.392 45.2435 775.306C45.9061 774.219 46.2375 773.04 46.2375 771.768C46.2375 769.807 45.2567 768.826 43.2952 768.826C42.7386 768.826 42.1289 768.866 41.4662 768.946C40.671 769.078 40.1011 769.211 39.7565 769.343ZM46.5158 765.209C47.205 764.361 47.5495 763.367 47.5495 762.228C47.5495 761.088 46.9929 760.519 45.8796 760.519C44.6073 760.519 43.388 761.393 42.2217 763.142C41.0554 764.891 40.3132 766.561 39.9951 768.151C41.506 767.965 42.7651 767.674 43.7723 767.276C44.8061 766.852 45.7206 766.163 46.5158 765.209Z" fill="black"/>
<path d="M71.7197 777.85H59.8314L60.1893 776.776H63.6882L72.9523 751.058H69.4136L69.8112 749.985H78.9959C79.9766 749.985 80.8911 750.051 81.7393 750.184C82.614 750.316 83.502 750.555 84.4032 750.899C85.331 751.217 86.0599 751.734 86.5901 752.45C87.1202 753.139 87.3853 753.987 87.3853 754.994C87.3853 757.246 86.4575 759.141 84.602 760.678C82.7731 762.215 80.6923 763.023 78.3597 763.102L78.3199 763.261C81.8983 764.056 83.6876 765.752 83.6876 768.349C83.6876 770.337 83.0646 772.086 81.8188 773.596C80.573 775.08 79.0621 776.167 77.2862 776.856C75.5102 777.518 73.6547 777.85 71.7197 777.85ZM72.1571 763.778L67.4654 776.776H71.9981C74.2246 776.776 76.0801 775.809 77.5645 773.875C79.0489 771.94 79.7911 769.82 79.7911 767.515C79.7911 765.024 78.3199 763.778 75.3777 763.778H72.1571ZM72.5547 762.705H76.2524C78.1874 762.705 79.8573 761.87 81.2622 760.201C82.6936 758.505 83.4092 756.676 83.4092 754.715C83.4092 752.277 81.8453 751.058 78.7175 751.058H76.7295L72.5547 762.705Z" fill="black"/>
<path d="M98.693 762.546C98.693 761.989 98.5605 761.565 98.2954 761.274C98.0038 760.982 97.5665 760.837 96.9833 760.837C95.605 760.837 94.2929 761.817 93.0471 763.778C91.8012 765.739 91.0458 767.581 90.7807 769.303C91.7085 769.171 92.3844 769.038 92.8085 768.906C94.2664 768.561 95.605 767.78 96.8243 766.561C98.0701 765.315 98.693 763.977 98.693 762.546ZM97.3412 759.763C98.6135 759.763 99.7268 760.015 100.681 760.519C101.635 760.996 102.112 761.804 102.112 762.943C102.112 764.083 101.715 765.13 100.92 766.084C100.124 767.038 99.1039 767.806 97.858 768.389C96.6387 768.946 95.4062 769.396 94.1603 769.741C92.941 770.059 91.7615 770.271 90.6217 770.377C90.5157 771.278 90.4626 771.967 90.4626 772.444C90.4626 773.716 90.7277 774.762 91.2578 775.584C91.788 776.405 92.6495 776.816 93.8423 776.816C95.1411 776.816 96.2941 776.299 97.3014 775.266C98.3352 774.206 99.0906 772.974 99.5677 771.569L100.403 772.285C99.793 774.007 98.799 775.438 97.4207 776.578C96.0688 777.691 94.5182 778.247 92.7687 778.247C90.7807 778.247 89.2566 777.704 88.1963 776.617C87.136 775.531 86.6059 773.994 86.6059 772.006C86.6059 768.826 87.6132 765.991 89.6277 763.5C91.6687 761.009 94.2399 759.763 97.3412 759.763Z" fill="black"/>
<path d="M112.14 776.379C113.094 776.379 114.061 775.862 115.042 774.829C116.023 773.769 116.792 772.669 117.348 771.529C117.931 770.363 118.395 769.237 118.74 768.151C119.164 766.799 119.376 765.514 119.376 764.295C119.376 762.466 118.713 761.552 117.388 761.552C116.142 761.552 114.923 762.347 113.73 763.937C112.537 765.527 111.596 767.183 110.907 768.906L110.47 769.979C110.072 771.225 109.873 772.377 109.873 773.437C109.873 774.259 110.072 774.948 110.47 775.504C110.814 776.087 111.371 776.379 112.14 776.379ZM118.978 759.763C120.436 759.763 121.51 760.201 122.199 761.075C122.915 761.95 123.273 763.129 123.273 764.613C123.273 766.415 122.835 768.363 121.961 770.456C121.086 772.523 119.813 774.338 118.144 775.902C116.474 777.465 114.684 778.247 112.776 778.247C111.61 778.247 110.708 777.903 110.072 777.214C109.436 776.498 109.118 775.557 109.118 774.391C109.118 774.206 109.131 774.06 109.158 773.954C109.158 773.769 109.171 773.623 109.197 773.517L104.307 787.191H107.488L107.09 788.264H96.9513L97.3489 787.191H100.53L109.794 761.274H106.215L106.613 760.161L113.213 759.684C113.213 761.115 112.763 762.798 111.861 764.732L111.981 764.812C113.836 761.446 116.169 759.763 118.978 759.763Z" fill="black"/>
<path d="M144.032 759.763C145.463 759.763 146.417 760.413 146.895 761.711C146.974 762.082 147.014 762.374 147.014 762.586C147.014 763.275 146.828 763.871 146.457 764.374C146.113 764.851 145.609 765.09 144.946 765.09C144.469 765.09 144.058 764.918 143.714 764.573C143.343 764.255 143.157 763.831 143.157 763.301C143.157 762.771 143.316 762.321 143.634 761.95C143.979 761.552 144.416 761.287 144.946 761.155C144.655 760.943 144.284 760.837 143.833 760.837C143.25 760.837 142.693 760.996 142.163 761.314C141.633 761.632 141.143 762.082 140.692 762.665C140.241 763.248 139.883 763.765 139.618 764.215C139.353 764.666 139.049 765.209 138.704 765.845C138.121 766.905 137.657 767.939 137.312 768.946V773.954C137.312 774.935 137.471 775.584 137.789 775.902C138.055 776.246 138.465 776.419 139.022 776.419C140.215 776.419 141.156 775.769 141.845 774.471C142.561 773.172 142.972 771.834 143.078 770.456L143.913 771.092C143.833 772.788 143.223 774.418 142.084 775.981C140.944 777.545 139.565 778.327 137.948 778.327C137.206 778.327 136.557 778.221 136 778.009C135.444 777.744 135.033 777.412 134.768 777.015C134.185 776.193 133.893 775.054 133.893 773.596V771.49C133.336 772.55 132.899 773.358 132.581 773.914C132.263 774.444 131.786 775.094 131.149 775.862C130.54 776.631 129.89 777.253 129.201 777.73C128.698 778.075 128.048 778.247 127.253 778.247C126.352 778.247 125.596 777.982 124.987 777.452C124.377 776.896 124.072 776.167 124.072 775.266C124.072 774.55 124.244 773.954 124.589 773.477C124.96 773 125.49 772.762 126.179 772.762C126.71 772.762 127.147 772.934 127.492 773.278C127.836 773.623 128.008 774.047 128.008 774.55C128.008 775.557 127.425 776.326 126.259 776.856C126.471 777.068 126.816 777.174 127.293 777.174C128.406 777.174 129.493 776.472 130.553 775.067C132.037 773.053 133.151 771.066 133.893 769.105V765.289C133.893 764.017 133.774 763.102 133.535 762.546C133.244 762.016 132.766 761.751 132.104 761.751C131.017 761.751 130.116 762.374 129.4 763.619C128.711 764.865 128.247 766.176 128.008 767.554L127.094 766.918C127.492 764.931 128.207 763.248 129.241 761.87C130.301 760.466 131.719 759.763 133.495 759.763C135.033 759.763 136.053 760.174 136.557 760.996C137.06 761.791 137.312 763.01 137.312 764.653V766.322C137.63 765.633 137.909 765.05 138.147 764.573C138.412 764.07 138.757 763.5 139.181 762.864C139.632 762.201 140.069 761.671 140.493 761.274C140.944 760.85 141.474 760.492 142.084 760.201C142.693 759.909 143.343 759.763 144.032 759.763Z" fill="black"/>
<path d="M159.467 759.763C161.693 759.763 163.429 760.36 164.675 761.552C165.921 762.745 166.544 764.427 166.544 766.6C166.544 769.568 165.484 772.258 163.363 774.67C161.242 777.055 158.724 778.247 155.809 778.247C153.662 778.247 151.939 777.704 150.64 776.617C149.367 775.531 148.731 773.941 148.731 771.847C148.731 768.667 149.752 765.858 151.793 763.42C153.834 760.982 156.392 759.763 159.467 759.763ZM152.588 772.762C152.588 773.981 152.787 774.961 153.184 775.703C153.609 776.657 154.443 777.134 155.689 777.134C157.041 777.134 158.287 776.392 159.427 774.908C160.567 773.424 161.415 771.781 161.971 769.979C162.528 768.151 162.806 766.534 162.806 765.13C162.806 763.222 162.276 761.91 161.216 761.194C160.845 760.982 160.381 760.876 159.824 760.876C158.393 760.876 157.094 761.605 155.928 763.063C154.788 764.52 153.94 766.137 153.383 767.912C152.853 769.688 152.588 771.304 152.588 772.762Z" fill="black"/>
<path d="M183.47 771.211C183.47 773.04 182.568 774.67 180.766 776.101C178.963 777.532 177.108 778.247 175.199 778.247C173.264 778.247 171.767 777.638 170.707 776.419C169.646 775.2 169.116 773.596 169.116 771.609C169.116 768.402 170.203 765.58 172.376 763.142C174.55 760.704 177.214 759.485 180.368 759.485C181.482 759.485 182.502 759.724 183.43 760.201C184.358 760.678 184.821 761.42 184.821 762.427C184.821 763.884 184.159 765.063 182.833 765.964C181.508 766.865 179.971 767.541 178.221 767.992C178.301 767.992 178.394 767.978 178.5 767.952C178.606 767.925 178.698 767.912 178.778 767.912C181.906 767.912 183.47 769.012 183.47 771.211ZM173.132 769.343C172.973 770.138 172.893 771.145 172.893 772.364C172.893 773.583 173.119 774.656 173.569 775.584C174.046 776.485 174.828 776.935 175.915 776.935C177.081 776.935 177.983 776.392 178.619 775.306C179.282 774.219 179.613 773.04 179.613 771.768C179.613 769.807 178.632 768.826 176.671 768.826C176.114 768.826 175.504 768.866 174.842 768.946C174.046 769.078 173.477 769.211 173.132 769.343ZM179.891 765.209C180.58 764.361 180.925 763.367 180.925 762.228C180.925 761.088 180.368 760.519 179.255 760.519C177.983 760.519 176.763 761.393 175.597 763.142C174.431 764.891 173.689 766.561 173.37 768.151C174.881 767.965 176.14 767.674 177.148 767.276C178.181 766.852 179.096 766.163 179.891 765.209Z" fill="black"/>
<path d="M196.687 759.644L193.546 768.429H199.788L202.77 760.161H206.548C206.23 761.035 205.487 763.142 204.321 766.481C204.215 766.799 204.056 767.236 203.844 767.793C203.658 768.323 203.526 768.694 203.446 768.906C203.34 769.224 203.181 769.648 202.969 770.178C202.784 770.708 202.678 771.026 202.651 771.132C202.492 771.582 202.293 772.165 202.055 772.881C201.869 773.464 201.763 773.795 201.737 773.875C201.578 774.405 201.498 774.882 201.498 775.306C201.498 776.074 201.869 776.458 202.611 776.458C204.043 776.458 205.289 774.988 206.349 772.046C206.587 771.251 206.72 770.695 206.746 770.377L207.661 771.013C206.309 775.836 204.162 778.247 201.22 778.247C200.531 778.247 199.987 778.154 199.59 777.969C198.794 777.518 198.304 776.896 198.118 776.101C198.012 775.783 197.959 775.412 197.959 774.988C197.959 774.405 198.052 773.782 198.238 773.119C198.423 772.457 198.741 771.463 199.192 770.138L199.391 769.502H193.148L190.206 777.85H186.429L192.353 761.234H188.616L188.974 760.161L196.687 759.644Z" fill="black"/>
<path d="M227.571 770.138L231.109 760.161H234.887L230.314 772.96C230.076 773.676 229.943 774.126 229.917 774.312C229.837 774.63 229.797 774.935 229.797 775.226C229.797 775.544 229.903 775.809 230.115 776.021C230.301 776.26 230.606 776.379 231.03 776.379C232.064 776.379 232.978 775.69 233.773 774.312C234.595 772.934 235.086 771.622 235.245 770.377L236.159 771.013C235.708 772.974 234.94 774.67 233.853 776.101C232.766 777.532 231.361 778.247 229.638 778.247C228.658 778.247 227.862 777.995 227.253 777.492C226.643 776.962 226.338 776.22 226.338 775.266C226.338 774.418 226.564 773.265 227.014 771.808C227.094 771.437 227.279 770.88 227.571 770.138ZM225.384 769.343C225.384 771.728 224.364 773.808 222.322 775.584C220.308 777.359 218.095 778.247 215.683 778.247C214.092 778.247 212.913 777.81 212.144 776.935C211.746 776.591 211.468 776.154 211.309 775.624C211.123 775.173 211.031 774.67 211.031 774.113C211.031 773.318 211.203 772.483 211.547 771.609L215.245 761.234H211.508L211.905 760.161L219.539 759.763L216.319 768.628C217.114 767.674 217.922 766.985 218.744 766.561C219.592 766.137 220.613 765.925 221.806 765.925C222.892 765.925 223.754 766.229 224.39 766.839C225.053 767.422 225.384 768.257 225.384 769.343ZM219.619 767.753C218.399 767.753 217.26 768.614 216.199 770.337C215.139 772.059 214.609 773.623 214.609 775.027C214.609 775.663 214.781 776.18 215.126 776.578C215.47 776.975 215.961 777.174 216.597 777.174C217.896 777.174 219.036 776.366 220.016 774.749C221.024 773.133 221.527 771.596 221.527 770.138C221.527 768.548 220.891 767.753 219.619 767.753Z" fill="black"/>
<path d="M251.657 757.418C248.503 757.418 246.926 756.398 246.926 754.358C246.926 753.695 247.125 753.139 247.522 752.688C247.92 752.211 248.437 751.973 249.073 751.973C250.16 751.973 250.703 752.463 250.703 753.443C250.703 754.026 250.491 754.49 250.067 754.835C249.643 755.153 249.126 755.338 248.516 755.391C248.967 756.133 250.054 756.504 251.777 756.504C253.606 756.504 254.931 756.093 255.753 755.272H255.554C255.156 755.272 254.891 755.166 254.759 754.954C254.52 754.689 254.401 754.384 254.401 754.04C254.401 753.483 254.6 753.006 254.997 752.609C255.421 752.185 255.912 751.973 256.468 751.973C257.555 751.973 258.099 752.45 258.099 753.404C258.099 754.278 257.714 755.047 256.946 755.709C256.177 756.345 255.329 756.795 254.401 757.06C253.473 757.299 252.559 757.418 251.657 757.418ZM254.043 760.161H257.82C257.502 761.035 256.76 763.142 255.594 766.481C255.488 766.799 255.329 767.236 255.117 767.793C254.931 768.323 254.799 768.694 254.719 768.906C254.613 769.224 254.454 769.648 254.242 770.178C254.056 770.708 253.95 771.026 253.924 771.132C253.765 771.582 253.566 772.165 253.327 772.881C253.115 773.464 253.009 773.795 253.009 773.875C252.85 774.405 252.771 774.882 252.771 775.306C252.771 776.021 253.142 776.379 253.884 776.379C254.732 776.379 255.501 775.928 256.19 775.027C256.879 774.126 257.409 773.159 257.781 772.126C258.019 771.331 258.152 770.748 258.178 770.377L259.093 771.013C258.775 772.841 257.993 774.511 256.747 776.021C255.527 777.505 254.07 778.247 252.373 778.247C251.419 778.247 250.65 778.035 250.067 777.611C249.484 777.161 249.192 776.485 249.192 775.584C249.192 775.425 249.219 775.133 249.272 774.709C249.298 774.603 249.325 774.471 249.351 774.312C249.404 774.126 249.431 773.994 249.431 773.914C247.761 776.803 245.733 778.247 243.348 778.247C242.234 778.247 241.32 777.916 240.604 777.253C239.888 776.591 239.531 775.716 239.531 774.63C239.531 773.755 239.676 772.854 239.968 771.927L243.745 761.274H240.167L240.564 760.161L248.039 759.763L243.745 771.768C243.321 772.96 243.109 773.914 243.109 774.63C243.109 775.186 243.268 775.61 243.586 775.902C243.904 776.22 244.302 776.379 244.779 776.379C246.025 776.379 247.165 775.69 248.198 774.312C249.232 772.907 250.041 771.397 250.624 769.78L254.043 760.161Z" fill="black"/>
<path d="M298.599 749.627H299.553L296.213 758.968H295.219C295.379 758.385 295.485 757.935 295.538 757.617C295.591 757.034 295.617 756.623 295.617 756.385C295.617 752.701 293.921 750.86 290.528 750.86C289.07 750.86 287.678 751.217 286.353 751.933C285.028 752.648 283.861 753.602 282.854 754.795C281.873 755.987 281.012 757.246 280.27 758.571C279.554 759.869 278.971 761.208 278.52 762.586C277.778 764.891 277.407 767.369 277.407 770.019C277.407 771.98 277.791 773.61 278.56 774.908C279.329 776.207 280.614 776.856 282.417 776.856C284.431 776.856 286.313 776.14 288.063 774.709C289.812 773.278 291.177 771.543 292.158 769.502H293.152L289.971 778.287H289.017L289.892 774.59C287.506 776.975 284.776 778.168 281.701 778.168C279.077 778.168 277.036 777.333 275.578 775.663C274.147 773.967 273.431 771.808 273.431 769.184C273.431 766.057 274.12 763.023 275.498 760.081C276.877 757.113 278.865 754.649 281.462 752.688C284.087 750.727 286.989 749.747 290.17 749.747C291.919 749.747 293.311 750.065 294.345 750.701C295.405 751.337 296.16 752.45 296.611 754.04L298.599 749.627Z" fill="black"/>
<path d="M308.179 759.763C310.406 759.763 312.142 760.36 313.388 761.552C314.634 762.745 315.256 764.427 315.256 766.6C315.256 769.568 314.196 772.258 312.076 774.67C309.955 777.055 307.437 778.247 304.521 778.247C302.374 778.247 300.651 777.704 299.352 776.617C298.08 775.531 297.444 773.941 297.444 771.847C297.444 768.667 298.464 765.858 300.505 763.42C302.546 760.982 305.104 759.763 308.179 759.763ZM301.301 772.762C301.301 773.981 301.499 774.961 301.897 775.703C302.321 776.657 303.156 777.134 304.402 777.134C305.754 777.134 307 776.392 308.139 774.908C309.279 773.424 310.127 771.781 310.684 769.979C311.241 768.151 311.519 766.534 311.519 765.13C311.519 763.222 310.989 761.91 309.929 761.194C309.557 760.982 309.094 760.876 308.537 760.876C307.106 760.876 305.807 761.605 304.64 763.063C303.501 764.52 302.652 766.137 302.096 767.912C301.566 769.688 301.301 771.304 301.301 772.762Z" fill="black"/>
<path d="M332.182 771.211C332.182 773.04 331.281 774.67 329.478 776.101C327.676 777.532 325.821 778.247 323.912 778.247C321.977 778.247 320.479 777.638 319.419 776.419C318.359 775.2 317.829 773.596 317.829 771.609C317.829 768.402 318.916 765.58 321.089 763.142C323.263 760.704 325.927 759.485 329.081 759.485C330.194 759.485 331.215 759.724 332.142 760.201C333.07 760.678 333.534 761.42 333.534 762.427C333.534 763.884 332.871 765.063 331.546 765.964C330.221 766.865 328.683 767.541 326.934 767.992C327.013 767.992 327.106 767.978 327.212 767.952C327.318 767.925 327.411 767.912 327.49 767.912C330.618 767.912 332.182 769.012 332.182 771.211ZM321.845 769.343C321.685 770.138 321.606 771.145 321.606 772.364C321.606 773.583 321.831 774.656 322.282 775.584C322.759 776.485 323.541 776.935 324.628 776.935C325.794 776.935 326.695 776.392 327.331 775.306C327.994 774.219 328.325 773.04 328.325 771.768C328.325 769.807 327.345 768.826 325.383 768.826C324.827 768.826 324.217 768.866 323.554 768.946C322.759 769.078 322.189 769.211 321.845 769.343ZM328.604 765.209C329.293 764.361 329.638 763.367 329.638 762.228C329.638 761.088 329.081 760.519 327.968 760.519C326.695 760.519 325.476 761.393 324.31 763.142C323.143 764.891 322.401 766.561 322.083 768.151C323.594 767.965 324.853 767.674 325.86 767.276C326.894 766.852 327.809 766.163 328.604 765.209Z" fill="black"/>
<path d="M347.427 762.546C347.427 761.989 347.295 761.565 347.03 761.274C346.738 760.982 346.301 760.837 345.718 760.837C344.339 760.837 343.027 761.817 341.781 763.778C340.536 765.739 339.78 767.581 339.515 769.303C340.443 769.171 341.119 769.038 341.543 768.906C343.001 768.561 344.339 767.78 345.559 766.561C346.805 765.315 347.427 763.977 347.427 762.546ZM346.076 759.763C347.348 759.763 348.461 760.015 349.415 760.519C350.37 760.996 350.847 761.804 350.847 762.943C350.847 764.083 350.449 765.13 349.654 766.084C348.859 767.038 347.838 767.806 346.592 768.389C345.373 768.946 344.141 769.396 342.895 769.741C341.675 770.059 340.496 770.271 339.356 770.377C339.25 771.278 339.197 771.967 339.197 772.444C339.197 773.716 339.462 774.762 339.992 775.584C340.522 776.405 341.384 776.816 342.577 776.816C343.876 776.816 345.029 776.299 346.036 775.266C347.07 774.206 347.825 772.974 348.302 771.569L349.137 772.285C348.527 774.007 347.533 775.438 346.155 776.578C344.803 777.691 343.253 778.247 341.503 778.247C339.515 778.247 337.991 777.704 336.931 776.617C335.87 775.531 335.34 773.994 335.34 772.006C335.34 768.826 336.348 765.991 338.362 763.5C340.403 761.009 342.974 759.763 346.076 759.763Z" fill="black"/>
<path d="M367.912 759.763C368.919 759.763 369.741 760.042 370.377 760.598C370.987 761.208 371.291 762.003 371.291 762.983C371.291 763.328 371.278 763.593 371.252 763.778C371.225 763.884 371.185 764.043 371.132 764.255C371.106 764.467 371.093 764.626 371.093 764.732L371.252 764.812C372.126 763.222 373.081 761.989 374.114 761.115C375.175 760.214 376.473 759.763 378.011 759.763C380.317 759.763 381.47 760.863 381.47 763.063C381.47 764.202 381.139 765.686 380.476 767.515L378.051 773.954C377.892 774.484 377.812 774.895 377.812 775.186C377.812 775.504 377.905 775.769 378.09 775.981C378.302 776.193 378.567 776.299 378.886 776.299C379.866 776.299 380.728 775.637 381.47 774.312C382.212 772.96 382.703 771.649 382.941 770.377L383.856 770.973C382.53 775.822 380.33 778.247 377.255 778.247C376.301 778.247 375.532 777.995 374.949 777.492C374.366 776.988 374.075 776.26 374.075 775.306C374.075 774.908 374.128 774.511 374.234 774.113C374.287 773.822 374.432 773.318 374.671 772.603L376.778 767.197C377.255 766.031 377.494 764.891 377.494 763.778C377.494 763.328 377.375 762.917 377.136 762.546C376.871 762.228 376.434 762.069 375.824 762.069C374.923 762.069 373.969 762.652 372.961 763.818C371.981 764.957 371.185 766.137 370.576 767.356C369.993 768.575 369.515 769.754 369.144 770.893L366.679 777.85H362.902L366.798 766.958C367.223 765.845 367.435 764.785 367.435 763.778C367.435 762.639 366.878 762.069 365.765 762.069C364.81 762.069 363.816 762.705 362.783 763.977C361.775 765.249 360.98 766.521 360.397 767.793C359.814 769.038 359.31 770.284 358.886 771.529L356.66 777.85H352.882L358.767 761.274H355.188L355.586 760.161L362.306 759.684C362.306 760.797 362.067 762.003 361.59 763.301L361.113 764.732L361.272 764.812C362.942 761.446 365.155 759.763 367.912 759.763Z" fill="black"/>
<path d="M187.705 791.033H188.66L185.32 800.374H184.326C184.485 799.791 184.591 799.341 184.644 799.023C184.697 798.44 184.723 798.029 184.723 797.791C184.723 794.107 183.027 792.265 179.634 792.265C178.176 792.265 176.784 792.623 175.459 793.339C174.134 794.054 172.968 795.008 171.96 796.201C170.979 797.393 170.118 798.652 169.376 799.977C168.66 801.275 168.077 802.614 167.626 803.992C166.884 806.297 166.513 808.775 166.513 811.425C166.513 813.386 166.897 815.016 167.666 816.314C168.435 817.613 169.72 818.262 171.523 818.262C173.537 818.262 175.419 817.546 177.169 816.115C178.918 814.684 180.283 812.949 181.264 810.908H182.258L179.077 819.693H178.123L178.998 815.996C176.612 818.381 173.882 819.574 170.807 819.574C168.183 819.574 166.142 818.739 164.684 817.069C163.253 815.373 162.537 813.214 162.537 810.59C162.537 807.463 163.226 804.429 164.605 801.487C165.983 798.519 167.971 796.055 170.569 794.094C173.193 792.133 176.095 791.152 179.276 791.152C181.026 791.152 182.417 791.47 183.451 792.106C184.511 792.742 185.267 793.855 185.717 795.445L187.705 791.033Z" fill="black"/>
<path d="M214.303 791.033H215.257L211.917 800.374H210.923C211.082 799.791 211.188 799.341 211.241 799.023C211.294 798.44 211.321 798.029 211.321 797.791C211.321 794.107 209.624 792.265 206.231 792.265C204.774 792.265 203.382 792.623 202.057 793.339C200.731 794.054 199.565 795.008 198.558 796.201C197.577 797.393 196.715 798.652 195.973 799.977C195.258 801.275 194.674 802.614 194.224 803.992C193.482 806.297 193.111 808.775 193.111 811.425C193.111 813.386 193.495 815.016 194.264 816.314C195.032 817.613 196.318 818.262 198.12 818.262C200.135 818.262 202.017 817.546 203.766 816.115C205.516 814.684 206.881 812.949 207.862 810.908H208.856L205.675 819.693H204.721L205.595 815.996C203.21 818.381 200.479 819.574 197.405 819.574C194.78 819.574 192.739 818.739 191.282 817.069C189.85 815.373 189.134 813.214 189.134 810.59C189.134 807.463 189.824 804.429 191.202 801.487C192.58 798.519 194.568 796.055 197.166 794.094C199.79 792.133 202.693 791.152 205.874 791.152C207.623 791.152 209.015 791.47 210.048 792.106C211.109 792.742 211.864 793.855 212.315 795.445L214.303 791.033Z" fill="black"/>
<path d="M240.9 791.033H241.854L238.515 800.374H237.521C237.68 799.791 237.786 799.341 237.839 799.023C237.892 798.44 237.918 798.029 237.918 797.791C237.918 794.107 236.222 792.265 232.829 792.265C231.371 792.265 229.979 792.623 228.654 793.339C227.329 794.054 226.162 795.008 225.155 796.201C224.174 797.393 223.313 798.652 222.571 799.977C221.855 801.275 221.272 802.614 220.821 803.992C220.079 806.297 219.708 808.775 219.708 811.425C219.708 813.386 220.092 815.016 220.861 816.314C221.63 817.613 222.915 818.262 224.718 818.262C226.732 818.262 228.614 817.546 230.364 816.115C232.113 814.684 233.478 812.949 234.459 810.908H235.453L232.272 819.693H231.318L232.193 815.996C229.807 818.381 227.077 819.574 224.002 819.574C221.378 819.574 219.337 818.739 217.879 817.069C216.448 815.373 215.732 813.214 215.732 810.59C215.732 807.463 216.421 804.429 217.799 801.487C219.178 798.519 221.166 796.055 223.763 794.094C226.388 792.133 229.29 791.152 232.471 791.152C234.22 791.152 235.612 791.47 236.646 792.106C237.706 792.742 238.462 793.855 238.912 795.445L240.9 791.033Z" fill="black"/>
<path d="M253.065 806.814C251.739 806.814 250.414 806.668 249.089 806.377L244.794 818.182H248.81L248.492 819.256H237.161L237.518 818.182H241.017L250.281 792.464H246.743L247.14 791.391H256.564C257.571 791.391 258.525 791.484 259.426 791.669C260.354 791.828 261.242 792.106 262.09 792.504C262.965 792.875 263.654 793.445 264.158 794.213C264.688 794.955 264.953 795.856 264.953 796.916C264.953 799.911 263.747 802.309 261.335 804.111C258.923 805.913 256.166 806.814 253.065 806.814ZM252.548 805.741C255.039 805.741 257.094 804.866 258.711 803.117C260.354 801.342 261.176 799.208 261.176 796.717C261.176 795.101 260.685 793.988 259.705 793.378C258.75 792.769 257.425 792.464 255.729 792.464H254.059L249.446 805.264C250.242 805.582 251.275 805.741 252.548 805.741Z" fill="black"/>
</svg>
