<svg width="248" height="286" viewBox="0 0 248 286" fill="none" xmlns="http://www.w3.org/2000/svg">
<rect x="106.332" y="0.669422" width="156.76" height="239.237" transform="rotate(26.2101 106.332 0.669422)" fill="white" stroke="#E82D34"/>
<rect x="107.907" y="11.3765" width="145.028" height="220.863" transform="rotate(26.2101 107.907 11.3765)" fill="#E82D34"/>
<path d="M141.657 36.1445L140.902 35.7729L138.372 40.914L139.126 41.2856L139.021 41.5001L136.716 40.3657L136.822 40.1512L137.577 40.5228L139.893 35.8187L135.656 39.9326L135.442 39.827L136.226 34.0234L133.969 38.6083L134.669 39.0911L134.563 39.3057L132.728 38.4021L132.833 38.1875L133.738 38.4948L136.214 33.465L135.459 33.0934L135.565 32.8788L137.194 33.6807L136.465 38.7909L140.198 35.1594L141.763 35.93L141.657 36.1445Z" fill="white"/>
<path d="M148.062 39.2972L147.307 38.9256L144.776 44.0667L145.531 44.4383L145.425 44.6528L143.121 43.5185L143.226 43.3039L143.981 43.6755L146.078 39.4164L141.586 41.904L141.351 42.3808L142.106 42.7524L142 42.9669L139.696 41.8325L139.802 41.618L140.557 41.9896L143.087 36.8485L142.333 36.4769L142.438 36.2624L144.742 37.3967L144.637 37.6113L143.882 37.2397L141.774 41.5226L146.266 39.035L146.512 38.5344L145.757 38.1628L145.863 37.9483L148.167 39.0827L148.062 39.2972Z" fill="white"/>
<path d="M154.463 42.4487L153.709 42.0771L151.178 47.2182L151.933 47.5898L151.827 47.8043L149.523 46.67L149.628 46.4554L150.383 46.827L151.623 44.3081L148.993 43.0134L147.753 45.5323L148.508 45.9039L148.402 46.1184L146.098 44.984L146.203 44.7695L146.958 45.1411L149.489 40L148.734 39.6284L148.84 39.4138L151.144 40.5482L151.039 40.7628L150.284 40.3912L149.099 42.7988L151.729 44.0936L152.914 41.6859L152.159 41.3143L152.265 41.0998L154.569 42.2342L154.463 42.4487Z" fill="white"/>
<path d="M160.865 45.6002L160.11 45.2286L157.58 50.3697L158.334 50.7413L158.229 50.9558L155.924 49.8215L156.03 49.6069L156.785 49.9785L158.882 45.7194L154.39 48.207L154.155 48.6838L154.91 49.0554L154.804 49.2699L152.5 48.1355L152.605 47.921L153.36 48.2926L155.891 43.1515L155.136 42.7799L155.242 42.5653L157.546 43.6997L157.441 43.9143L156.686 43.5427L154.577 47.8256L159.069 45.338L159.316 44.8374L158.561 44.4658L158.667 44.2513L160.971 45.3857L160.865 45.6002Z" fill="white"/>
<path d="M165.735 47.6323L165.95 47.738L165.031 49.6053L164.816 49.4997C165.144 48.6606 165.073 47.9876 164.605 47.4809C164.449 47.3314 164.286 47.2149 164.116 47.1314C163.862 47.0062 163.607 46.9563 163.351 46.9817C163.095 47.007 162.863 47.0837 162.655 47.2118C162.45 47.3345 162.249 47.5021 162.052 47.7146C161.855 47.927 161.689 48.138 161.553 48.3474C161.417 48.5569 161.293 48.7755 161.181 49.0033C160.933 49.5066 160.775 50.0211 160.707 50.547C160.639 51.0729 160.736 51.5252 160.997 51.9038C161.135 52.1169 161.321 52.2807 161.554 52.3955C161.973 52.6015 162.377 52.6228 162.767 52.4593C163.164 52.2931 163.493 52.0072 163.752 51.6016L163.966 51.7072L163.102 53.4633L162.895 53.3616L163.14 52.5441C162.561 52.8646 161.964 52.8735 161.349 52.571C160.841 52.3207 160.468 51.9692 160.23 51.5164C159.995 51.0584 159.891 50.5798 159.92 50.0806C159.951 49.576 160.088 49.0774 160.331 48.5848C160.578 48.0815 160.898 47.6597 161.289 47.3192C161.683 46.9735 162.136 46.7555 162.648 46.6652C163.162 46.5696 163.673 46.647 164.182 46.8973C164.791 47.1972 165.158 47.661 165.284 48.2887L165.735 47.6323Z" fill="white"/>
<path d="M166.128 49.938L165.913 49.8324L166.711 48.2114L171.216 50.4293L170.418 52.0503L170.204 51.9447L170.61 50.437L169.236 49.7603L166.721 54.8696L167.475 55.2412L167.37 55.4558L165.065 54.3214L165.171 54.1068L165.926 54.4784L168.441 49.3691L167.066 48.6924L166.128 49.938Z" fill="white"/>
<path d="M173.23 58.3404L169.113 56.3141L169.219 56.0996L169.974 56.4712L172.505 51.3301L171.75 50.9585L171.856 50.744L175.765 52.6685L174.963 54.2974L174.749 54.1918L175.175 52.6444L173.299 51.7213L172.126 54.1051L173.294 54.6801L173.918 53.8326L174.133 53.9382L173.116 56.0042L172.909 55.9025L173.188 54.8947L172.02 54.3196L170.769 56.8624L172.85 57.8872L173.856 56.5264L174.071 56.632L173.23 58.3404Z" fill="white"/>
<path d="M177.458 57.3321C177.347 57.2773 177.231 57.2107 177.112 57.1322C177.025 57.0826 176.909 57.0028 176.766 56.8927L175.608 59.2448L176.442 59.6555L176.337 59.87L173.953 58.6965L174.059 58.482L174.813 58.8536L177.344 53.7125L176.589 53.3409L176.695 53.1264L179.071 54.2959C179.606 54.5593 179.991 54.887 180.226 55.279C180.463 55.6657 180.461 56.1054 180.218 56.598C179.955 57.1331 179.562 57.4563 179.04 57.5678C178.525 57.6767 177.998 57.5981 177.458 57.3321ZM177.468 57.0706C177.855 57.261 178.215 57.264 178.549 57.0797C178.889 56.8981 179.157 56.6086 179.352 56.2113C179.556 55.7981 179.607 55.4452 179.508 55.1528C179.411 54.855 179.156 54.6044 178.743 54.401L178.139 54.1037L176.879 56.6623C177.033 56.8171 177.23 56.9532 177.468 57.0706Z" fill="white"/>
<path d="M185.662 57.4421L185.877 57.5477L184.958 59.415L184.743 59.3094C185.071 58.4703 185 57.7974 184.533 57.2907C184.376 57.1411 184.213 57.0246 184.043 56.9412C183.789 56.816 183.534 56.7661 183.278 56.7914C183.022 56.8168 182.79 56.8935 182.582 57.0215C182.377 57.1443 182.176 57.3119 181.979 57.5243C181.783 57.7368 181.616 57.9477 181.48 58.1572C181.344 58.3667 181.22 58.5853 181.108 58.8131C180.86 59.3163 180.702 59.8309 180.634 60.3568C180.566 60.8827 180.663 61.3349 180.924 61.7136C181.063 61.9266 181.248 62.0905 181.481 62.2052C181.9 62.4112 182.304 62.4325 182.694 62.269C183.092 62.1028 183.42 61.8169 183.679 61.4113L183.893 61.5169L183.029 63.273L182.822 63.1713L183.067 62.3538C182.488 62.6743 181.891 62.6833 181.277 62.3808C180.768 62.1304 180.395 61.7789 180.157 61.3262C179.922 60.8682 179.819 60.3896 179.847 59.8903C179.878 59.3858 180.015 58.8872 180.258 58.3945C180.505 57.8913 180.825 57.4694 181.216 57.129C181.61 56.7833 182.063 56.5653 182.575 56.475C183.089 56.3794 183.601 56.4567 184.109 56.7071C184.718 57.007 185.086 57.4708 185.211 58.0984L185.662 57.4421Z" fill="white"/>
<path d="M186.055 59.7478L185.84 59.6421L186.638 58.0211L191.144 60.2391L190.346 61.8601L190.131 61.7544L190.538 60.2468L189.163 59.5701L186.648 64.6794L187.403 65.051L187.297 65.2655L184.993 64.1311L185.098 63.9166L185.853 64.2882L188.368 59.1789L186.994 58.5022L186.055 59.7478Z" fill="white"/>
<path d="M191.313 67.2426L189.041 66.1239L189.146 65.9093L189.901 66.281L192.432 61.1399L191.677 60.7683L191.783 60.5537L194.008 61.649C195.252 62.2618 195.672 62.9814 195.265 63.8078C195.082 64.1786 194.801 64.4154 194.421 64.5181C194.042 64.6208 193.647 64.6074 193.237 64.4779L193.221 64.5097C193.627 64.7554 193.926 65.0572 194.118 65.4151C194.292 65.8101 194.281 66.2063 194.086 66.6036C193.914 66.9532 193.664 67.2056 193.338 67.3608C193.019 67.5133 192.687 67.5734 192.341 67.5412C191.995 67.5091 191.652 67.4095 191.313 67.2426ZM190.696 66.6721L191.347 66.9929C191.739 67.1859 192.099 67.2048 192.425 67.0496C192.757 66.897 193.022 66.6194 193.22 66.2168C193.637 65.3692 193.446 64.7486 192.646 64.3548L191.994 64.034L190.696 66.6721ZM192.1 63.8195L192.752 64.1403C193.107 64.315 193.425 64.3302 193.706 64.1858C193.988 64.0415 194.22 63.7839 194.403 63.4131C194.747 62.7138 194.556 62.1856 193.83 61.8283L193.227 61.531L192.1 63.8195Z" fill="white"/>
<path d="M196.622 69.9348C195.832 69.5463 195.343 68.9631 195.153 68.1853C194.964 67.4075 195.063 66.6239 195.452 65.8346C195.856 65.0135 196.419 64.445 197.14 64.1289C197.87 63.8102 198.632 63.8464 199.426 64.2375C200.237 64.6365 200.732 65.2157 200.911 65.9751C201.09 66.7345 200.978 67.5221 200.577 68.3379C200.337 68.8252 200.004 69.2339 199.578 69.564C199.16 69.8914 198.685 70.095 198.152 70.1749C197.619 70.2548 197.109 70.1748 196.622 69.9348ZM199.321 64.4521C199.008 64.2982 198.69 64.25 198.365 64.3075C198.046 64.3676 197.756 64.508 197.496 64.7288C197.239 64.9442 197.009 65.1833 196.808 65.446C196.606 65.7087 196.433 65.9857 196.29 66.277C196.053 66.7591 195.909 67.2643 195.86 67.7928C195.818 68.3185 195.92 68.78 196.165 69.1772C196.302 69.4087 196.491 69.5844 196.735 69.7044C197.122 69.8948 197.528 69.9041 197.955 69.7325C198.382 69.5609 198.754 69.2932 199.071 68.9294C199.305 68.6692 199.516 68.3458 199.707 67.959C199.855 67.6571 199.974 67.3501 200.062 67.0379C200.149 66.7258 200.202 66.3993 200.218 66.0586C200.24 65.7205 200.173 65.408 200.018 65.1211C199.871 64.8316 199.639 64.6085 199.321 64.4521Z" fill="white"/>
<path d="M135.083 45.1591C135.149 45.1059 135.24 45.0221 135.355 44.9079C135.392 44.8733 135.447 44.8149 135.52 44.7326C135.599 44.6529 135.658 44.5931 135.698 44.5532C135.737 44.5134 135.796 44.4536 135.875 44.3739C135.956 44.2889 136.018 44.2238 136.06 44.1787C136.102 44.1335 136.154 44.0738 136.217 43.9994C136.288 43.9224 136.338 43.868 136.367 43.8361C136.681 43.4777 137.032 43.3937 137.419 43.584C137.593 43.6701 137.71 43.7869 137.769 43.9344C137.836 44.0792 137.827 44.239 137.741 44.4138C137.665 44.5674 137.561 44.6711 137.43 44.7247C137.301 44.773 137.159 44.7594 137.006 44.6838C136.884 44.6238 136.797 44.5319 136.746 44.4081C136.701 44.2869 136.708 44.1654 136.768 44.0436C136.838 43.9005 136.953 43.8021 137.111 43.7483C137.042 43.7276 136.968 43.7307 136.889 43.7576C136.797 43.7846 136.69 43.8605 136.569 43.9854C136.527 44.0305 136.467 44.093 136.388 44.1727C136.315 44.255 136.264 44.3121 136.235 44.3439C136.164 44.4209 136.063 44.5259 135.932 44.6587C135.866 44.7251 135.776 44.8221 135.66 44.9495C135.529 45.0824 135.427 45.1834 135.353 45.2525C135.125 45.4625 134.893 45.5524 134.658 45.5222L134.642 45.554L134.809 45.6361C135.418 45.936 135.642 46.3716 135.479 46.943C135.432 47.1176 135.381 47.3027 135.324 47.4985C135.311 47.5514 135.289 47.6228 135.258 47.7128C135.235 47.8001 135.211 47.8808 135.188 47.9548C135.17 48.0315 135.153 48.1056 135.138 48.177C135.091 48.3383 135.062 48.4653 135.049 48.5578C135.036 48.6503 135.036 48.7519 135.047 48.8628C135.058 48.9736 135.1 49.0697 135.172 49.1511C135.246 49.2273 135.349 49.2979 135.482 49.3631L135.704 49.4726L135.599 49.6872L134.923 49.3547C134.632 49.2113 134.426 49.0475 134.306 48.8634C134.189 48.674 134.17 48.4312 134.25 48.1349C134.281 48.0186 134.303 47.9339 134.316 47.881C134.342 47.7884 134.368 47.6959 134.394 47.6033C134.422 47.479 134.458 47.3454 134.502 47.2026C134.528 47.11 134.583 46.9103 134.669 46.6034C134.757 46.3045 134.745 46.0682 134.633 45.8947C134.526 45.7237 134.324 45.5652 134.028 45.4191L133.376 45.0984L132.097 47.6967L132.852 48.0683L132.746 48.2829L130.442 47.1485L130.547 46.9339L131.302 47.3056L133.833 42.1645L133.078 41.7929L133.184 41.5783L135.488 42.7127L135.383 42.9272L134.628 42.5556L133.482 44.8838L134.054 45.1655C134.266 45.2698 134.451 45.328 134.609 45.3403C134.77 45.3472 134.928 45.2868 135.083 45.1591Z" fill="white"/>
<path d="M141.982 46.1758L142.087 45.9613L143.811 46.8101L143.706 47.0246L142.967 46.7599L138.776 50.4219C138.537 50.6268 138.317 50.7654 138.117 50.838C137.917 50.9105 137.703 50.8907 137.475 50.7786C137.279 50.6821 137.138 50.547 137.052 50.3732C136.954 50.1995 136.959 50.0015 137.069 49.779C137.144 49.6254 137.253 49.5243 137.395 49.4759C137.54 49.4222 137.687 49.4319 137.835 49.5049C137.962 49.5675 138.046 49.6581 138.087 49.7766C138.127 49.8952 138.116 50.0181 138.053 50.1452C137.996 50.2617 137.908 50.3468 137.789 50.4003C137.679 50.4512 137.564 50.4572 137.445 50.4183C137.458 50.4578 137.505 50.4972 137.584 50.5363C137.754 50.6197 137.912 50.6319 138.06 50.5729C138.215 50.5112 138.382 50.4059 138.561 50.2569L139.034 49.8579L139.2 44.8067L138.446 44.4351L138.551 44.2206L140.927 45.3902L140.821 45.6047L140.067 45.2331L139.829 49.1638L142.705 46.6308L141.982 46.1758Z" fill="white"/>
<path d="M148.708 49.4873L147.953 49.1156L145.423 54.2567L146.177 54.6283L146.072 54.8429L143.767 53.7085L143.873 53.494L144.628 53.8656L147.159 48.7245L145.641 47.9773C145.584 48.0807 145.496 48.2383 145.379 48.4503C145.264 48.657 145.178 48.812 145.12 48.9153C145.105 48.9471 145.082 48.9856 145.054 49.0306C145.033 49.073 145.013 49.1061 144.995 49.13C144.982 49.1565 144.971 49.1777 144.963 49.1936C144.407 50.1635 143.944 50.9031 143.575 51.4124C143.439 51.5822 143.323 51.7229 143.229 51.8344C143.135 51.9459 143.004 52.0787 142.835 52.2329C142.67 52.3818 142.516 52.4937 142.374 52.5685C142.235 52.638 142.069 52.6813 141.876 52.6983C141.691 52.7127 141.511 52.6768 141.336 52.5907C141.151 52.4995 141.02 52.3722 140.942 52.209C140.864 52.0457 140.87 51.8741 140.959 51.694C141.032 51.5456 141.134 51.4447 141.266 51.391C141.403 51.34 141.543 51.3497 141.686 51.4201C141.818 51.4853 141.91 51.5732 141.961 51.6838C142.017 51.797 142.014 51.9172 141.951 52.0443C141.834 52.2827 141.665 52.3775 141.446 52.3286C141.578 52.407 141.726 52.4471 141.89 52.4487C142.521 52.4633 143.491 51.302 144.8 48.9649C144.826 48.9119 144.864 48.8351 144.913 48.7344C144.971 48.6311 145.015 48.5542 145.046 48.5039C145.083 48.4429 145.132 48.3489 145.195 48.2217C145.263 48.0972 145.314 48.0005 145.348 47.9316L144.553 47.4414L144.658 47.2269L148.814 49.2727L148.708 49.4873Z" fill="white"/>
<path d="M150.136 50.1903L149.382 49.8187L149.487 49.6041L151.792 50.7385L151.686 50.9531L150.931 50.5815L149.824 52.8302C149.917 52.856 150.046 52.9001 150.213 52.9624C150.398 53.0405 150.541 53.1043 150.642 53.1539C151.977 53.811 152.403 54.6296 151.921 55.6096C151.65 56.1606 151.254 56.4891 150.735 56.5953C150.22 56.7041 149.685 56.6216 149.129 56.3478L146.745 55.1743L146.851 54.9598L147.606 55.3314L150.136 50.1903ZM148.4 55.7225L149.131 56.0824C149.55 56.2884 149.925 56.302 150.256 56.123C150.588 55.944 150.859 55.64 151.071 55.2109C151.485 54.3686 151.287 53.748 150.477 53.349C150.403 53.3125 150.273 53.2552 150.088 53.1771C149.931 53.12 149.806 53.0812 149.711 53.0606L148.4 55.7225Z" fill="white"/>
<path d="M153.723 53.7031L153.508 53.5974L154.306 51.9764L158.812 54.1944L158.014 55.8154L157.799 55.7097L158.206 54.2021L156.831 53.5254L154.316 58.6347L155.071 59.0063L154.965 59.2208L152.661 58.0864L152.766 57.8719L153.521 58.2435L156.036 53.1342L154.662 52.4575L153.723 53.7031Z" fill="white"/>
<path d="M162.778 56.4134L162.883 56.1989L164.608 57.0477L164.502 57.2622L163.764 56.9975L159.572 60.6595C159.333 60.8643 159.113 61.003 158.913 61.0756C158.713 61.1481 158.499 61.1283 158.271 61.0162C158.075 60.9197 157.934 60.7846 157.849 60.6108C157.75 60.4371 157.755 60.2391 157.865 60.0166C157.94 59.8629 158.049 59.7619 158.192 59.7135C158.337 59.6598 158.483 59.6695 158.632 59.7425C158.759 59.8051 158.842 59.8956 158.883 60.0142C158.923 60.1328 158.912 60.2557 158.849 60.3828C158.792 60.4993 158.704 60.5844 158.586 60.6379C158.475 60.6888 158.36 60.6948 158.241 60.6559C158.255 60.6954 158.301 60.7348 158.381 60.7739C158.55 60.8573 158.709 60.8695 158.856 60.8105C159.011 60.7488 159.178 60.6435 159.357 60.4945L159.83 60.0955L159.997 55.0443L159.242 54.6727L159.347 54.4582L161.723 55.6278L161.618 55.8423L160.863 55.4707L160.626 59.4014L163.502 56.8684L162.778 56.4134Z" fill="white"/>
<path d="M165.775 61.4524C165.663 61.3976 165.548 61.331 165.429 61.2525C165.341 61.2029 165.226 61.1231 165.083 61.013L163.925 63.3651L164.759 63.7758L164.654 63.9903L162.27 62.8168L162.375 62.6023L163.13 62.9739L165.661 57.8328L164.906 57.4612L165.012 57.2467L167.388 58.4163C167.923 58.6796 168.308 59.0073 168.543 59.3993C168.78 59.786 168.777 60.2257 168.535 60.7184C168.271 61.2534 167.879 61.5767 167.357 61.6882C166.842 61.797 166.315 61.7184 165.775 61.4524ZM165.785 61.1909C166.172 61.3813 166.532 61.3843 166.866 61.2C167.206 61.0184 167.473 60.7289 167.669 60.3316C167.872 59.9184 167.924 59.5656 167.825 59.2731C167.728 58.9753 167.473 58.7247 167.06 58.5213L166.456 58.224L165.196 60.7826C165.35 60.9375 165.547 61.0735 165.785 61.1909Z" fill="white"/>
<path d="M170.521 60.2252L169.782 59.8615L169.888 59.6469L172.16 60.7656L172.055 60.9802L171.316 60.6164L170.209 62.8651C170.436 62.9245 170.682 63.0193 170.947 63.1497C172.282 63.8069 172.703 64.636 172.21 65.6372C171.931 66.2041 171.531 66.53 171.008 66.6151C170.494 66.6975 169.945 66.5953 169.363 66.3084L167.146 65.2171L167.251 65.0025L167.99 65.3663L170.521 60.2252ZM168.785 65.7575L169.492 66.1056C169.895 66.3038 170.254 66.3161 170.57 66.1425C170.885 65.9689 171.145 65.6755 171.348 65.2623C171.434 65.0875 171.501 64.8996 171.547 64.6987C171.651 64.0986 171.399 63.6486 170.79 63.3487C170.573 63.2418 170.341 63.1574 170.095 63.0956L168.785 65.7575ZM176.417 63.1277L175.662 62.7561L173.131 67.8972L173.886 68.2688L173.781 68.4833L171.476 67.3489L171.582 67.1344L172.337 67.506L174.868 62.3649L174.113 61.9933L174.218 61.7788L176.523 62.9132L176.417 63.1277Z" fill="white"/>
<path d="M183.12 66.0624L183.335 66.168L182.416 68.0353L182.201 67.9297C182.529 67.0906 182.458 66.4177 181.991 65.9109C181.834 65.7614 181.671 65.6449 181.501 65.5614C181.247 65.4363 180.992 65.3863 180.736 65.4117C180.48 65.4371 180.248 65.5137 180.04 65.6418C179.835 65.7645 179.634 65.9321 179.437 66.1446C179.24 66.3571 179.074 66.568 178.938 66.7775C178.802 66.9869 178.678 67.2055 178.566 67.4333C178.318 67.9366 178.16 68.4511 178.092 68.977C178.024 69.5029 178.121 69.9552 178.382 70.3338C178.52 70.5469 178.706 70.7108 178.939 70.8255C179.358 71.0315 179.762 71.0528 180.152 70.8893C180.55 70.7231 180.878 70.4372 181.137 70.0316L181.351 70.1372L180.487 71.8933L180.28 71.7916L180.525 70.9741C179.946 71.2946 179.349 71.3036 178.735 71.001C178.226 70.7507 177.853 70.3992 177.615 69.9465C177.38 69.4885 177.276 69.0098 177.305 68.5106C177.336 68.006 177.473 67.5074 177.716 67.0148C177.963 66.5115 178.283 66.0897 178.674 65.7493C179.068 65.4035 179.521 65.1855 180.033 65.0952C180.547 64.9996 181.059 65.077 181.567 65.3273C182.176 65.6272 182.544 66.091 182.669 66.7187L183.12 66.0624Z" fill="white"/>
<path d="M188.18 68.553L188.394 68.6586L187.475 70.5259L187.26 70.4203C187.588 69.5812 187.518 68.9083 187.05 68.4016C186.893 68.252 186.73 68.1355 186.561 68.0521C186.306 67.9269 186.051 67.877 185.795 67.9023C185.539 67.9277 185.307 68.0044 185.1 68.1324C184.894 68.2552 184.693 68.4228 184.497 68.6352C184.3 68.8477 184.133 69.0587 183.997 69.2681C183.861 69.4776 183.737 69.6962 183.625 69.924C183.378 70.4272 183.22 70.9418 183.152 71.4677C183.084 71.9936 183.18 72.4459 183.441 72.8245C183.58 73.0375 183.766 73.2014 183.999 73.3161C184.417 73.5222 184.821 73.5434 185.211 73.3799C185.609 73.2137 185.937 72.9278 186.196 72.5222L186.411 72.6278L185.546 74.3839L185.34 74.2822L185.584 73.4648C185.005 73.7852 184.408 73.7942 183.794 73.4917C183.285 73.2413 182.912 72.8898 182.674 72.4371C182.439 71.9791 182.336 71.5005 182.364 71.0012C182.396 70.4967 182.533 69.9981 182.775 69.5054C183.023 69.0022 183.342 68.5803 183.734 68.2399C184.128 67.8942 184.58 67.6762 185.092 67.5859C185.606 67.4903 186.118 67.5676 186.626 67.818C187.236 68.1179 187.603 68.5817 187.728 69.2093L188.18 68.553Z" fill="white"/>
<path d="M193.239 71.0436L193.454 71.1493L192.534 73.0166L192.32 72.911C192.647 72.0719 192.577 71.3989 192.109 70.8922C191.953 70.7427 191.789 70.6262 191.62 70.5427C191.366 70.4175 191.111 70.3676 190.855 70.393C190.599 70.4183 190.367 70.495 190.159 70.6231C189.954 70.7458 189.753 70.9134 189.556 71.1259C189.359 71.3383 189.193 71.5493 189.057 71.7587C188.921 71.9682 188.797 72.1868 188.685 72.4146C188.437 72.9178 188.279 73.4324 188.211 73.9583C188.143 74.4842 188.239 74.9365 188.501 75.3151C188.639 75.5281 188.825 75.692 189.058 75.8068C189.477 76.0128 189.881 76.0341 190.271 75.8706C190.668 75.7044 190.997 75.4185 191.256 75.0129L191.47 75.1185L190.606 76.8746L190.399 76.7729L190.643 75.9554C190.065 76.2759 189.468 76.2848 188.853 75.9823C188.345 75.732 187.972 75.3805 187.734 74.9277C187.499 74.4697 187.395 73.9911 187.424 73.4919C187.455 72.9873 187.592 72.4887 187.834 71.996C188.082 71.4928 188.402 71.071 188.793 70.7305C189.187 70.3848 189.64 70.1668 190.152 70.0765C190.666 69.9809 191.177 70.0583 191.686 70.3086C192.295 70.6085 192.662 71.0723 192.788 71.7L193.239 71.0436Z" fill="white"/>
<path d="M194.858 75.7697C194.747 75.715 194.632 75.6483 194.513 75.5699C194.425 75.5202 194.31 75.4404 194.167 75.3304L193.009 77.6824L193.843 78.0931L193.737 78.3077L191.354 77.1342L191.459 76.9196L192.214 77.2913L194.745 72.1502L193.99 71.7786L194.096 71.564L196.472 72.7336C197.007 72.997 197.391 73.3247 197.626 73.7167C197.864 74.1034 197.861 74.5431 197.619 75.0357C197.355 75.5707 196.962 75.894 196.44 76.0055C195.926 76.1143 195.399 76.0357 194.858 75.7697ZM194.869 75.5082C195.255 75.6986 195.616 75.7017 195.95 75.5174C196.29 75.3357 196.557 75.0462 196.753 74.6489C196.956 74.2358 197.008 73.8829 196.909 73.5904C196.812 73.2926 196.557 73.042 196.143 72.8386L195.54 72.5413L194.28 75.1C194.434 75.2548 194.63 75.3909 194.869 75.5082Z" fill="white"/>
<path d="M169.492 135.906L165.516 130.102C165.502 130.082 165.495 130.057 165.496 130.032C165.498 130.007 165.507 129.983 165.524 129.964C165.54 129.945 165.562 129.932 165.586 129.927C165.61 129.922 165.635 129.926 165.657 129.937L174.861 134.878C174.883 134.889 174.907 134.892 174.931 134.887L185.672 132.972C185.696 132.968 185.719 132.973 185.74 132.984C185.76 132.996 185.776 133.014 185.785 133.036C185.794 133.058 185.796 133.082 185.791 133.105C185.785 133.129 185.772 133.15 185.754 133.166L179.965 137.808C179.952 137.819 179.941 137.833 179.934 137.85C179.927 137.866 179.924 137.884 179.925 137.902C179.926 137.919 179.931 137.937 179.94 137.952C179.949 137.967 179.961 137.979 179.976 137.988L184.763 140.784C184.784 140.797 184.8 140.817 184.808 140.84C184.816 140.864 184.816 140.89 184.807 140.914C184.799 140.938 184.783 140.959 184.761 140.972C184.74 140.986 184.715 140.992 184.69 140.989L177.434 140.093C177.416 140.091 177.398 140.094 177.38 140.101C177.363 140.107 177.348 140.119 177.336 140.133L174.876 143.009C174.865 143.021 174.853 143.031 174.839 143.037C174.825 143.044 174.81 143.048 174.795 143.048C174.78 143.048 174.764 143.046 174.751 143.04C174.737 143.034 174.724 143.025 174.714 143.014L171.682 139.66C171.665 139.64 171.641 139.627 171.615 139.623L162.127 138.627C162.101 138.625 162.078 138.614 162.06 138.596C162.042 138.578 162.031 138.554 162.029 138.528C162.027 138.502 162.034 138.476 162.049 138.455C162.063 138.433 162.085 138.417 162.109 138.41L169.432 136.077C169.449 136.072 169.464 136.063 169.477 136.051C169.49 136.038 169.499 136.023 169.505 136.006C169.511 135.989 169.513 135.971 169.51 135.954C169.508 135.936 169.502 135.92 169.492 135.906Z" fill="white"/>
<path d="M134.696 134.64L141.336 138.141C141.438 138.194 141.554 138.207 141.663 138.179L173.112 130.406C173.208 130.382 173.308 130.389 173.399 130.426C173.49 130.463 173.567 130.529 173.618 130.613C173.669 130.697 173.692 130.795 173.684 130.894C173.676 130.993 173.637 131.087 173.573 131.162C173.464 131.292 173.291 131.41 173.054 131.516C165.088 135.118 157.127 138.729 149.172 142.351C149.052 142.405 149.047 142.467 149.157 142.535C154.252 145.766 177.71 159.415 174.15 167.575C171.003 174.785 147.356 166.218 142.43 164.438C135.061 161.776 127.959 158.733 121.123 155.31C120.904 155.2 120.697 155.19 120.502 155.28C115.875 157.4 111.25 159.515 106.626 161.624C106.525 161.67 106.416 161.691 106.306 161.686C106.196 161.68 106.089 161.648 105.995 161.593L102.479 159.532C102.47 159.527 102.463 159.519 102.458 159.51C102.454 159.5 102.452 159.49 102.453 159.479C102.453 159.468 102.457 159.458 102.463 159.449C102.469 159.44 102.478 159.432 102.487 159.427L116.194 153.04C116.211 153.032 116.225 153.021 116.235 153.006C116.245 152.991 116.251 152.973 116.252 152.955C116.252 152.937 116.248 152.919 116.238 152.904C116.229 152.888 116.216 152.876 116.199 152.868C110.54 150.051 105.065 146.899 99.7728 143.414C95.7035 140.733 92.1797 138.017 89.2012 135.267C88.8491 134.941 88.4417 134.703 87.9792 134.553C83.2473 133.029 78.2963 130.468 75.1159 126.522C73.4446 124.444 72.0807 121.632 73.3865 119.103C76.8537 112.388 99.8333 119.938 104.952 121.765C113.483 124.808 120.852 127.842 127.056 130.865C127.351 131.01 127.876 131.01 128.248 130.911C143.485 126.829 157.542 121.619 172.063 116.613C172.472 116.469 172.967 116.455 173.387 116.455C173.46 116.456 173.531 116.478 173.591 116.518C173.65 116.559 173.697 116.616 173.725 116.684C173.752 116.751 173.76 116.825 173.746 116.897C173.732 116.969 173.698 117.035 173.647 117.088C173.129 117.623 172.416 118.078 171.659 118.391C159.252 123.52 146.934 128.859 134.706 134.409C134.545 134.482 134.542 134.56 134.696 134.64ZM148.604 137.485L143.119 138.928C143.099 138.932 143.081 138.942 143.067 138.956C143.052 138.97 143.042 138.988 143.037 139.008C143.033 139.028 143.034 139.048 143.04 139.067C143.046 139.086 143.058 139.103 143.073 139.116C143.695 139.654 144.279 139.891 145.092 139.518C146.332 138.949 147.545 138.389 148.73 137.841C148.774 137.822 148.81 137.787 148.829 137.743C148.848 137.699 148.849 137.65 148.833 137.605C148.817 137.56 148.785 137.522 148.742 137.5C148.7 137.478 148.65 137.472 148.604 137.485ZM133.848 130.825C133.877 130.813 133.904 130.795 133.926 130.772C133.949 130.749 133.967 130.723 133.979 130.693C133.991 130.663 133.998 130.632 133.998 130.6C133.998 130.568 133.992 130.536 133.98 130.506L133.975 130.494C133.963 130.465 133.945 130.438 133.923 130.416C133.9 130.393 133.874 130.375 133.844 130.363C133.815 130.351 133.784 130.345 133.752 130.345C133.72 130.345 133.689 130.351 133.659 130.364L129.863 131.957C129.834 131.97 129.807 131.988 129.785 132.01C129.762 132.033 129.744 132.06 129.732 132.09C129.719 132.119 129.713 132.151 129.713 132.183C129.713 132.215 129.719 132.247 129.731 132.276L129.736 132.288C129.748 132.318 129.766 132.344 129.788 132.367C129.81 132.389 129.837 132.407 129.866 132.419C129.896 132.432 129.927 132.438 129.959 132.438C129.991 132.438 130.022 132.431 130.052 132.419L133.848 130.825ZM127.706 132.756L123.633 133.973C123.419 134.037 123.415 134.111 123.621 134.195L125.102 134.805C125.15 134.825 125.202 134.834 125.254 134.832C125.305 134.83 125.356 134.817 125.403 134.793L127.992 133.495C128.081 133.45 128.15 133.373 128.185 133.28C128.221 133.187 128.221 133.084 128.185 132.992C128.149 132.899 128.08 132.824 127.992 132.78C127.903 132.737 127.801 132.728 127.706 132.756ZM86.1831 131.56C82.1035 124.646 90.0385 124.656 93.9796 125.152C95.7912 125.378 97.8257 125.78 100.083 126.356C106.252 127.934 112.06 129.709 117.509 131.68C118.133 131.907 119.732 132.811 120.523 132.649C121.993 132.344 123.446 132.032 124.882 131.714C125.089 131.668 125.097 131.6 124.907 131.509C118.108 128.292 111.1 125.464 103.883 123.024C98.9405 121.353 94.0504 120.206 89.2126 119.583C86.3781 119.218 79.5451 119.181 79.0872 123.06C78.6818 126.503 83.5431 130.326 86.0318 131.714C86.0535 131.726 86.0784 131.73 86.1028 131.726C86.1271 131.722 86.1495 131.71 86.1667 131.693C86.1838 131.675 86.1947 131.653 86.1977 131.629C86.2006 131.605 86.1955 131.581 86.1831 131.56ZM132.767 135.392C132.752 135.385 132.736 135.381 132.72 135.381C132.704 135.382 132.688 135.386 132.673 135.393L129.685 136.829C129.668 136.837 129.653 136.85 129.642 136.867C129.631 136.883 129.626 136.903 129.625 136.922C129.625 136.942 129.63 136.961 129.641 136.978C129.651 136.994 129.665 137.008 129.683 137.016L134.836 139.64C134.857 139.651 134.881 139.653 134.904 139.648L138.754 138.782C138.775 138.778 138.793 138.767 138.808 138.751C138.822 138.735 138.832 138.715 138.835 138.694C138.837 138.673 138.834 138.652 138.824 138.633C138.815 138.614 138.8 138.599 138.781 138.589L132.767 135.392ZM139.449 142.129C139.463 142.136 139.478 142.139 139.493 142.14C139.509 142.14 139.524 142.136 139.538 142.129L142.337 140.815C142.354 140.807 142.368 140.794 142.378 140.779C142.388 140.763 142.394 140.745 142.394 140.727C142.395 140.708 142.39 140.69 142.381 140.674C142.372 140.658 142.359 140.645 142.343 140.636L140.55 139.659C140.528 139.647 140.503 139.644 140.479 139.649L136.736 140.503C136.716 140.508 136.698 140.518 136.684 140.534C136.67 140.549 136.661 140.568 136.659 140.589C136.656 140.609 136.66 140.63 136.669 140.648C136.679 140.666 136.693 140.681 136.712 140.69L139.449 142.129ZM164.082 156.244C159.077 151.29 153.013 147.159 147.024 143.481C146.923 143.419 146.817 143.413 146.706 143.463L144.27 144.567C144.106 144.641 144.101 144.722 144.254 144.81C147.723 146.826 161.873 155.018 160.627 160.08C159.78 163.538 149.38 160.976 147.163 160.437C139.75 158.633 132.543 156.213 125.542 153.178C125.435 153.133 125.328 153.133 125.221 153.18L122.669 154.322C122.517 154.387 122.516 154.455 122.666 154.524C127.538 156.762 132.471 158.85 137.467 160.787C141.431 162.322 145.456 163.676 149.54 164.847C152.25 165.626 169.311 170.193 167.994 162.433C167.634 160.325 165.683 157.83 164.082 156.244ZM130.04 140.603C130.642 140.505 131.242 140.388 131.84 140.252C131.859 140.248 131.875 140.238 131.888 140.224C131.901 140.211 131.909 140.193 131.912 140.174C131.914 140.156 131.911 140.137 131.902 140.12C131.893 140.104 131.88 140.09 131.863 140.082L127.659 138.026C127.615 138.005 127.567 137.994 127.518 137.996C127.469 137.997 127.421 138.01 127.378 138.034L125.835 138.878C125.72 138.942 125.719 139.007 125.833 139.072C126.749 139.603 127.693 140.063 128.663 140.451C129.105 140.63 129.564 140.68 130.04 140.603ZM118.451 135.232C118.234 135.306 117.948 135.304 117.731 135.418C117.64 135.465 117.642 135.51 117.737 135.551L121.218 137.018C121.259 137.036 121.304 137.044 121.349 137.042C121.394 137.039 121.437 137.026 121.476 137.004L123.04 136.126C123.159 136.059 123.163 135.986 123.051 135.907C121.613 134.897 120.08 134.672 118.451 135.232ZM133.927 141.195C133.906 141.185 133.882 141.182 133.859 141.187L131.117 141.728C131.096 141.732 131.077 141.742 131.061 141.757C131.046 141.772 131.036 141.792 131.032 141.813C131.028 141.835 131.031 141.857 131.04 141.876C131.049 141.895 131.064 141.911 131.083 141.922L135.063 144.164C135.077 144.172 135.093 144.176 135.109 144.176C135.125 144.176 135.141 144.173 135.155 144.166L137.413 143.133C137.431 143.125 137.445 143.112 137.456 143.096C137.467 143.079 137.472 143.061 137.473 143.041C137.474 143.022 137.469 143.003 137.459 142.986C137.45 142.97 137.435 142.956 137.419 142.947L133.927 141.195ZM148.406 153.73C149.014 154.368 149.043 155.001 148.494 155.631C148.458 155.673 148.413 155.706 148.364 155.729C148.315 155.753 148.262 155.765 148.208 155.766C145.984 155.813 143.707 155.445 141.376 154.663C137.393 153.329 133.906 152.024 130.913 150.746C130.81 150.703 130.707 150.704 130.603 150.749L127.325 152.22C127.208 152.271 127.208 152.323 127.324 152.375C132.444 154.628 137.709 156.466 143.118 157.89C144.937 158.368 155.807 160.947 156.001 157.4C156.193 153.88 145.107 147.295 142.354 145.743C142.251 145.686 142.136 145.653 142.017 145.649C141.899 145.644 141.782 145.667 141.674 145.717L139.758 146.588C139.456 146.724 139.444 146.881 139.724 147.057C142.86 149.029 145.981 151.19 148.406 153.73ZM96.8059 130.926C97.9861 130.382 99.8409 130.533 101.091 130.724C104.822 131.293 108.463 132.22 112.013 133.503C113.516 134.047 115.023 133.628 116.545 133.397C116.558 133.394 116.571 133.387 116.58 133.377C116.59 133.367 116.596 133.354 116.597 133.34C116.599 133.326 116.596 133.312 116.589 133.3C116.582 133.288 116.572 133.279 116.559 133.273C111.472 131.328 106.28 129.69 100.983 128.36C98.1981 127.66 93.6391 126.595 91.1442 127.656C88.749 128.676 89.609 131.563 90.7997 133.144C90.875 133.244 90.9729 133.305 91.0933 133.328L95.792 134.168C95.8157 134.172 95.84 134.169 95.8623 134.16C95.8847 134.151 95.9042 134.136 95.9188 134.117C95.9335 134.098 95.9427 134.075 95.9455 134.051C95.9482 134.027 95.9445 134.002 95.9346 133.98C95.4179 132.841 95.5636 131.501 96.8059 130.926ZM126.272 141.252C126.303 141.252 126.332 141.242 126.356 141.223C126.38 141.203 126.397 141.177 126.404 141.147C126.41 141.117 126.407 141.086 126.393 141.058C126.379 141.031 126.357 141.009 126.329 140.997L124.315 140.023C124.191 139.965 124.084 139.988 123.993 140.094L123.322 140.859C123.292 140.894 123.273 140.937 123.266 140.982C123.26 141.027 123.266 141.074 123.285 141.115C123.304 141.157 123.334 141.192 123.372 141.217C123.41 141.242 123.455 141.255 123.501 141.255L126.272 141.252ZM109.833 139.959C110.204 139.557 110.566 139.42 111.095 139.695C116.512 142.512 122.005 145.099 127.571 147.457C127.663 147.497 127.763 147.517 127.864 147.515C127.964 147.513 128.063 147.49 128.155 147.447L133.469 144.958C133.482 144.951 133.494 144.942 133.503 144.929C133.511 144.916 133.516 144.902 133.517 144.887C133.517 144.872 133.514 144.857 133.507 144.843C133.499 144.83 133.489 144.82 133.475 144.812L128.571 142.26C128.477 142.211 128.378 142.196 128.273 142.215C126.391 142.573 117.611 144.038 116.839 141.848C116.389 140.574 118.99 138.625 119.949 138.128C119.971 138.117 119.989 138.1 120.002 138.079C120.014 138.058 120.021 138.034 120.02 138.01C120.02 137.985 120.013 137.961 120 137.941C119.987 137.921 119.968 137.904 119.946 137.894C118.399 137.205 115.714 135.815 114.01 136.072C109.734 136.712 105.465 136.927 101.205 136.717C101.179 136.715 101.154 136.722 101.132 136.735C101.11 136.748 101.092 136.768 101.081 136.791C101.07 136.814 101.066 136.84 101.07 136.866C101.073 136.891 101.084 136.915 101.102 136.934C102.923 138.912 104.961 140.608 107.215 142.023C112.025 145.042 117.019 147.738 122.194 150.112C122.235 150.131 122.281 150.14 122.327 150.14C122.373 150.14 122.419 150.129 122.462 150.109L125.799 148.548C125.91 148.496 125.911 148.444 125.8 148.392C121.482 146.378 117.212 144.283 112.989 142.108C111.908 141.551 110.867 140.93 109.866 140.243C109.746 140.16 109.735 140.066 109.833 139.959ZM143.676 152.421C143.252 150.735 139.445 148.404 137.957 147.596C137.906 147.568 137.849 147.553 137.791 147.551C137.732 147.55 137.674 147.562 137.621 147.586L132.935 149.677C132.811 149.732 132.81 149.791 132.931 149.853C135.965 151.35 140.133 152.803 143.258 152.934C143.322 152.936 143.386 152.924 143.445 152.897C143.503 152.871 143.555 152.831 143.596 152.781C143.636 152.731 143.665 152.673 143.679 152.61C143.693 152.548 143.692 152.483 143.676 152.421ZM100.243 134.483C103.017 134.641 105.891 134.524 108.622 134.37C109.344 134.329 109.356 134.219 108.659 134.04C107.212 133.666 105.551 133.359 103.677 133.118C102.459 132.965 100.401 132.826 100.103 134.298C100.08 134.415 100.126 134.476 100.243 134.483ZM97.5014 136.497L93.2278 135.845C92.9542 135.802 92.9197 135.874 93.1243 136.062C96.914 139.5 101.084 142.572 105.634 145.279C109.934 147.836 113.983 150.122 117.781 152.137C117.826 152.161 117.876 152.175 117.928 152.176C117.979 152.178 118.031 152.167 118.078 152.146L120.593 151C120.616 150.99 120.635 150.973 120.649 150.952C120.663 150.931 120.67 150.906 120.67 150.881C120.67 150.856 120.662 150.831 120.649 150.809C120.635 150.788 120.616 150.771 120.593 150.76C114.382 147.86 108.422 144.512 102.71 140.716C101.171 139.692 99.5217 138.329 97.7617 136.625C97.6901 136.557 97.5993 136.512 97.5014 136.497Z" fill="white"/>
<path d="M69.38 164.696L67.4928 163.767L61.2635 176.421L63.1506 177.35L62.8377 177.986L56.5007 174.867L56.8137 174.231L58.7009 175.16L64.3826 163.618L54.0289 173.872L53.3734 173.549L54.884 160.053L49.7793 170.422L51.5296 171.63L51.2166 172.265L46.4887 169.938L46.8017 169.302L49.0641 170.07L55.1566 157.694L53.2694 156.765L53.5823 156.13L57.9129 158.262L56.5615 170.281L65.1637 161.831L69.6929 164.061L69.38 164.696Z" fill="white"/>
<path d="M75.123 184.034L64.3363 178.724L64.6492 178.088L66.5364 179.017L72.7657 166.363L70.8786 165.434L71.1915 164.798L81.4618 169.854L79.457 173.927L78.8213 173.614L79.8377 169.845L75.3482 167.634L72.4633 173.495L75.165 174.825L76.7263 172.706L77.3819 173.028L74.7904 178.293L74.1547 177.98L74.8521 175.46L72.1504 174.13L69.1189 180.288L74.1249 182.753L76.5899 179.45L77.2256 179.763L75.123 184.034Z" fill="white"/>
<path d="M96.6574 178.125L94.7702 177.196L88.5409 189.85L90.4281 190.779L90.1151 191.414L83.7583 188.285L84.0712 187.649L85.9584 188.578L92.1878 175.924L88.5922 174.154C88.5531 174.234 88.4878 174.35 88.3963 174.502C88.3246 174.648 88.2625 174.757 88.2102 174.83C87.9944 175.168 87.7985 175.516 87.6225 175.873C87.4593 176.171 87.2014 176.628 86.8487 177.245C86.5093 177.867 86.2449 178.338 86.0554 178.656C83.3779 183.359 81.1779 185.756 79.4555 185.846C78.8683 185.902 78.3496 185.82 77.8993 185.598C77.3696 185.337 77.0174 184.967 76.8428 184.486C76.6814 184.011 76.7311 183.509 76.9919 182.98C77.2005 182.556 77.4991 182.267 77.8876 182.113C78.2894 181.965 78.7022 181.995 79.126 182.204C79.51 182.393 79.7626 182.665 79.8836 183.021C80.0244 183.37 80.0003 183.737 79.8112 184.121C79.6808 184.386 79.4445 184.598 79.1022 184.759C78.7797 184.913 78.4827 184.931 78.2113 184.814C78.2778 184.88 78.3507 184.932 78.4302 184.971C78.801 185.154 79.2005 185.177 79.6288 185.043C80.0703 184.915 80.4978 184.664 80.9114 184.292C81.325 183.92 81.676 183.574 81.9645 183.256C82.253 182.937 82.5314 182.589 82.7998 182.211C84.1285 180.381 85.4782 178.19 86.8487 175.64C86.94 175.455 87.0248 175.299 87.1032 175.173C87.2271 174.922 87.325 174.74 87.3969 174.627C87.4819 174.488 87.5961 174.273 87.7395 173.981L85.7515 172.756L86.0644 172.12L96.9703 177.489L96.6574 178.125Z" fill="white"/>
<path d="M98.2482 195.615C96.2219 194.618 94.9222 193.147 94.349 191.203C93.7891 189.266 94.0046 187.291 94.9956 185.278C96.0061 183.225 97.4662 181.813 99.3759 181.042C101.299 180.278 103.26 180.388 105.26 181.372C107.273 182.363 108.55 183.847 109.09 185.824C109.643 187.808 109.425 189.806 108.434 191.819C107.489 193.739 106.021 195.082 104.033 195.847C102.057 196.618 100.129 196.541 98.2482 195.615ZM104.947 182.008C104.338 181.708 103.713 181.59 103.073 181.653C102.44 181.703 101.863 181.888 101.344 182.208C100.831 182.515 100.328 182.918 99.8362 183.416C99.3441 183.914 98.9182 184.428 98.5584 184.959C98.2184 185.482 97.9115 186.022 97.6376 186.578C97.0509 187.77 96.6757 189.017 96.5122 190.319C96.3551 191.607 96.5798 192.721 97.1864 193.661C97.5199 194.22 97.9847 194.647 98.5807 194.94C99.309 195.299 100.046 195.406 100.791 195.263C101.556 195.113 102.247 194.779 102.864 194.26C103.501 193.734 104.055 193.16 104.527 192.537C105.012 191.92 105.423 191.267 105.762 190.578C105.991 190.115 106.192 189.638 106.368 189.148C106.556 188.665 106.715 188.143 106.843 187.581C106.991 187.012 107.064 186.464 107.061 185.936C107.064 185.395 107.008 184.873 106.892 184.372C106.79 183.878 106.57 183.424 106.231 183.01C105.905 182.603 105.477 182.269 104.947 182.008Z" fill="white"/>
<path d="M104.701 203.481L104.065 203.168L106.315 198.599L107.745 199.303C109.751 199.106 112.166 196.388 114.992 191.149C115.162 190.837 115.41 190.383 115.737 189.787C115.821 189.615 115.958 189.354 116.148 189.002C116.357 188.645 116.513 188.376 116.618 188.197L114.61 186.962L114.923 186.327L125.809 191.686L125.496 192.321L123.609 191.392L117.38 204.046L119.267 204.975L117.018 209.544L116.382 209.231L117.663 204.975L107.293 199.871L104.701 203.481ZM115.659 191.6C115.045 192.68 114.545 193.544 114.16 194.194C113.781 194.83 113.248 195.612 112.56 196.541C111.879 197.456 111.217 198.199 110.574 198.771C110.022 199.256 109.443 199.613 108.838 199.841L114.797 202.775L121.026 190.121L117.471 188.37C117.353 188.576 117.196 188.844 117 189.175C116.824 189.5 116.707 189.722 116.648 189.841C116.432 190.179 116.23 190.54 116.041 190.924C115.969 191.037 115.89 191.179 115.806 191.351C115.753 191.424 115.704 191.507 115.659 191.6Z" fill="white"/>
<path d="M142.099 200.495L140.212 199.566L133.983 212.22L135.87 213.149L135.557 213.784L129.2 210.655L129.513 210.019L131.4 210.948L136.495 200.599L125.76 206.814L125.222 207.907L127.109 208.836L126.796 209.472L120.44 206.342L120.753 205.707L122.64 206.636L128.869 193.982L126.982 193.053L127.295 192.417L133.652 195.546L133.339 196.182L131.452 195.253L126.347 205.623L137.062 199.447L137.63 198.294L135.742 197.365L136.055 196.73L142.412 199.859L142.099 200.495Z" fill="white"/>
<path d="M141.611 214.618C141.126 215.202 140.617 215.518 140.082 215.568C139.568 215.611 138.939 215.45 138.198 215.084L136.251 214.126L136.564 213.49L137.061 213.735C137.789 214.093 138.419 213.967 138.95 213.357C139.428 212.753 139.778 212.325 140.001 212.073C140.191 211.821 140.564 211.347 141.121 210.65C141.416 210.252 141.754 209.966 142.136 209.792C142.524 209.605 142.933 209.526 143.362 209.557C143.792 209.587 144.195 209.654 144.572 209.757C144.962 209.867 145.392 210.029 145.862 210.244L145.901 210.165C144.841 209.544 144.041 208.764 143.5 207.823C142.979 206.876 142.967 205.899 143.462 204.892C144.049 203.7 144.936 203.018 146.123 202.846C147.33 202.667 148.556 202.883 149.801 203.496L156.475 206.782L156.163 207.418L154.275 206.489L148.046 219.143L149.933 220.072L149.62 220.707L143.164 217.529L143.477 216.894L145.464 217.871L148.417 211.872L147.086 211.217C146.357 210.858 145.739 210.727 145.232 210.822C144.731 210.905 144.238 211.254 143.753 211.871L142.928 212.946C142.712 213.251 142.515 213.5 142.338 213.692C142.155 213.898 142.017 214.077 141.926 214.23C141.762 214.429 141.657 214.558 141.611 214.618ZM147.399 210.581L148.73 211.237L151.693 205.217L150.382 204.572C149.508 204.142 148.689 204.084 147.925 204.399C147.174 204.721 146.581 205.325 146.144 206.212C145.681 207.153 145.541 208.005 145.724 208.77C145.914 209.521 146.472 210.125 147.399 210.581Z" fill="white"/>
<path d="M50.9028 192.47L47.494 190.792L47.6524 190.47L48.7847 191.028L52.581 183.316L51.4487 182.759L51.6071 182.437L54.9445 184.08C56.8118 184.999 57.4403 186.078 56.8301 187.318C56.5563 187.874 56.1347 188.229 55.5653 188.383C54.9958 188.537 54.4036 188.517 53.7884 188.323L53.7649 188.371C54.3733 188.739 54.8217 189.192 55.1102 189.729C55.3713 190.322 55.3552 190.916 55.0618 191.512C54.8036 192.036 54.4297 192.415 53.94 192.648C53.4621 192.876 52.9636 192.966 52.4444 192.918C51.9253 192.87 51.4114 192.721 50.9028 192.47ZM49.9766 191.615L50.954 192.096C51.542 192.385 52.0809 192.413 52.5706 192.181C53.0682 191.952 53.4657 191.535 53.763 190.932C54.3889 189.66 54.1019 188.729 52.902 188.139L51.9246 187.657L49.9766 191.615ZM52.0831 187.336L53.0604 187.817C53.5928 188.079 54.0703 188.102 54.4927 187.885C54.9152 187.669 55.2633 187.282 55.5372 186.726C56.0535 185.677 55.7674 184.885 54.6788 184.349L53.7729 183.903L52.0831 187.336Z" fill="white"/>
<path d="M65.1939 188.977L65.5157 189.136L64.1369 191.937L63.8151 191.778C64.3063 190.52 64.2011 189.51 63.4992 188.75C63.2642 188.526 63.0195 188.351 62.7652 188.226C62.3838 188.038 62.0011 187.963 61.6171 188.001C61.2332 188.039 60.8853 188.154 60.5736 188.346C60.2658 188.531 59.9643 188.782 59.6692 189.101C59.3741 189.419 59.1246 189.736 58.9206 190.05C58.7165 190.364 58.5304 190.692 58.3622 191.034C57.9906 191.789 57.7538 192.561 57.6517 193.349C57.5497 194.138 57.6945 194.817 58.0862 195.385C58.2941 195.704 58.5729 195.95 58.9225 196.122C59.5503 196.431 60.1565 196.463 60.7412 196.218C61.3377 195.968 61.8302 195.54 62.2185 194.931L62.5404 195.09L61.2436 197.724L60.9337 197.571L61.3005 196.345C60.432 196.826 59.537 196.839 58.6152 196.385C57.8524 196.01 57.2926 195.483 56.9359 194.803C56.5831 194.116 56.4281 193.399 56.471 192.65C56.5178 191.893 56.7231 191.145 57.0869 190.406C57.4585 189.651 57.9378 189.018 58.5248 188.508C59.1157 187.989 59.795 187.662 60.5626 187.527C61.3341 187.383 62.1012 187.499 62.864 187.875C63.7778 188.325 64.3287 189.02 64.5168 189.962L65.1939 188.977Z" fill="white"/>
<path d="M68.7066 201.235L62.5325 198.195L62.6909 197.873L63.8232 198.431L67.6195 190.719L66.4872 190.162L66.6456 189.84L72.5098 192.727L71.307 195.17L70.9851 195.012L71.6243 192.691L68.8114 191.306L67.0512 194.882L68.8033 195.744L69.7401 194.473L70.0619 194.631L68.5363 197.73L68.2264 197.578L68.6448 196.066L66.8927 195.204L65.0151 199.018L68.1379 200.555L69.6463 198.514L69.9681 198.672L68.7066 201.235Z" fill="white"/>
<path d="M80.2092 196.369L80.531 196.527L79.1521 199.328L78.8303 199.17C79.3216 197.911 79.2163 196.902 78.5145 196.142C78.2794 195.918 78.0347 195.743 77.7804 195.618C77.399 195.43 77.0163 195.355 76.6323 195.393C76.2484 195.431 75.9005 195.546 75.5888 195.738C75.281 195.922 74.9795 196.174 74.6845 196.492C74.3894 196.811 74.1398 197.128 73.9358 197.442C73.7318 197.756 73.5457 198.084 73.3775 198.425C73.0058 199.18 72.769 199.952 72.667 200.741C72.5649 201.53 72.7097 202.208 73.1014 202.776C73.3093 203.096 73.5881 203.342 73.9378 203.514C74.5655 203.823 75.1717 203.855 75.7564 203.609C76.353 203.36 76.8454 202.931 77.2338 202.323L77.5556 202.481L76.2589 205.115L75.949 204.963L76.3157 203.737C75.4473 204.217 74.5522 204.231 73.6304 203.777C72.8676 203.402 72.3078 202.874 71.9511 202.195C71.5983 201.508 71.4433 200.79 71.4862 200.041C71.533 199.285 71.7383 198.537 72.1021 197.798C72.4737 197.043 72.953 196.41 73.54 195.899C74.131 195.381 74.8102 195.054 75.5778 194.918C76.3493 194.775 77.1164 194.891 77.8793 195.266C78.793 195.716 79.344 196.412 79.532 197.354L80.2092 196.369Z" fill="white"/>
<path d="M81.4698 207.636C80.2859 207.053 79.5516 206.179 79.2671 205.012C78.9827 203.845 79.1318 202.67 79.7147 201.486C80.321 200.254 81.1653 199.401 82.2477 198.927C83.3419 198.449 84.4849 198.504 85.6768 199.09C86.8926 199.689 87.6347 200.558 87.9032 201.697C88.1716 202.836 88.0047 204.017 87.4023 205.241C87.0424 205.972 86.5432 206.585 85.9046 207.08C85.2778 207.571 84.5648 207.877 83.7654 207.996C82.9661 208.116 82.2009 207.996 81.4698 207.636ZM85.5184 199.412C85.0496 199.181 84.5719 199.109 84.0852 199.195C83.6065 199.285 83.1721 199.496 82.782 199.827C82.3958 200.15 82.0515 200.509 81.7489 200.903C81.4464 201.297 81.1875 201.712 80.9724 202.15C80.6164 202.873 80.4013 203.63 80.327 204.423C80.2645 205.212 80.4174 205.904 80.7855 206.5C80.9896 206.847 81.2745 207.111 81.64 207.291C82.22 207.576 82.8301 207.59 83.4702 207.333C84.1102 207.075 84.6682 206.674 85.1441 206.128C85.4942 205.738 85.812 205.253 86.0976 204.673C86.3206 204.22 86.4979 203.759 86.6297 203.291C86.7615 202.823 86.8396 202.333 86.8642 201.822C86.8967 201.315 86.7968 200.846 86.5644 200.416C86.3438 199.981 85.9952 199.647 85.5184 199.412Z" fill="white"/>
<path d="M93.7121 213.663C93.1161 213.369 92.6444 212.994 92.297 212.537C91.9496 212.08 91.7306 211.582 91.6402 211.044C91.5615 210.502 91.57 209.953 91.6656 209.398C91.7651 208.835 91.9458 208.267 92.2076 207.695L90.7773 206.991L88.9114 210.781L90.0438 211.339L89.8853 211.661L86.4288 209.959L86.5872 209.637L87.7195 210.195L91.5158 202.483L90.3835 201.926L90.5419 201.604L93.9985 203.305L93.84 203.627L92.7077 203.07L90.9357 206.669L92.3779 207.379C93.0324 206.25 93.8415 205.459 94.8051 205.005C95.7806 204.548 96.8167 204.589 97.9132 205.129C98.6919 205.512 99.2558 206.051 99.6047 206.746C99.9575 207.433 100.105 208.157 100.046 208.918C99.9911 209.671 99.778 210.425 99.4064 211.18C99.0387 211.927 98.5633 212.551 97.9802 213.054C97.405 213.561 96.7336 213.882 95.9661 214.017C95.2103 214.149 94.459 214.031 93.7121 213.663ZM97.7665 205.427C97.3375 205.216 96.8995 205.173 96.4527 205.298C96.0098 205.416 95.6034 205.66 95.2333 206.031C94.8752 206.397 94.5606 206.776 94.2897 207.165C94.0228 207.547 93.7876 207.945 93.5842 208.358C93.3925 208.747 93.2267 209.164 93.0869 209.609C92.9589 210.049 92.8628 210.525 92.7987 211.037C92.7384 211.54 92.7908 212.005 92.9559 212.432C93.1328 212.854 93.4318 213.169 93.8529 213.377C94.274 213.584 94.7061 213.629 95.149 213.511C95.5919 213.394 95.9925 213.162 96.3507 212.815C96.7209 212.464 97.0395 212.098 97.3064 211.716C97.5814 211.338 97.8186 210.946 98.0181 210.541C98.2215 210.128 98.3911 209.703 98.5271 209.266C98.6748 208.826 98.7828 208.346 98.8509 207.826C98.9189 207.307 98.8625 206.83 98.6816 206.396C98.5086 205.965 98.2036 205.642 97.7665 205.427Z" fill="white"/>
<path d="M102.502 212.496L102.66 212.174L103.125 212.403C103.657 212.665 104.153 212.702 104.611 212.513C105.073 212.316 105.437 211.947 105.703 211.407C105.958 210.891 106.028 210.427 105.915 210.015C105.801 209.604 105.494 209.275 104.994 209.029C104.541 208.806 104.105 208.749 103.685 208.859C103.274 208.972 102.931 209.178 102.655 209.477C102.388 209.78 102.147 210.15 101.931 210.587L101.574 210.411L102.953 207.61L103.31 207.786L102.919 208.881C103.641 208.378 104.498 208.371 105.492 208.859C106.175 209.196 106.675 209.634 106.991 210.175C107.307 210.716 107.309 211.304 106.996 211.94C106.718 212.504 106.301 212.871 105.743 213.041C105.186 213.21 104.601 213.194 103.99 212.992L103.967 213.04C104.615 213.448 105.065 213.926 105.318 214.475C105.571 215.024 105.541 215.616 105.228 216.252C104.872 216.975 104.309 217.438 103.538 217.641C102.771 217.836 102.021 217.753 101.29 217.394C100.178 216.846 99.6282 216.027 99.6413 214.938L98.99 216.261L98.6324 216.085L99.9233 213.463L100.287 213.627C100.108 214.111 100.027 214.605 100.046 215.108C100.069 215.603 100.228 216.022 100.524 216.364C100.703 216.601 100.948 216.796 101.258 216.948C101.798 217.214 102.317 217.203 102.814 216.915C103.316 216.618 103.705 216.188 103.983 215.624C104.616 214.337 104.278 213.371 102.967 212.725L102.502 212.496Z" fill="white"/>
<path d="M117.671 215.358L116.538 214.801L112.742 222.513L113.874 223.07L113.716 223.392L110.259 221.69L110.418 221.368L111.55 221.926L113.41 218.148L109.465 216.205L107.605 219.984L108.737 220.541L108.579 220.863L105.122 219.161L105.281 218.84L106.413 219.397L110.209 211.685L109.077 211.128L109.235 210.806L112.692 212.508L112.533 212.83L111.401 212.272L109.623 215.884L113.568 217.826L115.346 214.214L114.214 213.657L114.372 213.335L117.829 215.037L117.671 215.358Z" fill="white"/>
<path d="M122.591 217.174L121.594 226.87L122.726 227.428L122.568 227.749L119.016 226.001L119.174 225.679L120.307 226.237L120.616 223.502L117.803 222.117L116.038 223.928L116.969 224.594L116.811 224.915L114.248 223.654L114.407 223.332L115.687 223.74L122.258 217.009L122.591 217.174ZM121.263 218.548L118.069 221.848L120.644 223.115L121.263 218.548Z" fill="white"/>
<path d="M125.646 227.636L125.452 227.881C125.161 228.231 124.855 228.421 124.534 228.451C124.225 228.477 123.848 228.38 123.403 228.161L122.593 227.762L122.751 227.44L122.978 227.552C123.232 227.677 123.45 227.725 123.632 227.696C123.814 227.667 123.996 227.549 124.177 227.342C124.326 227.159 124.434 227.03 124.501 226.954C124.54 226.914 124.592 226.85 124.654 226.763C124.725 226.679 124.774 226.62 124.802 226.584C124.845 226.536 124.9 226.464 124.967 226.369C125.045 226.269 125.099 226.202 125.126 226.166C125.157 226.122 125.214 226.046 125.297 225.939C125.391 225.828 125.464 225.74 125.515 225.676C126.097 224.936 126.96 224.828 128.104 225.351L128.127 225.304C127.849 225.107 127.612 224.897 127.416 224.672C127.065 224.322 126.845 223.927 126.755 223.488C126.669 223.041 126.734 222.599 126.949 222.162C127.129 221.796 127.363 221.512 127.651 221.308C127.95 221.1 128.271 220.981 128.611 220.951C128.963 220.918 129.314 220.937 129.663 221.01C130.012 221.083 130.357 221.204 130.699 221.372L134.251 223.121L134.092 223.443L132.96 222.885L129.164 230.597L130.296 231.154L130.138 231.476L126.622 229.745L126.78 229.423L127.972 230.01L129.773 226.351L128.844 225.893C128.327 225.639 127.934 225.525 127.665 225.55C127.404 225.579 127.104 225.797 126.766 226.203C126.432 226.621 126.263 226.834 126.259 226.842C126.133 227.017 126.014 227.17 125.899 227.302C125.782 227.441 125.697 227.553 125.646 227.636ZM129.002 225.571L129.932 226.029L131.768 222.298L130.91 221.876C130.354 221.602 129.829 221.546 129.335 221.707C128.848 221.873 128.47 222.23 128.2 222.778C127.919 223.35 127.841 223.889 127.967 224.396C128.101 224.906 128.446 225.298 129.002 225.571Z" fill="white"/>
<path d="M65.755 214.806L66.0777 214.151L65.8274 214.028C64.7309 213.488 64.0174 212.761 63.6869 211.849C63.3644 210.94 63.4653 209.953 63.9894 208.888C64.494 207.863 65.2228 207.225 66.1759 206.973C67.1328 206.714 68.1238 206.836 69.1488 207.341L69.3753 207.452L69.6921 206.809L68.5598 206.251L68.7182 205.929L72.1748 207.631L72.0163 207.953L70.884 207.395L70.5672 208.039L70.734 208.121C71.7511 208.622 72.4586 209.34 72.8566 210.277C73.2545 211.213 73.2109 212.174 72.7259 213.159C72.1822 214.264 71.4418 214.955 70.5048 215.234C69.5717 215.506 68.5609 215.373 67.4723 214.837L67.2696 214.738L66.9469 215.393L68.0792 215.951L67.9208 216.272L64.4643 214.571L64.6227 214.249L65.755 214.806ZM65.1998 209.587C64.7735 210.453 64.6181 211.261 64.7336 212.008C64.8571 212.76 65.3241 213.336 66.1346 213.735L66.2538 213.793L69.2051 207.798L69.074 207.733C68.486 207.444 67.9309 207.358 67.4088 207.476C66.8986 207.59 66.4703 207.829 66.124 208.191C65.7856 208.558 65.4776 209.023 65.1998 209.587ZM70.54 208.455L70.397 208.385L67.4457 214.38L67.6125 214.462C68.3912 214.846 69.12 214.839 69.7988 214.443C70.4895 214.042 71.0343 213.437 71.4333 212.626C71.7032 212.078 71.8723 211.554 71.9405 211.055C72.0126 210.547 71.9343 210.055 71.7056 209.577C71.4848 209.103 71.0963 208.729 70.54 208.455Z" fill="white"/>
<path d="M84.1703 214.291L83.038 213.734L79.2417 221.446L80.374 222.003L80.2156 222.325L76.7591 220.623L76.9175 220.301L78.0498 220.859L81.1948 214.47L74.4566 218.202L74.1046 218.917L75.2369 219.474L75.0785 219.796L71.622 218.094L71.7804 217.773L72.9127 218.33L76.709 210.618L75.5767 210.061L75.7351 209.739L79.1916 211.441L79.0332 211.763L77.9009 211.205L74.7383 217.629L81.4764 213.898L81.8461 213.147L80.7138 212.59L80.8722 212.268L84.3287 213.97L84.1703 214.291Z" fill="white"/>
<path d="M86.3151 220.693C86.1483 220.611 85.9754 220.511 85.7964 220.393C85.6652 220.319 85.4922 220.199 85.2773 220.034L83.5405 223.562L84.792 224.178L84.6336 224.5L81.0578 222.739L81.2163 222.418L82.3486 222.975L86.1449 215.263L85.0126 214.706L85.171 214.384L88.7348 216.139C89.5373 216.534 90.1147 217.025 90.4669 217.613C90.823 218.193 90.8192 218.853 90.4554 219.592C90.0603 220.394 89.4712 220.879 88.6879 221.046C87.9166 221.21 87.1256 221.092 86.3151 220.693ZM86.3305 220.301C86.9106 220.586 87.4513 220.591 87.9526 220.314C88.4619 220.042 88.8632 219.608 89.1566 219.012C89.4617 218.392 89.5396 217.863 89.3903 217.424C89.245 216.977 88.8624 216.601 88.2426 216.296L87.3368 215.85L85.4474 219.688C85.6786 219.92 85.973 220.125 86.3305 220.301Z" fill="white"/>
<path d="M101.754 222.948L100.622 222.39L96.8256 230.102L97.9579 230.659L97.7995 230.981L94.3429 229.279L94.5014 228.958L95.6337 229.515L99.1072 222.459L92.7526 228.63L92.4308 228.471L93.6067 219.766L90.2211 226.643L91.2713 227.368L91.1129 227.689L88.3596 226.334L88.518 226.012L89.8755 226.473L93.5896 218.928L92.4573 218.371L92.6157 218.049L95.0591 219.252L93.9659 226.917L99.5645 221.47L101.913 222.626L101.754 222.948Z" fill="white"/>
<path d="M106.679 224.765L105.681 234.461L106.813 235.019L106.655 235.34L103.103 233.592L103.262 233.27L104.394 233.828L104.704 231.093L101.891 229.708L100.126 231.519L101.057 232.185L100.898 232.506L98.3355 231.245L98.494 230.923L99.7739 231.331L106.345 224.6L106.679 224.765ZM105.35 226.139L102.157 229.439L104.731 230.706L105.35 226.139Z" fill="white"/>
<path d="M27.1079 211.605L23.4726 209.816L23.631 209.494L24.7633 210.051L28.5596 202.34L27.4273 201.782L27.5857 201.461L33.6287 204.435L32.4259 206.879L32.104 206.72L32.8028 204.429L29.7515 202.927L25.9552 210.638L27.2663 211.284L27.1079 211.605Z" fill="white"/>
<path d="M35.4427 211.074C35.2758 210.992 35.1029 210.892 34.9239 210.774C34.7927 210.7 34.6197 210.58 34.4048 210.415L32.668 213.943L33.9195 214.559L33.7611 214.881L30.1854 213.12L30.3438 212.799L31.4761 213.356L35.2724 205.644L34.1401 205.087L34.2985 204.765L37.8623 206.52C38.6648 206.915 39.2422 207.406 39.5944 207.994C39.9505 208.574 39.9467 209.234 39.5829 209.973C39.1878 210.775 38.5987 211.26 37.8155 211.427C37.0441 211.591 36.2532 211.473 35.4427 211.074ZM35.4581 210.682C36.0381 210.967 36.5788 210.972 37.0801 210.695C37.5894 210.423 37.9907 209.989 38.2841 209.393C38.5892 208.773 38.6671 208.244 38.5179 207.805C38.3725 207.358 37.9899 206.982 37.3701 206.677L36.4643 206.231L34.5749 210.069C34.8061 210.301 35.1005 210.506 35.4581 210.682Z" fill="white"/>
<path d="M44.4109 209.536L43.4134 219.233L44.5457 219.79L44.3873 220.112L40.8354 218.363L40.9938 218.041L42.1261 218.599L42.436 215.864L39.6231 214.479L37.8578 216.29L38.7888 216.956L38.6304 217.278L36.0678 216.016L36.2262 215.694L37.5061 216.102L44.0772 209.372L44.4109 209.536ZM43.0826 210.911L39.8888 214.21L42.4633 215.478L43.0826 210.911Z" fill="white"/>
<path d="M58.3078 216.984L57.1755 216.427L53.3792 224.139L54.5115 224.696L54.3531 225.018L50.8966 223.316L51.055 222.994L52.1873 223.552L55.6609 216.496L49.3062 222.667L48.9844 222.508L50.1603 213.803L46.7748 220.68L47.8249 221.404L47.6665 221.726L44.9132 220.371L45.0716 220.049L46.4291 220.51L50.1433 212.965L49.011 212.408L49.1694 212.086L51.6128 213.289L50.5195 220.954L56.1182 215.507L58.4662 216.663L58.3078 216.984Z" fill="white"/>
<path d="M67.9143 221.713L66.782 221.156L62.9857 228.868L64.118 229.425L63.9596 229.747L60.5031 228.045L60.6615 227.723L61.7938 228.281L65.5901 220.569L61.6449 218.627L57.8486 226.339L58.9809 226.896L58.8225 227.218L55.366 225.516L55.5244 225.195L56.6567 225.752L60.453 218.04L59.3207 217.483L59.4791 217.161L68.0727 221.392L67.9143 221.713Z" fill="white"/>
<path d="M76.492 225.936L75.3597 225.379L71.5634 233.09L72.6957 233.648L72.5373 233.969L69.0808 232.268L69.2392 231.946L70.3715 232.504L74.1678 224.792L71.8913 223.671C71.8051 223.826 71.6739 224.063 71.4976 224.381C71.3252 224.691 71.196 224.923 71.1098 225.078C71.0863 225.126 71.053 225.183 71.0098 225.251C70.9786 225.315 70.9492 225.364 70.9217 225.4C70.9021 225.44 70.8864 225.472 70.8747 225.496C70.0401 226.95 69.3458 228.06 68.7921 228.824C68.5877 229.078 68.4147 229.289 68.2732 229.457C68.1316 229.624 67.9348 229.823 67.6827 230.055C67.4346 230.278 67.2039 230.446 66.9907 230.558C66.7814 230.662 66.5323 230.727 66.2433 230.753C65.9662 230.774 65.6965 230.72 65.4343 230.591C65.1562 230.454 64.9589 230.263 64.8425 230.019C64.7262 229.774 64.7345 229.516 64.8675 229.246C64.977 229.024 65.1305 228.872 65.3281 228.792C65.5336 228.715 65.7436 228.73 65.9581 228.835C66.1568 228.933 66.2943 229.065 66.3705 229.231C66.4548 229.401 66.4499 229.581 66.3561 229.772C66.18 230.129 65.9274 230.271 65.5982 230.198C65.797 230.316 66.0192 230.376 66.2648 230.378C67.2115 230.4 68.6663 228.658 70.629 225.152C70.6681 225.073 70.7248 224.958 70.7991 224.807C70.8853 224.652 70.9519 224.537 70.999 224.461C71.0539 224.37 71.1283 224.228 71.2222 224.038C71.324 223.851 71.4003 223.706 71.4512 223.603L70.2584 222.867L70.4168 222.546L76.6504 225.614L76.492 225.936Z" fill="white"/>
<path d="M81.4135 227.752L80.416 237.448L81.5483 238.006L81.3899 238.327L77.838 236.579L77.9965 236.257L79.1288 236.815L79.4386 234.08L76.6257 232.695L74.8605 234.506L75.7914 235.172L75.633 235.493L73.0704 234.232L73.2288 233.91L74.5088 234.318L81.0798 227.587L81.4135 227.752ZM80.0852 229.126L76.8914 232.426L79.4659 233.693L80.0852 229.126Z" fill="white"/>
<path d="M91.5847 232.818L91.9065 232.976L90.5276 235.777L90.2058 235.619C90.6971 234.36 90.5918 233.351 89.89 232.591C89.6549 232.367 89.4102 232.192 89.1559 232.067C88.7745 231.879 88.3918 231.804 88.0079 231.842C87.6239 231.88 87.276 231.995 86.9643 232.187C86.6565 232.371 86.3551 232.623 86.06 232.941C85.7649 233.26 85.5153 233.576 85.3113 233.891C85.1073 234.205 84.9212 234.533 84.753 234.874C84.3814 235.629 84.1445 236.401 84.0425 237.19C83.9404 237.979 84.0852 238.657 84.4769 239.225C84.6849 239.545 84.9636 239.791 85.3133 239.963C85.941 240.272 86.5472 240.304 87.1319 240.058C87.7285 239.809 88.2209 239.38 88.6093 238.772L88.9311 238.93L87.6344 241.564L87.3245 241.412L87.6912 240.186C86.8228 240.666 85.9277 240.68 85.0059 240.226C84.2431 239.85 83.6834 239.323 83.3266 238.644C82.9738 237.957 82.8188 237.239 82.8617 236.49C82.9085 235.733 83.1138 234.986 83.4776 234.247C83.8492 233.492 84.3285 232.859 84.9156 232.348C85.5065 231.83 86.1857 231.503 86.9533 231.367C87.7248 231.224 88.4919 231.34 89.2548 231.715C90.1686 232.165 90.7195 232.861 90.9075 233.802L91.5847 232.818Z" fill="white"/>
<path d="M92.1731 236.276L91.8513 236.118L93.0483 233.687L99.8064 237.013L98.6094 239.445L98.2876 239.287L98.8974 237.025L96.8354 236.01L93.0626 243.674L94.1949 244.231L94.0365 244.553L90.58 242.852L90.7384 242.53L91.8707 243.087L95.6435 235.423L93.5815 234.408L92.1731 236.276Z" fill="white"/>
<path d="M109.2 242.038L108.068 241.48L104.272 249.192L105.404 249.749L105.246 250.071L101.789 248.37L101.948 248.048L103.08 248.605L106.225 242.217L99.4867 245.948L99.1346 246.663L100.267 247.22L100.109 247.542L96.652 245.841L96.8104 245.519L97.9427 246.076L101.739 238.365L100.607 237.807L100.765 237.485L104.222 239.187L104.063 239.509L102.931 238.951L99.7683 245.376L106.506 241.644L106.876 240.894L105.744 240.336L105.902 240.014L109.359 241.716L109.2 242.038Z" fill="white"/>
<path d="M118.803 246.765L117.671 246.208L113.875 253.919L115.007 254.477L114.848 254.798L111.392 253.097L111.55 252.775L112.683 253.332L114.543 249.554L110.597 247.612L108.737 251.39L109.87 251.948L109.711 252.269L106.255 250.568L106.413 250.246L107.545 250.804L111.342 243.092L110.209 242.534L110.368 242.213L113.824 243.914L113.666 244.236L112.534 243.679L110.756 247.29L114.701 249.232L116.479 245.621L115.347 245.063L115.505 244.742L118.962 246.443L118.803 246.765Z" fill="white"/>
<path d="M119.78 257.344C118.596 256.762 117.861 255.887 117.577 254.72C117.292 253.553 117.442 252.378 118.024 251.194C118.631 249.962 119.475 249.11 120.557 248.635C121.652 248.157 122.795 248.212 123.987 248.798C125.202 249.397 125.944 250.266 126.213 251.405C126.481 252.544 126.314 253.725 125.712 254.949C125.352 255.68 124.853 256.293 124.214 256.788C123.588 257.279 122.875 257.585 122.075 257.704C121.276 257.824 120.511 257.704 119.78 257.344ZM123.828 249.12C123.359 248.889 122.882 248.817 122.395 248.903C121.916 248.993 121.482 249.204 121.092 249.535C120.706 249.858 120.361 250.217 120.059 250.611C119.756 251.005 119.497 251.421 119.282 251.858C118.926 252.581 118.711 253.339 118.637 254.131C118.574 254.92 118.727 255.612 119.095 256.208C119.299 256.555 119.584 256.819 119.95 256.999C120.53 257.284 121.14 257.298 121.78 257.041C122.42 256.783 122.978 256.382 123.454 255.836C123.804 255.446 124.122 254.961 124.407 254.381C124.63 253.928 124.808 253.467 124.939 252.999C125.071 252.531 125.149 252.041 125.174 251.53C125.206 251.023 125.107 250.554 124.874 250.124C124.654 249.689 124.305 249.355 123.828 249.12Z" fill="white"/>
<path d="M131.701 256.683C131.8 256.603 131.936 256.478 132.109 256.306C132.164 256.254 132.247 256.167 132.357 256.043C132.475 255.924 132.563 255.834 132.622 255.774C132.681 255.714 132.77 255.625 132.888 255.505C133.01 255.378 133.103 255.28 133.166 255.212C133.229 255.145 133.307 255.055 133.402 254.944C133.508 254.828 133.583 254.746 133.626 254.699C134.098 254.161 134.624 254.035 135.204 254.32C135.466 254.45 135.641 254.625 135.73 254.846C135.83 255.063 135.816 255.303 135.687 255.565C135.573 255.796 135.418 255.951 135.22 256.031C135.027 256.104 134.815 256.083 134.584 255.97C134.402 255.88 134.272 255.742 134.196 255.557C134.127 255.375 134.138 255.193 134.228 255.01C134.333 254.795 134.505 254.648 134.742 254.567C134.639 254.536 134.528 254.541 134.409 254.581C134.271 254.621 134.111 254.735 133.93 254.922C133.867 254.99 133.777 255.084 133.659 255.203C133.548 255.327 133.472 255.413 133.429 255.46C133.322 255.576 133.171 255.733 132.974 255.932C132.876 256.032 132.74 256.178 132.567 256.369C132.37 256.568 132.216 256.719 132.106 256.823C131.763 257.138 131.416 257.273 131.063 257.228L131.039 257.275L131.29 257.399C132.204 257.848 132.538 258.502 132.294 259.359C132.224 259.621 132.147 259.899 132.062 260.192C132.042 260.271 132.009 260.379 131.963 260.514C131.928 260.645 131.893 260.766 131.858 260.877C131.831 260.992 131.806 261.103 131.783 261.21C131.713 261.452 131.669 261.642 131.65 261.781C131.631 261.92 131.63 262.072 131.647 262.239C131.663 262.405 131.726 262.549 131.833 262.671C131.945 262.785 132.1 262.891 132.299 262.989L132.632 263.153L132.474 263.475L131.461 262.976C131.024 262.761 130.715 262.516 130.535 262.239C130.359 261.955 130.331 261.591 130.451 261.147C130.498 260.972 130.531 260.845 130.55 260.766C130.589 260.627 130.628 260.488 130.666 260.349C130.709 260.163 130.763 259.963 130.829 259.748C130.868 259.609 130.951 259.31 131.079 258.85C131.211 258.401 131.193 258.047 131.025 257.786C130.865 257.53 130.562 257.292 130.117 257.073L129.14 256.592L127.221 260.489L128.354 261.047L128.195 261.369L124.739 259.667L124.897 259.345L126.029 259.903L129.826 252.191L128.693 251.634L128.852 251.312L132.308 253.013L132.15 253.335L131.018 252.778L129.298 256.27L130.157 256.693C130.474 256.849 130.752 256.936 130.99 256.955C131.232 256.965 131.469 256.875 131.701 256.683Z" fill="white"/>
</svg>
