<svg width="488" height="650" viewBox="0 0 488 650" fill="none" xmlns="http://www.w3.org/2000/svg">
<path d="M220.906 15.0583V4.51519C229.302 0.822921 234.254 0.877993 242.871 4.51519V15.0583H220.906Z" fill="#E82D34" stroke="black" stroke-width="2"/>
<path d="M379.054 14.2917V3.74859C387.45 0.0563197 392.401 0.111392 401.019 3.74859V14.2917H379.054Z" fill="#E82D34" stroke="black" stroke-width="2"/>
<path d="M89.7005 121.393C98.3389 117 135.387 117 135.387 117V143.358H94.9721L70.3715 169.716C60.5079 175.665 54.6685 175.093 44.0136 169.716C33.4644 160.623 23.8031 153.901 20.2916 143.358C16.7801 132.815 26.5519 120.49 36.1063 127.543C45.6607 134.596 44.0136 143.358 44.0136 143.358C53.1738 153.5 58.8591 154.575 70.3715 143.358C70.3715 143.358 81.0621 125.786 89.7005 121.393Z" fill="#E82D34" stroke="black" stroke-width="2"/>
<rect x="128.777" y="103.917" width="358.224" height="412.696" rx="9" fill="white" stroke="#E82D34" stroke-width="2"/>
<rect x="148.105" y="125.003" width="319.566" height="368.767" rx="9" fill="white" stroke="#E82D34" stroke-width="2"/>
<path d="M243.751 85.3447H219.15V102.917H243.751V85.3447Z" fill="black"/>
<path d="M401.898 85.3447H377.297V102.917H401.898V85.3447Z" fill="black"/>
<mask id="path-8-inside-1_221_21965" fill="white">
<path d="M307.009 85.3452C307.009 65.3057 299.049 46.087 284.879 31.9169C270.709 17.7468 251.49 9.78613 231.45 9.78613C211.411 9.78613 192.192 17.7468 178.022 31.9169C163.852 46.087 155.891 65.3057 155.891 85.3452L231.45 85.3452H307.009Z"/>
</mask>
<path d="M307.009 85.3452C307.009 65.3057 299.049 46.087 284.879 31.9169C270.709 17.7468 251.49 9.78613 231.45 9.78613C211.411 9.78613 192.192 17.7468 178.022 31.9169C163.852 46.087 155.891 65.3057 155.891 85.3452L231.45 85.3452H307.009Z" fill="#E82D34" stroke="black" stroke-width="4" mask="url(#path-8-inside-1_221_21965)"/>
<mask id="path-9-inside-2_221_21965" fill="white">
<path d="M465.157 84.5786C465.157 64.5391 457.196 45.3204 443.026 31.1503C428.856 16.9802 409.637 9.01953 389.598 9.01953C369.558 9.01953 350.339 16.9802 336.169 31.1503C321.999 45.3204 314.038 64.5391 314.038 84.5786L389.598 84.5786H465.157Z"/>
</mask>
<path d="M465.157 84.5786C465.157 64.5391 457.196 45.3204 443.026 31.1503C428.856 16.9802 409.637 9.01953 389.598 9.01953C369.558 9.01953 350.339 16.9802 336.169 31.1503C321.999 45.3204 314.038 64.5391 314.038 84.5786L389.598 84.5786H465.157Z" fill="#E82D34" stroke="black" stroke-width="4" mask="url(#path-9-inside-2_221_21965)"/>
<path d="M306.132 85.3447H156.771V89.7377C214.861 95.4943 247.495 95.6812 306.132 89.7377V85.3447Z" fill="#4E473F" stroke="black" stroke-width="2"/>
<path d="M464.279 84.5791H314.918V88.9721C373.009 94.7287 405.642 94.9156 464.279 88.9721V84.5791Z" fill="#4E473F" stroke="black" stroke-width="2"/>
<path d="M49.4317 145.503C49.1746 146.463 46.2102 190.897 44.1602 213.154H62.6106V145.503C60.1976 140.381 50.8096 140.356 49.4317 145.503Z" fill="white" stroke="black" stroke-width="2"/>
<path d="M87.8887 317.184L87.191 206.699L94.8839 209.497C110.685 240.296 112.138 273.694 94.8839 315.798L87.8887 317.184Z" fill="white" stroke="black" stroke-width="2"/>
<path d="M167.613 604.628L114.463 533.295L120.757 533.296C147.509 540.503 164.613 558.992 171.11 593.439L167.613 604.628Z" fill="white" stroke="black" stroke-width="2"/>
<path d="M94.9555 316.42C94.9555 316.42 100.552 217.114 94.9555 209.42C89.359 201.726 37.6071 209.42 37.6071 209.42C-12.8477 218.653 -27.9111 245.426 -30.9273 333.204C-30.9273 333.204 -35.2585 487.09 22.9226 580.075C35.6009 604.371 45.2864 616.991 69.779 636.722C85.9221 646.131 96.4177 650.147 125.028 648.611C143.845 644.886 157.197 637.421 164.191 624.833C171.184 612.245 172.594 607.139 171.184 594.062C155.099 574.713 125.941 537.424 125.028 536.016C121.902 531.194 110.341 531.819 100.55 536.016C90.7594 540.212 80.3308 555.037 79.5699 562.591C78.6275 571.945 44.796 555.091 42.5043 542.31C41.1758 461.664 39.7518 416.197 11.0337 345.093C12.1546 313.609 14.5304 303.132 28.5174 307.328C42.5043 311.524 67.9016 321.953 94.9555 316.42Z" fill="black" stroke="black" stroke-width="2"/>
<circle cx="309.231" cy="310.73" r="122.754" transform="rotate(-1.16536 309.231 310.73)" fill="#E82D34"/>
<circle cx="311.681" cy="308.176" r="61.6298" transform="rotate(-1.16536 311.681 308.176)" fill="white" stroke="black" stroke-width="2"/>
<circle cx="227.239" cy="283.584" r="18.7889" transform="rotate(-1.16536 227.239 283.584)" fill="white"/>
<circle cx="222.84" cy="323.845" r="18.7889" transform="rotate(-1.16536 222.84 323.845)" fill="white"/>
<circle cx="238.841" cy="361.025" r="18.7889" transform="rotate(-1.16536 238.841 361.025)" fill="white"/>
<circle cx="269.456" cy="387.964" r="18.7889" transform="rotate(-1.16536 269.456 387.964)" fill="white"/>
<circle cx="309.784" cy="399.673" r="18.7889" transform="rotate(-1.16536 309.784 399.673)" fill="white"/>
<circle cx="349.709" cy="391.343" r="18.7889" transform="rotate(-1.16536 349.709 391.343)" fill="white"/>
<circle cx="246.563" cy="248.111" r="18.7889" transform="rotate(-1.16536 246.563 248.111)" fill="white"/>
<circle cx="278.665" cy="224.906" r="18.7889" transform="rotate(-1.16536 278.665 224.906)" fill="white"/>
<circle cx="318.691" cy="221.587" r="18.7889" transform="rotate(-1.16536 318.691 221.587)" fill="white"/>
<circle cx="359.021" cy="233.295" r="18.7889" transform="rotate(-1.16536 359.021 233.295)" fill="white"/>
<path d="M324.6 217.925C324.635 219.631 323.936 221.23 322.504 222.721C321.096 224.213 319.496 225.282 317.705 225.927L323.737 225.805L325.801 221.228L326.971 221.204L325.558 229.059L311.595 229.343L311.571 228.173C313.123 227.776 314.632 227.05 316.098 225.997C317.588 224.942 318.685 223.75 319.389 222.419C319.951 221.262 320.218 220.037 320.192 218.746C320.136 215.968 318.804 214.605 316.196 214.658C315.075 214.681 314.168 215.029 313.475 215.701C312.806 216.373 312.483 217.269 312.505 218.39C312.514 218.829 312.582 219.181 312.71 219.447C312.922 219.077 313.16 218.791 313.424 218.591C313.712 218.366 314.099 218.248 314.587 218.238C315.196 218.226 315.675 218.399 316.023 218.758C316.396 219.116 316.589 219.599 316.602 220.209C316.615 220.891 316.419 221.431 316.013 221.83C315.631 222.227 315.111 222.433 314.453 222.446C313.405 222.468 312.605 222.094 312.053 221.325C311.525 220.556 311.25 219.623 311.228 218.526C311.19 216.65 311.807 215.199 313.078 214.173C314.373 213.147 315.972 212.615 317.872 212.576C318.896 212.555 319.849 212.67 320.732 212.92C323.26 213.771 324.55 215.439 324.6 217.925Z" fill="black"/>
<path d="M278.197 213.384C280.147 213.344 281.838 213.773 283.27 214.67C284.726 215.543 285.473 216.893 285.51 218.721C285.545 220.451 284.939 221.829 283.693 222.854C282.445 223.854 280.91 224.483 279.086 224.739L279.089 224.886C283.849 225.154 286.261 226.849 286.324 229.968C286.364 231.918 285.578 233.445 283.967 234.551C282.38 235.656 280.564 236.229 278.516 236.271C276.762 236.306 275.231 235.947 273.923 235.194C272.64 234.44 271.982 233.259 271.949 231.65C271.933 230.846 272.126 230.147 272.528 229.554C272.93 228.936 273.521 228.619 274.301 228.603C274.935 228.591 275.45 228.763 275.848 229.121C276.269 229.478 276.487 229.973 276.5 230.607C276.511 231.192 276.339 231.707 275.982 232.153C275.651 232.623 275.192 232.864 274.607 232.876C274.169 232.885 273.752 232.759 273.356 232.499C273.543 233.276 274.03 233.863 274.818 234.261C275.607 234.684 276.44 234.887 277.318 234.869C278.804 234.839 279.916 234.365 280.653 233.448C281.415 232.53 281.78 231.316 281.749 229.805C281.69 226.881 280.137 225.449 277.091 225.511L276.14 225.531L276.116 224.361L277.067 224.342C278.407 224.314 279.397 223.843 280.037 222.928C280.701 222.012 281.019 220.86 280.991 219.471C280.932 216.571 279.44 215.151 276.515 215.21C276.101 215.218 275.627 215.289 275.093 215.422C274.319 215.681 273.706 216.108 273.254 216.703C272.828 217.296 272.623 218.008 272.64 218.836C273.09 218.193 273.693 217.864 274.448 217.849C275.057 217.836 275.548 218.009 275.921 218.367C276.294 218.701 276.486 219.172 276.499 219.782C276.513 220.464 276.305 221.029 275.875 221.477C275.445 221.924 274.877 222.155 274.17 222.17C273.317 222.187 272.641 221.92 272.143 221.37C271.668 220.819 271.422 220.117 271.405 219.264C271.367 217.387 272.008 215.948 273.328 214.946C274.649 213.944 276.272 213.423 278.197 213.384Z" fill="black"/>
<path d="M253.755 254.139L249.405 254.228L249.501 258.98L252.499 258.919L252.523 260.089L241.958 260.304L241.934 259.134L244.932 259.073L244.835 254.321L235.184 254.517L235.162 253.42L247.885 237.07L249.055 237.047L249.345 251.303L251.867 251.252L253.897 246.749L255.067 246.725L253.755 254.139ZM238.525 251.523L244.776 251.396L244.617 243.573L238.525 251.523Z" fill="black"/>
<path d="M219.89 292.459C219.874 291.704 220.08 291.054 220.508 290.509C220.935 289.939 221.515 289.647 222.246 289.632C222.928 289.618 223.456 289.803 223.83 290.185C224.227 290.543 224.433 291.063 224.446 291.745C224.458 292.33 224.31 292.833 224.002 293.253C223.693 293.674 223.247 293.891 222.662 293.902C222.004 293.916 221.561 293.742 221.335 293.381C221.547 294.23 222.035 294.866 222.8 295.289C223.564 295.713 224.409 295.915 225.335 295.896C225.896 295.885 226.491 295.775 227.121 295.567C227.653 295.361 228.17 294.997 228.671 294.475C229.647 293.309 230.113 291.642 230.069 289.473C230.035 287.84 229.643 286.507 228.89 285.474C228.162 284.416 227.018 283.903 225.458 283.935C223.874 283.967 222.744 284.746 222.068 286.271L221.19 286.289L220.952 274.591L230.896 274.389L232.721 270.622L233.89 270.598L232.546 278.195L222.237 278.405L222.353 284.108C223.304 282.918 224.815 282.302 226.887 282.26C229.08 282.216 230.897 282.837 232.337 284.124C233.801 285.386 234.555 287.09 234.599 289.235C234.646 291.574 233.893 293.503 232.339 295.022C230.785 296.541 228.851 297.324 226.536 297.371C224.781 297.407 223.237 296.999 221.903 296.149C220.594 295.322 219.923 294.092 219.89 292.459Z" fill="black"/>
<path d="M223.578 318.587C225.82 318.542 227.687 319.199 229.177 320.558C230.692 321.893 231.471 323.657 231.516 325.85C231.565 328.287 230.792 330.424 229.196 332.26C227.624 334.097 225.632 335.039 223.219 335.088C220.563 335.142 218.448 334.259 216.875 332.438C215.326 330.616 214.525 328.365 214.47 325.685C214.391 321.761 215.591 318.445 218.071 315.737C220.552 313.029 223.734 311.27 227.619 310.46L227.716 311.628C225.577 311.964 223.685 313.063 222.041 314.925C220.396 316.763 219.377 318.795 218.983 321.021L219.13 321.055C220.024 319.452 221.507 318.63 223.578 318.587ZM221.133 333.229C221.704 333.705 222.379 333.935 223.159 333.919C223.939 333.903 224.604 333.658 225.155 333.184C225.706 332.685 226.107 332.043 226.359 331.258C226.636 330.472 226.816 329.724 226.899 329.016C227.006 328.282 227.052 327.55 227.037 326.819C227.023 326.112 226.947 325.394 226.811 324.666C226.698 323.937 226.5 323.185 226.216 322.41C225.932 321.636 225.505 321.011 224.935 320.535C224.388 320.034 223.725 319.791 222.945 319.807C222.189 319.823 221.524 320.08 220.949 320.579C220.398 321.054 219.984 321.684 219.708 322.47C219.455 323.231 219.275 323.99 219.169 324.748C219.062 325.482 219.016 326.214 219.031 326.945C219.046 327.676 219.109 328.406 219.222 329.135C219.358 329.84 219.568 330.579 219.852 331.353C220.136 332.128 220.563 332.753 221.133 333.229Z" fill="black"/>
<path d="M237.126 374.063C236.953 373.92 236.827 373.728 236.749 373.486C236.647 373.268 236.593 373.026 236.588 372.758C236.577 372.246 236.751 371.791 237.109 371.394C237.491 371.02 237.938 370.828 238.45 370.818C239.084 370.805 239.611 370.977 240.033 371.334C240.479 371.691 240.709 372.186 240.721 372.82C240.737 373.575 240.457 374.178 239.881 374.629C239.305 375.079 238.627 375.313 237.847 375.328C236.994 375.346 236.282 375.117 235.712 374.641C235.141 374.165 234.848 373.512 234.831 372.684C234.819 372.099 234.942 371.572 235.201 371.104C235.435 370.636 235.646 370.229 235.834 369.884L244.392 355.484L234.741 355.68L232.746 360.073L231.576 360.096L232.952 352.242L247.026 351.956L247.048 353.053L236.832 370.376C236.287 371.142 236.021 371.879 236.036 372.586C236.044 372.976 236.148 373.303 236.348 373.567C236.548 373.807 236.807 373.972 237.126 374.063Z" fill="black"/>
<path d="M271.788 385.842L273.898 387.116C275.011 387.898 275.88 388.685 276.506 389.476C277.156 390.243 277.491 391.151 277.512 392.199C277.554 394.27 276.771 395.907 275.162 397.11C273.553 398.313 271.688 398.936 269.568 398.98C268.301 399.005 267.115 398.859 266.012 398.54C264.908 398.221 263.946 397.643 263.124 396.807C262.302 395.97 261.879 394.918 261.853 393.651C261.826 392.335 262.327 391.191 263.356 390.219C264.384 389.248 265.624 388.454 267.074 387.84C265.521 387.018 264.248 386.13 263.253 385.175C262.282 384.195 261.783 383.022 261.755 381.658C261.716 379.732 262.429 378.243 263.895 377.189C265.361 376.135 267.081 375.588 269.055 375.548C270.834 375.512 272.488 375.917 274.017 376.764C275.57 377.61 276.363 378.849 276.396 380.482C276.421 381.676 275.979 382.746 275.072 383.691C274.165 384.636 273.07 385.353 271.788 385.842ZM265.371 379.646C265.392 380.669 265.763 381.527 266.484 382.22C266.733 382.483 267.192 382.852 267.86 383.326C268.478 383.752 269.133 384.19 269.825 384.639L270.751 385.242C271.368 384.4 271.791 383.636 272.021 382.948C272.275 382.236 272.392 381.38 272.371 380.381C272.32 377.847 271.051 376.605 268.565 376.655C267.688 376.673 266.926 376.969 266.279 377.543C265.657 378.092 265.354 378.793 265.371 379.646ZM269.874 397.84C270.946 397.818 271.829 397.459 272.522 396.762C273.215 396.065 273.55 395.193 273.529 394.145C273.517 393.56 273.384 393.014 273.13 392.507C272.875 391.976 272.5 391.496 272.004 391.067C271.532 390.638 271.098 390.293 270.703 390.033C270.332 389.773 269.825 389.454 269.184 389.077L268.184 388.475C267.441 389.1 266.86 389.892 266.44 390.851C266.046 391.81 265.858 392.777 265.878 393.752C265.903 394.97 266.276 395.962 266.999 396.728C267.721 397.493 268.68 397.864 269.874 397.84Z" fill="black"/>
<path d="M308.875 404.915C306.633 404.96 304.792 404.364 303.353 403.125C301.913 401.862 301.171 400.146 301.127 397.977C301.077 395.54 301.83 393.599 303.386 392.153C304.94 390.683 306.924 389.924 309.337 389.875C311.847 389.824 313.875 390.636 315.421 392.311C316.99 393.961 317.8 396.041 317.851 398.552C317.932 402.5 316.778 405.692 314.389 408.13C312.026 410.592 308.865 412.229 304.908 413.041L304.811 411.873C306.974 411.536 308.902 410.448 310.596 408.61C312.289 406.771 313.333 404.726 313.726 402.475L313.579 402.442C312.539 404.048 310.971 404.872 308.875 404.915ZM309.397 391.044C308.642 391.059 307.988 391.292 307.437 391.742C306.884 392.168 306.482 392.736 306.228 393.449C305.974 394.161 305.793 394.859 305.685 395.544C305.602 396.229 305.567 396.924 305.582 397.631C305.601 398.606 305.73 399.53 305.967 400.402C306.204 401.251 306.646 402.022 307.294 402.716C307.942 403.385 308.753 403.71 309.728 403.69C310.434 403.676 311.04 403.469 311.543 403.068C312.071 402.643 312.45 402.099 312.681 401.436C312.935 400.773 313.117 400.123 313.226 399.487C313.334 398.826 313.382 398.167 313.369 397.509C313.355 396.851 313.281 396.182 313.145 395.502C313.009 394.798 312.799 394.095 312.517 393.394C312.234 392.693 311.821 392.128 311.276 391.7C310.754 391.248 310.128 391.029 309.397 391.044Z" fill="black"/>
<path d="M349.426 382.231C352.179 382.175 354.303 382.9 355.796 384.406C357.29 385.911 358.064 388.017 358.119 390.722C358.171 393.256 357.396 395.344 355.796 396.986C354.221 398.627 352.19 399.472 349.704 399.523C346.902 399.58 344.608 398.871 342.823 397.396C341.061 395.896 340.153 393.793 340.098 391.088C340.042 388.359 340.901 386.22 342.673 384.673C344.446 383.101 346.696 382.287 349.426 382.231ZM350.991 398.071C352.795 398.034 354.218 397.274 355.26 395.79C356.303 394.306 356.805 392.625 356.767 390.749C356.726 388.775 356.18 387.08 355.127 385.663C354.098 384.221 352.646 383.519 350.769 383.557C348.82 383.597 347.336 384.346 346.317 385.805C345.323 387.264 344.846 388.992 344.886 390.991C344.927 392.989 345.486 394.684 346.562 396.076C347.639 397.444 349.115 398.109 350.991 398.071Z" fill="black"/>
<path d="M352.528 225.997L352.5 224.611L364.405 224.369L364.433 225.754L361.186 225.821L361.522 242.315L364.769 242.249L364.797 243.634L352.892 243.876L352.863 242.491L356.11 242.425L355.775 225.931L352.528 225.997Z" fill="black"/>
</svg>
