<svg width="613" height="646" viewBox="0 0 613 646" fill="none" xmlns="http://www.w3.org/2000/svg">
<path d="M468.3 263.309L437.315 186.635L15.8535 171.281C15.8535 171.281 -14.724 205.034 -21.5536 230.941C-28.3832 256.848 -33.4188 571.345 8.25344 611.334C49.9256 651.322 439.132 637.54 446.073 617.152C453.015 596.765 477.733 408.724 468.3 263.309Z" fill="#E82D34" stroke="black" stroke-width="2"/>
<path d="M-130.637 217.355C-145.692 208.366 -151.758 191.964 -151.947 175.031L7.89829 173.639C5.01309 193.128 2.82806 203.906 -24.6805 217.058C-66.0685 233.819 -115.583 226.343 -130.637 217.355Z" fill="black" stroke="black" stroke-width="2"/>
<path d="M414.506 148.637C416.866 139.09 425.369 135.57 430.927 133.431L566.421 214.33C540.629 233.476 525.687 242.557 492.507 236.282C454.093 226.874 438.886 201.834 414.506 148.637Z" fill="black" stroke="black" stroke-width="2"/>
<path d="M430.93 133.422L404.839 130.234C256.27 113.962 177.775 119.292 44.2286 131.993L25.9109 145.379C-1.82819 188.352 0.727296 186.787 -47.1709 208.212C-94.8237 229.528 -146.931 202.443 -165.282 146.423C-213.472 -44.1107 473.072 11.742 519.904 29.3773C566.738 47.0131 595.556 92.9033 602.114 141.098C608.672 189.293 577.535 212.234 553.492 218.301C529.448 224.369 452.811 200.026 430.93 133.422Z" fill="#E82D34"/>
<path d="M-165.278 146.439C-213.509 -44.1138 473.07 11.7415 519.904 29.3773C566.738 47.0131 595.556 92.9033 602.114 141.098C608.672 189.293 577.535 212.234 553.492 218.301C529.448 224.369 452.811 200.026 430.93 133.422L404.839 130.234C256.27 113.962 177.775 119.292 44.2286 131.993L25.9109 145.379C-1.82819 188.352 0.727297 186.787 -47.1709 208.212C-95.069 229.637 -147.468 202.163 -165.562 145.556" stroke="black" stroke-width="2"/>
<path d="M27.9584 154.642L44.2667 133.861C171.769 118.616 244.107 110.951 404.839 130.244L426.111 170.71L27.9584 154.642Z" fill="#E82D34" stroke="black" stroke-width="2"/>
<path d="M11.4746 598.98C-32.4209 554.274 -21.8175 187.96 26.0986 154.679C74.0147 121.398 401.999 134.985 430.717 168.597C459.435 202.21 445.625 578.806 434.879 601.819C424.133 624.833 55.3702 643.685 11.4746 598.98Z" fill="#E82D34" stroke="black" stroke-width="2"/>
<circle cx="216.571" cy="379.462" r="184.862" transform="rotate(-1.16536 216.571 379.462)" fill="#E82D34" stroke="black" stroke-width="2"/>
<circle cx="216.576" cy="379.461" r="182.144" transform="rotate(-1.16536 216.576 379.461)" fill="white"/>
<circle cx="220.212" cy="375.669" r="91.9308" transform="rotate(-1.16536 220.212 375.669)" fill="#E82D34" stroke="black" stroke-width="2"/>
<circle cx="94.9191" cy="339.178" r="27.8792" transform="rotate(-1.16536 94.9191 339.178)" fill="#E82D34"/>
<circle cx="88.3926" cy="398.92" r="27.8792" transform="rotate(-1.16536 88.3926 398.92)" fill="#E82D34"/>
<circle cx="112.131" cy="454.087" r="27.8792" transform="rotate(-1.16536 112.131 454.087)" fill="#E82D34"/>
<circle cx="157.559" cy="494.06" r="27.8792" transform="rotate(-1.16536 157.559 494.06)" fill="#E82D34"/>
<circle cx="217.402" cy="511.433" r="27.8792" transform="rotate(-1.16536 217.402 511.433)" fill="#E82D34"/>
<circle cx="276.638" cy="499.073" r="27.8792" transform="rotate(-1.16536 276.638 499.073)" fill="#E82D34"/>
<circle cx="123.591" cy="286.543" r="27.8792" transform="rotate(-1.16536 123.591 286.543)" fill="#E82D34"/>
<circle cx="171.224" cy="252.113" r="27.8792" transform="rotate(-1.16536 171.224 252.113)" fill="#E82D34"/>
<circle cx="230.613" cy="247.186" r="27.8792" transform="rotate(-1.16536 230.613 247.186)" fill="#E82D34"/>
<circle cx="290.453" cy="264.558" r="27.8792" transform="rotate(-1.16536 290.453 264.558)" fill="#E82D34"/>
<path d="M239.383 241.754C239.435 244.285 238.398 246.658 236.273 248.871C234.183 251.084 231.81 252.67 229.152 253.628L238.102 253.446L241.165 246.656L242.901 246.62L240.805 258.275L220.085 258.696L220.05 256.961C222.353 256.371 224.592 255.295 226.767 253.731C228.978 252.167 230.606 250.397 231.651 248.423C232.484 246.706 232.882 244.889 232.843 242.972C232.759 238.85 230.782 236.828 226.913 236.907C225.25 236.941 223.904 237.457 222.875 238.454C221.882 239.451 221.403 240.781 221.437 242.445C221.45 243.096 221.551 243.618 221.74 244.012C222.054 243.463 222.408 243.04 222.799 242.743C223.227 242.408 223.802 242.234 224.525 242.219C225.429 242.201 226.14 242.458 226.657 242.99C227.21 243.521 227.496 244.239 227.515 245.143C227.535 246.155 227.244 246.957 226.641 247.548C226.074 248.138 225.303 248.443 224.327 248.463C222.772 248.495 221.585 247.94 220.766 246.799C219.983 245.658 219.575 244.273 219.542 242.646C219.485 239.862 220.4 237.709 222.286 236.187C224.209 234.665 226.58 233.875 229.401 233.818C230.919 233.787 232.334 233.957 233.643 234.328C237.395 235.591 239.308 238.066 239.383 241.754Z" fill="black"/>
<path d="M170.53 235.014C173.423 234.955 175.932 235.591 178.057 236.923C180.218 238.217 181.326 240.22 181.381 242.932C181.434 245.5 180.535 247.544 178.684 249.065C176.833 250.55 174.555 251.482 171.85 251.863L171.854 252.08C178.917 252.479 182.495 254.993 182.589 259.621C182.648 262.514 181.482 264.781 179.092 266.421C176.737 268.061 174.041 268.911 171.004 268.973C168.4 269.026 166.129 268.494 164.188 267.375C162.285 266.257 161.308 264.504 161.26 262.117C161.235 260.924 161.522 259.887 162.119 259.007C162.715 258.09 163.592 257.62 164.749 257.597C165.689 257.577 166.454 257.833 167.044 258.364C167.67 258.894 167.992 259.629 168.011 260.569C168.029 261.437 167.773 262.202 167.244 262.864C166.752 263.561 166.072 263.919 165.204 263.936C164.553 263.949 163.934 263.763 163.347 263.377C163.624 264.529 164.347 265.401 165.517 265.992C166.687 266.619 167.923 266.92 169.225 266.893C171.431 266.848 173.081 266.145 174.175 264.785C175.305 263.423 175.847 261.621 175.801 259.379C175.713 255.04 173.409 252.916 168.888 253.008L167.478 253.037L167.443 251.301L168.853 251.273C170.842 251.232 172.311 250.533 173.26 249.175C174.245 247.817 174.717 246.107 174.675 244.046C174.588 239.743 172.374 237.635 168.035 237.723C167.42 237.736 166.717 237.841 165.925 238.038C164.775 238.423 163.866 239.056 163.196 239.938C162.563 240.819 162.259 241.874 162.284 243.104C162.952 242.15 163.846 241.661 164.967 241.638C165.871 241.62 166.6 241.877 167.153 242.408C167.706 242.903 167.992 243.603 168.01 244.507C168.031 245.519 167.722 246.358 167.085 247.022C166.447 247.686 165.604 248.029 164.555 248.05C163.289 248.076 162.286 247.68 161.546 246.863C160.842 246.045 160.478 245.004 160.452 243.738C160.395 240.954 161.347 238.818 163.306 237.331C165.265 235.844 167.673 235.072 170.53 235.014Z" fill="black"/>
<path d="M134.258 295.489L127.803 295.62L127.947 302.671L132.394 302.581L132.43 304.317L116.754 304.636L116.719 302.9L121.166 302.809L121.023 295.758L106.703 296.049L106.67 294.422L125.549 270.162L127.285 270.126L127.715 291.281L131.458 291.205L134.469 284.523L136.205 284.488L134.258 295.489ZM111.659 291.607L120.935 291.419L120.699 279.811L111.659 291.607Z" fill="black"/>
<path d="M84.0134 352.349C83.9906 351.228 84.2965 350.263 84.9313 349.454C85.5652 348.609 86.4246 348.176 87.5095 348.154C88.522 348.133 89.3053 348.406 89.8595 348.974C90.4491 349.505 90.7542 350.276 90.7748 351.289C90.7925 352.157 90.5725 352.903 90.1149 353.527C89.6573 354.151 88.9946 354.472 88.1267 354.49C87.1504 354.51 86.494 354.252 86.1575 353.716C86.4725 354.976 87.1972 355.92 88.3314 356.548C89.4656 357.176 90.7198 357.476 92.0939 357.448C92.9256 357.431 93.8086 357.268 94.7429 356.96C95.5326 356.655 96.2994 356.114 97.0433 355.34C98.4914 353.61 99.1826 351.136 99.1172 347.917C99.0679 345.495 98.485 343.517 97.3686 341.984C96.2875 340.414 94.5898 339.653 92.2755 339.7C89.9251 339.748 88.2483 340.903 87.2452 343.167L85.9434 343.193L85.5904 325.836L100.344 325.536L103.052 319.946L104.788 319.91L102.792 331.184L87.4962 331.495L87.6683 339.956C89.0794 338.191 91.3219 337.277 94.3955 337.215C97.65 337.149 100.346 338.071 102.483 339.981C104.655 341.854 105.774 344.381 105.839 347.564C105.909 351.035 104.792 353.898 102.486 356.151C100.181 358.405 97.3102 359.567 93.8749 359.637C91.2713 359.69 88.9799 359.085 87.0007 357.823C85.0585 356.596 84.0627 354.772 84.0134 352.349Z" fill="black"/>
<path d="M89.4875 391.118C92.8143 391.05 95.5836 392.025 97.7951 394.042C100.042 396.022 101.199 398.639 101.265 401.894C101.339 405.51 100.191 408.681 97.8228 411.406C95.4906 414.13 92.5345 415.529 88.9546 415.602C85.013 415.682 81.8752 414.371 79.5412 411.669C77.2433 408.967 76.0539 405.626 75.9729 401.649C75.8545 395.827 77.6356 390.907 81.3162 386.889C84.9967 382.871 89.7189 380.26 95.4826 379.058L95.6264 380.791C92.453 381.29 89.6464 382.921 87.2064 385.684C84.7657 388.41 83.2534 391.426 82.6695 394.729L82.8875 394.779C84.2138 392.401 86.4138 391.18 89.4875 391.118ZM85.8597 412.843C86.7061 413.549 87.7079 413.891 88.865 413.867C90.0222 413.844 91.0096 413.48 91.8273 412.776C92.6443 412.036 93.24 411.083 93.6142 409.918C94.0246 408.752 94.2914 407.643 94.4147 406.591C94.5735 405.503 94.6418 404.416 94.6197 403.331C94.5984 402.283 94.4863 401.218 94.2834 400.137C94.1167 399.055 93.8227 397.939 93.4014 396.79C92.9801 395.641 92.3462 394.713 91.4998 394.007C90.6888 393.264 89.7047 392.904 88.5476 392.928C87.4266 392.951 86.4395 393.332 85.5864 394.073C84.7686 394.777 84.1546 395.712 83.7442 396.878C83.3692 398.007 83.1027 399.134 82.9447 400.259C82.786 401.347 82.7177 402.434 82.7397 403.519C82.7618 404.604 82.8562 405.687 83.0229 406.769C83.225 407.814 83.5368 408.911 83.9581 410.06C84.3794 411.209 85.0132 412.137 85.8597 412.843Z" fill="black"/>
<path d="M109.584 473.432C109.327 473.221 109.14 472.935 109.024 472.576C108.873 472.253 108.793 471.893 108.785 471.495C108.77 470.736 109.027 470.061 109.558 469.472C110.126 468.917 110.789 468.633 111.548 468.617C112.489 468.598 113.272 468.854 113.897 469.383C114.559 469.913 114.9 470.647 114.919 471.587C114.942 472.708 114.526 473.603 113.671 474.272C112.817 474.94 111.811 475.286 110.654 475.31C109.388 475.336 108.332 474.995 107.486 474.289C106.639 473.583 106.203 472.615 106.178 471.385C106.161 470.518 106.344 469.736 106.728 469.041C107.075 468.346 107.389 467.743 107.668 467.231L120.365 445.864L106.045 446.155L103.085 452.673L101.349 452.708L103.391 441.054L124.274 440.629L124.307 442.257L109.147 467.961C108.339 469.099 107.945 470.192 107.966 471.241C107.978 471.819 108.132 472.304 108.43 472.696C108.727 473.052 109.111 473.297 109.584 473.432Z" fill="black"/>
<path d="M161.02 490.91L164.151 492.8C165.803 493.96 167.093 495.128 168.021 496.303C168.985 497.441 169.482 498.787 169.514 500.342C169.577 503.416 168.414 505.845 166.027 507.63C163.639 509.415 160.872 510.34 157.726 510.404C155.846 510.442 154.087 510.224 152.45 509.751C150.812 509.278 149.384 508.421 148.165 507.18C146.946 505.938 146.317 504.377 146.279 502.497C146.239 500.544 146.982 498.847 148.508 497.405C150.035 495.963 151.874 494.786 154.026 493.874C151.722 492.655 149.832 491.337 148.356 489.92C146.916 488.466 146.175 486.726 146.134 484.701C146.076 481.845 147.134 479.634 149.309 478.071C151.484 476.507 154.036 475.695 156.965 475.636C159.605 475.582 162.059 476.183 164.327 477.44C166.632 478.695 167.809 480.534 167.858 482.957C167.894 484.729 167.239 486.316 165.893 487.718C164.547 489.12 162.922 490.184 161.02 490.91ZM151.499 481.716C151.53 483.235 152.081 484.508 153.151 485.535C153.52 485.926 154.201 486.473 155.192 487.176C156.109 487.808 157.081 488.458 158.108 489.124L159.482 490.019C160.397 488.77 161.026 487.636 161.367 486.616C161.743 485.559 161.916 484.29 161.886 482.807C161.81 479.046 159.927 477.204 156.239 477.279C154.937 477.305 153.806 477.744 152.847 478.596C151.923 479.41 151.474 480.45 151.499 481.716ZM158.18 508.712C159.771 508.68 161.081 508.147 162.109 507.113C163.137 506.079 163.635 504.785 163.604 503.23C163.586 502.362 163.389 501.552 163.012 500.8C162.634 500.012 162.077 499.3 161.34 498.663C160.64 498.026 159.997 497.515 159.41 497.129C158.859 496.742 158.108 496.269 157.156 495.71L155.673 494.817C154.57 495.744 153.708 496.919 153.086 498.343C152.5 499.766 152.221 501.2 152.251 502.647C152.288 504.455 152.842 505.927 153.914 507.063C154.986 508.198 156.408 508.748 158.18 508.712Z" fill="black"/>
<path d="M216.048 519.211C212.721 519.279 209.99 518.394 207.854 516.556C205.718 514.682 204.617 512.136 204.551 508.918C204.478 505.302 205.595 502.421 207.903 500.276C210.21 498.095 213.153 496.968 216.733 496.895C220.458 496.819 223.467 498.024 225.76 500.51C228.089 502.958 229.292 506.045 229.367 509.77C229.487 515.628 227.774 520.365 224.23 523.983C220.723 527.636 216.033 530.064 210.161 531.269L210.017 529.536C213.227 529.036 216.088 527.422 218.601 524.694C221.114 521.966 222.662 518.932 223.246 515.592L223.027 515.542C221.484 517.925 219.158 519.148 216.048 519.211ZM216.823 498.629C215.702 498.652 214.732 498.998 213.914 499.665C213.095 500.297 212.497 501.141 212.12 502.198C211.744 503.255 211.476 504.291 211.315 505.307C211.191 506.323 211.14 507.355 211.161 508.404C211.191 509.85 211.381 511.221 211.733 512.516C212.084 513.775 212.741 514.919 213.702 515.949C214.663 516.942 215.867 517.424 217.313 517.395C218.362 517.373 219.26 517.066 220.008 516.472C220.791 515.841 221.353 515.034 221.695 514.05C222.073 513.065 222.342 512.101 222.504 511.157C222.665 510.177 222.736 509.199 222.716 508.223C222.696 507.246 222.585 506.254 222.384 505.245C222.182 504.2 221.871 503.157 221.452 502.117C221.033 501.076 220.419 500.238 219.61 499.604C218.837 498.932 217.908 498.607 216.823 498.629Z" fill="black"/>
<path d="M276.217 485.554C280.303 485.471 283.454 486.546 285.669 488.78C287.885 491.014 289.034 494.138 289.116 498.152C289.192 501.912 288.043 505.01 285.669 507.446C283.331 509.881 280.318 511.136 276.63 511.211C272.472 511.296 269.068 510.244 266.419 508.055C263.805 505.829 262.457 502.709 262.376 498.696C262.293 494.646 263.567 491.473 266.198 489.176C268.827 486.844 272.167 485.636 276.217 485.554ZM278.54 509.056C281.215 509.002 283.327 507.874 284.874 505.672C286.42 503.47 287.166 500.977 287.109 498.192C287.049 495.263 286.239 492.748 284.676 490.645C283.15 488.506 280.994 487.464 278.21 487.521C275.317 487.58 273.115 488.692 271.604 490.857C270.128 493.021 269.421 495.586 269.481 498.551C269.541 501.516 270.37 504.031 271.968 506.097C273.565 508.127 275.755 509.113 278.54 509.056Z" fill="black"/>
<path d="M353.853 456.605L303.189 433.469L333.941 483.036L345.318 493.959L363.408 469.424L353.853 456.605Z" fill="#E82D34" stroke="black" stroke-width="2"/>
<path d="M372.883 478.526L363.403 469.424L345.312 493.959L352.934 503.099L353.274 519.823L373.261 497.108L372.883 478.526Z" fill="#E82D34" stroke="black" stroke-width="2"/>
<path d="M281.878 253.117L281.842 251.382L296.758 251.078L296.794 252.814L292.726 252.897L293.146 273.562L297.214 273.479L297.249 275.215L282.333 275.518L282.298 273.783L286.366 273.7L285.946 253.035L281.878 253.117Z" fill="black"/>
</svg>
