<svg width="451" height="944" viewBox="0 0 451 944" fill="none" xmlns="http://www.w3.org/2000/svg">
<rect x="179.875" y="72.7295" width="268.312" height="548.429" rx="9" fill="black" stroke="#E82D34" stroke-width="2"/>
<path d="M29.1489 638.584C10.9458 621.077 6.04331 574.858 29.1489 552.449C52.2544 530.039 90.0782 534.941 112.483 552.449C134.889 569.956 130.695 618.976 112.483 638.584C94.2718 658.192 47.352 656.092 29.1489 638.584Z" fill="#E82D34" stroke="black" stroke-width="2"/>
<path d="M29.1489 287.038C10.9458 269.53 6.04331 223.311 29.1489 200.902C52.2544 178.492 90.0782 183.394 112.483 200.902C134.889 218.409 130.695 267.429 112.483 287.038C94.2718 306.646 47.352 304.545 29.1489 287.038Z" fill="#E82D34" stroke="black" stroke-width="2"/>
<path d="M200.583 64.0262L229.295 1H400.166L427.477 64.0262H200.583Z" fill="black" stroke="#E82D34" stroke-width="2"/>
<path d="M447.054 607.454H180.308C169.232 607.338 166.346 613.155 166.269 632.663V657.873H460.391V632.663C460.435 614.172 457.302 609.003 447.054 607.454Z" fill="black" stroke="#E82D34" stroke-width="2"/>
<rect x="149.062" y="647.668" width="329.938" height="294.923" rx="9" fill="black" stroke="#E82D34" stroke-width="2"/>
<circle cx="253.806" cy="32.5131" r="23.5102" fill="#D9D9D9" stroke="black" stroke-width="2"/>
<circle cx="315.431" cy="26.9106" r="16.5073" fill="#D9D9D9" stroke="black" stroke-width="2"/>
<circle cx="375.656" cy="33.9135" r="23.5102" fill="#D9D9D9" stroke="black" stroke-width="2"/>
<path d="M251.554 29.9646C251.554 31.5332 250.881 32.9898 249.537 34.3344C248.215 35.6789 246.724 36.6313 245.066 37.1916H250.613L252.596 33.0234H253.671L252.226 40.2168H239.385V39.1412C240.82 38.805 242.22 38.1664 243.587 37.2252C244.977 36.284 246.007 35.2083 246.68 33.9982C247.217 32.945 247.486 31.8245 247.486 30.6368C247.486 28.0822 246.288 26.8048 243.89 26.8048C242.859 26.8048 242.019 27.1074 241.369 27.7124C240.741 28.3175 240.427 29.1354 240.427 30.1662C240.427 30.5696 240.483 30.8945 240.596 31.141C240.797 30.8049 241.021 30.5472 241.268 30.3679C241.537 30.1662 241.895 30.0654 242.343 30.0654C242.904 30.0654 243.341 30.2335 243.654 30.5696C243.991 30.9057 244.159 31.3539 244.159 31.9142C244.159 32.5416 243.968 33.0346 243.587 33.3932C243.229 33.7517 242.747 33.931 242.142 33.931C241.178 33.931 240.45 33.5725 239.957 32.8554C239.486 32.1383 239.251 31.2755 239.251 30.2671C239.251 28.5416 239.845 27.2194 241.033 26.3006C242.243 25.3818 243.722 24.9225 245.47 24.9225C246.411 24.9225 247.285 25.0457 248.091 25.2922C250.4 26.1214 251.554 27.6788 251.554 29.9646Z" fill="black"/>
<path d="M256.159 41.1916C256.159 40.4969 256.36 39.9031 256.764 39.4101C257.167 38.8947 257.705 38.637 258.377 38.637C259.005 38.637 259.487 38.8162 259.823 39.1748C260.181 39.5109 260.361 39.9927 260.361 40.6202C260.361 41.158 260.215 41.6174 259.924 41.9984C259.632 42.3793 259.218 42.5698 258.68 42.5698C258.075 42.5698 257.671 42.4017 257.47 42.0656C257.649 42.8499 258.086 43.4438 258.781 43.8471C259.475 44.2505 260.249 44.4522 261.1 44.4522C261.615 44.4522 262.165 44.3625 262.747 44.1833C263.24 44.004 263.722 43.6791 264.193 43.2085C265.111 42.1552 265.571 40.6314 265.571 38.637C265.571 37.1355 265.235 35.903 264.562 34.9394C263.912 33.9534 262.87 33.4604 261.436 33.4604C259.98 33.4604 258.926 34.1551 258.276 35.5445H257.47V24.788H266.613L268.361 21.3594H269.436L268.058 28.3175H258.579V33.5612C259.475 32.4856 260.876 31.9478 262.781 31.9478C264.798 31.9478 266.456 32.5528 267.756 33.7629C269.078 34.9506 269.739 36.5305 269.739 38.5025C269.739 40.6538 269.011 42.4129 267.554 43.7799C266.097 45.1469 264.305 45.8304 262.176 45.8304C260.562 45.8304 259.15 45.427 257.94 44.6202C256.753 43.8359 256.159 42.693 256.159 41.1916Z" fill="black"/>
<path d="M304.511 21.6451V20.7487H312.214V21.6451H310.113V32.3175H312.214V33.2139H304.511V32.3175H306.612V21.6451H304.511Z" fill="black"/>
<path d="M321.373 20.1885C323.483 20.1885 325.098 20.7767 326.219 21.9532C327.339 23.1297 327.9 24.7544 327.9 26.8272C327.9 28.7694 327.274 30.3567 326.023 31.5892C324.79 32.8217 323.222 33.438 321.317 33.438C319.169 33.438 317.423 32.8591 316.079 31.7013C314.753 30.5248 314.09 28.9001 314.09 26.8272C314.09 24.7357 314.781 23.111 316.163 21.9532C317.545 20.7767 319.281 20.1885 321.373 20.1885ZM322.325 32.3455C323.707 32.3455 324.809 31.7853 325.631 30.6648C326.452 29.5444 326.863 28.2652 326.863 26.8272C326.863 25.3146 326.471 24.0074 325.687 22.9056C324.921 21.7851 323.819 21.2249 322.381 21.2249C320.887 21.2249 319.739 21.7758 318.936 22.8776C318.152 23.9794 317.759 25.2959 317.759 26.8272C317.759 28.3585 318.161 29.6657 318.964 30.7489C319.767 31.8133 320.887 32.3455 322.325 32.3455Z" fill="black"/>
<path d="M369.604 41.1916C369.604 40.4969 369.806 39.9031 370.209 39.4101C370.612 38.8947 371.15 38.637 371.822 38.637C372.45 38.637 372.932 38.8162 373.268 39.1748C373.626 39.5109 373.806 39.9927 373.806 40.6202C373.806 41.158 373.66 41.6174 373.369 41.9984C373.077 42.3793 372.663 42.5698 372.125 42.5698C371.52 42.5698 371.117 42.4017 370.915 42.0656C371.094 42.8499 371.531 43.4438 372.226 43.8471C372.921 44.2505 373.694 44.4522 374.545 44.4522C375.061 44.4522 375.61 44.3625 376.192 44.1833C376.685 44.004 377.167 43.6791 377.638 43.2085C378.556 42.1552 379.016 40.6314 379.016 38.637C379.016 37.1355 378.68 35.903 378.007 34.9394C377.358 33.9534 376.316 33.4604 374.881 33.4604C373.425 33.4604 372.371 34.1551 371.722 35.5445H370.915V24.788H380.058L381.806 21.3594H382.881L381.503 28.3175H372.024V33.5612C372.921 32.4856 374.321 31.9478 376.226 31.9478C378.243 31.9478 379.901 32.5528 381.201 33.7629C382.523 34.9506 383.184 36.5305 383.184 38.5025C383.184 40.6538 382.456 42.4129 380.999 43.7799C379.542 45.1469 377.75 45.8304 375.621 45.8304C374.007 45.8304 372.596 45.427 371.385 44.6202C370.198 43.8359 369.604 42.693 369.604 41.1916Z" fill="black"/>
<path d="M171.869 239.1H179.573V321.734H171.869V239.1Z" fill="#D9D9D9" stroke="black" stroke-width="2"/>
<path d="M142.459 267.11H171.872V293.721H170.471H142.459V267.11Z" fill="#D9D9D9" stroke="black" stroke-width="2"/>
<path d="M117.294 272.157C128.1 245.129 129.343 243.359 141.759 267.111V289.804L131.3 290.364C127.718 298.005 122.857 302.762 104.688 312.774C74.0428 323.985 57.5052 324.316 29.057 312.774C8.60939 303.704 0.303849 296.359 1.04537 272.157C3.98494 259.043 9.44887 251.848 18.5527 272.157C27.6564 292.465 106.487 299.184 117.294 272.157Z" fill="#D9D9D9" stroke="black" stroke-width="2"/>
<path d="M40.215 595.432V209.572C63.4584 200.198 76.7999 200.579 101.14 209.572V595.432C77.3155 607.434 63.9758 607.34 40.215 595.432Z" fill="#E82D34" stroke="black" stroke-width="2"/>
<circle cx="316.496" cy="252.069" r="99.2096" transform="rotate(-1.16536 316.496 252.069)" fill="#E82D34"/>
<circle cx="318.479" cy="250.005" r="49.6171" transform="rotate(-1.16536 318.479 250.005)" fill="white" stroke="black" stroke-width="2"/>
<circle cx="250.231" cy="230.129" r="15.1851" transform="rotate(-1.16536 250.231 230.129)" fill="white"/>
<circle cx="246.677" cy="262.669" r="15.1851" transform="rotate(-1.16536 246.677 262.669)" fill="white"/>
<circle cx="259.61" cy="292.717" r="15.1851" transform="rotate(-1.16536 259.61 292.717)" fill="white"/>
<circle cx="284.351" cy="314.489" r="15.1851" transform="rotate(-1.16536 284.351 314.489)" fill="white"/>
<circle cx="316.947" cy="323.952" r="15.1851" transform="rotate(-1.16536 316.947 323.952)" fill="white"/>
<circle cx="349.209" cy="317.22" r="15.1851" transform="rotate(-1.16536 349.209 317.22)" fill="white"/>
<circle cx="265.849" cy="201.46" r="15.1851" transform="rotate(-1.16536 265.849 201.46)" fill="white"/>
<circle cx="291.795" cy="182.706" r="15.1851" transform="rotate(-1.16536 291.795 182.706)" fill="white"/>
<circle cx="324.144" cy="180.024" r="15.1851" transform="rotate(-1.16536 324.144 180.024)" fill="white"/>
<circle cx="356.74" cy="189.485" r="15.1851" transform="rotate(-1.16536 356.74 189.485)" fill="white"/>
<path d="M328.919 177.064C328.947 178.443 328.382 179.735 327.224 180.941C326.086 182.146 324.793 183.01 323.346 183.532L328.221 183.433L329.889 179.734L330.834 179.715L329.693 186.063L318.407 186.292L318.388 185.347C319.643 185.026 320.862 184.439 322.047 183.588C323.251 182.736 324.138 181.772 324.707 180.696C325.161 179.761 325.377 178.771 325.356 177.728C325.31 175.482 324.234 174.381 322.126 174.424C321.22 174.442 320.487 174.723 319.927 175.267C319.386 175.81 319.125 176.534 319.143 177.44C319.151 177.795 319.206 178.079 319.309 178.294C319.48 177.995 319.672 177.764 319.886 177.602C320.118 177.42 320.432 177.325 320.826 177.317C321.318 177.307 321.705 177.447 321.987 177.737C322.288 178.026 322.444 178.417 322.454 178.91C322.465 179.461 322.307 179.898 321.978 180.22C321.669 180.541 321.249 180.708 320.717 180.718C319.871 180.736 319.224 180.433 318.778 179.812C318.351 179.19 318.129 178.436 318.111 177.55C318.08 176.033 318.579 174.861 319.606 174.032C320.653 173.203 321.945 172.773 323.481 172.741C324.308 172.725 325.079 172.817 325.792 173.019C327.835 173.707 328.878 175.055 328.919 177.064Z" fill="black"/>
<path d="M291.417 173.393C292.993 173.361 294.359 173.708 295.517 174.433C296.694 175.138 297.297 176.229 297.327 177.706C297.356 179.105 296.866 180.218 295.858 181.047C294.85 181.855 293.609 182.363 292.136 182.571L292.138 182.689C295.985 182.906 297.934 184.275 297.985 186.796C298.017 188.372 297.382 189.607 296.08 190.5C294.798 191.393 293.33 191.857 291.675 191.89C290.257 191.919 289.02 191.629 287.963 191.02C286.926 190.411 286.394 189.456 286.368 188.156C286.354 187.506 286.51 186.941 286.836 186.462C287.161 185.962 287.638 185.706 288.268 185.694C288.78 185.683 289.197 185.823 289.518 186.112C289.859 186.4 290.035 186.801 290.045 187.313C290.055 187.785 289.915 188.202 289.627 188.562C289.359 188.942 288.989 189.137 288.516 189.147C288.161 189.154 287.824 189.052 287.505 188.842C287.655 189.47 288.049 189.944 288.686 190.266C289.324 190.608 289.997 190.772 290.706 190.757C291.908 190.733 292.806 190.35 293.402 189.609C294.018 188.867 294.313 187.886 294.288 186.665C294.24 184.301 292.985 183.144 290.523 183.195L289.755 183.21L289.736 182.265L290.504 182.249C291.587 182.227 292.387 181.846 292.904 181.107C293.441 180.367 293.698 179.435 293.675 178.313C293.627 175.969 292.421 174.821 290.058 174.869C289.723 174.876 289.34 174.933 288.909 175.04C288.282 175.25 287.787 175.595 287.422 176.075C287.078 176.555 286.912 177.13 286.925 177.8C287.289 177.28 287.776 177.014 288.387 177.002C288.879 176.992 289.276 177.131 289.578 177.421C289.879 177.691 290.034 178.072 290.044 178.564C290.056 179.115 289.888 179.572 289.54 179.934C289.193 180.296 288.734 180.482 288.163 180.494C287.473 180.508 286.927 180.292 286.524 179.847C286.14 179.402 285.942 178.835 285.928 178.145C285.897 176.629 286.415 175.465 287.482 174.656C288.549 173.846 289.861 173.425 291.417 173.393Z" fill="black"/>
<path d="M271.663 206.332L268.148 206.404L268.226 210.245L270.648 210.195L270.668 211.141L262.129 211.314L262.11 210.369L264.533 210.32L264.455 206.479L256.655 206.638L256.637 205.751L266.92 192.537L267.865 192.518L268.099 204.04L270.138 203.999L271.778 200.36L272.724 200.34L271.663 206.332ZM259.354 204.218L264.406 204.115L264.278 197.793L259.354 204.218Z" fill="black"/>
<path d="M244.292 237.303C244.28 236.693 244.447 236.167 244.792 235.726C245.138 235.266 245.606 235.03 246.197 235.018C246.748 235.007 247.175 235.156 247.477 235.465C247.798 235.754 247.964 236.174 247.975 236.726C247.985 237.198 247.865 237.605 247.616 237.945C247.367 238.285 247.006 238.46 246.533 238.469C246.001 238.48 245.644 238.34 245.46 238.048C245.632 238.734 246.027 239.248 246.644 239.59C247.262 239.932 247.945 240.096 248.694 240.081C249.147 240.071 249.628 239.983 250.137 239.815C250.567 239.648 250.984 239.354 251.389 238.932C252.178 237.99 252.555 236.642 252.519 234.889C252.492 233.57 252.175 232.493 251.567 231.658C250.978 230.803 250.053 230.388 248.793 230.414C247.512 230.44 246.599 231.069 246.053 232.302L245.344 232.316L245.151 222.862L253.187 222.699L254.662 219.654L255.608 219.635L254.521 225.775L246.189 225.944L246.283 230.553C247.052 229.592 248.273 229.094 249.947 229.06C251.72 229.024 253.188 229.526 254.352 230.567C255.536 231.587 256.145 232.964 256.18 234.697C256.219 236.588 255.61 238.147 254.354 239.374C253.098 240.602 251.535 241.235 249.664 241.273C248.246 241.301 246.998 240.972 245.92 240.285C244.862 239.617 244.319 238.623 244.292 237.303Z" fill="black"/>
<path d="M247.275 258.419C249.087 258.382 250.595 258.913 251.8 260.012C253.024 261.09 253.654 262.516 253.69 264.288C253.73 266.258 253.105 267.985 251.815 269.469C250.545 270.953 248.934 271.715 246.985 271.755C244.838 271.798 243.129 271.084 241.857 269.613C240.606 268.141 239.958 266.321 239.914 264.155C239.849 260.984 240.819 258.304 242.824 256.115C244.829 253.927 247.401 252.505 250.54 251.85L250.619 252.794C248.89 253.066 247.361 253.954 246.032 255.459C244.703 256.944 243.879 258.587 243.561 260.386L243.68 260.413C244.402 259.118 245.601 258.453 247.275 258.419ZM245.299 270.252C245.76 270.637 246.306 270.823 246.936 270.81C247.566 270.797 248.104 270.599 248.549 270.216C248.994 269.812 249.319 269.293 249.523 268.659C249.746 268.024 249.891 267.42 249.959 266.847C250.045 266.254 250.082 265.662 250.07 265.071C250.059 264.5 249.998 263.92 249.887 263.331C249.796 262.742 249.636 262.134 249.407 261.509C249.177 260.883 248.832 260.377 248.371 259.993C247.929 259.588 247.393 259.392 246.763 259.405C246.152 259.417 245.615 259.625 245.15 260.029C244.705 260.412 244.37 260.921 244.147 261.556C243.942 262.171 243.797 262.785 243.711 263.398C243.625 263.991 243.587 264.583 243.599 265.173C243.612 265.764 243.663 266.354 243.754 266.944C243.864 267.513 244.034 268.11 244.263 268.736C244.493 269.362 244.838 269.867 245.299 270.252Z" fill="black"/>
<path d="M258.222 303.255C258.081 303.14 257.98 302.984 257.917 302.788C257.834 302.613 257.791 302.416 257.786 302.2C257.778 301.786 257.918 301.419 258.207 301.098C258.516 300.796 258.878 300.641 259.291 300.632C259.804 300.622 260.23 300.761 260.571 301.05C260.931 301.338 261.117 301.738 261.127 302.25C261.14 302.861 260.913 303.348 260.448 303.712C259.982 304.076 259.434 304.265 258.804 304.278C258.115 304.292 257.539 304.106 257.078 303.722C256.617 303.337 256.38 302.81 256.366 302.14C256.357 301.667 256.457 301.242 256.666 300.863C256.855 300.485 257.026 300.156 257.178 299.877L264.093 288.239L256.294 288.398L254.681 291.948L253.736 291.967L254.848 285.619L266.223 285.388L266.241 286.274L257.984 300.275C257.543 300.894 257.329 301.49 257.34 302.061C257.347 302.376 257.431 302.64 257.593 302.854C257.754 303.048 257.964 303.181 258.222 303.255Z" fill="black"/>
<path d="M286.237 312.774L287.943 313.804C288.842 314.435 289.545 315.071 290.05 315.711C290.575 316.331 290.846 317.065 290.864 317.912C290.898 319.586 290.265 320.909 288.964 321.881C287.664 322.853 286.157 323.357 284.443 323.392C283.419 323.413 282.461 323.294 281.569 323.037C280.677 322.779 279.899 322.312 279.235 321.636C278.571 320.96 278.229 320.109 278.208 319.085C278.186 318.022 278.591 317.097 279.422 316.312C280.254 315.526 281.255 314.885 282.428 314.389C281.173 313.725 280.143 313.007 279.339 312.235C278.555 311.443 278.151 310.495 278.129 309.392C278.097 307.836 278.674 306.633 279.858 305.781C281.043 304.929 282.433 304.487 284.028 304.455C285.466 304.425 286.803 304.753 288.039 305.437C289.294 306.121 289.935 307.123 289.962 308.442C289.981 309.407 289.625 310.272 288.891 311.036C288.158 311.799 287.273 312.379 286.237 312.774ZM281.052 307.766C281.068 308.594 281.368 309.287 281.951 309.847C282.152 310.059 282.523 310.357 283.063 310.74C283.562 311.085 284.092 311.439 284.651 311.802L285.4 312.289C285.898 311.609 286.24 310.991 286.426 310.435C286.631 309.86 286.725 309.168 286.709 308.361C286.667 306.312 285.642 305.309 283.633 305.349C282.924 305.364 282.308 305.603 281.785 306.067C281.282 306.511 281.038 307.077 281.052 307.766ZM284.691 322.471C285.557 322.453 286.27 322.163 286.83 321.599C287.39 321.036 287.662 320.331 287.645 319.484C287.635 319.012 287.527 318.571 287.322 318.161C287.116 317.732 286.813 317.344 286.412 316.997C286.03 316.65 285.68 316.372 285.36 316.161C285.06 315.951 284.651 315.693 284.133 315.388L283.325 314.902C282.724 315.407 282.254 316.047 281.916 316.823C281.596 317.598 281.445 318.379 281.461 319.167C281.481 320.152 281.783 320.953 282.367 321.572C282.951 322.191 283.725 322.49 284.691 322.471Z" fill="black"/>
<path d="M316.209 328.188C314.397 328.224 312.91 327.742 311.746 326.741C310.583 325.721 309.983 324.334 309.947 322.581C309.907 320.611 310.516 319.042 311.773 317.874C313.03 316.686 314.633 316.072 316.583 316.032C318.611 315.991 320.25 316.647 321.5 318.001C322.768 319.335 323.423 321.016 323.464 323.045C323.529 326.236 322.596 328.816 320.666 330.787C318.756 332.776 316.201 334.099 313.003 334.755L312.925 333.811C314.673 333.539 316.231 332.66 317.6 331.174C318.969 329.688 319.812 328.035 320.13 326.216L320.011 326.189C319.17 327.487 317.903 328.153 316.209 328.188ZM316.631 316.977C316.021 316.99 315.493 317.178 315.047 317.541C314.601 317.885 314.275 318.345 314.07 318.921C313.865 319.496 313.719 320.061 313.632 320.614C313.564 321.168 313.536 321.73 313.548 322.301C313.564 323.089 313.668 323.835 313.859 324.541C314.051 325.227 314.408 325.85 314.932 326.411C315.455 326.952 316.111 327.214 316.898 327.198C317.47 327.187 317.959 327.019 318.366 326.695C318.793 326.352 319.099 325.912 319.285 325.376C319.491 324.84 319.638 324.315 319.726 323.801C319.814 323.267 319.852 322.734 319.841 322.202C319.83 321.671 319.77 321.13 319.66 320.58C319.55 320.011 319.381 319.443 319.153 318.877C318.925 318.31 318.59 317.854 318.15 317.508C317.728 317.142 317.222 316.965 316.631 316.977Z" fill="black"/>
<path d="M348.984 309.855C351.209 309.81 352.926 310.396 354.133 311.613C355.34 312.829 355.965 314.531 356.01 316.717C356.051 318.765 355.426 320.453 354.133 321.78C352.859 323.106 351.218 323.79 349.209 323.83C346.944 323.877 345.09 323.303 343.647 322.111C342.224 320.899 341.49 319.2 341.445 317.013C341.4 314.808 342.094 313.079 343.527 311.828C344.959 310.558 346.778 309.9 348.984 309.855ZM350.249 322.657C351.707 322.627 352.857 322.012 353.699 320.813C354.542 319.614 354.948 318.256 354.917 316.739C354.884 315.144 354.443 313.774 353.592 312.629C352.76 311.463 351.586 310.896 350.07 310.927C348.494 310.959 347.295 311.565 346.471 312.744C345.668 313.923 345.282 315.32 345.315 316.935C345.348 318.55 345.8 319.92 346.67 321.045C347.539 322.15 348.733 322.687 350.249 322.657Z" fill="black"/>
<path d="M352.566 184.32L352.545 183.261L361.644 183.076L361.666 184.134L359.184 184.185L359.44 196.792L361.922 196.741L361.944 197.8L352.844 197.985L352.823 196.926L355.304 196.876L355.048 184.269L352.566 184.32Z" fill="black"/>
<path d="M188.678 68.8306V67.626C188.678 64.8646 190.917 62.626 193.678 62.626H437.183C439.945 62.626 442.183 64.8646 442.183 67.626V68.8306C442.183 71.5921 439.945 73.8306 437.183 73.8306H193.678C190.917 73.8306 188.678 71.5921 188.678 68.8306Z" fill="black" stroke="#E82D34" stroke-width="2"/>
</svg>
