<svg width="310" height="211" viewBox="0 0 310 211" fill="none" xmlns="http://www.w3.org/2000/svg">
<circle cx="207.853" cy="105.49" r="101.957" transform="rotate(179.893 207.853 105.49)" fill="black"/>
<path fill-rule="evenodd" clip-rule="evenodd" d="M217.466 202.469C243.056 199.669 266.209 187.362 282.481 167.907C293.916 154.236 301.008 138.746 304.136 120.61C304.853 116.45 304.957 114.427 304.939 104.968C304.922 95.5086 304.81 93.4866 304.077 89.3291C300.452 68.7661 291.834 51.7527 277.583 37.0236C262.937 21.8862 244.523 12.2854 223.024 8.57765C218.863 7.86039 216.841 7.75628 207.382 7.77395C195.435 7.79626 191.854 8.20855 182.512 10.6359C148.905 19.3678 121.563 46.812 112.957 80.4511C110.564 89.8022 110.165 93.3854 110.188 105.332C110.21 117.278 110.622 120.86 113.05 130.202C121.781 163.804 149.226 191.15 182.855 199.754C191.489 201.963 195.59 202.453 206.221 202.549C211.567 202.597 216.627 202.561 217.466 202.469ZM200.687 198.16C182.697 196.733 166.048 190.444 151.408 179.545C146.589 175.958 136.984 166.389 133.378 161.583C122.147 146.613 115.914 129.967 114.497 111.157C113.501 97.9398 115.926 83.0431 121.168 70.1732C126.048 58.193 132.15 49.068 141.675 39.5074C151.2 29.9467 160.303 23.8107 172.264 18.8858C199.633 7.61879 230.656 10.0912 256.03 25.5612C262.456 29.4793 267.125 33.2029 273.206 39.2617C282.767 48.7868 288.903 57.8889 293.828 69.8508C299.117 82.701 301.598 97.5886 300.652 110.809C299.305 129.624 293.134 146.294 281.959 161.306C278.371 166.125 268.802 175.729 263.997 179.335C245.444 193.254 222.994 199.929 200.687 198.16ZM217.965 163.448C239.784 159.554 257.495 143.894 264.179 122.587C267.509 111.971 267.484 98.1051 264.113 87.5016C261.161 78.212 256.703 70.8007 249.838 63.7717C242.778 56.5437 234.665 51.5663 225 48.5344C218.027 46.3468 207.138 45.2895 205.766 46.6666C204.984 47.4522 205.01 48.4646 205.839 49.4359C206.405 50.0985 207.213 50.2761 211.083 50.5872C213.599 50.7899 217.031 51.234 218.709 51.5744C239.576 55.8101 256.796 72.9665 261.095 93.8046C264.909 112.289 259.289 130.861 245.894 144.038C236.237 153.538 225.214 158.526 211.287 159.699C207.418 160.024 206.61 160.205 206.047 160.87C205.222 161.844 205.199 162.857 205.984 163.639C206.82 164.471 212.76 164.377 217.965 163.448ZM216.414 147.852C225.372 145.943 232.7 141.832 239.108 135.12C247.143 126.704 251.042 116.868 251.02 105.069C250.998 93.2696 247.062 83.4478 238.996 75.062C230.368 66.0922 219.944 61.6703 207.482 61.6936C195.02 61.7169 184.613 66.1776 176.019 75.1796C167.984 83.5954 164.085 93.4319 164.107 105.231C164.131 117.693 168.591 128.1 177.593 136.695C183.9 142.715 191.104 146.424 199.585 148.017C203.954 148.837 212.166 148.756 216.414 147.852ZM203.634 144.027C198.811 143.492 195.088 142.413 190.666 140.271C182.539 136.334 176.493 130.309 172.511 122.179C170.281 117.625 169.255 114.091 168.685 109.004C167.901 101.996 169.162 95.0306 172.444 88.2522C176.376 80.1284 182.403 74.0805 190.535 70.0975C197.291 66.7886 204.256 65.4986 211.272 66.2574C216.361 66.8079 219.9 67.821 224.461 70.0341C232.608 73.9868 238.657 80.0121 242.62 88.1211C244.847 92.6787 245.873 96.2151 246.442 101.296C246.932 105.679 246.501 110.965 245.289 115.436C244.342 118.927 241.329 125.191 239.263 127.962C232.654 136.832 222.658 142.744 212.188 143.977C208.171 144.45 207.481 144.454 203.634 144.027ZM210.435 111.667C216.302 108.945 216.119 100.981 210.131 98.4924C208.339 97.7475 206.76 97.7504 204.971 98.502C198.873 101.063 198.888 109.269 204.996 111.807C206.852 112.579 208.563 112.534 210.435 111.667ZM205.781 106.993C204.671 105.954 204.648 104.514 205.721 103.367C206.759 102.258 208.2 102.234 209.346 103.307C210.456 104.345 210.479 105.786 209.406 106.933C208.368 108.042 206.927 108.066 205.781 106.993Z" fill="white"/>
<rect x="1" y="1" width="206.065" height="208.154" fill="#E82D34" stroke="#242121" stroke-width="2"/>
<path d="M79.1098 140.77L36.2634 110.641L95.8854 54.5675L180.194 118.57L192.188 111.806L207.647 124.131V208.736L41.0472 209.154L16.0854 191.815L79.1098 140.77Z" fill="white" stroke="#E82D34" stroke-width="2"/>
<path d="M152.496 169.849H113.305V141.078V112.306H152.496H191.687V141.078V169.849H152.496Z" fill="white" stroke="white"/>
<mask id="path-6-inside-1_284_47" fill="white">
<path fill-rule="evenodd" clip-rule="evenodd" d="M112.805 141.124V170.349H115.718H118.631L118.912 167.605C119.355 163.303 120.077 160.171 120.561 160.457C120.837 160.62 120.894 160.334 120.721 159.67C120.57 159.096 120.59 158.565 120.765 158.491C120.94 158.417 121.517 157.048 122.048 155.45C122.579 153.851 123.276 152.335 123.597 152.08C123.948 151.801 123.752 152.634 123.104 154.169C122.512 155.573 121.625 158.644 121.133 160.995C120.641 163.344 120.1 165.365 119.932 165.486C119.763 165.606 119.497 166.75 119.34 168.027L119.056 170.349H124.632H130.209L130.213 165.572C130.217 159.656 130.837 154.28 131.844 151.423L132.61 149.248L130.912 149.127C129.978 149.06 129.137 148.78 129.042 148.504C128.915 148.135 129.481 148.048 131.196 148.174C133.102 148.314 133.656 148.203 134.266 147.557C135.13 146.643 136.565 146.413 135.783 147.315C135.094 148.111 135.623 148.395 137.815 148.401C138.885 148.405 140.047 148.585 140.397 148.802C141.183 149.288 140.985 149.311 136.899 149.215C133.651 149.139 133.607 149.152 133.151 150.291C131.98 153.222 131.535 156.421 131.369 163.133L131.19 170.349H136.195H141.199L141.329 165.067C141.426 161.123 141.325 159.737 140.928 159.592C140.581 159.465 140.412 158.585 140.44 157.047C140.469 155.418 140.572 155.007 140.776 155.709C141.016 156.535 141.145 156.61 141.477 156.116C141.7 155.782 141.913 154.961 141.949 154.29C141.986 153.619 142.034 152.796 142.056 152.461C142.101 151.79 144.642 151.407 144.642 152.071C144.642 152.285 144.183 152.461 143.622 152.461C142.699 152.461 142.588 152.656 142.455 154.509C142.313 156.48 142.355 156.569 143.581 156.911C144.801 157.251 144.81 157.269 143.793 157.351C143.21 157.397 142.541 157.401 142.308 157.358C142.074 157.316 142.122 157.514 142.414 157.798C142.735 158.111 142.961 159.527 142.987 161.384C143.018 163.644 143.125 164.186 143.392 163.438C143.631 162.767 143.725 163.776 143.668 166.399L143.581 170.377L151.459 170.331L159.337 170.285V168.334C159.337 166.916 159.73 165.649 160.779 163.691C162.183 161.069 162.896 160.368 162.896 161.608C162.896 161.943 162.71 162.218 162.483 162.218C161.85 162.218 160.924 164.203 160.383 166.721C159.661 170.078 160.483 171.492 161.843 169.231L162.516 168.113L162.273 169.231L162.031 170.349H165.435C168.801 170.349 168.839 170.337 168.839 169.312C168.839 168.742 169.143 167.712 169.515 167.024C169.887 166.336 170.104 165.339 169.998 164.808C169.86 164.115 169.998 163.846 170.49 163.85C171.53 163.86 172.057 164.356 172.125 165.389C172.172 166.117 172.016 166.272 171.417 166.089C170.824 165.909 170.591 166.126 170.401 167.038C170.265 167.689 170.026 168.71 169.869 169.308L169.584 170.394L179.506 170.328C185.469 170.287 189.639 170.096 189.958 169.848C190.323 169.565 190.489 169.579 190.489 169.893C190.489 170.144 190.871 170.349 191.338 170.349C192.179 170.349 192.187 170.078 192.187 141.134V111.919L152.496 111.909L112.805 111.899V141.124ZM137.426 115.212C137.426 115.86 136.246 116.91 135.896 116.574C135.571 116.263 136.51 114.652 137.016 114.652C137.242 114.652 137.426 114.904 137.426 115.212ZM129.423 118.209C130.154 119.718 130.916 121.271 131.117 121.659C131.318 122.047 131.483 122.62 131.483 122.931C131.483 123.242 131.786 123.738 132.157 124.032C132.756 124.509 132.822 124.369 132.754 122.761C132.614 119.448 132.749 118.771 133.782 117.622C135.032 116.231 135.554 116.538 134.677 118.149C133.993 119.405 133.777 124.003 134.403 124.003C135.13 124.003 135.794 122.809 135.522 121.989C135.37 121.532 135.428 121.157 135.651 121.157C136.178 121.157 136.529 122.917 136.941 127.614L137.274 131.43L140.269 134.119C143.205 136.756 144.382 137.509 151.199 141.121C153.054 142.103 155.728 143.992 157.142 145.319C159.43 147.466 163.96 150.166 164.636 149.786C164.776 149.707 164.926 148.51 164.969 147.126C165.043 144.767 165.986 142.297 166.813 142.297C167 142.297 167.636 141.245 168.227 139.96C169.692 136.776 172.542 134.166 174.555 134.166C175.38 134.166 176.056 134.349 176.056 134.573C176.056 134.796 176.342 134.979 176.692 134.979C177.043 134.979 177.329 135.164 177.329 135.39C177.329 135.642 178.186 135.713 179.558 135.574C182.425 135.283 183.161 135.711 182.486 137.28C181.873 138.707 181.804 140.938 182.275 144.122C182.566 146.087 182.799 146.585 183.485 146.705C183.951 146.786 184.62 147.093 184.97 147.387C185.32 147.681 186.177 147.982 186.873 148.056C188.687 148.251 189.294 149.993 188.088 151.547C187.049 152.886 185.318 153.18 183.861 152.264C183.109 151.793 182.881 151.375 183.068 150.812C183.521 149.444 182.447 149.946 181.697 151.453C181.057 152.737 181.051 152.947 181.635 153.506C181.992 153.848 182.777 154.178 183.379 154.24C185.338 154.44 191.339 160.01 190.685 161.023C190.569 161.204 190.463 163.102 190.451 165.241C190.434 168.183 190.292 169.129 189.867 169.129C189.059 169.129 188.733 168.024 189.362 167.413C190.05 166.744 189.962 162.063 189.245 161.236C188.955 160.901 188.828 160.457 188.962 160.249C189.096 160.041 188.924 159.646 188.579 159.372C188.233 159.098 188.043 158.731 188.156 158.555C188.269 158.381 188.074 158.132 187.722 158.002C187.052 157.756 187.047 157.68 187.946 161.405C188.692 164.5 188.816 166.598 188.315 167.651C187.598 169.158 187.017 168.994 185.629 166.891C184.963 165.883 183.851 164.648 183.156 164.147C182.46 163.645 181.533 162.914 181.096 162.523C180.659 162.132 180.192 161.811 180.058 161.811C179.925 161.811 179.515 161.524 179.147 161.171C178.78 160.819 178.364 160.682 178.223 160.867C177.829 161.38 174.474 161.508 174.16 161.021C174.008 160.785 173.527 160.592 173.092 160.592C172.573 160.592 172.141 160.128 171.836 159.241C171.263 157.579 169.028 155.457 167.46 155.087C165.927 154.726 165.963 155.335 167.566 156.87C168.266 157.541 168.839 158.287 168.839 158.528C168.839 159.264 167.339 159.016 165.954 158.051C161.994 155.293 160.849 154.589 159.5 154.086C158.683 153.781 157.559 153.199 157.002 152.793C155.668 151.82 155.255 151.861 155.253 152.969C155.252 153.79 155.168 153.752 154.433 152.598C153.983 151.891 153.336 151.159 152.995 150.972C152.654 150.785 152.074 149.937 151.706 149.089C151.148 147.8 151.134 147.511 151.622 147.332C152.385 147.051 154.353 148.046 155.636 149.361C156.588 150.337 159.335 151.535 159.738 151.148C159.838 151.053 159.237 150.212 158.403 149.279C157.204 147.937 156.6 147.582 155.514 147.582C152.908 147.582 146.613 143.879 141.53 139.357C140.09 138.076 138.676 137.023 138.389 137.019C138.102 137.015 137.154 136.097 136.282 134.979C135.411 133.861 134.485 132.947 134.226 132.947C133.966 132.947 133.324 132.509 132.799 131.974C132.108 131.269 131.999 130.952 132.403 130.824C132.709 130.726 133.318 131.081 133.756 131.614C135.121 133.277 134.979 132.355 133.357 129.038C132.498 127.281 131.267 124.328 130.621 122.476C129.976 120.624 129.096 118.609 128.666 117.998C127.911 116.927 127.88 116.919 127.748 117.777C127.672 118.266 127.887 119.455 128.225 120.419C129.184 123.158 129.522 125.629 128.938 125.629C128.664 125.629 129.052 126.369 129.801 127.274C132.171 130.139 130.735 129.565 127.408 126.317C125.647 124.597 124.476 123.189 124.807 123.189C125.138 123.189 125.754 123.555 126.177 124.003C127.124 125.006 128.089 125.057 128.08 124.104C128.077 123.713 127.767 122.204 127.391 120.75C126.492 117.272 126.595 115.465 127.691 115.465C127.913 115.465 128.693 116.7 129.423 118.209ZM135.593 120.014C135.458 120.338 135.357 120.241 135.337 119.768C135.319 119.339 135.419 119.099 135.56 119.234C135.701 119.369 135.716 119.72 135.593 120.014ZM121.27 120.112C121.672 120.576 121.606 120.78 120.942 121.12C120.316 121.441 119.985 121.402 119.605 120.963C119.035 120.305 119.361 119.531 120.207 119.531C120.515 119.531 120.993 119.792 121.27 120.112ZM119.095 123.276C120.071 123.995 120.87 124.819 120.87 125.106C120.87 125.818 120.569 125.768 118.904 124.782C118.118 124.317 117.474 124.078 117.474 124.251C117.474 124.775 116.229 123.024 116.214 122.478C116.191 121.619 117.237 121.909 119.095 123.276ZM126.615 128.394C126.141 128.847 125.15 128.049 125.403 127.417C125.654 126.789 125.722 126.794 126.24 127.473C126.551 127.879 126.719 128.294 126.615 128.394ZM116.424 127.789C117.792 128.662 122.559 130.507 123.445 130.507C123.897 130.507 124.266 130.782 124.266 131.117C124.266 131.808 122.353 131.975 121.932 131.32C121.787 131.097 121.247 130.914 120.731 130.914C120.216 130.914 119.091 130.456 118.232 129.897C117.373 129.338 116.577 128.881 116.463 128.881C115.659 128.881 114.076 127.993 114.29 127.662C114.65 127.105 115.425 127.151 116.424 127.789ZM181.15 132.947C181.15 133.17 180.97 133.353 180.75 133.353C180.53 133.353 180.233 133.17 180.088 132.947C179.944 132.723 180.124 132.54 180.488 132.54C180.852 132.54 181.15 132.723 181.15 132.947ZM174.227 137.449C174.1 137.913 173.617 138.387 173.153 138.503C172.317 138.713 172.318 138.726 173.192 140.144C174.03 141.504 174.165 141.565 175.95 141.372C178.848 141.059 179.124 140.453 177.117 138.816C175.722 137.678 175.57 137.425 176.268 137.396L177.117 137.361L176.268 137.012C174.913 136.454 174.472 136.549 174.227 137.449ZM170.749 137.419C170.894 137.642 171.096 137.825 171.199 137.825C171.302 137.825 171.386 137.642 171.386 137.419C171.386 137.195 171.184 137.012 170.937 137.012C170.69 137.012 170.605 137.195 170.749 137.419ZM138.916 139.483C139.692 140.327 139.697 140.38 138.983 140.13C138.555 139.98 138.044 139.858 137.846 139.858C137.24 139.858 136.13 138.596 136.386 138.198C136.697 137.716 137.816 138.283 138.916 139.483ZM169.688 139.045C169.688 139.268 169.868 139.451 170.088 139.451C170.307 139.451 170.605 139.268 170.749 139.045C170.894 138.821 170.714 138.638 170.35 138.638C169.986 138.638 169.688 138.821 169.688 139.045ZM177.541 139.858C177.873 140.373 177.311 140.373 176.48 139.858C175.931 139.518 175.943 139.463 176.561 139.457C176.956 139.454 177.397 139.634 177.541 139.858ZM186.499 141.219C186.555 142.645 185.997 142.585 185.183 141.079C184.542 139.89 184.549 139.864 185.491 140.001C186.201 140.104 186.467 140.426 186.499 141.219ZM141.907 147.467C145.189 150.772 148.03 153.724 148.22 154.026C149.008 155.277 146.849 153.612 143.591 150.456C140.851 147.802 139.96 147.174 138.921 147.17C137.976 147.165 137.8 147.065 138.255 146.79C138.594 146.584 139.023 146.507 139.21 146.617C140.122 147.157 139.374 145.955 138.025 144.714C137.187 143.944 135.905 142.598 135.176 141.723C132.467 138.474 135.818 141.334 141.907 147.467ZM169.264 141.451C169.264 142.368 169.842 143.11 170.558 143.11C171.767 143.11 171.924 142.419 170.874 141.715C169.797 140.993 169.264 140.905 169.264 141.451ZM172.562 143.875C172.661 144.519 172.532 145.171 172.276 145.322C172.02 145.473 171.811 145.418 171.811 145.199C171.811 144.979 171.123 144.582 170.281 144.316C169.023 143.918 168.643 143.937 168.138 144.42C167.603 144.933 167.677 144.987 168.713 144.847C169.366 144.758 170.282 144.96 170.749 145.296C171.551 145.872 171.519 145.895 170.175 145.697C169.089 145.537 168.553 145.69 167.921 146.341C167.464 146.81 166.911 147.087 166.691 146.957C166.247 146.694 166.149 148.377 166.55 149.378C166.877 150.194 167.566 150.217 167.566 149.412C167.566 149.038 167.963 148.802 168.592 148.802C169.157 148.802 169.896 148.7 170.235 148.575C170.575 148.451 171.15 148.634 171.514 148.982C172.437 149.866 172.565 149.806 173.291 148.142C174.297 145.834 174.073 142.704 172.9 142.704C172.571 142.704 172.447 143.131 172.562 143.875ZM188.366 143.517C188.366 143.74 188.164 143.923 187.917 143.923C187.67 143.923 187.585 143.74 187.73 143.517C187.874 143.293 188.076 143.11 188.179 143.11C188.282 143.11 188.366 143.293 188.366 143.517ZM185.819 144.103C185.819 144.201 185.628 144.395 185.395 144.533C185.161 144.671 184.97 144.59 184.97 144.354C184.97 144.117 185.161 143.923 185.395 143.923C185.628 143.923 185.819 144.004 185.819 144.103ZM186.244 149.141C186.244 149.327 186.53 149.48 186.881 149.48C187.231 149.48 187.517 149.327 187.517 149.141C187.517 148.954 187.231 148.802 186.881 148.802C186.53 148.802 186.244 148.954 186.244 149.141ZM184.97 150.428C184.97 150.652 185.161 150.835 185.395 150.835C185.628 150.835 185.819 150.652 185.819 150.428C185.819 150.204 185.628 150.022 185.395 150.022C185.161 150.022 184.97 150.204 184.97 150.428ZM143.674 160.891C143.576 161.509 143.494 161.1 143.49 159.982C143.487 158.864 143.567 158.358 143.668 158.858C143.768 159.358 143.771 160.273 143.674 160.891ZM159.925 162.339C159.925 162.544 159.654 162.612 159.323 162.49C158.572 162.214 158.207 163.059 157.93 165.722C157.801 166.955 157.918 168.17 158.216 168.704C158.493 169.2 158.623 169.698 158.505 169.812C158.386 169.925 157.974 169.433 157.587 168.718C156.756 167.179 157.015 164.01 158.143 161.902C158.79 160.694 158.907 160.634 159.391 161.268C159.684 161.652 159.925 162.134 159.925 162.339ZM165.734 163.284C165.879 163.647 165.597 164.152 165.038 164.527C164.52 164.875 163.726 165.732 163.273 166.433L162.45 167.706L162.731 165.877C162.886 164.871 163.162 163.767 163.344 163.425C163.782 162.603 165.422 162.507 165.734 163.284ZM167.717 165.826C167.517 165.966 167.35 166.263 167.345 166.487C167.317 167.852 166.603 169.996 166.279 169.686C165.763 169.191 167.078 164.978 167.644 165.313C167.884 165.456 167.917 165.686 167.717 165.826Z"/>
</mask>
<path fill-rule="evenodd" clip-rule="evenodd" d="M112.805 141.124V170.349H115.718H118.631L118.912 167.605C119.355 163.303 120.077 160.171 120.561 160.457C120.837 160.62 120.894 160.334 120.721 159.67C120.57 159.096 120.59 158.565 120.765 158.491C120.94 158.417 121.517 157.048 122.048 155.45C122.579 153.851 123.276 152.335 123.597 152.08C123.948 151.801 123.752 152.634 123.104 154.169C122.512 155.573 121.625 158.644 121.133 160.995C120.641 163.344 120.1 165.365 119.932 165.486C119.763 165.606 119.497 166.75 119.34 168.027L119.056 170.349H124.632H130.209L130.213 165.572C130.217 159.656 130.837 154.28 131.844 151.423L132.61 149.248L130.912 149.127C129.978 149.06 129.137 148.78 129.042 148.504C128.915 148.135 129.481 148.048 131.196 148.174C133.102 148.314 133.656 148.203 134.266 147.557C135.13 146.643 136.565 146.413 135.783 147.315C135.094 148.111 135.623 148.395 137.815 148.401C138.885 148.405 140.047 148.585 140.397 148.802C141.183 149.288 140.985 149.311 136.899 149.215C133.651 149.139 133.607 149.152 133.151 150.291C131.98 153.222 131.535 156.421 131.369 163.133L131.19 170.349H136.195H141.199L141.329 165.067C141.426 161.123 141.325 159.737 140.928 159.592C140.581 159.465 140.412 158.585 140.44 157.047C140.469 155.418 140.572 155.007 140.776 155.709C141.016 156.535 141.145 156.61 141.477 156.116C141.7 155.782 141.913 154.961 141.949 154.29C141.986 153.619 142.034 152.796 142.056 152.461C142.101 151.79 144.642 151.407 144.642 152.071C144.642 152.285 144.183 152.461 143.622 152.461C142.699 152.461 142.588 152.656 142.455 154.509C142.313 156.48 142.355 156.569 143.581 156.911C144.801 157.251 144.81 157.269 143.793 157.351C143.21 157.397 142.541 157.401 142.308 157.358C142.074 157.316 142.122 157.514 142.414 157.798C142.735 158.111 142.961 159.527 142.987 161.384C143.018 163.644 143.125 164.186 143.392 163.438C143.631 162.767 143.725 163.776 143.668 166.399L143.581 170.377L151.459 170.331L159.337 170.285V168.334C159.337 166.916 159.73 165.649 160.779 163.691C162.183 161.069 162.896 160.368 162.896 161.608C162.896 161.943 162.71 162.218 162.483 162.218C161.85 162.218 160.924 164.203 160.383 166.721C159.661 170.078 160.483 171.492 161.843 169.231L162.516 168.113L162.273 169.231L162.031 170.349H165.435C168.801 170.349 168.839 170.337 168.839 169.312C168.839 168.742 169.143 167.712 169.515 167.024C169.887 166.336 170.104 165.339 169.998 164.808C169.86 164.115 169.998 163.846 170.49 163.85C171.53 163.86 172.057 164.356 172.125 165.389C172.172 166.117 172.016 166.272 171.417 166.089C170.824 165.909 170.591 166.126 170.401 167.038C170.265 167.689 170.026 168.71 169.869 169.308L169.584 170.394L179.506 170.328C185.469 170.287 189.639 170.096 189.958 169.848C190.323 169.565 190.489 169.579 190.489 169.893C190.489 170.144 190.871 170.349 191.338 170.349C192.179 170.349 192.187 170.078 192.187 141.134V111.919L152.496 111.909L112.805 111.899V141.124ZM137.426 115.212C137.426 115.86 136.246 116.91 135.896 116.574C135.571 116.263 136.51 114.652 137.016 114.652C137.242 114.652 137.426 114.904 137.426 115.212ZM129.423 118.209C130.154 119.718 130.916 121.271 131.117 121.659C131.318 122.047 131.483 122.62 131.483 122.931C131.483 123.242 131.786 123.738 132.157 124.032C132.756 124.509 132.822 124.369 132.754 122.761C132.614 119.448 132.749 118.771 133.782 117.622C135.032 116.231 135.554 116.538 134.677 118.149C133.993 119.405 133.777 124.003 134.403 124.003C135.13 124.003 135.794 122.809 135.522 121.989C135.37 121.532 135.428 121.157 135.651 121.157C136.178 121.157 136.529 122.917 136.941 127.614L137.274 131.43L140.269 134.119C143.205 136.756 144.382 137.509 151.199 141.121C153.054 142.103 155.728 143.992 157.142 145.319C159.43 147.466 163.96 150.166 164.636 149.786C164.776 149.707 164.926 148.51 164.969 147.126C165.043 144.767 165.986 142.297 166.813 142.297C167 142.297 167.636 141.245 168.227 139.96C169.692 136.776 172.542 134.166 174.555 134.166C175.38 134.166 176.056 134.349 176.056 134.573C176.056 134.796 176.342 134.979 176.692 134.979C177.043 134.979 177.329 135.164 177.329 135.39C177.329 135.642 178.186 135.713 179.558 135.574C182.425 135.283 183.161 135.711 182.486 137.28C181.873 138.707 181.804 140.938 182.275 144.122C182.566 146.087 182.799 146.585 183.485 146.705C183.951 146.786 184.62 147.093 184.97 147.387C185.32 147.681 186.177 147.982 186.873 148.056C188.687 148.251 189.294 149.993 188.088 151.547C187.049 152.886 185.318 153.18 183.861 152.264C183.109 151.793 182.881 151.375 183.068 150.812C183.521 149.444 182.447 149.946 181.697 151.453C181.057 152.737 181.051 152.947 181.635 153.506C181.992 153.848 182.777 154.178 183.379 154.24C185.338 154.44 191.339 160.01 190.685 161.023C190.569 161.204 190.463 163.102 190.451 165.241C190.434 168.183 190.292 169.129 189.867 169.129C189.059 169.129 188.733 168.024 189.362 167.413C190.05 166.744 189.962 162.063 189.245 161.236C188.955 160.901 188.828 160.457 188.962 160.249C189.096 160.041 188.924 159.646 188.579 159.372C188.233 159.098 188.043 158.731 188.156 158.555C188.269 158.381 188.074 158.132 187.722 158.002C187.052 157.756 187.047 157.68 187.946 161.405C188.692 164.5 188.816 166.598 188.315 167.651C187.598 169.158 187.017 168.994 185.629 166.891C184.963 165.883 183.851 164.648 183.156 164.147C182.46 163.645 181.533 162.914 181.096 162.523C180.659 162.132 180.192 161.811 180.058 161.811C179.925 161.811 179.515 161.524 179.147 161.171C178.78 160.819 178.364 160.682 178.223 160.867C177.829 161.38 174.474 161.508 174.16 161.021C174.008 160.785 173.527 160.592 173.092 160.592C172.573 160.592 172.141 160.128 171.836 159.241C171.263 157.579 169.028 155.457 167.46 155.087C165.927 154.726 165.963 155.335 167.566 156.87C168.266 157.541 168.839 158.287 168.839 158.528C168.839 159.264 167.339 159.016 165.954 158.051C161.994 155.293 160.849 154.589 159.5 154.086C158.683 153.781 157.559 153.199 157.002 152.793C155.668 151.82 155.255 151.861 155.253 152.969C155.252 153.79 155.168 153.752 154.433 152.598C153.983 151.891 153.336 151.159 152.995 150.972C152.654 150.785 152.074 149.937 151.706 149.089C151.148 147.8 151.134 147.511 151.622 147.332C152.385 147.051 154.353 148.046 155.636 149.361C156.588 150.337 159.335 151.535 159.738 151.148C159.838 151.053 159.237 150.212 158.403 149.279C157.204 147.937 156.6 147.582 155.514 147.582C152.908 147.582 146.613 143.879 141.53 139.357C140.09 138.076 138.676 137.023 138.389 137.019C138.102 137.015 137.154 136.097 136.282 134.979C135.411 133.861 134.485 132.947 134.226 132.947C133.966 132.947 133.324 132.509 132.799 131.974C132.108 131.269 131.999 130.952 132.403 130.824C132.709 130.726 133.318 131.081 133.756 131.614C135.121 133.277 134.979 132.355 133.357 129.038C132.498 127.281 131.267 124.328 130.621 122.476C129.976 120.624 129.096 118.609 128.666 117.998C127.911 116.927 127.88 116.919 127.748 117.777C127.672 118.266 127.887 119.455 128.225 120.419C129.184 123.158 129.522 125.629 128.938 125.629C128.664 125.629 129.052 126.369 129.801 127.274C132.171 130.139 130.735 129.565 127.408 126.317C125.647 124.597 124.476 123.189 124.807 123.189C125.138 123.189 125.754 123.555 126.177 124.003C127.124 125.006 128.089 125.057 128.08 124.104C128.077 123.713 127.767 122.204 127.391 120.75C126.492 117.272 126.595 115.465 127.691 115.465C127.913 115.465 128.693 116.7 129.423 118.209ZM135.593 120.014C135.458 120.338 135.357 120.241 135.337 119.768C135.319 119.339 135.419 119.099 135.56 119.234C135.701 119.369 135.716 119.72 135.593 120.014ZM121.27 120.112C121.672 120.576 121.606 120.78 120.942 121.12C120.316 121.441 119.985 121.402 119.605 120.963C119.035 120.305 119.361 119.531 120.207 119.531C120.515 119.531 120.993 119.792 121.27 120.112ZM119.095 123.276C120.071 123.995 120.87 124.819 120.87 125.106C120.87 125.818 120.569 125.768 118.904 124.782C118.118 124.317 117.474 124.078 117.474 124.251C117.474 124.775 116.229 123.024 116.214 122.478C116.191 121.619 117.237 121.909 119.095 123.276ZM126.615 128.394C126.141 128.847 125.15 128.049 125.403 127.417C125.654 126.789 125.722 126.794 126.24 127.473C126.551 127.879 126.719 128.294 126.615 128.394ZM116.424 127.789C117.792 128.662 122.559 130.507 123.445 130.507C123.897 130.507 124.266 130.782 124.266 131.117C124.266 131.808 122.353 131.975 121.932 131.32C121.787 131.097 121.247 130.914 120.731 130.914C120.216 130.914 119.091 130.456 118.232 129.897C117.373 129.338 116.577 128.881 116.463 128.881C115.659 128.881 114.076 127.993 114.29 127.662C114.65 127.105 115.425 127.151 116.424 127.789ZM181.15 132.947C181.15 133.17 180.97 133.353 180.75 133.353C180.53 133.353 180.233 133.17 180.088 132.947C179.944 132.723 180.124 132.54 180.488 132.54C180.852 132.54 181.15 132.723 181.15 132.947ZM174.227 137.449C174.1 137.913 173.617 138.387 173.153 138.503C172.317 138.713 172.318 138.726 173.192 140.144C174.03 141.504 174.165 141.565 175.95 141.372C178.848 141.059 179.124 140.453 177.117 138.816C175.722 137.678 175.57 137.425 176.268 137.396L177.117 137.361L176.268 137.012C174.913 136.454 174.472 136.549 174.227 137.449ZM170.749 137.419C170.894 137.642 171.096 137.825 171.199 137.825C171.302 137.825 171.386 137.642 171.386 137.419C171.386 137.195 171.184 137.012 170.937 137.012C170.69 137.012 170.605 137.195 170.749 137.419ZM138.916 139.483C139.692 140.327 139.697 140.38 138.983 140.13C138.555 139.98 138.044 139.858 137.846 139.858C137.24 139.858 136.13 138.596 136.386 138.198C136.697 137.716 137.816 138.283 138.916 139.483ZM169.688 139.045C169.688 139.268 169.868 139.451 170.088 139.451C170.307 139.451 170.605 139.268 170.749 139.045C170.894 138.821 170.714 138.638 170.35 138.638C169.986 138.638 169.688 138.821 169.688 139.045ZM177.541 139.858C177.873 140.373 177.311 140.373 176.48 139.858C175.931 139.518 175.943 139.463 176.561 139.457C176.956 139.454 177.397 139.634 177.541 139.858ZM186.499 141.219C186.555 142.645 185.997 142.585 185.183 141.079C184.542 139.89 184.549 139.864 185.491 140.001C186.201 140.104 186.467 140.426 186.499 141.219ZM141.907 147.467C145.189 150.772 148.03 153.724 148.22 154.026C149.008 155.277 146.849 153.612 143.591 150.456C140.851 147.802 139.96 147.174 138.921 147.17C137.976 147.165 137.8 147.065 138.255 146.79C138.594 146.584 139.023 146.507 139.21 146.617C140.122 147.157 139.374 145.955 138.025 144.714C137.187 143.944 135.905 142.598 135.176 141.723C132.467 138.474 135.818 141.334 141.907 147.467ZM169.264 141.451C169.264 142.368 169.842 143.11 170.558 143.11C171.767 143.11 171.924 142.419 170.874 141.715C169.797 140.993 169.264 140.905 169.264 141.451ZM172.562 143.875C172.661 144.519 172.532 145.171 172.276 145.322C172.02 145.473 171.811 145.418 171.811 145.199C171.811 144.979 171.123 144.582 170.281 144.316C169.023 143.918 168.643 143.937 168.138 144.42C167.603 144.933 167.677 144.987 168.713 144.847C169.366 144.758 170.282 144.96 170.749 145.296C171.551 145.872 171.519 145.895 170.175 145.697C169.089 145.537 168.553 145.69 167.921 146.341C167.464 146.81 166.911 147.087 166.691 146.957C166.247 146.694 166.149 148.377 166.55 149.378C166.877 150.194 167.566 150.217 167.566 149.412C167.566 149.038 167.963 148.802 168.592 148.802C169.157 148.802 169.896 148.7 170.235 148.575C170.575 148.451 171.15 148.634 171.514 148.982C172.437 149.866 172.565 149.806 173.291 148.142C174.297 145.834 174.073 142.704 172.9 142.704C172.571 142.704 172.447 143.131 172.562 143.875ZM188.366 143.517C188.366 143.74 188.164 143.923 187.917 143.923C187.67 143.923 187.585 143.74 187.73 143.517C187.874 143.293 188.076 143.11 188.179 143.11C188.282 143.11 188.366 143.293 188.366 143.517ZM185.819 144.103C185.819 144.201 185.628 144.395 185.395 144.533C185.161 144.671 184.97 144.59 184.97 144.354C184.97 144.117 185.161 143.923 185.395 143.923C185.628 143.923 185.819 144.004 185.819 144.103ZM186.244 149.141C186.244 149.327 186.53 149.48 186.881 149.48C187.231 149.48 187.517 149.327 187.517 149.141C187.517 148.954 187.231 148.802 186.881 148.802C186.53 148.802 186.244 148.954 186.244 149.141ZM184.97 150.428C184.97 150.652 185.161 150.835 185.395 150.835C185.628 150.835 185.819 150.652 185.819 150.428C185.819 150.204 185.628 150.022 185.395 150.022C185.161 150.022 184.97 150.204 184.97 150.428ZM143.674 160.891C143.576 161.509 143.494 161.1 143.49 159.982C143.487 158.864 143.567 158.358 143.668 158.858C143.768 159.358 143.771 160.273 143.674 160.891ZM159.925 162.339C159.925 162.544 159.654 162.612 159.323 162.49C158.572 162.214 158.207 163.059 157.93 165.722C157.801 166.955 157.918 168.17 158.216 168.704C158.493 169.2 158.623 169.698 158.505 169.812C158.386 169.925 157.974 169.433 157.587 168.718C156.756 167.179 157.015 164.01 158.143 161.902C158.79 160.694 158.907 160.634 159.391 161.268C159.684 161.652 159.925 162.134 159.925 162.339ZM165.734 163.284C165.879 163.647 165.597 164.152 165.038 164.527C164.52 164.875 163.726 165.732 163.273 166.433L162.45 167.706L162.731 165.877C162.886 164.871 163.162 163.767 163.344 163.425C163.782 162.603 165.422 162.507 165.734 163.284ZM167.717 165.826C167.517 165.966 167.35 166.263 167.345 166.487C167.317 167.852 166.603 169.996 166.279 169.686C165.763 169.191 167.078 164.978 167.644 165.313C167.884 165.456 167.917 165.686 167.717 165.826Z" fill="#E82D34" stroke="white" stroke-width="2" mask="url(#path-6-inside-1_284_47)"/>
<path d="M66.2194 110.19H36.8467V82.4201V54.6497H66.2194H95.5922V82.4201V110.19H66.2194Z" fill="white" stroke="#E82D34"/>
<mask id="path-8-inside-2_284_47" fill="white">
<path fill-rule="evenodd" clip-rule="evenodd" d="M37.4568 54.5715C37.6086 54.8035 37.4134 55.1092 37.024 55.2508C36.4292 55.4665 36.3287 56.2061 36.4004 59.8528L36.4858 64.1976L37.4342 62.0005C38.7062 59.0541 39.4151 57.9157 39.4333 58.7915C39.4404 59.1563 39.3102 59.5839 39.1434 59.7418C38.5269 60.3248 37.5701 63.2214 37.2546 65.4579C37.0758 66.7248 36.7801 68.1383 36.5974 68.599C36.3663 69.1812 36.3942 69.2662 36.6881 68.8779C37.0293 68.4269 37.1652 68.4545 37.3949 69.0203C37.5511 69.4061 37.5506 69.9187 37.3931 70.16C36.8806 70.9448 36.4686 76.1269 36.8979 76.3941C37.1506 76.5512 37.1448 77.2137 36.8828 78.1113C36.6483 78.915 36.423 81.5707 36.3818 84.0129C36.3146 87.9833 36.4026 88.5441 37.213 89.3109C37.7113 89.7825 38.1189 90.3337 38.1189 90.536C38.1189 90.7379 38.4158 91.1366 38.7783 91.4214C39.2116 91.7615 39.3452 92.3189 39.1686 93.043C38.9035 94.1278 38.9124 94.1324 39.6621 93.3094C40.391 92.509 40.3932 92.5224 39.7143 93.6089C38.8721 94.9571 38.8146 95.3545 39.5218 94.9407C39.8732 94.7351 39.9458 94.8691 39.7479 95.3566C39.5877 95.752 39.6364 95.9702 39.8564 95.8416C40.0763 95.713 40.3312 95.8211 40.4228 96.0816C40.5149 96.3421 41.1792 96.5553 41.8992 96.5553C43.1623 96.5549 45.4096 98.2067 44.8573 98.7294C44.7197 98.8596 45.1388 98.9241 45.7889 98.8734C47.1524 98.7666 47.2135 98.53 46.3076 96.8719C45.9433 96.2051 45.2702 94.1357 44.8121 92.2733C43.9885 88.9265 43.989 88.8821 44.8449 88.4486C45.414 88.1604 45.6114 87.7697 45.4202 87.309C44.7427 85.6768 44.3222 81.8392 44.59 79.7308C44.8015 78.0631 45.2105 77.1187 46.1314 76.1709C46.8205 75.4618 48.0459 74.158 48.8549 73.2743C50.5725 71.3963 52.221 71.1735 56.2638 72.2716C57.961 72.7323 59.2338 72.8304 60.4681 72.5941C61.4418 72.4078 61.9777 72.2335 61.6591 72.2071C61.3404 72.1808 61.201 71.9734 61.3493 71.7464C61.5143 71.4931 61.1293 71.4265 60.3504 71.5739C58.6058 71.9043 55.103 70.9959 55.7522 70.3815C56.451 69.7202 62.9637 69.8932 68.0133 70.7073C70.3642 71.0864 72.6699 71.3017 73.1373 71.1861C73.6312 71.0638 73.9609 71.1798 73.9241 71.4625C73.7719 72.6419 74.0374 72.9966 75.0726 72.9966C76.63 72.9966 76.4246 73.503 74.5243 74.3473C73.3015 74.8909 72.8173 74.9458 72.5712 74.5689C72.3911 74.2933 72.0858 74.2179 71.8919 74.4013C71.6981 74.5848 71.8906 74.9207 72.3194 75.1477C72.7487 75.3751 72.9841 75.7378 72.843 75.9539C72.4168 76.6069 73.3811 76.3987 75.0177 75.4848L76.5622 74.6221L77.0499 75.4848C77.6275 76.5055 79.5048 76.6429 79.8903 75.6926C80.3488 74.5613 81.0573 75.4945 80.8635 76.9742C80.725 78.0317 80.8276 78.3341 81.2711 78.1728C81.5972 78.0547 81.9805 77.6698 82.123 77.3184C82.2682 76.9608 82.6731 76.7849 83.0422 76.9189C83.8477 77.2112 83.887 76.6487 83.1493 75.399C82.8453 74.8838 82.5961 74.4386 82.5961 74.4097C82.5961 74.3808 82.123 74.2192 81.545 74.0508C80.7263 73.8121 80.5736 73.8703 80.8555 74.313C81.152 74.7791 81.0923 74.7858 80.5245 74.3507C80.1434 74.0588 79.5398 73.926 79.1826 74.0554C78.8255 74.1852 78.278 74.0001 77.966 73.6441C77.5009 73.1139 77.508 72.9903 78.0059 72.9614C78.3396 72.9418 79.5092 72.8538 80.6046 72.7659C81.6999 72.6779 83.1511 72.8136 83.8291 73.0674C85.0103 73.5101 85.0275 73.5557 84.2344 74.1647C83.5573 74.6849 83.494 74.9768 83.8866 75.7755C84.2287 76.4703 84.6075 76.6789 85.2063 76.5009C85.9427 76.2823 86.0122 76.4121 85.7706 77.5559C85.6188 78.2733 85.6706 78.8601 85.8848 78.8601C86.0994 78.8601 86.1675 79.2496 86.0361 79.7254C85.9042 80.2012 86.0512 81.0401 86.3618 81.5896C86.7504 82.2768 86.8212 83.215 86.5875 84.5984C85.9883 88.1537 86.0463 88.7024 87.0217 88.7024C87.5085 88.7024 87.9068 88.467 87.9068 88.1789C87.9068 87.8911 88.0564 87.6553 88.2387 87.6553C88.4211 87.6553 88.9548 87.3253 89.4239 86.9224C89.8935 86.5191 90.5405 85.9771 90.8622 85.7175C92.0881 84.7282 92.786 83.6506 92.6444 82.9654C92.4408 81.9786 93.3317 80.5354 94.1442 80.5354C94.5474 80.5354 94.6899 80.3377 94.4978 80.0441C94.3213 79.7736 94.1106 74.4529 94.0296 68.22C93.9442 61.6437 93.6818 56.3129 93.4052 55.5184L92.9276 54.1497H65.0544C46.4549 54.1497 37.2731 54.29 37.4568 54.5715ZM51.3957 55.1968C51.3957 55.5423 51.1965 55.825 50.9531 55.825C50.7097 55.825 50.5105 55.5423 50.5105 55.1968C50.5105 54.8512 50.7097 54.5685 50.9531 54.5685C51.1965 54.5685 51.3957 54.8512 51.3957 55.1968ZM54.051 55.2215C54.051 55.5804 54.2502 55.758 54.4936 55.6156C54.737 55.4732 54.9361 55.6834 54.9361 56.0826C54.9361 56.7028 55.0977 56.6651 56.0425 55.825C56.9272 55.0384 57.1489 54.9769 57.1489 55.518C57.1489 55.8899 56.9467 56.3129 56.6993 56.4574C56.4519 56.6023 56.3554 56.8829 56.4851 57.0814C56.6148 57.28 56.4962 57.574 56.2218 57.7344C55.9469 57.8948 55.5486 57.7666 55.3362 57.4492C55.0304 56.9927 54.9481 57.0253 54.9428 57.605C54.9392 58.0083 55.1353 58.3379 55.3787 58.3379C55.6221 58.3379 55.8213 58.5465 55.8213 58.8015C55.8213 59.0566 55.5327 59.1605 55.18 59.0323C54.7777 58.8861 54.6201 59.0009 54.7573 59.3393C54.8777 59.6362 54.6361 60.1447 54.2205 60.4697C53.6355 60.9266 53.4226 60.9421 53.2783 60.5367C53.0163 59.8004 51.9851 59.8846 51.6674 60.6678C51.5213 61.028 51.2014 61.2056 50.9562 61.0619C50.711 60.9187 50.5105 61.0012 50.5105 61.2449C50.5105 61.4887 50.2769 61.6885 49.991 61.6885C49.7051 61.6885 49.9042 61.2521 50.4335 60.7193C50.9628 60.1862 51.3957 59.5186 51.3957 59.2359C51.3957 58.4736 53.3341 54.5869 53.7191 54.5769C53.9019 54.5723 54.051 54.8625 54.051 55.2215ZM43.0547 57.8437C42.6113 59.0361 42.1316 59.9018 41.9891 59.7669C41.8466 59.6321 41.3704 60.0563 40.9305 60.7097C40.0909 61.9569 39.4629 62.5089 38.8708 62.5198C38.6761 62.5232 39.0244 61.8958 39.6453 61.1256C40.2662 60.3549 40.7742 59.5487 40.7742 59.333C40.7742 59.1177 41.1721 58.6704 41.6585 58.3387C42.2099 57.9622 42.4484 57.455 42.2922 56.9897C42.1254 56.4909 42.2723 56.2438 42.7361 56.2438C43.1176 56.2438 43.4296 56.0239 43.4296 55.755C43.4296 55.4866 43.527 55.3584 43.6456 55.4711C43.7646 55.5837 43.4986 56.6513 43.0547 57.8437ZM59.8043 56.2438C59.8043 56.4742 59.5932 56.6626 59.3356 56.6626C59.078 56.6626 58.9887 56.849 59.1374 57.0768C59.2922 57.3139 59.1148 57.3843 58.7209 57.2414C57.7282 56.8808 57.8761 55.825 58.9192 55.825C59.406 55.825 59.8043 56.0135 59.8043 56.2438ZM44.3059 58.9762C43.9978 59.3272 43.6549 59.5282 43.5433 59.4231C43.2366 59.1324 43.8602 58.3379 44.3948 58.3379C44.6887 58.3379 44.655 58.5783 44.3059 58.9762ZM57.1489 62.5261C56.7838 62.7493 56.1864 62.9319 55.8213 62.9319C55.2313 62.9319 55.2313 62.8871 55.8213 62.5261C56.1864 62.3029 56.7838 62.1203 57.1489 62.1203C57.7389 62.1203 57.7389 62.1651 57.1489 62.5261ZM54.9361 63.3638C54.9361 63.5941 54.737 63.7826 54.4936 63.7826C54.2502 63.7826 54.051 63.5941 54.051 63.3638C54.051 63.1334 54.2502 62.9449 54.4936 62.9449C54.737 62.9449 54.9361 63.1334 54.9361 63.3638ZM82.8174 64.2014C82.8174 64.4317 82.6063 64.6202 82.3487 64.6202C82.0911 64.6202 82.0031 64.4317 82.1535 64.2014C82.304 63.971 82.5147 63.7826 82.6222 63.7826C82.7297 63.7826 82.8174 63.971 82.8174 64.2014ZM55.3787 65.2769C55.7438 65.5684 56.5404 65.8913 57.1489 65.9944C57.8017 66.1054 57.6313 66.1506 56.7334 66.1045C55.8965 66.0614 54.5024 66.3675 53.6355 66.7843L52.0595 67.5419L53.9404 67.2839C55.2287 67.1072 55.8213 67.1792 55.8213 67.5117C55.8213 67.779 56.2696 68.168 56.817 68.3766C57.6074 68.6773 57.3361 68.7607 55.5031 68.782C53.8461 68.8009 53.2535 68.9563 53.4049 69.3319C53.5571 69.7085 52.8796 69.8814 50.9898 69.9476C48.9204 70.0201 48.1446 69.8643 47.3347 69.2126L46.3062 68.385L47.552 68.8063C49.1523 69.347 49.6254 69.3374 49.6254 68.7636C49.6254 68.5085 49.3413 68.403 48.9939 68.5295C48.6465 68.6555 48.1597 68.5274 47.9118 68.2447C47.5786 67.8648 47.7423 67.709 48.5394 67.6462C50.2034 67.5159 52.9446 66.1523 52.9446 65.4545C52.9446 64.1583 53.8895 64.0896 55.3787 65.2769ZM83.4693 65.5102C83.2975 66.2494 83.3374 66.7185 83.5604 66.5883C83.7777 66.4609 83.9981 67.2864 84.0503 68.4218C84.1428 70.4339 84.1141 70.485 82.928 70.4087C80.4311 70.2483 79.2127 70.4644 79.557 71.0072C79.8031 71.3951 79.7239 71.4202 79.2512 71.104C78.9003 70.8694 77.9532 70.6872 77.1464 70.699C75.8515 70.7182 75.774 70.6613 76.4826 70.2098C79.0379 68.5831 80.6099 67.2068 81.0728 66.1908C81.3786 65.519 81.9438 65.039 82.4284 65.039C82.886 65.039 83.2599 64.8506 83.2599 64.6202C83.2599 64.3899 83.3754 64.2014 83.5162 64.2014C83.6574 64.2014 83.6361 64.7903 83.4693 65.5102ZM52.0595 65.039C51.909 65.2694 51.4873 65.4579 51.1222 65.4579C50.757 65.4579 50.5814 65.2694 50.7318 65.039C50.8823 64.8087 51.3041 64.6202 51.6692 64.6202C52.0343 64.6202 52.21 64.8087 52.0595 65.039ZM46.2452 66.0861C46.1049 66.4316 45.6132 66.7143 45.1525 66.7143C43.981 66.7143 44.1027 65.9734 45.3105 65.7535C45.8584 65.6534 46.3496 65.5462 46.4031 65.5148C46.4563 65.4834 46.385 65.7406 46.2452 66.0861ZM62.0171 67.9708C62.0171 68.2011 61.806 68.3896 61.5484 68.3896C61.2908 68.3896 61.2028 68.2011 61.3532 67.9708C61.5037 67.7404 61.7144 67.552 61.8219 67.552C61.9295 67.552 62.0171 67.7404 62.0171 67.9708ZM57.3702 73.8343C57.2197 74.0646 56.7104 74.2531 56.2377 74.2531C55.1601 74.2531 55.1424 74.7586 56.1881 75.654C57.2264 76.5436 58.3195 76.5382 58.8501 75.6415C59.2414 74.9797 59.3383 74.9797 60.4053 75.6415C61.4873 76.3124 61.5661 76.3074 62.0016 75.5372C62.6358 74.4156 62.5853 74.2531 61.6006 74.2531C61.128 74.2531 60.6186 74.0646 60.4681 73.8343C60.3177 73.6039 59.6206 73.4154 58.9192 73.4154C58.2177 73.4154 57.5207 73.6039 57.3702 73.8343ZM41.4841 76.6525C41.0345 77.0784 40.6632 76.4372 41.0322 75.8722C41.3111 75.445 41.4155 75.445 41.5651 75.8706C41.6678 76.1616 41.631 76.5135 41.4841 76.6525ZM40.0785 86.7553C39.4581 86.8755 39.4315 86.9706 39.9356 87.2725C40.287 87.4832 40.3379 87.6453 40.0537 87.6491C39.7794 87.6524 39.3072 87.3726 39.004 87.0271C38.5632 86.5245 38.5659 86.3989 39.0186 86.3989C39.416 86.3989 39.3669 86.1719 38.8513 85.6329C37.5728 84.296 38.0627 84.097 39.4793 85.3782C40.6056 86.3968 40.7087 86.6334 40.0785 86.7553ZM41.6594 88.7225C41.6594 89.2171 40.8225 89.2163 40.622 88.7212C40.4582 88.3179 40.5901 88.1944 41.0181 88.3497C41.3708 88.4779 41.6594 88.6454 41.6594 88.7225ZM65.115 88.9118C65.115 89.1422 65.3142 89.3306 65.5576 89.3306C65.801 89.3306 66.0001 89.1422 66.0001 88.9118C66.0001 88.6814 65.801 88.493 65.5576 88.493C65.3142 88.493 65.115 88.6814 65.115 88.9118ZM71.5321 89.3306C70.7523 90.1461 70.759 90.1683 71.7954 90.162C72.3809 90.1582 73.1585 89.9697 73.5236 89.7432C74.1136 89.3763 74.1136 89.285 73.5236 88.9181C72.6027 88.346 72.442 88.3791 71.5321 89.3306ZM62.0171 96.041L59.583 96.314L61.5745 96.42C62.6699 96.4786 65.0597 96.6307 66.8852 96.7588C72.2645 97.1353 75.058 97.106 75.2939 96.6709C75.4156 96.4464 74.9177 96.2294 74.1875 96.1892C68.2625 95.8605 64.0794 95.8098 62.0171 96.041ZM80.6356 106.815C80.3302 107.449 80.0987 108.015 80.1213 108.073C80.1434 108.13 79.7637 108.554 79.2769 109.015C78.1537 110.078 78.1493 110.69 79.2645 110.69C79.943 110.69 80.297 110.171 80.8546 108.356C81.6362 105.81 81.5185 104.981 80.6356 106.815Z"/>
</mask>
<path fill-rule="evenodd" clip-rule="evenodd" d="M37.4568 54.5715C37.6086 54.8035 37.4134 55.1092 37.024 55.2508C36.4292 55.4665 36.3287 56.2061 36.4004 59.8528L36.4858 64.1976L37.4342 62.0005C38.7062 59.0541 39.4151 57.9157 39.4333 58.7915C39.4404 59.1563 39.3102 59.5839 39.1434 59.7418C38.5269 60.3248 37.5701 63.2214 37.2546 65.4579C37.0758 66.7248 36.7801 68.1383 36.5974 68.599C36.3663 69.1812 36.3942 69.2662 36.6881 68.8779C37.0293 68.4269 37.1652 68.4545 37.3949 69.0203C37.5511 69.4061 37.5506 69.9187 37.3931 70.16C36.8806 70.9448 36.4686 76.1269 36.8979 76.3941C37.1506 76.5512 37.1448 77.2137 36.8828 78.1113C36.6483 78.915 36.423 81.5707 36.3818 84.0129C36.3146 87.9833 36.4026 88.5441 37.213 89.3109C37.7113 89.7825 38.1189 90.3337 38.1189 90.536C38.1189 90.7379 38.4158 91.1366 38.7783 91.4214C39.2116 91.7615 39.3452 92.3189 39.1686 93.043C38.9035 94.1278 38.9124 94.1324 39.6621 93.3094C40.391 92.509 40.3932 92.5224 39.7143 93.6089C38.8721 94.9571 38.8146 95.3545 39.5218 94.9407C39.8732 94.7351 39.9458 94.8691 39.7479 95.3566C39.5877 95.752 39.6364 95.9702 39.8564 95.8416C40.0763 95.713 40.3312 95.8211 40.4228 96.0816C40.5149 96.3421 41.1792 96.5553 41.8992 96.5553C43.1623 96.5549 45.4096 98.2067 44.8573 98.7294C44.7197 98.8596 45.1388 98.9241 45.7889 98.8734C47.1524 98.7666 47.2135 98.53 46.3076 96.8719C45.9433 96.2051 45.2702 94.1357 44.8121 92.2733C43.9885 88.9265 43.989 88.8821 44.8449 88.4486C45.414 88.1604 45.6114 87.7697 45.4202 87.309C44.7427 85.6768 44.3222 81.8392 44.59 79.7308C44.8015 78.0631 45.2105 77.1187 46.1314 76.1709C46.8205 75.4618 48.0459 74.158 48.8549 73.2743C50.5725 71.3963 52.221 71.1735 56.2638 72.2716C57.961 72.7323 59.2338 72.8304 60.4681 72.5941C61.4418 72.4078 61.9777 72.2335 61.6591 72.2071C61.3404 72.1808 61.201 71.9734 61.3493 71.7464C61.5143 71.4931 61.1293 71.4265 60.3504 71.5739C58.6058 71.9043 55.103 70.9959 55.7522 70.3815C56.451 69.7202 62.9637 69.8932 68.0133 70.7073C70.3642 71.0864 72.6699 71.3017 73.1373 71.1861C73.6312 71.0638 73.9609 71.1798 73.9241 71.4625C73.7719 72.6419 74.0374 72.9966 75.0726 72.9966C76.63 72.9966 76.4246 73.503 74.5243 74.3473C73.3015 74.8909 72.8173 74.9458 72.5712 74.5689C72.3911 74.2933 72.0858 74.2179 71.8919 74.4013C71.6981 74.5848 71.8906 74.9207 72.3194 75.1477C72.7487 75.3751 72.9841 75.7378 72.843 75.9539C72.4168 76.6069 73.3811 76.3987 75.0177 75.4848L76.5622 74.6221L77.0499 75.4848C77.6275 76.5055 79.5048 76.6429 79.8903 75.6926C80.3488 74.5613 81.0573 75.4945 80.8635 76.9742C80.725 78.0317 80.8276 78.3341 81.2711 78.1728C81.5972 78.0547 81.9805 77.6698 82.123 77.3184C82.2682 76.9608 82.6731 76.7849 83.0422 76.9189C83.8477 77.2112 83.887 76.6487 83.1493 75.399C82.8453 74.8838 82.5961 74.4386 82.5961 74.4097C82.5961 74.3808 82.123 74.2192 81.545 74.0508C80.7263 73.8121 80.5736 73.8703 80.8555 74.313C81.152 74.7791 81.0923 74.7858 80.5245 74.3507C80.1434 74.0588 79.5398 73.926 79.1826 74.0554C78.8255 74.1852 78.278 74.0001 77.966 73.6441C77.5009 73.1139 77.508 72.9903 78.0059 72.9614C78.3396 72.9418 79.5092 72.8538 80.6046 72.7659C81.6999 72.6779 83.1511 72.8136 83.8291 73.0674C85.0103 73.5101 85.0275 73.5557 84.2344 74.1647C83.5573 74.6849 83.494 74.9768 83.8866 75.7755C84.2287 76.4703 84.6075 76.6789 85.2063 76.5009C85.9427 76.2823 86.0122 76.4121 85.7706 77.5559C85.6188 78.2733 85.6706 78.8601 85.8848 78.8601C86.0994 78.8601 86.1675 79.2496 86.0361 79.7254C85.9042 80.2012 86.0512 81.0401 86.3618 81.5896C86.7504 82.2768 86.8212 83.215 86.5875 84.5984C85.9883 88.1537 86.0463 88.7024 87.0217 88.7024C87.5085 88.7024 87.9068 88.467 87.9068 88.1789C87.9068 87.8911 88.0564 87.6553 88.2387 87.6553C88.4211 87.6553 88.9548 87.3253 89.4239 86.9224C89.8935 86.5191 90.5405 85.9771 90.8622 85.7175C92.0881 84.7282 92.786 83.6506 92.6444 82.9654C92.4408 81.9786 93.3317 80.5354 94.1442 80.5354C94.5474 80.5354 94.6899 80.3377 94.4978 80.0441C94.3213 79.7736 94.1106 74.4529 94.0296 68.22C93.9442 61.6437 93.6818 56.3129 93.4052 55.5184L92.9276 54.1497H65.0544C46.4549 54.1497 37.2731 54.29 37.4568 54.5715ZM51.3957 55.1968C51.3957 55.5423 51.1965 55.825 50.9531 55.825C50.7097 55.825 50.5105 55.5423 50.5105 55.1968C50.5105 54.8512 50.7097 54.5685 50.9531 54.5685C51.1965 54.5685 51.3957 54.8512 51.3957 55.1968ZM54.051 55.2215C54.051 55.5804 54.2502 55.758 54.4936 55.6156C54.737 55.4732 54.9361 55.6834 54.9361 56.0826C54.9361 56.7028 55.0977 56.6651 56.0425 55.825C56.9272 55.0384 57.1489 54.9769 57.1489 55.518C57.1489 55.8899 56.9467 56.3129 56.6993 56.4574C56.4519 56.6023 56.3554 56.8829 56.4851 57.0814C56.6148 57.28 56.4962 57.574 56.2218 57.7344C55.9469 57.8948 55.5486 57.7666 55.3362 57.4492C55.0304 56.9927 54.9481 57.0253 54.9428 57.605C54.9392 58.0083 55.1353 58.3379 55.3787 58.3379C55.6221 58.3379 55.8213 58.5465 55.8213 58.8015C55.8213 59.0566 55.5327 59.1605 55.18 59.0323C54.7777 58.8861 54.6201 59.0009 54.7573 59.3393C54.8777 59.6362 54.6361 60.1447 54.2205 60.4697C53.6355 60.9266 53.4226 60.9421 53.2783 60.5367C53.0163 59.8004 51.9851 59.8846 51.6674 60.6678C51.5213 61.028 51.2014 61.2056 50.9562 61.0619C50.711 60.9187 50.5105 61.0012 50.5105 61.2449C50.5105 61.4887 50.2769 61.6885 49.991 61.6885C49.7051 61.6885 49.9042 61.2521 50.4335 60.7193C50.9628 60.1862 51.3957 59.5186 51.3957 59.2359C51.3957 58.4736 53.3341 54.5869 53.7191 54.5769C53.9019 54.5723 54.051 54.8625 54.051 55.2215ZM43.0547 57.8437C42.6113 59.0361 42.1316 59.9018 41.9891 59.7669C41.8466 59.6321 41.3704 60.0563 40.9305 60.7097C40.0909 61.9569 39.4629 62.5089 38.8708 62.5198C38.6761 62.5232 39.0244 61.8958 39.6453 61.1256C40.2662 60.3549 40.7742 59.5487 40.7742 59.333C40.7742 59.1177 41.1721 58.6704 41.6585 58.3387C42.2099 57.9622 42.4484 57.455 42.2922 56.9897C42.1254 56.4909 42.2723 56.2438 42.7361 56.2438C43.1176 56.2438 43.4296 56.0239 43.4296 55.755C43.4296 55.4866 43.527 55.3584 43.6456 55.4711C43.7646 55.5837 43.4986 56.6513 43.0547 57.8437ZM59.8043 56.2438C59.8043 56.4742 59.5932 56.6626 59.3356 56.6626C59.078 56.6626 58.9887 56.849 59.1374 57.0768C59.2922 57.3139 59.1148 57.3843 58.7209 57.2414C57.7282 56.8808 57.8761 55.825 58.9192 55.825C59.406 55.825 59.8043 56.0135 59.8043 56.2438ZM44.3059 58.9762C43.9978 59.3272 43.6549 59.5282 43.5433 59.4231C43.2366 59.1324 43.8602 58.3379 44.3948 58.3379C44.6887 58.3379 44.655 58.5783 44.3059 58.9762ZM57.1489 62.5261C56.7838 62.7493 56.1864 62.9319 55.8213 62.9319C55.2313 62.9319 55.2313 62.8871 55.8213 62.5261C56.1864 62.3029 56.7838 62.1203 57.1489 62.1203C57.7389 62.1203 57.7389 62.1651 57.1489 62.5261ZM54.9361 63.3638C54.9361 63.5941 54.737 63.7826 54.4936 63.7826C54.2502 63.7826 54.051 63.5941 54.051 63.3638C54.051 63.1334 54.2502 62.9449 54.4936 62.9449C54.737 62.9449 54.9361 63.1334 54.9361 63.3638ZM82.8174 64.2014C82.8174 64.4317 82.6063 64.6202 82.3487 64.6202C82.0911 64.6202 82.0031 64.4317 82.1535 64.2014C82.304 63.971 82.5147 63.7826 82.6222 63.7826C82.7297 63.7826 82.8174 63.971 82.8174 64.2014ZM55.3787 65.2769C55.7438 65.5684 56.5404 65.8913 57.1489 65.9944C57.8017 66.1054 57.6313 66.1506 56.7334 66.1045C55.8965 66.0614 54.5024 66.3675 53.6355 66.7843L52.0595 67.5419L53.9404 67.2839C55.2287 67.1072 55.8213 67.1792 55.8213 67.5117C55.8213 67.779 56.2696 68.168 56.817 68.3766C57.6074 68.6773 57.3361 68.7607 55.5031 68.782C53.8461 68.8009 53.2535 68.9563 53.4049 69.3319C53.5571 69.7085 52.8796 69.8814 50.9898 69.9476C48.9204 70.0201 48.1446 69.8643 47.3347 69.2126L46.3062 68.385L47.552 68.8063C49.1523 69.347 49.6254 69.3374 49.6254 68.7636C49.6254 68.5085 49.3413 68.403 48.9939 68.5295C48.6465 68.6555 48.1597 68.5274 47.9118 68.2447C47.5786 67.8648 47.7423 67.709 48.5394 67.6462C50.2034 67.5159 52.9446 66.1523 52.9446 65.4545C52.9446 64.1583 53.8895 64.0896 55.3787 65.2769ZM83.4693 65.5102C83.2975 66.2494 83.3374 66.7185 83.5604 66.5883C83.7777 66.4609 83.9981 67.2864 84.0503 68.4218C84.1428 70.4339 84.1141 70.485 82.928 70.4087C80.4311 70.2483 79.2127 70.4644 79.557 71.0072C79.8031 71.3951 79.7239 71.4202 79.2512 71.104C78.9003 70.8694 77.9532 70.6872 77.1464 70.699C75.8515 70.7182 75.774 70.6613 76.4826 70.2098C79.0379 68.5831 80.6099 67.2068 81.0728 66.1908C81.3786 65.519 81.9438 65.039 82.4284 65.039C82.886 65.039 83.2599 64.8506 83.2599 64.6202C83.2599 64.3899 83.3754 64.2014 83.5162 64.2014C83.6574 64.2014 83.6361 64.7903 83.4693 65.5102ZM52.0595 65.039C51.909 65.2694 51.4873 65.4579 51.1222 65.4579C50.757 65.4579 50.5814 65.2694 50.7318 65.039C50.8823 64.8087 51.3041 64.6202 51.6692 64.6202C52.0343 64.6202 52.21 64.8087 52.0595 65.039ZM46.2452 66.0861C46.1049 66.4316 45.6132 66.7143 45.1525 66.7143C43.981 66.7143 44.1027 65.9734 45.3105 65.7535C45.8584 65.6534 46.3496 65.5462 46.4031 65.5148C46.4563 65.4834 46.385 65.7406 46.2452 66.0861ZM62.0171 67.9708C62.0171 68.2011 61.806 68.3896 61.5484 68.3896C61.2908 68.3896 61.2028 68.2011 61.3532 67.9708C61.5037 67.7404 61.7144 67.552 61.8219 67.552C61.9295 67.552 62.0171 67.7404 62.0171 67.9708ZM57.3702 73.8343C57.2197 74.0646 56.7104 74.2531 56.2377 74.2531C55.1601 74.2531 55.1424 74.7586 56.1881 75.654C57.2264 76.5436 58.3195 76.5382 58.8501 75.6415C59.2414 74.9797 59.3383 74.9797 60.4053 75.6415C61.4873 76.3124 61.5661 76.3074 62.0016 75.5372C62.6358 74.4156 62.5853 74.2531 61.6006 74.2531C61.128 74.2531 60.6186 74.0646 60.4681 73.8343C60.3177 73.6039 59.6206 73.4154 58.9192 73.4154C58.2177 73.4154 57.5207 73.6039 57.3702 73.8343ZM41.4841 76.6525C41.0345 77.0784 40.6632 76.4372 41.0322 75.8722C41.3111 75.445 41.4155 75.445 41.5651 75.8706C41.6678 76.1616 41.631 76.5135 41.4841 76.6525ZM40.0785 86.7553C39.4581 86.8755 39.4315 86.9706 39.9356 87.2725C40.287 87.4832 40.3379 87.6453 40.0537 87.6491C39.7794 87.6524 39.3072 87.3726 39.004 87.0271C38.5632 86.5245 38.5659 86.3989 39.0186 86.3989C39.416 86.3989 39.3669 86.1719 38.8513 85.6329C37.5728 84.296 38.0627 84.097 39.4793 85.3782C40.6056 86.3968 40.7087 86.6334 40.0785 86.7553ZM41.6594 88.7225C41.6594 89.2171 40.8225 89.2163 40.622 88.7212C40.4582 88.3179 40.5901 88.1944 41.0181 88.3497C41.3708 88.4779 41.6594 88.6454 41.6594 88.7225ZM65.115 88.9118C65.115 89.1422 65.3142 89.3306 65.5576 89.3306C65.801 89.3306 66.0001 89.1422 66.0001 88.9118C66.0001 88.6814 65.801 88.493 65.5576 88.493C65.3142 88.493 65.115 88.6814 65.115 88.9118ZM71.5321 89.3306C70.7523 90.1461 70.759 90.1683 71.7954 90.162C72.3809 90.1582 73.1585 89.9697 73.5236 89.7432C74.1136 89.3763 74.1136 89.285 73.5236 88.9181C72.6027 88.346 72.442 88.3791 71.5321 89.3306ZM62.0171 96.041L59.583 96.314L61.5745 96.42C62.6699 96.4786 65.0597 96.6307 66.8852 96.7588C72.2645 97.1353 75.058 97.106 75.2939 96.6709C75.4156 96.4464 74.9177 96.2294 74.1875 96.1892C68.2625 95.8605 64.0794 95.8098 62.0171 96.041ZM80.6356 106.815C80.3302 107.449 80.0987 108.015 80.1213 108.073C80.1434 108.13 79.7637 108.554 79.2769 109.015C78.1537 110.078 78.1493 110.69 79.2645 110.69C79.943 110.69 80.297 110.171 80.8546 108.356C81.6362 105.81 81.5185 104.981 80.6356 106.815Z" fill="#E82D34" stroke="#E82D34" stroke-width="2" mask="url(#path-8-inside-2_284_47)"/>
<path d="M48.2706 191.245H17.2432V166.174V141.103H48.2706H79.2981V166.174V191.245H48.2706Z" fill="white" stroke="white"/>
<mask id="path-10-inside-3_284_47" fill="white">
<path fill-rule="evenodd" clip-rule="evenodd" d="M16.7439 141.009C16.7439 141.233 17.0441 141.415 17.4111 141.415C18.0241 141.415 19.1412 142.482 19.1717 143.096C19.179 143.239 18.6815 143.49 18.066 143.654C17.4505 143.817 17.1759 144.035 17.4558 144.138C18.1189 144.381 18.1189 145.505 17.4558 145.373C17.0547 145.293 16.9225 150.185 16.8289 168.508L16.7109 191.745H48.2547H79.7988V166.174V140.603H48.2714C27.5243 140.603 16.7439 140.742 16.7439 141.009ZM23.8069 142.024C23.6779 142.359 23.1804 142.612 22.7008 142.586C22.0132 142.548 21.9795 142.499 22.5409 142.353C22.9326 142.251 23.2528 141.998 23.2528 141.791C23.2528 141.584 23.4302 141.415 23.647 141.415C23.8634 141.415 23.9354 141.689 23.8069 142.024ZM62.4774 143.952C65.2726 146.747 70.1169 153.813 71.5216 157.143C72.4446 159.333 72.3047 159.96 71.2441 158.387C70.915 157.899 70.1881 157.057 69.6287 156.517L68.6117 155.534L68.4856 156.563C68.4164 157.13 68.8342 159.113 69.4139 160.971C70.6986 165.088 71.6656 169.875 71.6538 172.06C71.6489 172.953 71.2868 174.47 70.8495 175.432C70.4122 176.393 69.8569 177.911 69.6161 178.804C68.7764 181.916 65.2673 184.831 61.6362 185.434C59.5781 185.776 55.257 185.016 53.4537 183.995C52.5969 183.51 51.7134 183.326 50.9595 183.477C50.2253 183.623 49.4226 183.468 48.7957 183.059C48.2478 182.7 47.6957 182.511 47.5692 182.637C47.4423 182.763 46.5091 182.08 45.4949 181.116C44.4812 180.154 43.2266 179.039 42.7071 178.641C42.1876 178.242 40.9387 177.285 39.9318 176.514C38.925 175.743 37.8848 175.11 37.6204 175.108C36.8222 175.102 35.5749 172.984 35.2597 171.1C34.9786 169.423 35.1087 168.856 36.3182 166.485C36.5159 166.097 36.6774 165.057 36.6774 164.175C36.6774 163.292 36.8617 162.456 37.0866 162.317C37.312 162.178 38.2961 160.843 39.274 159.35C40.2752 157.822 41.8739 156.049 42.9329 155.292C45.0478 153.78 45.2163 153.34 43.8982 152.771C43.395 152.554 42.6517 152.147 42.247 151.868C41.6355 151.446 41.4228 151.478 40.9867 152.063C40.6979 152.451 40.3195 152.633 40.1462 152.469C39.9725 152.306 39.9408 152.537 40.0754 152.983C40.2101 153.43 40.1483 154.068 39.9388 154.402C39.6117 154.922 39.4697 154.893 38.9437 154.199C38.3961 153.475 38.329 153.465 38.3176 154.099C38.3103 154.49 38.1216 154.81 37.8978 154.81C37.6741 154.81 37.491 155.078 37.491 155.406C37.491 155.788 37.2551 155.912 36.834 155.75C36.297 155.545 36.2332 155.676 36.4858 156.47C36.7441 157.283 36.6998 157.363 36.214 156.96C35.5046 156.373 34.9802 156.701 34.3549 158.123C34.0934 158.717 33.4888 159.327 33.0117 159.479C32.5036 159.64 32.2318 159.982 32.3559 160.305C32.493 160.662 32.3596 160.777 31.9784 160.631C31.6171 160.492 31.3889 160.653 31.3889 161.045C31.3889 161.476 31.1672 161.599 30.7079 161.424C30.1864 161.224 30.0904 161.326 30.2966 161.863C30.4524 162.268 30.4016 162.462 30.1758 162.323C29.961 162.191 29.6661 162.557 29.52 163.138C29.3594 163.777 29.0453 164.113 28.7243 163.99C28.1227 163.76 27.2021 164.707 27.0548 165.708C27.0007 166.075 26.611 166.655 26.1883 166.997C25.766 167.338 25.2954 168.115 25.1424 168.722C24.9496 169.49 24.6014 169.827 24.0033 169.827C23.1714 169.827 23.1491 169.693 23.3464 165.928C23.4773 163.426 23.7344 161.914 24.0627 161.712C24.3447 161.538 24.5749 160.915 24.5749 160.327C24.5749 159.373 24.6294 159.332 25.0826 159.951C25.5504 160.589 25.6127 160.574 25.873 159.756C26.028 159.268 26.3258 158.868 26.5345 158.868C26.7432 158.868 26.914 158.525 26.914 158.106C26.914 157.687 27.1886 157.117 27.5243 156.839C27.9457 156.49 28.1345 156.475 28.1345 156.789C28.1345 157.662 28.7451 157.238 28.7935 156.332C28.9432 153.525 29.0982 153.186 30.2332 153.186C30.8426 153.186 31.456 153.001 31.5964 152.774C31.7371 152.547 32.0239 152.467 32.2343 152.597C32.8424 152.972 34.1723 152.397 34.44 151.643C34.5746 151.264 35.2422 150.514 35.9232 149.977C36.9398 149.176 37.2266 149.104 37.5236 149.572C37.792 149.994 37.8905 149.88 37.9043 149.127C37.923 148.146 37.9434 148.138 38.5227 148.902C39.2159 149.817 39.7956 149.428 39.999 147.909C40.0938 147.205 40.3533 146.931 40.8472 147.014C41.2385 147.079 41.5591 146.93 41.5591 146.682C41.5591 146.416 41.8922 146.337 42.3727 146.489C42.8751 146.648 43.1863 146.562 43.1863 146.264C43.1863 145.9 43.3372 145.906 43.7965 146.286C44.1988 146.619 44.4067 146.641 44.4067 146.348C44.4067 146.105 44.6772 146.009 45.0076 146.135C45.39 146.282 45.7797 145.99 46.0795 145.333C46.8976 143.542 49.1879 143.044 53.6489 143.686C54.9296 143.871 55.5312 143.768 56.0174 143.283C56.3758 142.926 56.5572 142.633 56.4205 142.633C56.2838 142.633 56.4079 142.366 56.6967 142.039C56.9852 141.713 57.8329 141.439 58.5811 141.431C59.7165 141.418 60.3592 141.834 62.4774 143.952ZM51.8537 146.57C51.5868 146.666 51.4689 147.006 51.5921 147.327C51.7182 147.654 51.5742 147.916 51.2642 147.924C50.2017 147.952 53.164 149.935 54.2718 149.937C54.8873 149.938 55.3905 150.096 55.3905 150.288C55.3905 150.481 55.8489 150.551 56.4091 150.444C57.0165 150.328 58.2894 150.666 59.5619 151.281C60.7355 151.849 62.6113 152.63 63.73 153.018C64.8487 153.405 65.9935 154.002 66.2742 154.345C67.0931 155.347 67.72 154.388 67.1883 152.948L66.7518 151.765L67.7688 152.983C68.3281 153.653 68.7923 154.049 68.8004 153.863C68.8187 153.443 66.0203 149.207 65.5208 148.899C64.9411 148.542 65.092 149.26 65.8267 150.356C66.1969 150.908 66.2518 151.131 65.9487 150.852C65.2035 150.166 63.9786 150.146 64.6657 150.832C64.9342 151.1 65.1538 151.504 65.1538 151.73C65.1538 151.956 64.2385 151.241 63.1198 150.142C62.0011 149.042 61.0858 148.393 61.0858 148.698C61.0858 149.141 60.9426 149.128 60.3739 148.629C59.6542 147.999 58.6779 147.617 56.9485 147.29C56.427 147.192 55.543 147.014 54.9837 146.895C52.9614 146.464 52.3309 146.399 51.8537 146.57ZM48.8816 148.753C48.8816 149.149 50.5255 151.157 50.8436 151.15C50.9949 151.147 51.3887 150.974 51.7186 150.766C52.2251 150.446 52.171 150.231 51.3696 149.38C50.5222 148.481 48.8816 148.067 48.8816 148.753ZM46.8622 149.564C46.8541 149.915 47.3052 150.632 47.8646 151.157C49.17 152.38 49.1781 151.726 47.8772 150.142C47.1998 149.317 46.872 149.131 46.8622 149.564ZM45.8566 150.426C46.1377 151.311 46.1295 151.312 45.0348 150.597C44.4271 150.199 43.877 149.934 43.8132 150.008C43.491 150.379 45.2716 153.592 45.7996 153.592C46.9106 153.592 47.3512 152.115 46.6462 150.754C45.907 149.328 45.4465 149.137 45.8566 150.426ZM51.9326 152.955C50.9555 153.741 50.8131 154.04 51.2179 154.452C51.6251 154.866 51.9627 154.738 52.9468 153.797C54.9853 151.849 54.1591 151.163 51.9326 152.955ZM56.1235 154.142C55.0724 154.844 54.0322 155.784 53.8117 156.23C53.4146 157.035 53.4114 157.035 53.3841 156.21C53.3687 155.752 53.5855 155.122 53.865 154.809C54.2929 154.33 54.2677 154.319 53.7055 154.741C52.2377 155.842 52.7434 158.016 54.3267 157.41C54.8197 157.221 54.9275 157.324 54.7412 157.809C54.3922 158.716 54.6851 158.629 55.9694 157.441C56.5767 156.88 57.239 156.522 57.4408 156.646C58.0616 157.029 60.2652 155.67 60.0268 155.05C59.9077 154.74 60.0053 154.365 60.2445 154.218C60.4833 154.07 60.679 153.687 60.679 153.365C60.679 152.343 58.1787 152.77 56.1235 154.142ZM41.7625 160.201C40.3232 161.262 38.7423 162.978 38.7244 163.498C38.7171 163.7 39.032 163.584 39.4233 163.24C40.5482 162.254 43.2839 160.992 44.9925 160.673C46.5441 160.382 46.549 160.375 45.5836 159.841C44.194 159.073 43.159 159.17 41.7625 160.201ZM23.5306 160.568C23.4009 160.892 23.3045 160.796 23.2849 160.323C23.2674 159.895 23.3634 159.655 23.4985 159.79C23.6336 159.925 23.6482 160.275 23.5306 160.568ZM72.8046 160.705C72.6793 160.83 72.4519 160.605 72.299 160.205C72.0785 159.627 72.1249 159.58 72.5268 159.978C72.805 160.253 72.9299 160.581 72.8046 160.705ZM43.5931 162.699C43.5931 163.174 42.5822 163.81 41.0469 164.3C40.6535 164.425 40.108 165.036 39.835 165.656C39.5616 166.276 39.1736 166.9 38.9726 167.042C38.3636 167.474 39.1565 168.289 39.9774 168.074C40.3993 167.964 40.8618 168.063 41.0054 168.295C41.3284 168.817 45.0145 164.956 44.8754 164.241C44.8204 163.959 45.047 163.624 45.379 163.497C45.7109 163.37 45.9005 163.053 45.8 162.792C45.5539 162.153 43.5931 162.07 43.5931 162.699ZM55.1163 165.979C54.5582 166.614 53.7986 166.986 53.0587 166.986C52.0897 166.986 51.7662 167.257 51.1971 168.543C50.8188 169.4 50.5088 170.224 50.5088 170.375C50.5088 170.814 53.8792 170.192 54.882 169.567C55.3852 169.253 55.7973 168.67 55.7973 168.271C55.7973 167.474 57.2109 165.769 57.8712 165.769C58.0994 165.769 58.173 165.586 58.0347 165.363C57.5779 164.625 56.0149 164.955 55.1163 165.979ZM62.713 168.61C62.713 168.833 62.5523 169.016 62.3558 169.016C61.5418 169.016 59.0383 170.411 55.5939 172.784C52.634 174.824 51.9326 175.501 51.9326 176.322C51.9326 178.461 54.5329 177.656 60.1953 173.765C63.0096 171.831 64.3402 170.248 64.3402 168.833C64.3402 168.475 63.9904 168.204 63.5266 168.204C63.0791 168.204 62.713 168.387 62.713 168.61ZM62.5096 170.639C62.6479 170.862 62.5669 171.045 62.3302 171.045C62.0934 171.045 61.8994 170.862 61.8994 170.639C61.8994 170.416 61.9799 170.233 62.0788 170.233C62.1776 170.233 62.3713 170.416 62.5096 170.639ZM61.4926 171.062C61.4926 171.829 60.107 172.948 57.3944 174.371C54.9772 175.64 54.7595 175.691 55.1338 174.9C55.5731 173.971 58.0787 171.977 59.8291 171.165C61.1521 170.55 61.4926 170.53 61.4926 171.062ZM36.7295 177.438C37.2351 178.082 37.2209 178.096 36.5757 177.591C35.898 177.061 35.6828 176.728 36.0176 176.728C36.1018 176.728 36.4223 177.047 36.7295 177.438ZM30.3975 186.138L31.5923 187.432L30.2926 186.443C29.5778 185.899 28.9831 185.317 28.9704 185.15C28.933 184.64 29.1543 184.793 30.3975 186.138ZM31.1855 185.657C31.5903 186.104 31.8303 186.469 31.7184 186.469C31.6066 186.469 31.1835 186.104 30.7787 185.657C30.3739 185.211 30.1339 184.845 30.2458 184.845C30.3577 184.845 30.7807 185.211 31.1855 185.657ZM34.2366 185.644C34.2366 185.86 33.962 185.932 33.6263 185.804C33.2907 185.675 33.0161 185.498 33.0161 185.411C33.0161 185.323 33.2907 185.251 33.6263 185.251C33.962 185.251 34.2366 185.428 34.2366 185.644ZM28.5099 188.6C28.5535 187.896 29.3549 187.958 29.3549 188.666C29.3549 189.611 27.9713 189.108 27.676 188.055C27.1797 186.286 27.3945 185.825 27.9424 187.484C28.2374 188.377 28.4929 188.879 28.5099 188.6ZM27.3208 189.12C27.3208 189.462 27.5942 189.846 27.9286 189.974C29.1039 190.424 28.0641 190.934 25.9747 190.932L23.863 190.931L25.1851 190.126C25.9125 189.684 26.5072 189.137 26.5072 188.91C26.5072 188.684 26.6903 188.498 26.914 188.498C27.1378 188.498 27.3208 188.778 27.3208 189.12Z"/>
</mask>
<path fill-rule="evenodd" clip-rule="evenodd" d="M16.7439 141.009C16.7439 141.233 17.0441 141.415 17.4111 141.415C18.0241 141.415 19.1412 142.482 19.1717 143.096C19.179 143.239 18.6815 143.49 18.066 143.654C17.4505 143.817 17.1759 144.035 17.4558 144.138C18.1189 144.381 18.1189 145.505 17.4558 145.373C17.0547 145.293 16.9225 150.185 16.8289 168.508L16.7109 191.745H48.2547H79.7988V166.174V140.603H48.2714C27.5243 140.603 16.7439 140.742 16.7439 141.009ZM23.8069 142.024C23.6779 142.359 23.1804 142.612 22.7008 142.586C22.0132 142.548 21.9795 142.499 22.5409 142.353C22.9326 142.251 23.2528 141.998 23.2528 141.791C23.2528 141.584 23.4302 141.415 23.647 141.415C23.8634 141.415 23.9354 141.689 23.8069 142.024ZM62.4774 143.952C65.2726 146.747 70.1169 153.813 71.5216 157.143C72.4446 159.333 72.3047 159.96 71.2441 158.387C70.915 157.899 70.1881 157.057 69.6287 156.517L68.6117 155.534L68.4856 156.563C68.4164 157.13 68.8342 159.113 69.4139 160.971C70.6986 165.088 71.6656 169.875 71.6538 172.06C71.6489 172.953 71.2868 174.47 70.8495 175.432C70.4122 176.393 69.8569 177.911 69.6161 178.804C68.7764 181.916 65.2673 184.831 61.6362 185.434C59.5781 185.776 55.257 185.016 53.4537 183.995C52.5969 183.51 51.7134 183.326 50.9595 183.477C50.2253 183.623 49.4226 183.468 48.7957 183.059C48.2478 182.7 47.6957 182.511 47.5692 182.637C47.4423 182.763 46.5091 182.08 45.4949 181.116C44.4812 180.154 43.2266 179.039 42.7071 178.641C42.1876 178.242 40.9387 177.285 39.9318 176.514C38.925 175.743 37.8848 175.11 37.6204 175.108C36.8222 175.102 35.5749 172.984 35.2597 171.1C34.9786 169.423 35.1087 168.856 36.3182 166.485C36.5159 166.097 36.6774 165.057 36.6774 164.175C36.6774 163.292 36.8617 162.456 37.0866 162.317C37.312 162.178 38.2961 160.843 39.274 159.35C40.2752 157.822 41.8739 156.049 42.9329 155.292C45.0478 153.78 45.2163 153.34 43.8982 152.771C43.395 152.554 42.6517 152.147 42.247 151.868C41.6355 151.446 41.4228 151.478 40.9867 152.063C40.6979 152.451 40.3195 152.633 40.1462 152.469C39.9725 152.306 39.9408 152.537 40.0754 152.983C40.2101 153.43 40.1483 154.068 39.9388 154.402C39.6117 154.922 39.4697 154.893 38.9437 154.199C38.3961 153.475 38.329 153.465 38.3176 154.099C38.3103 154.49 38.1216 154.81 37.8978 154.81C37.6741 154.81 37.491 155.078 37.491 155.406C37.491 155.788 37.2551 155.912 36.834 155.75C36.297 155.545 36.2332 155.676 36.4858 156.47C36.7441 157.283 36.6998 157.363 36.214 156.96C35.5046 156.373 34.9802 156.701 34.3549 158.123C34.0934 158.717 33.4888 159.327 33.0117 159.479C32.5036 159.64 32.2318 159.982 32.3559 160.305C32.493 160.662 32.3596 160.777 31.9784 160.631C31.6171 160.492 31.3889 160.653 31.3889 161.045C31.3889 161.476 31.1672 161.599 30.7079 161.424C30.1864 161.224 30.0904 161.326 30.2966 161.863C30.4524 162.268 30.4016 162.462 30.1758 162.323C29.961 162.191 29.6661 162.557 29.52 163.138C29.3594 163.777 29.0453 164.113 28.7243 163.99C28.1227 163.76 27.2021 164.707 27.0548 165.708C27.0007 166.075 26.611 166.655 26.1883 166.997C25.766 167.338 25.2954 168.115 25.1424 168.722C24.9496 169.49 24.6014 169.827 24.0033 169.827C23.1714 169.827 23.1491 169.693 23.3464 165.928C23.4773 163.426 23.7344 161.914 24.0627 161.712C24.3447 161.538 24.5749 160.915 24.5749 160.327C24.5749 159.373 24.6294 159.332 25.0826 159.951C25.5504 160.589 25.6127 160.574 25.873 159.756C26.028 159.268 26.3258 158.868 26.5345 158.868C26.7432 158.868 26.914 158.525 26.914 158.106C26.914 157.687 27.1886 157.117 27.5243 156.839C27.9457 156.49 28.1345 156.475 28.1345 156.789C28.1345 157.662 28.7451 157.238 28.7935 156.332C28.9432 153.525 29.0982 153.186 30.2332 153.186C30.8426 153.186 31.456 153.001 31.5964 152.774C31.7371 152.547 32.0239 152.467 32.2343 152.597C32.8424 152.972 34.1723 152.397 34.44 151.643C34.5746 151.264 35.2422 150.514 35.9232 149.977C36.9398 149.176 37.2266 149.104 37.5236 149.572C37.792 149.994 37.8905 149.88 37.9043 149.127C37.923 148.146 37.9434 148.138 38.5227 148.902C39.2159 149.817 39.7956 149.428 39.999 147.909C40.0938 147.205 40.3533 146.931 40.8472 147.014C41.2385 147.079 41.5591 146.93 41.5591 146.682C41.5591 146.416 41.8922 146.337 42.3727 146.489C42.8751 146.648 43.1863 146.562 43.1863 146.264C43.1863 145.9 43.3372 145.906 43.7965 146.286C44.1988 146.619 44.4067 146.641 44.4067 146.348C44.4067 146.105 44.6772 146.009 45.0076 146.135C45.39 146.282 45.7797 145.99 46.0795 145.333C46.8976 143.542 49.1879 143.044 53.6489 143.686C54.9296 143.871 55.5312 143.768 56.0174 143.283C56.3758 142.926 56.5572 142.633 56.4205 142.633C56.2838 142.633 56.4079 142.366 56.6967 142.039C56.9852 141.713 57.8329 141.439 58.5811 141.431C59.7165 141.418 60.3592 141.834 62.4774 143.952ZM51.8537 146.57C51.5868 146.666 51.4689 147.006 51.5921 147.327C51.7182 147.654 51.5742 147.916 51.2642 147.924C50.2017 147.952 53.164 149.935 54.2718 149.937C54.8873 149.938 55.3905 150.096 55.3905 150.288C55.3905 150.481 55.8489 150.551 56.4091 150.444C57.0165 150.328 58.2894 150.666 59.5619 151.281C60.7355 151.849 62.6113 152.63 63.73 153.018C64.8487 153.405 65.9935 154.002 66.2742 154.345C67.0931 155.347 67.72 154.388 67.1883 152.948L66.7518 151.765L67.7688 152.983C68.3281 153.653 68.7923 154.049 68.8004 153.863C68.8187 153.443 66.0203 149.207 65.5208 148.899C64.9411 148.542 65.092 149.26 65.8267 150.356C66.1969 150.908 66.2518 151.131 65.9487 150.852C65.2035 150.166 63.9786 150.146 64.6657 150.832C64.9342 151.1 65.1538 151.504 65.1538 151.73C65.1538 151.956 64.2385 151.241 63.1198 150.142C62.0011 149.042 61.0858 148.393 61.0858 148.698C61.0858 149.141 60.9426 149.128 60.3739 148.629C59.6542 147.999 58.6779 147.617 56.9485 147.29C56.427 147.192 55.543 147.014 54.9837 146.895C52.9614 146.464 52.3309 146.399 51.8537 146.57ZM48.8816 148.753C48.8816 149.149 50.5255 151.157 50.8436 151.15C50.9949 151.147 51.3887 150.974 51.7186 150.766C52.2251 150.446 52.171 150.231 51.3696 149.38C50.5222 148.481 48.8816 148.067 48.8816 148.753ZM46.8622 149.564C46.8541 149.915 47.3052 150.632 47.8646 151.157C49.17 152.38 49.1781 151.726 47.8772 150.142C47.1998 149.317 46.872 149.131 46.8622 149.564ZM45.8566 150.426C46.1377 151.311 46.1295 151.312 45.0348 150.597C44.4271 150.199 43.877 149.934 43.8132 150.008C43.491 150.379 45.2716 153.592 45.7996 153.592C46.9106 153.592 47.3512 152.115 46.6462 150.754C45.907 149.328 45.4465 149.137 45.8566 150.426ZM51.9326 152.955C50.9555 153.741 50.8131 154.04 51.2179 154.452C51.6251 154.866 51.9627 154.738 52.9468 153.797C54.9853 151.849 54.1591 151.163 51.9326 152.955ZM56.1235 154.142C55.0724 154.844 54.0322 155.784 53.8117 156.23C53.4146 157.035 53.4114 157.035 53.3841 156.21C53.3687 155.752 53.5855 155.122 53.865 154.809C54.2929 154.33 54.2677 154.319 53.7055 154.741C52.2377 155.842 52.7434 158.016 54.3267 157.41C54.8197 157.221 54.9275 157.324 54.7412 157.809C54.3922 158.716 54.6851 158.629 55.9694 157.441C56.5767 156.88 57.239 156.522 57.4408 156.646C58.0616 157.029 60.2652 155.67 60.0268 155.05C59.9077 154.74 60.0053 154.365 60.2445 154.218C60.4833 154.07 60.679 153.687 60.679 153.365C60.679 152.343 58.1787 152.77 56.1235 154.142ZM41.7625 160.201C40.3232 161.262 38.7423 162.978 38.7244 163.498C38.7171 163.7 39.032 163.584 39.4233 163.24C40.5482 162.254 43.2839 160.992 44.9925 160.673C46.5441 160.382 46.549 160.375 45.5836 159.841C44.194 159.073 43.159 159.17 41.7625 160.201ZM23.5306 160.568C23.4009 160.892 23.3045 160.796 23.2849 160.323C23.2674 159.895 23.3634 159.655 23.4985 159.79C23.6336 159.925 23.6482 160.275 23.5306 160.568ZM72.8046 160.705C72.6793 160.83 72.4519 160.605 72.299 160.205C72.0785 159.627 72.1249 159.58 72.5268 159.978C72.805 160.253 72.9299 160.581 72.8046 160.705ZM43.5931 162.699C43.5931 163.174 42.5822 163.81 41.0469 164.3C40.6535 164.425 40.108 165.036 39.835 165.656C39.5616 166.276 39.1736 166.9 38.9726 167.042C38.3636 167.474 39.1565 168.289 39.9774 168.074C40.3993 167.964 40.8618 168.063 41.0054 168.295C41.3284 168.817 45.0145 164.956 44.8754 164.241C44.8204 163.959 45.047 163.624 45.379 163.497C45.7109 163.37 45.9005 163.053 45.8 162.792C45.5539 162.153 43.5931 162.07 43.5931 162.699ZM55.1163 165.979C54.5582 166.614 53.7986 166.986 53.0587 166.986C52.0897 166.986 51.7662 167.257 51.1971 168.543C50.8188 169.4 50.5088 170.224 50.5088 170.375C50.5088 170.814 53.8792 170.192 54.882 169.567C55.3852 169.253 55.7973 168.67 55.7973 168.271C55.7973 167.474 57.2109 165.769 57.8712 165.769C58.0994 165.769 58.173 165.586 58.0347 165.363C57.5779 164.625 56.0149 164.955 55.1163 165.979ZM62.713 168.61C62.713 168.833 62.5523 169.016 62.3558 169.016C61.5418 169.016 59.0383 170.411 55.5939 172.784C52.634 174.824 51.9326 175.501 51.9326 176.322C51.9326 178.461 54.5329 177.656 60.1953 173.765C63.0096 171.831 64.3402 170.248 64.3402 168.833C64.3402 168.475 63.9904 168.204 63.5266 168.204C63.0791 168.204 62.713 168.387 62.713 168.61ZM62.5096 170.639C62.6479 170.862 62.5669 171.045 62.3302 171.045C62.0934 171.045 61.8994 170.862 61.8994 170.639C61.8994 170.416 61.9799 170.233 62.0788 170.233C62.1776 170.233 62.3713 170.416 62.5096 170.639ZM61.4926 171.062C61.4926 171.829 60.107 172.948 57.3944 174.371C54.9772 175.64 54.7595 175.691 55.1338 174.9C55.5731 173.971 58.0787 171.977 59.8291 171.165C61.1521 170.55 61.4926 170.53 61.4926 171.062ZM36.7295 177.438C37.2351 178.082 37.2209 178.096 36.5757 177.591C35.898 177.061 35.6828 176.728 36.0176 176.728C36.1018 176.728 36.4223 177.047 36.7295 177.438ZM30.3975 186.138L31.5923 187.432L30.2926 186.443C29.5778 185.899 28.9831 185.317 28.9704 185.15C28.933 184.64 29.1543 184.793 30.3975 186.138ZM31.1855 185.657C31.5903 186.104 31.8303 186.469 31.7184 186.469C31.6066 186.469 31.1835 186.104 30.7787 185.657C30.3739 185.211 30.1339 184.845 30.2458 184.845C30.3577 184.845 30.7807 185.211 31.1855 185.657ZM34.2366 185.644C34.2366 185.86 33.962 185.932 33.6263 185.804C33.2907 185.675 33.0161 185.498 33.0161 185.411C33.0161 185.323 33.2907 185.251 33.6263 185.251C33.962 185.251 34.2366 185.428 34.2366 185.644ZM28.5099 188.6C28.5535 187.896 29.3549 187.958 29.3549 188.666C29.3549 189.611 27.9713 189.108 27.676 188.055C27.1797 186.286 27.3945 185.825 27.9424 187.484C28.2374 188.377 28.4929 188.879 28.5099 188.6ZM27.3208 189.12C27.3208 189.462 27.5942 189.846 27.9286 189.974C29.1039 190.424 28.0641 190.934 25.9747 190.932L23.863 190.931L25.1851 190.126C25.9125 189.684 26.5072 189.137 26.5072 188.91C26.5072 188.684 26.6903 188.498 26.914 188.498C27.1378 188.498 27.3208 188.778 27.3208 189.12Z" fill="#E82D34" stroke="white" stroke-width="2" mask="url(#path-10-inside-3_284_47)"/>
</svg>
