<svg width="310" height="211" viewBox="0 0 310 211" fill="none" xmlns="http://www.w3.org/2000/svg">
<circle cx="207.853" cy="105.49" r="101.957" transform="rotate(179.893 207.853 105.49)" fill="black"/>
<path fill-rule="evenodd" clip-rule="evenodd" d="M217.466 202.469C243.056 199.669 266.209 187.362 282.481 167.907C293.916 154.236 301.008 138.746 304.136 120.61C304.853 116.45 304.957 114.427 304.939 104.968C304.922 95.5087 304.81 93.4866 304.077 89.3292C300.452 68.7662 291.834 51.7527 277.583 37.0236C262.937 21.8862 244.523 12.2855 223.024 8.5777C218.863 7.86043 216.841 7.75632 207.382 7.77399C195.435 7.7963 191.854 8.2086 182.512 10.636C148.905 19.3679 121.563 46.8121 112.957 80.4512C110.564 89.8022 110.165 93.3854 110.188 105.332C110.21 117.278 110.622 120.86 113.05 130.202C121.781 163.804 149.226 191.15 182.855 199.754C191.489 201.963 195.59 202.454 206.221 202.549C211.567 202.597 216.627 202.561 217.466 202.469ZM200.687 198.16C182.697 196.733 166.048 190.444 151.408 179.545C146.589 175.958 136.984 166.389 133.378 161.583C122.147 146.613 115.914 129.967 114.497 111.157C113.501 97.9398 115.926 83.0431 121.168 70.1733C126.048 58.1931 132.15 49.0681 141.675 39.5074C151.2 29.9468 160.303 23.8108 172.265 18.8859C199.633 7.61883 230.656 10.0913 256.03 25.5613C262.456 29.4794 267.125 33.203 273.206 39.2618C282.767 48.7868 288.903 57.889 293.828 69.8509C299.117 82.701 301.598 97.5886 300.652 110.809C299.305 129.624 293.134 146.294 281.959 161.306C278.371 166.125 268.802 175.73 263.997 179.335C245.444 193.254 222.994 199.93 200.687 198.16ZM217.965 163.448C239.784 159.554 257.495 143.894 264.179 122.587C267.509 111.971 267.484 98.1052 264.113 87.5016C261.161 78.212 256.703 70.8008 249.838 63.7717C242.778 56.5437 234.665 51.5663 225 48.5344C218.027 46.3468 207.138 45.2895 205.766 46.6667C204.984 47.4522 205.01 48.4646 205.839 49.4359C206.405 50.0985 207.213 50.2762 211.083 50.5872C213.599 50.7899 217.031 51.2341 218.709 51.5744C239.576 55.8102 256.796 72.9665 261.095 93.8046C264.909 112.289 259.289 130.861 245.894 144.038C236.237 153.538 225.214 158.526 211.287 159.699C207.418 160.024 206.61 160.205 206.047 160.87C205.222 161.844 205.199 162.857 205.984 163.639C206.82 164.472 212.76 164.377 217.965 163.448ZM216.414 147.852C225.372 145.943 232.7 141.832 239.108 135.12C247.143 126.704 251.042 116.868 251.02 105.069C250.998 93.2696 247.062 83.4478 238.996 75.0621C230.368 66.0922 219.944 61.6704 207.482 61.6937C195.02 61.7169 184.613 66.1777 176.019 75.1797C167.984 83.5955 164.085 93.4319 164.107 105.231C164.131 117.693 168.591 128.101 177.593 136.695C183.9 142.715 191.104 146.424 199.585 148.017C203.954 148.837 212.166 148.756 216.414 147.852ZM203.634 144.027C198.811 143.492 195.088 142.413 190.666 140.271C182.539 136.334 176.493 130.309 172.511 122.179C170.281 117.626 169.255 114.091 168.685 109.004C167.901 101.996 169.162 95.0307 172.444 88.2522C176.376 80.1284 182.403 74.0806 190.535 70.0975C197.291 66.7887 204.256 65.4987 211.272 66.2575C216.361 66.808 219.9 67.8211 224.461 70.0342C232.608 73.9868 238.657 80.0121 242.62 88.1212C244.847 92.6788 245.873 96.2151 246.442 101.296C246.932 105.679 246.501 110.965 245.289 115.436C244.342 118.927 241.329 125.191 239.263 127.962C232.654 136.832 222.658 142.744 212.188 143.977C208.171 144.45 207.481 144.454 203.634 144.027ZM210.435 111.667C216.302 108.946 216.119 100.981 210.131 98.4924C208.339 97.7475 206.76 97.7505 204.971 98.5021C198.873 101.063 198.888 109.269 204.996 111.807C206.852 112.579 208.563 112.534 210.435 111.667ZM205.781 106.993C204.671 105.954 204.648 104.514 205.721 103.367C206.759 102.258 208.2 102.234 209.346 103.307C210.456 104.345 210.479 105.786 209.406 106.933C208.368 108.042 206.927 108.066 205.781 106.993Z" fill="white"/>
<rect x="1" y="1" width="206.065" height="208.154" fill="#E82D34" stroke="#242121" stroke-width="2"/>
<path d="M78.6406 141.125L36.1132 111.22L95.2914 55.5644L178.972 119.09L190.878 112.377L206.221 124.61V208.585L40.8614 209L16.0854 191.79L78.6406 141.125Z" fill="white"/>
<path d="M151.48 169.988H112.581V141.43V112.873H151.48H190.38V141.43V169.988H151.48Z" fill="white" stroke="white" stroke-width="0.992556"/>
<mask id="path-6-inside-1_284_47" fill="white">
<path fill-rule="evenodd" clip-rule="evenodd" d="M112.085 141.476V170.484H114.976H117.867L118.147 167.76C118.586 163.491 119.303 160.381 119.784 160.665C120.057 160.827 120.114 160.543 119.942 159.884C119.792 159.314 119.812 158.788 119.986 158.714C120.159 158.641 120.732 157.282 121.259 155.696C121.787 154.109 122.478 152.604 122.797 152.351C123.145 152.074 122.95 152.9 122.308 154.425C121.72 155.818 120.839 158.867 120.351 161.199C119.862 163.532 119.326 165.537 119.159 165.657C118.991 165.776 118.727 166.911 118.572 168.179L118.289 170.484H123.824H129.36L129.363 165.742C129.367 159.871 129.983 154.534 130.982 151.699L131.743 149.54L130.058 149.42C129.131 149.354 128.295 149.075 128.201 148.802C128.076 148.435 128.637 148.349 130.339 148.474C132.231 148.613 132.781 148.503 133.386 147.862C134.244 146.954 135.668 146.727 134.892 147.621C134.208 148.412 134.734 148.693 136.909 148.7C137.971 148.703 139.124 148.882 139.472 149.097C140.252 149.58 140.056 149.603 135.999 149.508C132.776 149.432 132.732 149.445 132.28 150.576C131.117 153.485 130.676 156.66 130.511 163.321L130.333 170.484H135.301H140.268L140.396 165.242C140.493 161.326 140.392 159.951 139.999 159.807C139.654 159.681 139.486 158.808 139.514 157.281C139.543 155.664 139.646 155.256 139.848 155.953C140.086 156.773 140.214 156.847 140.544 156.357C140.765 156.026 140.976 155.211 141.012 154.545C141.049 153.879 141.096 153.062 141.119 152.729C141.163 152.063 143.685 151.683 143.685 152.342C143.685 152.555 143.23 152.729 142.673 152.729C141.757 152.729 141.646 152.923 141.514 154.762C141.374 156.719 141.415 156.807 142.632 157.146C143.843 157.484 143.852 157.502 142.843 157.583C142.263 157.629 141.6 157.632 141.368 157.59C141.136 157.548 141.184 157.744 141.473 158.027C141.792 158.337 142.017 159.743 142.042 161.586C142.073 163.829 142.179 164.366 142.444 163.624C142.681 162.959 142.775 163.96 142.718 166.564L142.632 170.512L150.451 170.466L158.27 170.421V168.484C158.27 167.076 158.661 165.819 159.702 163.875C161.095 161.274 161.803 160.577 161.803 161.808C161.803 162.141 161.619 162.413 161.393 162.413C160.765 162.413 159.846 164.384 159.308 166.883C158.592 170.215 159.408 171.619 160.758 169.374L161.426 168.264L161.185 169.374L160.945 170.484H164.323C167.664 170.484 167.702 170.472 167.702 169.455C167.702 168.889 168.004 167.867 168.373 167.184C168.742 166.501 168.958 165.511 168.853 164.985C168.715 164.296 168.852 164.029 169.341 164.034C170.373 164.043 170.896 164.536 170.963 165.56C171.01 166.283 170.855 166.437 170.26 166.256C169.672 166.077 169.441 166.293 169.252 167.198C169.117 167.844 168.88 168.857 168.724 169.451L168.442 170.529L178.289 170.463C184.208 170.423 188.347 170.233 188.664 169.987C189.026 169.706 189.191 169.72 189.191 170.031C189.191 170.28 189.57 170.484 190.033 170.484C190.868 170.484 190.876 170.215 190.876 141.486V112.489L151.48 112.479L112.085 112.469V141.476ZM136.523 115.758C136.523 116.401 135.352 117.443 135.004 117.109C134.681 116.801 135.614 115.202 136.116 115.202C136.34 115.202 136.523 115.452 136.523 115.758ZM128.579 118.732C129.305 120.23 130.061 121.771 130.261 122.157C130.46 122.542 130.624 123.11 130.624 123.419C130.624 123.728 130.925 124.22 131.293 124.512C131.888 124.985 131.953 124.846 131.886 123.25C131.746 119.962 131.881 119.29 132.905 118.15C134.147 116.769 134.665 117.074 133.794 118.672C133.115 119.92 132.901 124.483 133.522 124.483C134.244 124.483 134.903 123.298 134.633 122.484C134.482 122.03 134.54 121.658 134.761 121.658C135.284 121.658 135.633 123.405 136.041 128.067L136.372 131.855L139.345 134.524C142.258 137.141 143.427 137.889 150.193 141.473C152.034 142.449 154.689 144.323 156.092 145.64C158.363 147.771 162.86 150.451 163.53 150.074C163.669 149.996 163.818 148.808 163.861 147.434C163.934 145.092 164.871 142.641 165.691 142.641C165.876 142.641 166.508 141.597 167.094 140.321C168.548 137.161 171.377 134.571 173.375 134.571C174.195 134.571 174.865 134.752 174.865 134.974C174.865 135.196 175.149 135.378 175.497 135.378C175.845 135.378 176.129 135.561 176.129 135.785C176.129 136.035 176.98 136.106 178.341 135.968C181.187 135.679 181.917 136.104 181.248 137.661C180.639 139.077 180.571 141.292 181.038 144.452C181.327 146.403 181.558 146.897 182.238 147.016C182.702 147.097 183.366 147.401 183.713 147.693C184.061 147.984 184.911 148.283 185.602 148.357C187.402 148.551 188.004 150.28 186.808 151.822C185.776 153.151 184.059 153.442 182.612 152.534C181.866 152.066 181.639 151.651 181.825 151.092C182.275 149.735 181.209 150.233 180.464 151.728C179.829 153.003 179.823 153.212 180.402 153.766C180.757 154.106 181.536 154.434 182.134 154.495C184.078 154.694 190.034 160.222 189.386 161.227C189.27 161.407 189.165 163.291 189.153 165.414C189.136 168.334 188.995 169.273 188.574 169.273C187.771 169.273 187.448 168.176 188.072 167.57C188.755 166.906 188.667 162.26 187.956 161.439C187.668 161.106 187.542 160.666 187.675 160.459C187.808 160.253 187.637 159.861 187.295 159.589C186.952 159.316 186.763 158.952 186.875 158.778C186.987 158.605 186.794 158.358 186.444 158.229C185.78 157.985 185.775 157.91 186.666 161.606C187.407 164.679 187.53 166.761 187.033 167.806C186.321 169.302 185.744 169.139 184.367 167.052C183.706 166.052 182.602 164.826 181.912 164.328C181.222 163.83 180.302 163.105 179.868 162.716C179.434 162.328 178.97 162.01 178.838 162.01C178.705 162.01 178.298 161.724 177.934 161.375C177.569 161.025 177.156 160.889 177.016 161.072C176.625 161.582 173.295 161.709 172.984 161.226C172.832 160.991 172.355 160.799 171.923 160.799C171.408 160.799 170.98 160.339 170.676 159.459C170.108 157.809 167.889 155.703 166.333 155.336C164.811 154.977 164.847 155.582 166.438 157.106C167.133 157.771 167.702 158.512 167.702 158.751C167.702 159.481 166.213 159.236 164.838 158.277C160.908 155.54 159.772 154.841 158.433 154.342C157.621 154.04 156.506 153.462 155.953 153.059C154.629 152.093 154.219 152.134 154.217 153.233C154.216 154.048 154.133 154.011 153.403 152.865C152.957 152.164 152.314 151.437 151.976 151.251C151.637 151.065 151.062 150.224 150.697 149.382C150.142 148.103 150.128 147.816 150.613 147.638C151.371 147.36 153.324 148.347 154.597 149.653C155.542 150.621 158.269 151.81 158.669 151.426C158.768 151.332 158.171 150.497 157.344 149.571C156.153 148.239 155.554 147.887 154.476 147.887C151.89 147.887 145.641 144.211 140.597 139.723C139.167 138.451 137.764 137.407 137.479 137.402C137.194 137.398 136.253 136.487 135.388 135.378C134.523 134.268 133.604 133.36 133.346 133.36C133.088 133.36 132.451 132.925 131.93 132.395C131.244 131.695 131.136 131.381 131.537 131.253C131.841 131.156 132.445 131.509 132.88 132.038C134.235 133.688 134.094 132.773 132.484 129.48C131.631 127.737 130.409 124.806 129.769 122.967C129.128 121.129 128.255 119.129 127.828 118.523C127.079 117.459 127.047 117.452 126.916 118.303C126.841 118.789 127.055 119.969 127.39 120.926C128.342 123.644 128.678 126.097 128.097 126.097C127.826 126.097 128.211 126.831 128.954 127.729C131.306 130.574 129.881 130.004 126.58 126.78C124.831 125.073 123.669 123.676 123.997 123.676C124.326 123.676 124.938 124.039 125.357 124.483C126.298 125.478 127.255 125.529 127.247 124.583C127.243 124.195 126.935 122.697 126.563 121.254C125.67 117.802 125.772 116.009 126.86 116.009C127.081 116.009 127.854 117.234 128.579 118.732ZM134.704 120.523C134.569 120.845 134.469 120.749 134.449 120.279C134.431 119.854 134.531 119.616 134.67 119.75C134.81 119.884 134.825 120.232 134.704 120.523ZM120.487 120.621C120.886 121.081 120.82 121.284 120.162 121.621C119.54 121.94 119.212 121.901 118.834 121.465C118.269 120.813 118.592 120.044 119.432 120.044C119.737 120.044 120.212 120.304 120.487 120.621ZM118.328 123.762C119.297 124.475 120.09 125.292 120.09 125.578C120.09 126.284 119.792 126.235 118.139 125.257C117.358 124.795 116.719 124.557 116.719 124.729C116.719 125.25 115.483 123.511 115.469 122.969C115.446 122.117 116.484 122.404 118.328 123.762ZM125.792 128.841C125.322 129.291 124.338 128.498 124.589 127.871C124.839 127.249 124.906 127.253 125.42 127.927C125.728 128.331 125.896 128.742 125.792 128.841ZM115.678 128.241C117.035 129.107 121.766 130.939 122.646 130.939C123.094 130.939 123.461 131.211 123.461 131.544C123.461 132.23 121.562 132.395 121.144 131.746C121 131.524 120.464 131.342 119.952 131.342C119.441 131.342 118.324 130.888 117.472 130.334C116.619 129.779 115.829 129.325 115.716 129.325C114.918 129.325 113.347 128.444 113.559 128.115C113.916 127.562 114.686 127.608 115.678 128.241ZM179.921 133.36C179.921 133.582 179.743 133.764 179.525 133.764C179.306 133.764 179.011 133.582 178.868 133.36C178.724 133.138 178.903 132.957 179.264 132.957C179.625 132.957 179.921 133.138 179.921 133.36ZM173.049 137.829C172.924 138.289 172.444 138.76 171.984 138.875C171.154 139.083 171.155 139.096 172.022 140.504C172.854 141.854 172.988 141.914 174.76 141.723C177.636 141.412 177.911 140.811 175.918 139.186C174.534 138.056 174.383 137.805 175.076 137.777L175.918 137.742L175.076 137.395C173.731 136.842 173.293 136.935 173.049 137.829ZM169.598 137.799C169.741 138.021 169.942 138.202 170.044 138.202C170.147 138.202 170.23 138.021 170.23 137.799C170.23 137.577 170.029 137.395 169.784 137.395C169.539 137.395 169.455 137.577 169.598 137.799ZM138.002 139.847C138.772 140.686 138.777 140.738 138.068 140.49C137.644 140.341 137.136 140.22 136.94 140.22C136.338 140.22 135.236 138.967 135.491 138.572C135.8 138.094 136.909 138.657 138.002 139.847ZM168.545 139.413C168.545 139.635 168.723 139.816 168.941 139.816C169.159 139.816 169.455 139.635 169.598 139.413C169.741 139.191 169.563 139.009 169.202 139.009C168.841 139.009 168.545 139.191 168.545 139.413ZM176.34 140.22C176.669 140.731 176.111 140.731 175.286 140.22C174.741 139.883 174.753 139.828 175.367 139.822C175.759 139.819 176.196 139.998 176.34 140.22ZM185.23 141.571C185.286 142.986 184.732 142.927 183.924 141.432C183.288 140.252 183.295 140.226 184.23 140.362C184.935 140.464 185.199 140.784 185.23 141.571ZM140.971 147.773C144.228 151.053 147.048 153.983 147.237 154.283C148.018 155.524 145.875 153.872 142.642 150.739C139.922 148.105 139.038 147.482 138.007 147.477C137.069 147.472 136.894 147.373 137.345 147.1C137.682 146.896 138.108 146.819 138.293 146.928C139.199 147.464 138.456 146.271 137.118 145.04C136.286 144.276 135.013 142.939 134.289 142.071C131.601 138.847 134.927 141.685 140.971 147.773ZM168.123 141.801C168.123 142.711 168.698 143.448 169.408 143.448C170.608 143.448 170.764 142.762 169.722 142.063C168.653 141.346 168.123 141.259 168.123 141.801ZM171.397 144.207C171.495 144.847 171.367 145.493 171.113 145.644C170.859 145.794 170.651 145.738 170.651 145.521C170.651 145.303 169.968 144.909 169.133 144.645C167.885 144.25 167.507 144.268 167.006 144.748C166.476 145.257 166.548 145.311 167.576 145.171C168.225 145.083 169.135 145.284 169.598 145.617C170.394 146.19 170.362 146.212 169.028 146.016C167.95 145.857 167.418 146.009 166.79 146.654C166.337 147.12 165.788 147.396 165.57 147.267C165.129 147.005 165.032 148.676 165.43 149.669C165.754 150.479 166.438 150.502 166.438 149.703C166.438 149.331 166.832 149.097 167.457 149.097C168.017 149.097 168.751 148.996 169.088 148.872C169.425 148.749 169.995 148.93 170.357 149.276C171.273 150.154 171.4 150.094 172.121 148.443C173.12 146.152 172.897 143.045 171.733 143.045C171.406 143.045 171.283 143.468 171.397 144.207ZM187.084 143.852C187.084 144.073 186.883 144.255 186.638 144.255C186.392 144.255 186.309 144.073 186.452 143.852C186.595 143.63 186.796 143.448 186.898 143.448C187 143.448 187.084 143.63 187.084 143.852ZM184.556 144.433C184.556 144.531 184.366 144.723 184.134 144.86C183.903 144.998 183.713 144.917 183.713 144.682C183.713 144.448 183.903 144.255 184.134 144.255C184.366 144.255 184.556 144.335 184.556 144.433ZM184.977 149.433C184.977 149.619 185.262 149.77 185.609 149.77C185.957 149.77 186.241 149.619 186.241 149.433C186.241 149.249 185.957 149.097 185.609 149.097C185.262 149.097 184.977 149.249 184.977 149.433ZM183.713 150.711C183.713 150.933 183.903 151.115 184.134 151.115C184.366 151.115 184.556 150.933 184.556 150.711C184.556 150.489 184.366 150.308 184.134 150.308C183.903 150.308 183.713 150.489 183.713 150.711ZM142.724 161.096C142.627 161.71 142.545 161.304 142.542 160.194C142.539 159.084 142.618 158.582 142.718 159.079C142.818 159.575 142.82 160.483 142.724 161.096ZM158.854 162.534C158.854 162.737 158.585 162.804 158.257 162.684C157.511 162.41 157.15 163.248 156.874 165.891C156.746 167.115 156.862 168.321 157.158 168.851C157.433 169.343 157.562 169.838 157.444 169.951C157.327 170.063 156.917 169.575 156.534 168.865C155.709 167.337 155.966 164.192 157.086 162.1C157.728 160.901 157.844 160.842 158.324 161.47C158.615 161.852 158.854 162.33 158.854 162.534ZM164.62 163.471C164.764 163.832 164.484 164.333 163.929 164.705C163.415 165.05 162.627 165.901 162.177 166.597L161.36 167.861L161.639 166.045C161.793 165.046 162.067 163.951 162.248 163.612C162.682 162.796 164.311 162.7 164.62 163.471ZM166.588 165.995C166.39 166.133 166.224 166.428 166.219 166.65C166.191 168.006 165.482 170.134 165.161 169.826C164.649 169.335 165.954 165.153 166.516 165.486C166.754 165.627 166.787 165.856 166.588 165.995Z"/>
</mask>
<path fill-rule="evenodd" clip-rule="evenodd" d="M112.085 141.476V170.484H114.976H117.867L118.147 167.76C118.586 163.491 119.303 160.381 119.784 160.665C120.057 160.827 120.114 160.543 119.942 159.884C119.792 159.314 119.812 158.788 119.986 158.714C120.159 158.641 120.732 157.282 121.259 155.696C121.787 154.109 122.478 152.604 122.797 152.351C123.145 152.074 122.95 152.9 122.308 154.425C121.72 155.818 120.839 158.867 120.351 161.199C119.862 163.532 119.326 165.537 119.159 165.657C118.991 165.776 118.727 166.911 118.572 168.179L118.289 170.484H123.824H129.36L129.363 165.742C129.367 159.871 129.983 154.534 130.982 151.699L131.743 149.54L130.058 149.42C129.131 149.354 128.295 149.075 128.201 148.802C128.076 148.435 128.637 148.349 130.339 148.474C132.231 148.613 132.781 148.503 133.386 147.862C134.244 146.954 135.668 146.727 134.892 147.621C134.208 148.412 134.734 148.693 136.909 148.7C137.971 148.703 139.124 148.882 139.472 149.097C140.252 149.58 140.056 149.603 135.999 149.508C132.776 149.432 132.732 149.445 132.28 150.576C131.117 153.485 130.676 156.66 130.511 163.321L130.333 170.484H135.301H140.268L140.396 165.242C140.493 161.326 140.392 159.951 139.999 159.807C139.654 159.681 139.486 158.808 139.514 157.281C139.543 155.664 139.646 155.256 139.848 155.953C140.086 156.773 140.214 156.847 140.544 156.357C140.765 156.026 140.976 155.211 141.012 154.545C141.049 153.879 141.096 153.062 141.119 152.729C141.163 152.063 143.685 151.683 143.685 152.342C143.685 152.555 143.23 152.729 142.673 152.729C141.757 152.729 141.646 152.923 141.514 154.762C141.374 156.719 141.415 156.807 142.632 157.146C143.843 157.484 143.852 157.502 142.843 157.583C142.263 157.629 141.6 157.632 141.368 157.59C141.136 157.548 141.184 157.744 141.473 158.027C141.792 158.337 142.017 159.743 142.042 161.586C142.073 163.829 142.179 164.366 142.444 163.624C142.681 162.959 142.775 163.96 142.718 166.564L142.632 170.512L150.451 170.466L158.27 170.421V168.484C158.27 167.076 158.661 165.819 159.702 163.875C161.095 161.274 161.803 160.577 161.803 161.808C161.803 162.141 161.619 162.413 161.393 162.413C160.765 162.413 159.846 164.384 159.308 166.883C158.592 170.215 159.408 171.619 160.758 169.374L161.426 168.264L161.185 169.374L160.945 170.484H164.323C167.664 170.484 167.702 170.472 167.702 169.455C167.702 168.889 168.004 167.867 168.373 167.184C168.742 166.501 168.958 165.511 168.853 164.985C168.715 164.296 168.852 164.029 169.341 164.034C170.373 164.043 170.896 164.536 170.963 165.56C171.01 166.283 170.855 166.437 170.26 166.256C169.672 166.077 169.441 166.293 169.252 167.198C169.117 167.844 168.88 168.857 168.724 169.451L168.442 170.529L178.289 170.463C184.208 170.423 188.347 170.233 188.664 169.987C189.026 169.706 189.191 169.72 189.191 170.031C189.191 170.28 189.57 170.484 190.033 170.484C190.868 170.484 190.876 170.215 190.876 141.486V112.489L151.48 112.479L112.085 112.469V141.476ZM136.523 115.758C136.523 116.401 135.352 117.443 135.004 117.109C134.681 116.801 135.614 115.202 136.116 115.202C136.34 115.202 136.523 115.452 136.523 115.758ZM128.579 118.732C129.305 120.23 130.061 121.771 130.261 122.157C130.46 122.542 130.624 123.11 130.624 123.419C130.624 123.728 130.925 124.22 131.293 124.512C131.888 124.985 131.953 124.846 131.886 123.25C131.746 119.962 131.881 119.29 132.905 118.15C134.147 116.769 134.665 117.074 133.794 118.672C133.115 119.92 132.901 124.483 133.522 124.483C134.244 124.483 134.903 123.298 134.633 122.484C134.482 122.03 134.54 121.658 134.761 121.658C135.284 121.658 135.633 123.405 136.041 128.067L136.372 131.855L139.345 134.524C142.258 137.141 143.427 137.889 150.193 141.473C152.034 142.449 154.689 144.323 156.092 145.64C158.363 147.771 162.86 150.451 163.53 150.074C163.669 149.996 163.818 148.808 163.861 147.434C163.934 145.092 164.871 142.641 165.691 142.641C165.876 142.641 166.508 141.597 167.094 140.321C168.548 137.161 171.377 134.571 173.375 134.571C174.195 134.571 174.865 134.752 174.865 134.974C174.865 135.196 175.149 135.378 175.497 135.378C175.845 135.378 176.129 135.561 176.129 135.785C176.129 136.035 176.98 136.106 178.341 135.968C181.187 135.679 181.917 136.104 181.248 137.661C180.639 139.077 180.571 141.292 181.038 144.452C181.327 146.403 181.558 146.897 182.238 147.016C182.702 147.097 183.366 147.401 183.713 147.693C184.061 147.984 184.911 148.283 185.602 148.357C187.402 148.551 188.004 150.28 186.808 151.822C185.776 153.151 184.059 153.442 182.612 152.534C181.866 152.066 181.639 151.651 181.825 151.092C182.275 149.735 181.209 150.233 180.464 151.728C179.829 153.003 179.823 153.212 180.402 153.766C180.757 154.106 181.536 154.434 182.134 154.495C184.078 154.694 190.034 160.222 189.386 161.227C189.27 161.407 189.165 163.291 189.153 165.414C189.136 168.334 188.995 169.273 188.574 169.273C187.771 169.273 187.448 168.176 188.072 167.57C188.755 166.906 188.667 162.26 187.956 161.439C187.668 161.106 187.542 160.666 187.675 160.459C187.808 160.253 187.637 159.861 187.295 159.589C186.952 159.316 186.763 158.952 186.875 158.778C186.987 158.605 186.794 158.358 186.444 158.229C185.78 157.985 185.775 157.91 186.666 161.606C187.407 164.679 187.53 166.761 187.033 167.806C186.321 169.302 185.744 169.139 184.367 167.052C183.706 166.052 182.602 164.826 181.912 164.328C181.222 163.83 180.302 163.105 179.868 162.716C179.434 162.328 178.97 162.01 178.838 162.01C178.705 162.01 178.298 161.724 177.934 161.375C177.569 161.025 177.156 160.889 177.016 161.072C176.625 161.582 173.295 161.709 172.984 161.226C172.832 160.991 172.355 160.799 171.923 160.799C171.408 160.799 170.98 160.339 170.676 159.459C170.108 157.809 167.889 155.703 166.333 155.336C164.811 154.977 164.847 155.582 166.438 157.106C167.133 157.771 167.702 158.512 167.702 158.751C167.702 159.481 166.213 159.236 164.838 158.277C160.908 155.54 159.772 154.841 158.433 154.342C157.621 154.04 156.506 153.462 155.953 153.059C154.629 152.093 154.219 152.134 154.217 153.233C154.216 154.048 154.133 154.011 153.403 152.865C152.957 152.164 152.314 151.437 151.976 151.251C151.637 151.065 151.062 150.224 150.697 149.382C150.142 148.103 150.128 147.816 150.613 147.638C151.371 147.36 153.324 148.347 154.597 149.653C155.542 150.621 158.269 151.81 158.669 151.426C158.768 151.332 158.171 150.497 157.344 149.571C156.153 148.239 155.554 147.887 154.476 147.887C151.89 147.887 145.641 144.211 140.597 139.723C139.167 138.451 137.764 137.407 137.479 137.402C137.194 137.398 136.253 136.487 135.388 135.378C134.523 134.268 133.604 133.36 133.346 133.36C133.088 133.36 132.451 132.925 131.93 132.395C131.244 131.695 131.136 131.381 131.537 131.253C131.841 131.156 132.445 131.509 132.88 132.038C134.235 133.688 134.094 132.773 132.484 129.48C131.631 127.737 130.409 124.806 129.769 122.967C129.128 121.129 128.255 119.129 127.828 118.523C127.079 117.459 127.047 117.452 126.916 118.303C126.841 118.789 127.055 119.969 127.39 120.926C128.342 123.644 128.678 126.097 128.097 126.097C127.826 126.097 128.211 126.831 128.954 127.729C131.306 130.574 129.881 130.004 126.58 126.78C124.831 125.073 123.669 123.676 123.997 123.676C124.326 123.676 124.938 124.039 125.357 124.483C126.298 125.478 127.255 125.529 127.247 124.583C127.243 124.195 126.935 122.697 126.563 121.254C125.67 117.802 125.772 116.009 126.86 116.009C127.081 116.009 127.854 117.234 128.579 118.732ZM134.704 120.523C134.569 120.845 134.469 120.749 134.449 120.279C134.431 119.854 134.531 119.616 134.67 119.75C134.81 119.884 134.825 120.232 134.704 120.523ZM120.487 120.621C120.886 121.081 120.82 121.284 120.162 121.621C119.54 121.94 119.212 121.901 118.834 121.465C118.269 120.813 118.592 120.044 119.432 120.044C119.737 120.044 120.212 120.304 120.487 120.621ZM118.328 123.762C119.297 124.475 120.09 125.292 120.09 125.578C120.09 126.284 119.792 126.235 118.139 125.257C117.358 124.795 116.719 124.557 116.719 124.729C116.719 125.25 115.483 123.511 115.469 122.969C115.446 122.117 116.484 122.404 118.328 123.762ZM125.792 128.841C125.322 129.291 124.338 128.498 124.589 127.871C124.839 127.249 124.906 127.253 125.42 127.927C125.728 128.331 125.896 128.742 125.792 128.841ZM115.678 128.241C117.035 129.107 121.766 130.939 122.646 130.939C123.094 130.939 123.461 131.211 123.461 131.544C123.461 132.23 121.562 132.395 121.144 131.746C121 131.524 120.464 131.342 119.952 131.342C119.441 131.342 118.324 130.888 117.472 130.334C116.619 129.779 115.829 129.325 115.716 129.325C114.918 129.325 113.347 128.444 113.559 128.115C113.916 127.562 114.686 127.608 115.678 128.241ZM179.921 133.36C179.921 133.582 179.743 133.764 179.525 133.764C179.306 133.764 179.011 133.582 178.868 133.36C178.724 133.138 178.903 132.957 179.264 132.957C179.625 132.957 179.921 133.138 179.921 133.36ZM173.049 137.829C172.924 138.289 172.444 138.76 171.984 138.875C171.154 139.083 171.155 139.096 172.022 140.504C172.854 141.854 172.988 141.914 174.76 141.723C177.636 141.412 177.911 140.811 175.918 139.186C174.534 138.056 174.383 137.805 175.076 137.777L175.918 137.742L175.076 137.395C173.731 136.842 173.293 136.935 173.049 137.829ZM169.598 137.799C169.741 138.021 169.942 138.202 170.044 138.202C170.147 138.202 170.23 138.021 170.23 137.799C170.23 137.577 170.029 137.395 169.784 137.395C169.539 137.395 169.455 137.577 169.598 137.799ZM138.002 139.847C138.772 140.686 138.777 140.738 138.068 140.49C137.644 140.341 137.136 140.22 136.94 140.22C136.338 140.22 135.236 138.967 135.491 138.572C135.8 138.094 136.909 138.657 138.002 139.847ZM168.545 139.413C168.545 139.635 168.723 139.816 168.941 139.816C169.159 139.816 169.455 139.635 169.598 139.413C169.741 139.191 169.563 139.009 169.202 139.009C168.841 139.009 168.545 139.191 168.545 139.413ZM176.34 140.22C176.669 140.731 176.111 140.731 175.286 140.22C174.741 139.883 174.753 139.828 175.367 139.822C175.759 139.819 176.196 139.998 176.34 140.22ZM185.23 141.571C185.286 142.986 184.732 142.927 183.924 141.432C183.288 140.252 183.295 140.226 184.23 140.362C184.935 140.464 185.199 140.784 185.23 141.571ZM140.971 147.773C144.228 151.053 147.048 153.983 147.237 154.283C148.018 155.524 145.875 153.872 142.642 150.739C139.922 148.105 139.038 147.482 138.007 147.477C137.069 147.472 136.894 147.373 137.345 147.1C137.682 146.896 138.108 146.819 138.293 146.928C139.199 147.464 138.456 146.271 137.118 145.04C136.286 144.276 135.013 142.939 134.289 142.071C131.601 138.847 134.927 141.685 140.971 147.773ZM168.123 141.801C168.123 142.711 168.698 143.448 169.408 143.448C170.608 143.448 170.764 142.762 169.722 142.063C168.653 141.346 168.123 141.259 168.123 141.801ZM171.397 144.207C171.495 144.847 171.367 145.493 171.113 145.644C170.859 145.794 170.651 145.738 170.651 145.521C170.651 145.303 169.968 144.909 169.133 144.645C167.885 144.25 167.507 144.268 167.006 144.748C166.476 145.257 166.548 145.311 167.576 145.171C168.225 145.083 169.135 145.284 169.598 145.617C170.394 146.19 170.362 146.212 169.028 146.016C167.95 145.857 167.418 146.009 166.79 146.654C166.337 147.12 165.788 147.396 165.57 147.267C165.129 147.005 165.032 148.676 165.43 149.669C165.754 150.479 166.438 150.502 166.438 149.703C166.438 149.331 166.832 149.097 167.457 149.097C168.017 149.097 168.751 148.996 169.088 148.872C169.425 148.749 169.995 148.93 170.357 149.276C171.273 150.154 171.4 150.094 172.121 148.443C173.12 146.152 172.897 143.045 171.733 143.045C171.406 143.045 171.283 143.468 171.397 144.207ZM187.084 143.852C187.084 144.073 186.883 144.255 186.638 144.255C186.392 144.255 186.309 144.073 186.452 143.852C186.595 143.63 186.796 143.448 186.898 143.448C187 143.448 187.084 143.63 187.084 143.852ZM184.556 144.433C184.556 144.531 184.366 144.723 184.134 144.86C183.903 144.998 183.713 144.917 183.713 144.682C183.713 144.448 183.903 144.255 184.134 144.255C184.366 144.255 184.556 144.335 184.556 144.433ZM184.977 149.433C184.977 149.619 185.262 149.77 185.609 149.77C185.957 149.77 186.241 149.619 186.241 149.433C186.241 149.249 185.957 149.097 185.609 149.097C185.262 149.097 184.977 149.249 184.977 149.433ZM183.713 150.711C183.713 150.933 183.903 151.115 184.134 151.115C184.366 151.115 184.556 150.933 184.556 150.711C184.556 150.489 184.366 150.308 184.134 150.308C183.903 150.308 183.713 150.489 183.713 150.711ZM142.724 161.096C142.627 161.71 142.545 161.304 142.542 160.194C142.539 159.084 142.618 158.582 142.718 159.079C142.818 159.575 142.82 160.483 142.724 161.096ZM158.854 162.534C158.854 162.737 158.585 162.804 158.257 162.684C157.511 162.41 157.15 163.248 156.874 165.891C156.746 167.115 156.862 168.321 157.158 168.851C157.433 169.343 157.562 169.838 157.444 169.951C157.327 170.063 156.917 169.575 156.534 168.865C155.709 167.337 155.966 164.192 157.086 162.1C157.728 160.901 157.844 160.842 158.324 161.47C158.615 161.852 158.854 162.33 158.854 162.534ZM164.62 163.471C164.764 163.832 164.484 164.333 163.929 164.705C163.415 165.05 162.627 165.901 162.177 166.597L161.36 167.861L161.639 166.045C161.793 165.046 162.067 163.951 162.248 163.612C162.682 162.796 164.311 162.7 164.62 163.471ZM166.588 165.995C166.39 166.133 166.224 166.428 166.219 166.65C166.191 168.006 165.482 170.134 165.161 169.826C164.649 169.335 165.954 165.153 166.516 165.486C166.754 165.627 166.787 165.856 166.588 165.995Z" fill="#E82D34" stroke="white" stroke-width="1.98511" mask="url(#path-6-inside-1_284_47)"/>
<path d="M65.8459 110.773H36.6918V83.2097V55.646H65.8459H95V83.2097V110.773H65.8459Z" fill="white" stroke="#E82D34" stroke-width="0.992556"/>
<mask id="path-8-inside-2_284_47" fill="white">
<path fill-rule="evenodd" clip-rule="evenodd" d="M37.2971 55.5683C37.4477 55.7986 37.254 56.1021 36.8675 56.2426C36.2771 56.4567 36.1774 57.1908 36.2485 60.8103L36.3333 65.1228L37.2747 62.9421C38.5371 60.0176 39.2408 58.8877 39.2588 59.757C39.2658 60.119 39.1367 60.5435 38.9711 60.7002C38.3592 61.2788 37.4095 64.1538 37.0963 66.3737C36.9189 67.6312 36.6254 69.0342 36.444 69.4915C36.2147 70.0693 36.2424 70.1537 36.5341 69.7683C36.8727 69.3206 37.0076 69.3481 37.2356 69.9097C37.3906 70.2925 37.3902 70.8013 37.2338 71.0408C36.7251 71.8198 36.3162 76.9633 36.7423 77.2285C36.9931 77.3844 36.9874 78.0421 36.7273 78.9329C36.4945 79.7306 36.2709 82.3666 36.2301 84.7906C36.1633 88.7314 36.2507 89.2881 37.055 90.0492C37.5496 90.5173 37.9542 91.0644 37.9542 91.2652C37.9542 91.4655 38.249 91.8613 38.6087 92.1439C39.0387 92.4815 39.1714 93.0348 38.9961 93.7535C38.733 94.8302 38.7418 94.8348 39.4859 94.0179C40.2094 93.2235 40.2116 93.2368 39.5378 94.3152C38.7018 95.6533 38.6447 96.0478 39.3467 95.6371C39.6955 95.433 39.7675 95.566 39.5711 96.0499C39.4121 96.4423 39.4604 96.6589 39.6788 96.5313C39.8971 96.4037 40.1501 96.5109 40.241 96.7695C40.3324 97.028 40.9917 97.2396 41.7064 97.2396C42.9601 97.2392 45.1907 98.8787 44.6425 99.3975C44.5058 99.5268 44.9218 99.5908 45.5671 99.5405C46.9205 99.4345 46.9811 99.1997 46.0819 97.5539C45.7204 96.8921 45.0523 94.8381 44.5976 92.9895C43.7802 89.6676 43.7806 89.6235 44.6302 89.1933C45.195 88.9073 45.391 88.5194 45.2012 88.0622C44.5287 86.4422 44.1114 82.6331 44.3771 80.5404C44.5871 78.8851 44.993 77.9477 45.9071 77.007C46.591 76.3032 47.8074 75.0091 48.6103 74.132C50.3151 72.2679 51.9514 72.0468 55.9641 73.1368C57.6487 73.594 58.912 73.6913 60.1371 73.4569C61.1035 73.2719 61.6354 73.0989 61.3192 73.0727C61.0029 73.0466 60.8645 72.8408 61.0117 72.6155C61.1755 72.364 60.7933 72.2979 60.0202 72.4442C58.2887 72.7722 54.8119 71.8705 55.4563 71.2607C56.1499 70.6043 62.6141 70.776 67.6261 71.5841C69.9595 71.9603 72.2481 72.174 72.7119 72.0593C73.2021 71.9379 73.5294 72.053 73.4929 72.3336C73.3418 73.5042 73.6054 73.8563 74.6328 73.8563C76.1786 73.8563 75.9748 74.3589 74.0886 75.197C72.8749 75.7366 72.3943 75.791 72.1501 75.4169C71.9713 75.1434 71.6682 75.0685 71.4758 75.2506C71.2834 75.4327 71.4745 75.7661 71.9002 75.9914C72.3263 76.2171 72.5599 76.5771 72.4198 76.7916C71.9968 77.4397 72.954 77.2331 74.5784 76.326L76.1114 75.4697L76.5955 76.326C77.1687 77.3391 79.0321 77.4755 79.4147 76.5322C79.8698 75.4094 80.573 76.3356 80.3806 77.8043C80.2431 78.8539 80.345 79.1541 80.7852 78.994C81.1089 78.8768 81.4893 78.4948 81.6308 78.146C81.7748 77.791 82.1768 77.6164 82.5431 77.7494C83.3426 78.0396 83.3817 77.4813 82.6494 76.2408C82.3476 75.7295 82.1003 75.2876 82.1003 75.2589C82.1003 75.2302 81.6308 75.0698 81.0571 74.9027C80.2444 74.6657 80.0929 74.7235 80.3727 75.1629C80.667 75.6256 80.6077 75.6322 80.0441 75.2003C79.6659 74.9106 79.0668 74.7788 78.7123 74.9072C78.3578 75.0361 77.8144 74.8524 77.5047 74.499C77.0431 73.9727 77.0501 73.8501 77.5443 73.8214C77.8755 73.8019 79.0365 73.7146 80.1236 73.6273C81.2108 73.54 82.6512 73.6747 83.3241 73.9266C84.4965 74.366 84.5137 74.4113 83.7265 75.0157C83.0544 75.532 82.9916 75.8218 83.3812 76.6145C83.7208 77.3042 84.0968 77.5112 84.6911 77.3345C85.4221 77.1175 85.491 77.2464 85.2512 78.3817C85.1005 79.0938 85.1519 79.6762 85.3645 79.6762C85.5776 79.6762 85.6452 80.0628 85.5147 80.535C85.3838 81.0073 85.5297 81.8399 85.838 82.3853C86.2237 83.0675 86.294 83.9987 86.0621 85.3717C85.4673 88.9006 85.5248 89.4452 86.493 89.4452C86.9762 89.4452 87.3715 89.2116 87.3715 88.9256C87.3715 88.64 87.52 88.4059 87.701 88.4059C87.8819 88.4059 88.4117 88.0784 88.8773 87.6785C89.3434 87.2781 89.9856 86.7402 90.3049 86.4825C91.5217 85.5006 92.2144 84.431 92.0739 83.7509C91.8718 82.7715 92.756 81.339 93.5625 81.339C93.9627 81.339 94.1041 81.1428 93.9135 80.8514C93.7382 80.5828 93.5291 75.3017 93.4488 69.1153C93.364 62.5879 93.1035 57.2968 92.8289 56.5082L92.355 55.1497H64.6892C46.2282 55.1497 37.1148 55.289 37.2971 55.5683ZM51.1322 56.189C51.1322 56.5319 50.9345 56.8125 50.6929 56.8125C50.4513 56.8125 50.2536 56.5319 50.2536 56.189C50.2536 55.846 50.4513 55.5654 50.6929 55.5654C50.9345 55.5654 51.1322 55.846 51.1322 56.189ZM53.7677 56.2135C53.7677 56.5698 53.9654 56.746 54.207 56.6047C54.4486 56.4633 54.6463 56.672 54.6463 57.0682C54.6463 57.6838 54.8066 57.6464 55.7444 56.8125C56.6225 56.0318 56.8426 55.9707 56.8426 56.5078C56.8426 56.877 56.6419 57.2968 56.3963 57.4402C56.1508 57.5841 56.055 57.8626 56.1837 58.0596C56.3124 58.2567 56.1947 58.5485 55.9223 58.7077C55.6496 58.8669 55.2542 58.7397 55.0434 58.4246C54.7398 57.9715 54.6581 58.0039 54.6529 58.5793C54.6493 58.9796 54.8439 59.3067 55.0855 59.3067C55.3271 59.3067 55.5248 59.5138 55.5248 59.7669C55.5248 60.0201 55.2384 60.1232 54.8883 59.996C54.489 59.8509 54.3326 59.9648 54.4688 60.3007C54.5883 60.5954 54.3485 61.1001 53.936 61.4227C53.3553 61.8762 53.144 61.8916 53.0008 61.4892C52.7407 60.7584 51.7173 60.8419 51.4019 61.6193C51.2569 61.9768 50.9393 62.1531 50.696 62.0105C50.4526 61.8683 50.2536 61.9502 50.2536 62.1921C50.2536 62.4341 50.0217 62.6324 49.7379 62.6324C49.4542 62.6324 49.6518 62.1992 50.1772 61.6704C50.7026 61.1412 51.1322 60.4786 51.1322 60.198C51.1322 59.4414 53.0561 55.5837 53.4383 55.5737C53.6197 55.5692 53.7677 55.8572 53.7677 56.2135ZM42.8533 58.8162C42.4132 59.9997 41.937 60.859 41.7956 60.7251C41.6541 60.5913 41.1815 61.0124 40.7449 61.6609C39.9116 62.8988 39.2883 63.4467 38.7005 63.4575C38.5072 63.4609 38.8529 62.8381 39.4692 62.0737C40.0855 61.3088 40.5898 60.5085 40.5898 60.2945C40.5898 60.0808 40.9847 59.6368 41.4674 59.3076C42.0148 58.9339 42.2515 58.4304 42.0965 57.9686C41.9309 57.4735 42.0767 57.2282 42.5371 57.2282C42.9157 57.2282 43.2254 57.01 43.2254 56.7431C43.2254 56.4766 43.322 56.3494 43.4397 56.4613C43.5579 56.5731 43.2939 57.6327 42.8533 58.8162ZM59.4782 57.2282C59.4782 57.4569 59.2687 57.6439 59.013 57.6439C58.7574 57.6439 58.6686 57.8289 58.8162 58.0551C58.97 58.2904 58.7938 58.3602 58.4029 58.2184C57.4176 57.8605 57.5643 56.8125 58.5997 56.8125C59.0829 56.8125 59.4782 56.9996 59.4782 57.2282ZM44.0951 59.9403C43.7894 60.2886 43.449 60.4882 43.3383 60.3838C43.0339 60.0953 43.6528 59.3067 44.1834 59.3067C44.4751 59.3067 44.4417 59.5454 44.0951 59.9403ZM56.8426 63.4638C56.4802 63.6853 55.8872 63.8666 55.5248 63.8666C54.9393 63.8666 54.9393 63.8221 55.5248 63.4638C55.8872 63.2422 56.4802 63.061 56.8426 63.061C57.4281 63.061 57.4281 63.1054 56.8426 63.4638ZM54.6463 64.2952C54.6463 64.5238 54.4486 64.7109 54.207 64.7109C53.9654 64.7109 53.7677 64.5238 53.7677 64.2952C53.7677 64.0665 53.9654 63.8795 54.207 63.8795C54.4486 63.8795 54.6463 64.0665 54.6463 64.2952ZM82.32 65.1266C82.32 65.3552 82.1104 65.5423 81.8548 65.5423C81.5991 65.5423 81.5117 65.3552 81.6611 65.1266C81.8104 64.898 82.0195 64.7109 82.1263 64.7109C82.233 64.7109 82.32 64.898 82.32 65.1266ZM55.0855 66.1941C55.4479 66.4834 56.2386 66.8039 56.8426 66.9062C57.4905 67.0164 57.3214 67.0613 56.4301 67.0155C55.5995 66.9727 54.2158 67.2766 53.3553 67.6902L51.7911 68.4422L53.6579 68.1862C54.9366 68.0107 55.5248 68.0822 55.5248 68.4123C55.5248 68.6775 55.9698 69.0637 56.5132 69.2707C57.2977 69.5692 57.0284 69.6519 55.209 69.6731C53.5644 69.6918 52.9762 69.8461 53.1264 70.2189C53.2775 70.5927 52.605 70.7644 50.7293 70.83C48.6753 70.9019 47.9053 70.7473 47.1015 70.1005L46.0806 69.279L47.3171 69.6972C48.9055 70.2339 49.3751 70.2244 49.3751 69.6548C49.3751 69.4017 49.0931 69.2969 48.7483 69.4225C48.4034 69.5476 47.9202 69.4204 47.6743 69.1398C47.3435 68.7627 47.506 68.6081 48.2971 68.5457C49.9488 68.4165 52.6696 67.0629 52.6696 66.3704C52.6696 65.0838 53.6074 65.0156 55.0855 66.1941ZM82.967 66.4257C82.7966 67.1594 82.8361 67.625 83.0575 67.4957C83.2732 67.3693 83.4919 68.1887 83.5438 69.3156C83.6356 71.3127 83.607 71.3634 82.4298 71.2877C79.9515 71.1285 78.7422 71.343 79.0839 71.8818C79.3281 72.2667 79.2495 72.2916 78.7804 71.9778C78.432 71.745 77.492 71.5642 76.6912 71.5758C75.4059 71.5949 75.3291 71.5384 76.0323 71.0903C78.5686 69.4757 80.1289 68.1097 80.5884 67.1012C80.8919 66.4344 81.4529 65.958 81.9339 65.958C82.3881 65.958 82.7592 65.7709 82.7592 65.5423C82.7592 65.3137 82.8739 65.1266 83.0136 65.1266C83.1537 65.1266 83.1326 65.7111 82.967 66.4257ZM51.7911 65.958C51.6417 66.1866 51.2231 66.3737 50.8607 66.3737C50.4983 66.3737 50.3239 66.1866 50.4733 65.958C50.6226 65.7294 51.0412 65.5423 51.4036 65.5423C51.766 65.5423 51.9404 65.7294 51.7911 65.958ZM46.02 66.9973C45.8807 67.3402 45.3927 67.6208 44.9354 67.6208C43.7727 67.6208 43.8935 66.8854 45.0923 66.6672C45.6361 66.5678 46.1237 66.4614 46.1768 66.4302C46.2295 66.3991 46.1588 66.6543 46.02 66.9973ZM61.6745 68.8679C61.6745 69.0965 61.465 69.2836 61.2093 69.2836C60.9537 69.2836 60.8663 69.0965 61.0156 68.8679C61.165 68.6393 61.3741 68.4522 61.4808 68.4522C61.5875 68.4522 61.6745 68.6393 61.6745 68.8679ZM57.0622 74.6878C56.9129 74.9164 56.4073 75.1035 55.9382 75.1035C54.8685 75.1035 54.851 75.6052 55.889 76.494C56.9195 77.3769 58.0045 77.3715 58.5311 76.4815C58.9194 75.8247 59.0156 75.8247 60.0747 76.4815C61.1487 77.1475 61.2269 77.1425 61.6591 76.378C62.2886 75.2647 62.2385 75.1035 61.2612 75.1035C60.792 75.1035 60.2864 74.9164 60.1371 74.6878C59.9877 74.4591 59.2959 74.2721 58.5997 74.2721C57.9034 74.2721 57.2116 74.4591 57.0622 74.6878ZM41.2944 77.485C40.8481 77.9078 40.4795 77.2713 40.8459 76.7106C41.1226 76.2865 41.2263 76.2865 41.3748 76.7089C41.4767 76.9978 41.4402 77.347 41.2944 77.485ZM39.8993 87.5126C39.2834 87.6319 39.2571 87.7263 39.7574 88.026C40.1062 88.2351 40.1567 88.396 39.8747 88.3997C39.6023 88.403 39.1336 88.1253 38.8327 87.7824C38.3952 87.2835 38.3979 87.1588 38.8472 87.1588C39.2417 87.1588 39.1929 86.9335 38.6812 86.3985C37.4122 85.0716 37.8984 84.8741 39.3045 86.1458C40.4224 87.1568 40.5248 87.3916 39.8993 87.5126ZM41.4683 89.4652C41.4683 89.9561 40.6377 89.9553 40.4387 89.4639C40.2762 89.0636 40.4071 88.941 40.8318 89.0952C41.1819 89.2224 41.4683 89.3887 41.4683 89.4652ZM64.7494 89.6531C64.7494 89.8817 64.947 90.0688 65.1886 90.0688C65.4302 90.0688 65.6279 89.8817 65.6279 89.6531C65.6279 89.4244 65.4302 89.2374 65.1886 89.2374C64.947 89.2374 64.7494 89.4244 64.7494 89.6531ZM71.1187 90.0688C70.3447 90.8781 70.3513 90.9002 71.3801 90.8939C71.9612 90.8902 72.733 90.7031 73.0954 90.4782C73.6809 90.1141 73.6809 90.0234 73.0954 89.6593C72.1813 89.0914 72.0218 89.1243 71.1187 90.0688ZM61.6745 96.7292L59.2586 97.0002L61.2352 97.1054C62.3224 97.1636 64.6945 97.3145 66.5064 97.4417C71.8457 97.8154 74.6183 97.7863 74.8525 97.3544C74.9733 97.1316 74.4791 96.9162 73.7543 96.8763C67.8734 96.55 63.7215 96.4997 61.6745 96.7292ZM80.1544 107.423C79.8513 108.052 79.6216 108.615 79.644 108.671C79.6659 108.728 79.289 109.15 78.8059 109.607C77.691 110.662 77.6866 111.27 78.7936 111.27C79.4669 111.27 79.8184 110.754 80.3718 108.952C81.1476 106.426 81.0307 105.602 80.1544 107.423Z"/>
</mask>
<path fill-rule="evenodd" clip-rule="evenodd" d="M37.2971 55.5683C37.4477 55.7986 37.254 56.1021 36.8675 56.2426C36.2771 56.4567 36.1774 57.1908 36.2485 60.8103L36.3333 65.1228L37.2747 62.9421C38.5371 60.0176 39.2408 58.8877 39.2588 59.757C39.2658 60.119 39.1367 60.5435 38.9711 60.7002C38.3592 61.2788 37.4095 64.1538 37.0963 66.3737C36.9189 67.6312 36.6254 69.0342 36.444 69.4915C36.2147 70.0693 36.2424 70.1537 36.5341 69.7683C36.8727 69.3206 37.0076 69.3481 37.2356 69.9097C37.3906 70.2925 37.3902 70.8013 37.2338 71.0408C36.7251 71.8198 36.3162 76.9633 36.7423 77.2285C36.9931 77.3844 36.9874 78.0421 36.7273 78.9329C36.4945 79.7306 36.2709 82.3666 36.2301 84.7906C36.1633 88.7314 36.2507 89.2881 37.055 90.0492C37.5496 90.5173 37.9542 91.0644 37.9542 91.2652C37.9542 91.4655 38.249 91.8613 38.6087 92.1439C39.0387 92.4815 39.1714 93.0348 38.9961 93.7535C38.733 94.8302 38.7418 94.8348 39.4859 94.0179C40.2094 93.2235 40.2116 93.2368 39.5378 94.3152C38.7018 95.6533 38.6447 96.0478 39.3467 95.6371C39.6955 95.433 39.7675 95.566 39.5711 96.0499C39.4121 96.4423 39.4604 96.6589 39.6788 96.5313C39.8971 96.4037 40.1501 96.5109 40.241 96.7695C40.3324 97.028 40.9917 97.2396 41.7064 97.2396C42.9601 97.2392 45.1907 98.8787 44.6425 99.3975C44.5058 99.5268 44.9218 99.5908 45.5671 99.5405C46.9205 99.4345 46.9811 99.1997 46.0819 97.5539C45.7204 96.8921 45.0523 94.8381 44.5976 92.9895C43.7802 89.6676 43.7806 89.6235 44.6302 89.1933C45.195 88.9073 45.391 88.5194 45.2012 88.0622C44.5287 86.4422 44.1114 82.6331 44.3771 80.5404C44.5871 78.8851 44.993 77.9477 45.9071 77.007C46.591 76.3032 47.8074 75.0091 48.6103 74.132C50.3151 72.2679 51.9514 72.0468 55.9641 73.1368C57.6487 73.594 58.912 73.6913 60.1371 73.4569C61.1035 73.2719 61.6354 73.0989 61.3192 73.0727C61.0029 73.0466 60.8645 72.8408 61.0117 72.6155C61.1755 72.364 60.7933 72.2979 60.0202 72.4442C58.2887 72.7722 54.8119 71.8705 55.4563 71.2607C56.1499 70.6043 62.6141 70.776 67.6261 71.5841C69.9595 71.9603 72.2481 72.174 72.7119 72.0593C73.2021 71.9379 73.5294 72.053 73.4929 72.3336C73.3418 73.5042 73.6054 73.8563 74.6328 73.8563C76.1786 73.8563 75.9748 74.3589 74.0886 75.197C72.8749 75.7366 72.3943 75.791 72.1501 75.4169C71.9713 75.1434 71.6682 75.0685 71.4758 75.2506C71.2834 75.4327 71.4745 75.7661 71.9002 75.9914C72.3263 76.2171 72.5599 76.5771 72.4198 76.7916C71.9968 77.4397 72.954 77.2331 74.5784 76.326L76.1114 75.4697L76.5955 76.326C77.1687 77.3391 79.0321 77.4755 79.4147 76.5322C79.8698 75.4094 80.573 76.3356 80.3806 77.8043C80.2431 78.8539 80.345 79.1541 80.7852 78.994C81.1089 78.8768 81.4893 78.4948 81.6308 78.146C81.7748 77.791 82.1768 77.6164 82.5431 77.7494C83.3426 78.0396 83.3817 77.4813 82.6494 76.2408C82.3476 75.7295 82.1003 75.2876 82.1003 75.2589C82.1003 75.2302 81.6308 75.0698 81.0571 74.9027C80.2444 74.6657 80.0929 74.7235 80.3727 75.1629C80.667 75.6256 80.6077 75.6322 80.0441 75.2003C79.6659 74.9106 79.0668 74.7788 78.7123 74.9072C78.3578 75.0361 77.8144 74.8524 77.5047 74.499C77.0431 73.9727 77.0501 73.8501 77.5443 73.8214C77.8755 73.8019 79.0365 73.7146 80.1236 73.6273C81.2108 73.54 82.6512 73.6747 83.3241 73.9266C84.4965 74.366 84.5137 74.4113 83.7265 75.0157C83.0544 75.532 82.9916 75.8218 83.3812 76.6145C83.7208 77.3042 84.0968 77.5112 84.6911 77.3345C85.4221 77.1175 85.491 77.2464 85.2512 78.3817C85.1005 79.0938 85.1519 79.6762 85.3645 79.6762C85.5776 79.6762 85.6452 80.0628 85.5147 80.535C85.3838 81.0073 85.5297 81.8399 85.838 82.3853C86.2237 83.0675 86.294 83.9987 86.0621 85.3717C85.4673 88.9006 85.5248 89.4452 86.493 89.4452C86.9762 89.4452 87.3715 89.2116 87.3715 88.9256C87.3715 88.64 87.52 88.4059 87.701 88.4059C87.8819 88.4059 88.4117 88.0784 88.8773 87.6785C89.3434 87.2781 89.9856 86.7402 90.3049 86.4825C91.5217 85.5006 92.2144 84.431 92.0739 83.7509C91.8718 82.7715 92.756 81.339 93.5625 81.339C93.9627 81.339 94.1041 81.1428 93.9135 80.8514C93.7382 80.5828 93.5291 75.3017 93.4488 69.1153C93.364 62.5879 93.1035 57.2968 92.8289 56.5082L92.355 55.1497H64.6892C46.2282 55.1497 37.1148 55.289 37.2971 55.5683ZM51.1322 56.189C51.1322 56.5319 50.9345 56.8125 50.6929 56.8125C50.4513 56.8125 50.2536 56.5319 50.2536 56.189C50.2536 55.846 50.4513 55.5654 50.6929 55.5654C50.9345 55.5654 51.1322 55.846 51.1322 56.189ZM53.7677 56.2135C53.7677 56.5698 53.9654 56.746 54.207 56.6047C54.4486 56.4633 54.6463 56.672 54.6463 57.0682C54.6463 57.6838 54.8066 57.6464 55.7444 56.8125C56.6225 56.0318 56.8426 55.9707 56.8426 56.5078C56.8426 56.877 56.6419 57.2968 56.3963 57.4402C56.1508 57.5841 56.055 57.8626 56.1837 58.0596C56.3124 58.2567 56.1947 58.5485 55.9223 58.7077C55.6496 58.8669 55.2542 58.7397 55.0434 58.4246C54.7398 57.9715 54.6581 58.0039 54.6529 58.5793C54.6493 58.9796 54.8439 59.3067 55.0855 59.3067C55.3271 59.3067 55.5248 59.5138 55.5248 59.7669C55.5248 60.0201 55.2384 60.1232 54.8883 59.996C54.489 59.8509 54.3326 59.9648 54.4688 60.3007C54.5883 60.5954 54.3485 61.1001 53.936 61.4227C53.3553 61.8762 53.144 61.8916 53.0008 61.4892C52.7407 60.7584 51.7173 60.8419 51.4019 61.6193C51.2569 61.9768 50.9393 62.1531 50.696 62.0105C50.4526 61.8683 50.2536 61.9502 50.2536 62.1921C50.2536 62.4341 50.0217 62.6324 49.7379 62.6324C49.4542 62.6324 49.6518 62.1992 50.1772 61.6704C50.7026 61.1412 51.1322 60.4786 51.1322 60.198C51.1322 59.4414 53.0561 55.5837 53.4383 55.5737C53.6197 55.5692 53.7677 55.8572 53.7677 56.2135ZM42.8533 58.8162C42.4132 59.9997 41.937 60.859 41.7956 60.7251C41.6541 60.5913 41.1815 61.0124 40.7449 61.6609C39.9116 62.8988 39.2883 63.4467 38.7005 63.4575C38.5072 63.4609 38.8529 62.8381 39.4692 62.0737C40.0855 61.3088 40.5898 60.5085 40.5898 60.2945C40.5898 60.0808 40.9847 59.6368 41.4674 59.3076C42.0148 58.9339 42.2515 58.4304 42.0965 57.9686C41.9309 57.4735 42.0767 57.2282 42.5371 57.2282C42.9157 57.2282 43.2254 57.01 43.2254 56.7431C43.2254 56.4766 43.322 56.3494 43.4397 56.4613C43.5579 56.5731 43.2939 57.6327 42.8533 58.8162ZM59.4782 57.2282C59.4782 57.4569 59.2687 57.6439 59.013 57.6439C58.7574 57.6439 58.6686 57.8289 58.8162 58.0551C58.97 58.2904 58.7938 58.3602 58.4029 58.2184C57.4176 57.8605 57.5643 56.8125 58.5997 56.8125C59.0829 56.8125 59.4782 56.9996 59.4782 57.2282ZM44.0951 59.9403C43.7894 60.2886 43.449 60.4882 43.3383 60.3838C43.0339 60.0953 43.6528 59.3067 44.1834 59.3067C44.4751 59.3067 44.4417 59.5454 44.0951 59.9403ZM56.8426 63.4638C56.4802 63.6853 55.8872 63.8666 55.5248 63.8666C54.9393 63.8666 54.9393 63.8221 55.5248 63.4638C55.8872 63.2422 56.4802 63.061 56.8426 63.061C57.4281 63.061 57.4281 63.1054 56.8426 63.4638ZM54.6463 64.2952C54.6463 64.5238 54.4486 64.7109 54.207 64.7109C53.9654 64.7109 53.7677 64.5238 53.7677 64.2952C53.7677 64.0665 53.9654 63.8795 54.207 63.8795C54.4486 63.8795 54.6463 64.0665 54.6463 64.2952ZM82.32 65.1266C82.32 65.3552 82.1104 65.5423 81.8548 65.5423C81.5991 65.5423 81.5117 65.3552 81.6611 65.1266C81.8104 64.898 82.0195 64.7109 82.1263 64.7109C82.233 64.7109 82.32 64.898 82.32 65.1266ZM55.0855 66.1941C55.4479 66.4834 56.2386 66.8039 56.8426 66.9062C57.4905 67.0164 57.3214 67.0613 56.4301 67.0155C55.5995 66.9727 54.2158 67.2766 53.3553 67.6902L51.7911 68.4422L53.6579 68.1862C54.9366 68.0107 55.5248 68.0822 55.5248 68.4123C55.5248 68.6775 55.9698 69.0637 56.5132 69.2707C57.2977 69.5692 57.0284 69.6519 55.209 69.6731C53.5644 69.6918 52.9762 69.8461 53.1264 70.2189C53.2775 70.5927 52.605 70.7644 50.7293 70.83C48.6753 70.9019 47.9053 70.7473 47.1015 70.1005L46.0806 69.279L47.3171 69.6972C48.9055 70.2339 49.3751 70.2244 49.3751 69.6548C49.3751 69.4017 49.0931 69.2969 48.7483 69.4225C48.4034 69.5476 47.9202 69.4204 47.6743 69.1398C47.3435 68.7627 47.506 68.6081 48.2971 68.5457C49.9488 68.4165 52.6696 67.0629 52.6696 66.3704C52.6696 65.0838 53.6074 65.0156 55.0855 66.1941ZM82.967 66.4257C82.7966 67.1594 82.8361 67.625 83.0575 67.4957C83.2732 67.3693 83.4919 68.1887 83.5438 69.3156C83.6356 71.3127 83.607 71.3634 82.4298 71.2877C79.9515 71.1285 78.7422 71.343 79.0839 71.8818C79.3281 72.2667 79.2495 72.2916 78.7804 71.9778C78.432 71.745 77.492 71.5642 76.6912 71.5758C75.4059 71.5949 75.3291 71.5384 76.0323 71.0903C78.5686 69.4757 80.1289 68.1097 80.5884 67.1012C80.8919 66.4344 81.4529 65.958 81.9339 65.958C82.3881 65.958 82.7592 65.7709 82.7592 65.5423C82.7592 65.3137 82.8739 65.1266 83.0136 65.1266C83.1537 65.1266 83.1326 65.7111 82.967 66.4257ZM51.7911 65.958C51.6417 66.1866 51.2231 66.3737 50.8607 66.3737C50.4983 66.3737 50.3239 66.1866 50.4733 65.958C50.6226 65.7294 51.0412 65.5423 51.4036 65.5423C51.766 65.5423 51.9404 65.7294 51.7911 65.958ZM46.02 66.9973C45.8807 67.3402 45.3927 67.6208 44.9354 67.6208C43.7727 67.6208 43.8935 66.8854 45.0923 66.6672C45.6361 66.5678 46.1237 66.4614 46.1768 66.4302C46.2295 66.3991 46.1588 66.6543 46.02 66.9973ZM61.6745 68.8679C61.6745 69.0965 61.465 69.2836 61.2093 69.2836C60.9537 69.2836 60.8663 69.0965 61.0156 68.8679C61.165 68.6393 61.3741 68.4522 61.4808 68.4522C61.5875 68.4522 61.6745 68.6393 61.6745 68.8679ZM57.0622 74.6878C56.9129 74.9164 56.4073 75.1035 55.9382 75.1035C54.8685 75.1035 54.851 75.6052 55.889 76.494C56.9195 77.3769 58.0045 77.3715 58.5311 76.4815C58.9194 75.8247 59.0156 75.8247 60.0747 76.4815C61.1487 77.1475 61.2269 77.1425 61.6591 76.378C62.2886 75.2647 62.2385 75.1035 61.2612 75.1035C60.792 75.1035 60.2864 74.9164 60.1371 74.6878C59.9877 74.4591 59.2959 74.2721 58.5997 74.2721C57.9034 74.2721 57.2116 74.4591 57.0622 74.6878ZM41.2944 77.485C40.8481 77.9078 40.4795 77.2713 40.8459 76.7106C41.1226 76.2865 41.2263 76.2865 41.3748 76.7089C41.4767 76.9978 41.4402 77.347 41.2944 77.485ZM39.8993 87.5126C39.2834 87.6319 39.2571 87.7263 39.7574 88.026C40.1062 88.2351 40.1567 88.396 39.8747 88.3997C39.6023 88.403 39.1336 88.1253 38.8327 87.7824C38.3952 87.2835 38.3979 87.1588 38.8472 87.1588C39.2417 87.1588 39.1929 86.9335 38.6812 86.3985C37.4122 85.0716 37.8984 84.8741 39.3045 86.1458C40.4224 87.1568 40.5248 87.3916 39.8993 87.5126ZM41.4683 89.4652C41.4683 89.9561 40.6377 89.9553 40.4387 89.4639C40.2762 89.0636 40.4071 88.941 40.8318 89.0952C41.1819 89.2224 41.4683 89.3887 41.4683 89.4652ZM64.7494 89.6531C64.7494 89.8817 64.947 90.0688 65.1886 90.0688C65.4302 90.0688 65.6279 89.8817 65.6279 89.6531C65.6279 89.4244 65.4302 89.2374 65.1886 89.2374C64.947 89.2374 64.7494 89.4244 64.7494 89.6531ZM71.1187 90.0688C70.3447 90.8781 70.3513 90.9002 71.3801 90.8939C71.9612 90.8902 72.733 90.7031 73.0954 90.4782C73.6809 90.1141 73.6809 90.0234 73.0954 89.6593C72.1813 89.0914 72.0218 89.1243 71.1187 90.0688ZM61.6745 96.7292L59.2586 97.0002L61.2352 97.1054C62.3224 97.1636 64.6945 97.3145 66.5064 97.4417C71.8457 97.8154 74.6183 97.7863 74.8525 97.3544C74.9733 97.1316 74.4791 96.9162 73.7543 96.8763C67.8734 96.55 63.7215 96.4997 61.6745 96.7292ZM80.1544 107.423C79.8513 108.052 79.6216 108.615 79.644 108.671C79.6659 108.728 79.289 109.15 78.8059 109.607C77.691 110.662 77.6866 111.27 78.7936 111.27C79.4669 111.27 79.8184 110.754 80.3718 108.952C81.1476 106.426 81.0307 105.602 80.1544 107.423Z" fill="#E82D34" stroke="#E82D34" stroke-width="1.98511" mask="url(#path-8-inside-2_284_47)"/>
<path d="M48.0313 191.225H17.2348V166.34V141.456H48.0313H78.8278V166.34V191.225H48.0313Z" fill="white" stroke="white" stroke-width="0.992556"/>
<mask id="path-10-inside-3_284_47" fill="white">
<path fill-rule="evenodd" clip-rule="evenodd" d="M16.7392 141.363C16.7392 141.584 17.0372 141.766 17.4014 141.766C18.0099 141.766 19.1187 142.824 19.149 143.434C19.1563 143.576 18.6624 143.825 18.0515 143.987C17.4406 144.149 17.1681 144.366 17.4459 144.468C18.104 144.709 18.104 145.825 17.4459 145.694C17.0477 145.614 16.9165 150.47 16.8236 168.657L16.7065 191.721H48.0155H79.3248V166.341V140.96H48.032C27.4394 140.96 16.7392 141.098 16.7392 141.363ZM23.7496 142.37C23.6216 142.702 23.1278 142.953 22.6518 142.928C21.9694 142.89 21.9359 142.842 22.4931 142.697C22.8819 142.595 23.1997 142.344 23.1997 142.139C23.1997 141.934 23.3757 141.766 23.591 141.766C23.8058 141.766 23.8772 142.038 23.7496 142.37ZM62.1324 144.284C64.9067 147.058 69.7149 154.071 71.1092 157.377C72.0253 159.55 71.8864 160.173 70.8338 158.611C70.5071 158.126 69.7856 157.291 69.2304 156.755L68.2209 155.779L68.0958 156.801C68.0271 157.363 68.4418 159.332 69.0172 161.175C70.2923 165.262 71.2521 170.014 71.2404 172.182C71.2355 173.068 70.8762 174.575 70.4421 175.529C70.0081 176.484 69.4569 177.989 69.2179 178.876C68.3845 181.965 64.9015 184.858 61.2974 185.457C59.2547 185.796 54.9657 185.042 53.1758 184.028C52.3254 183.547 51.4484 183.365 50.7002 183.514C49.9714 183.659 49.1747 183.505 48.5525 183.099C48.0086 182.743 47.4607 182.555 47.3351 182.681C47.2091 182.806 46.2829 182.127 45.2763 181.171C44.27 180.216 43.0248 179.11 42.5092 178.714C41.9935 178.319 40.7539 177.369 39.7546 176.603C38.7552 175.838 37.7228 175.21 37.4603 175.208C36.6681 175.201 35.4301 173.099 35.1172 171.229C34.8382 169.565 34.9674 169.002 36.1678 166.648C36.3641 166.264 36.5244 165.232 36.5244 164.356C36.5244 163.479 36.7073 162.649 36.9306 162.512C37.1543 162.374 38.131 161.049 39.1017 159.567C40.0954 158.05 41.6822 156.29 42.7333 155.539C44.8325 154.038 44.9997 153.601 43.6914 153.037C43.192 152.822 42.4543 152.418 42.0525 152.14C41.4456 151.721 41.2344 151.754 40.8016 152.334C40.5149 152.719 40.1394 152.9 39.9674 152.737C39.795 152.575 39.7635 152.804 39.8971 153.247C40.0308 153.69 39.9694 154.324 39.7615 154.655C39.4368 155.172 39.2959 155.143 38.7738 154.454C38.2303 153.736 38.1637 153.726 38.1524 154.355C38.1451 154.743 37.9578 155.06 37.7357 155.06C37.5136 155.06 37.3319 155.327 37.3319 155.652C37.3319 156.031 37.0977 156.154 36.6798 155.994C36.1468 155.79 36.0834 155.92 36.3342 156.708C36.5906 157.515 36.5466 157.594 36.0645 157.195C35.3603 156.612 34.8398 156.938 34.2192 158.349C33.9596 158.939 33.3596 159.545 32.8859 159.695C32.3816 159.854 32.1119 160.194 32.235 160.515C32.3711 160.869 32.2387 160.983 31.8603 160.838C31.5018 160.701 31.2753 160.86 31.2753 161.249C31.2753 161.677 31.0552 161.799 30.5993 161.625C30.0817 161.427 29.9864 161.529 30.1911 162.061C30.3458 162.463 30.2953 162.656 30.0712 162.518C29.858 162.386 29.5653 162.75 29.4203 163.327C29.2608 163.961 28.9491 164.295 28.6305 164.173C28.0333 163.944 27.1196 164.884 26.9734 165.877C26.9197 166.242 26.5329 166.818 26.1134 167.157C25.6942 167.496 25.2271 168.266 25.0752 168.869C24.8839 169.631 24.5382 169.966 23.9447 169.966C23.1189 169.966 23.0967 169.833 23.2926 166.096C23.4226 163.613 23.6778 162.112 24.0036 161.911C24.2834 161.739 24.512 161.12 24.512 160.537C24.512 159.59 24.5661 159.549 25.0159 160.163C25.4802 160.797 25.542 160.781 25.8004 159.97C25.9543 159.485 26.2498 159.089 26.457 159.089C26.6641 159.089 26.8337 158.748 26.8337 158.332C26.8337 157.917 27.1062 157.351 27.4394 157.075C27.8577 156.728 28.045 156.713 28.045 157.025C28.045 157.892 28.6511 157.471 28.6992 156.571C28.8477 153.785 29.0016 153.449 30.1281 153.449C30.733 153.449 31.3419 153.265 31.4812 153.039C31.6209 152.814 31.9056 152.735 32.1143 152.864C32.718 153.236 34.0379 152.666 34.3036 151.917C34.4372 151.541 35.0998 150.797 35.7758 150.264C36.7848 149.469 37.0695 149.397 37.3642 149.861C37.6307 150.281 37.7284 150.167 37.7422 149.42C37.7607 148.446 37.7809 148.439 38.3559 149.197C39.0439 150.105 39.6193 149.719 39.8212 148.212C39.9153 147.513 40.1729 147.241 40.6631 147.323C41.0515 147.388 41.3697 147.24 41.3697 146.993C41.3697 146.729 41.7004 146.65 42.1773 146.801C42.6759 146.959 42.9848 146.874 42.9848 146.578C42.9848 146.217 43.1346 146.223 43.5905 146.6C43.9898 146.931 44.1962 146.952 44.1962 146.662C44.1962 146.42 44.4647 146.325 44.7925 146.451C45.1721 146.596 45.5589 146.307 45.8565 145.655C46.6685 143.877 48.9418 143.382 53.3696 144.02C54.6407 144.203 55.2379 144.101 55.7204 143.62C56.0761 143.265 56.2562 142.974 56.1205 142.974C55.9849 142.974 56.108 142.709 56.3947 142.385C56.681 142.061 57.5224 141.789 58.265 141.781C59.3919 141.768 60.0299 142.181 62.1324 144.284ZM51.5877 146.882C51.3228 146.977 51.2057 147.315 51.3281 147.633C51.4533 147.958 51.3103 148.218 51.0026 148.226C49.948 148.254 52.8883 150.222 53.9878 150.224C54.5987 150.225 55.0982 150.382 55.0982 150.573C55.0982 150.764 55.5532 150.833 56.1092 150.727C56.7121 150.612 57.9755 150.948 59.2385 151.558C60.4034 152.121 62.2652 152.897 63.3756 153.282C64.486 153.666 65.6222 154.259 65.9008 154.599C66.7136 155.593 67.3359 154.642 66.8081 153.212L66.3749 152.039L67.3843 153.247C67.9395 153.912 68.4002 154.305 68.4083 154.121C68.4265 153.704 65.6489 149.5 65.153 149.194C64.5777 148.84 64.7275 149.552 65.4567 150.64C65.8241 151.187 65.8786 151.409 65.5778 151.132C64.8381 150.451 63.6223 150.432 64.3043 151.112C64.5708 151.378 64.7888 151.779 64.7888 152.003C64.7888 152.228 63.8803 151.519 62.7699 150.427C61.6596 149.336 60.7511 148.691 60.7511 148.994C60.7511 149.434 60.6089 149.421 60.0444 148.926C59.3302 148.3 58.3611 147.921 56.6446 147.597C56.127 147.499 55.2496 147.323 54.6944 147.204C52.6872 146.777 52.0613 146.712 51.5877 146.882ZM48.6377 149.049C48.6377 149.441 50.2694 151.435 50.5851 151.428C50.7353 151.425 51.1262 151.253 51.4537 151.046C51.9564 150.729 51.9027 150.516 51.1072 149.671C50.2661 148.778 48.6377 148.368 48.6377 149.049ZM46.6334 149.854C46.6253 150.202 47.0731 150.914 47.6283 151.434C48.924 152.649 48.9321 151.999 47.6408 150.427C46.9685 149.609 46.6431 149.424 46.6334 149.854ZM45.6352 150.71C45.9142 151.588 45.9062 151.589 44.8196 150.879C44.2163 150.484 43.6704 150.221 43.607 150.294C43.2873 150.663 45.0546 153.852 45.5787 153.852C46.6814 153.852 47.1187 152.386 46.419 151.035C45.6853 149.62 45.2282 149.43 45.6352 150.71ZM51.666 153.219C50.6962 154 50.5548 154.296 50.9566 154.705C51.3608 155.116 51.6959 154.989 52.6727 154.055C54.696 152.122 53.8759 151.44 51.666 153.219ZM55.8258 154.398C54.7824 155.094 53.7499 156.027 53.5311 156.47C53.137 157.27 53.1338 157.27 53.1067 156.45C53.0914 155.996 53.3066 155.37 53.584 155.059C54.0088 154.584 53.9837 154.574 53.4257 154.992C51.9689 156.085 52.4708 158.242 54.0423 157.641C54.5317 157.454 54.6387 157.556 54.4537 158.037C54.1073 158.938 54.398 158.851 55.6727 157.672C56.2756 157.115 56.9329 156.76 57.1332 156.883C57.7494 157.263 59.9366 155.914 59.7 155.299C59.5817 154.991 59.6786 154.619 59.916 154.473C60.1531 154.327 60.3473 153.946 60.3473 153.626C60.3473 152.612 57.8657 153.036 55.8258 154.398ZM41.5716 160.411C40.143 161.465 38.574 163.168 38.5562 163.684C38.5489 163.884 38.8614 163.769 39.2499 163.428C40.3663 162.449 43.0817 161.197 44.7776 160.88C46.3176 160.592 46.3224 160.584 45.3643 160.055C43.985 159.292 42.9578 159.388 41.5716 160.411ZM23.4755 160.776C23.3467 161.097 23.251 161.002 23.2316 160.532C23.2142 160.108 23.3095 159.87 23.4436 160.004C23.5776 160.138 23.5922 160.485 23.4755 160.776ZM72.3827 160.912C72.2583 161.036 72.0326 160.813 71.8808 160.416C71.6619 159.841 71.708 159.795 72.1069 160.19C72.3831 160.464 72.507 160.789 72.3827 160.912ZM43.3886 162.891C43.3886 163.363 42.3852 163.993 40.8614 164.48C40.4709 164.605 39.9294 165.21 39.6585 165.826C39.3872 166.441 39.002 167.06 38.8025 167.202C38.198 167.631 38.985 168.439 39.7998 168.226C40.2185 168.117 40.6776 168.215 40.8202 168.446C41.1408 168.963 44.7994 165.131 44.6613 164.422C44.6068 164.142 44.8317 163.809 45.1612 163.683C45.4907 163.557 45.6788 163.242 45.5791 162.983C45.3348 162.349 43.3886 162.267 43.3886 162.891ZM54.826 166.146C54.272 166.777 53.5182 167.146 52.7837 167.146C51.8219 167.146 51.5009 167.415 50.936 168.692C50.5605 169.542 50.2528 170.36 50.2528 170.509C50.2528 170.946 53.5981 170.328 54.5934 169.708C55.0929 169.397 55.5019 168.818 55.5019 168.422C55.5019 167.631 56.9051 165.938 57.5604 165.938C57.7869 165.938 57.86 165.756 57.7227 165.535C57.2693 164.803 55.718 165.13 54.826 166.146ZM62.3662 168.758C62.3662 168.979 62.2067 169.161 62.0116 169.161C61.2037 169.161 58.7188 170.546 55.3001 172.901C52.3622 174.925 51.666 175.598 51.666 176.412C51.666 178.535 54.247 177.737 59.8672 173.875C62.6605 171.955 63.9813 170.384 63.9813 168.979C63.9813 168.624 63.634 168.355 63.1737 168.355C62.7296 168.355 62.3662 168.536 62.3662 168.758ZM62.1643 170.772C62.3016 170.994 62.2212 171.175 61.9862 171.175C61.7512 171.175 61.5586 170.994 61.5586 170.772C61.5586 170.55 61.6386 170.369 61.7367 170.369C61.8348 170.369 62.027 170.55 62.1643 170.772ZM61.1548 171.192C61.1548 171.953 59.7796 173.064 57.0872 174.476C54.6879 175.736 54.4719 175.786 54.8434 175.001C55.2795 174.079 57.7663 172.1 59.5038 171.294C60.8169 170.684 61.1548 170.663 61.1548 171.192ZM36.5761 177.52C37.078 178.159 37.0638 178.173 36.4234 177.672C35.7507 177.146 35.5371 176.815 35.8694 176.815C35.953 176.815 36.2712 177.132 36.5761 177.52ZM30.2913 186.156L31.4771 187.439L30.1871 186.458C29.4776 185.918 28.8873 185.341 28.8748 185.175C28.8376 184.668 29.0573 184.82 30.2913 186.156ZM31.0734 185.678C31.4751 186.121 31.7134 186.484 31.6023 186.484C31.4913 186.484 31.0714 186.121 30.6696 185.678C30.2678 185.235 30.0296 184.872 30.1406 184.872C30.2517 184.872 30.6716 185.235 31.0734 185.678ZM34.1017 185.666C34.1017 185.88 33.8292 185.951 33.496 185.824C33.1629 185.696 32.8904 185.521 32.8904 185.434C32.8904 185.347 33.1629 185.275 33.496 185.275C33.8292 185.275 34.1017 185.451 34.1017 185.666ZM28.4177 188.599C28.4609 187.901 29.2564 187.962 29.2564 188.664C29.2564 189.603 27.8831 189.104 27.59 188.058C27.0974 186.302 27.3106 185.845 27.8544 187.491C28.1472 188.377 28.4008 188.876 28.4177 188.599ZM27.2375 189.115C27.2375 189.455 27.5088 189.836 27.8407 189.963C29.0072 190.409 27.9752 190.915 25.9014 190.914L23.8054 190.913L25.1176 190.114C25.8396 189.675 26.4299 189.132 26.4299 188.907C26.4299 188.682 26.6116 188.498 26.8337 188.498C27.0558 188.498 27.2375 188.776 27.2375 189.115Z"/>
</mask>
<path fill-rule="evenodd" clip-rule="evenodd" d="M16.7392 141.363C16.7392 141.584 17.0372 141.766 17.4014 141.766C18.0099 141.766 19.1187 142.824 19.149 143.434C19.1563 143.576 18.6624 143.825 18.0515 143.987C17.4406 144.149 17.1681 144.366 17.4459 144.468C18.104 144.709 18.104 145.825 17.4459 145.694C17.0477 145.614 16.9165 150.47 16.8236 168.657L16.7065 191.721H48.0155H79.3248V166.341V140.96H48.032C27.4394 140.96 16.7392 141.098 16.7392 141.363ZM23.7496 142.37C23.6216 142.702 23.1278 142.953 22.6518 142.928C21.9694 142.89 21.9359 142.842 22.4931 142.697C22.8819 142.595 23.1997 142.344 23.1997 142.139C23.1997 141.934 23.3757 141.766 23.591 141.766C23.8058 141.766 23.8772 142.038 23.7496 142.37ZM62.1324 144.284C64.9067 147.058 69.7149 154.071 71.1092 157.377C72.0253 159.55 71.8864 160.173 70.8338 158.611C70.5071 158.126 69.7856 157.291 69.2304 156.755L68.2209 155.779L68.0958 156.801C68.0271 157.363 68.4418 159.332 69.0172 161.175C70.2923 165.262 71.2521 170.014 71.2404 172.182C71.2355 173.068 70.8762 174.575 70.4421 175.529C70.0081 176.484 69.4569 177.989 69.2179 178.876C68.3845 181.965 64.9015 184.858 61.2974 185.457C59.2547 185.796 54.9657 185.042 53.1758 184.028C52.3254 183.547 51.4484 183.365 50.7002 183.514C49.9714 183.659 49.1747 183.505 48.5525 183.099C48.0086 182.743 47.4607 182.555 47.3351 182.681C47.2091 182.806 46.2829 182.127 45.2763 181.171C44.27 180.216 43.0248 179.11 42.5092 178.714C41.9935 178.319 40.7539 177.369 39.7546 176.603C38.7552 175.838 37.7228 175.21 37.4603 175.208C36.6681 175.201 35.4301 173.099 35.1172 171.229C34.8382 169.565 34.9674 169.002 36.1678 166.648C36.3641 166.264 36.5244 165.232 36.5244 164.356C36.5244 163.479 36.7073 162.649 36.9306 162.512C37.1543 162.374 38.131 161.049 39.1017 159.567C40.0954 158.05 41.6822 156.29 42.7333 155.539C44.8325 154.038 44.9997 153.601 43.6914 153.037C43.192 152.822 42.4543 152.418 42.0525 152.14C41.4456 151.721 41.2344 151.754 40.8016 152.334C40.5149 152.719 40.1394 152.9 39.9674 152.737C39.795 152.575 39.7635 152.804 39.8971 153.247C40.0308 153.69 39.9694 154.324 39.7615 154.655C39.4368 155.172 39.2959 155.143 38.7738 154.454C38.2303 153.736 38.1637 153.726 38.1524 154.355C38.1451 154.743 37.9578 155.06 37.7357 155.06C37.5136 155.06 37.3319 155.327 37.3319 155.652C37.3319 156.031 37.0977 156.154 36.6798 155.994C36.1468 155.79 36.0834 155.92 36.3342 156.708C36.5906 157.515 36.5466 157.594 36.0645 157.195C35.3603 156.612 34.8398 156.938 34.2192 158.349C33.9596 158.939 33.3596 159.545 32.8859 159.695C32.3816 159.854 32.1119 160.194 32.235 160.515C32.3711 160.869 32.2387 160.983 31.8603 160.838C31.5018 160.701 31.2753 160.86 31.2753 161.249C31.2753 161.677 31.0552 161.799 30.5993 161.625C30.0817 161.427 29.9864 161.529 30.1911 162.061C30.3458 162.463 30.2953 162.656 30.0712 162.518C29.858 162.386 29.5653 162.75 29.4203 163.327C29.2608 163.961 28.9491 164.295 28.6305 164.173C28.0333 163.944 27.1196 164.884 26.9734 165.877C26.9197 166.242 26.5329 166.818 26.1134 167.157C25.6942 167.496 25.2271 168.266 25.0752 168.869C24.8839 169.631 24.5382 169.966 23.9447 169.966C23.1189 169.966 23.0967 169.833 23.2926 166.096C23.4226 163.613 23.6778 162.112 24.0036 161.911C24.2834 161.739 24.512 161.12 24.512 160.537C24.512 159.59 24.5661 159.549 25.0159 160.163C25.4802 160.797 25.542 160.781 25.8004 159.97C25.9543 159.485 26.2498 159.089 26.457 159.089C26.6641 159.089 26.8337 158.748 26.8337 158.332C26.8337 157.917 27.1062 157.351 27.4394 157.075C27.8577 156.728 28.045 156.713 28.045 157.025C28.045 157.892 28.6511 157.471 28.6992 156.571C28.8477 153.785 29.0016 153.449 30.1281 153.449C30.733 153.449 31.3419 153.265 31.4812 153.039C31.6209 152.814 31.9056 152.735 32.1143 152.864C32.718 153.236 34.0379 152.666 34.3036 151.917C34.4372 151.541 35.0998 150.797 35.7758 150.264C36.7848 149.469 37.0695 149.397 37.3642 149.861C37.6307 150.281 37.7284 150.167 37.7422 149.42C37.7607 148.446 37.7809 148.439 38.3559 149.197C39.0439 150.105 39.6193 149.719 39.8212 148.212C39.9153 147.513 40.1729 147.241 40.6631 147.323C41.0515 147.388 41.3697 147.24 41.3697 146.993C41.3697 146.729 41.7004 146.65 42.1773 146.801C42.6759 146.959 42.9848 146.874 42.9848 146.578C42.9848 146.217 43.1346 146.223 43.5905 146.6C43.9898 146.931 44.1962 146.952 44.1962 146.662C44.1962 146.42 44.4647 146.325 44.7925 146.451C45.1721 146.596 45.5589 146.307 45.8565 145.655C46.6685 143.877 48.9418 143.382 53.3696 144.02C54.6407 144.203 55.2379 144.101 55.7204 143.62C56.0761 143.265 56.2562 142.974 56.1205 142.974C55.9849 142.974 56.108 142.709 56.3947 142.385C56.681 142.061 57.5224 141.789 58.265 141.781C59.3919 141.768 60.0299 142.181 62.1324 144.284ZM51.5877 146.882C51.3228 146.977 51.2057 147.315 51.3281 147.633C51.4533 147.958 51.3103 148.218 51.0026 148.226C49.948 148.254 52.8883 150.222 53.9878 150.224C54.5987 150.225 55.0982 150.382 55.0982 150.573C55.0982 150.764 55.5532 150.833 56.1092 150.727C56.7121 150.612 57.9755 150.948 59.2385 151.558C60.4034 152.121 62.2652 152.897 63.3756 153.282C64.486 153.666 65.6222 154.259 65.9008 154.599C66.7136 155.593 67.3359 154.642 66.8081 153.212L66.3749 152.039L67.3843 153.247C67.9395 153.912 68.4002 154.305 68.4083 154.121C68.4265 153.704 65.6489 149.5 65.153 149.194C64.5777 148.84 64.7275 149.552 65.4567 150.64C65.8241 151.187 65.8786 151.409 65.5778 151.132C64.8381 150.451 63.6223 150.432 64.3043 151.112C64.5708 151.378 64.7888 151.779 64.7888 152.003C64.7888 152.228 63.8803 151.519 62.7699 150.427C61.6596 149.336 60.7511 148.691 60.7511 148.994C60.7511 149.434 60.6089 149.421 60.0444 148.926C59.3302 148.3 58.3611 147.921 56.6446 147.597C56.127 147.499 55.2496 147.323 54.6944 147.204C52.6872 146.777 52.0613 146.712 51.5877 146.882ZM48.6377 149.049C48.6377 149.441 50.2694 151.435 50.5851 151.428C50.7353 151.425 51.1262 151.253 51.4537 151.046C51.9564 150.729 51.9027 150.516 51.1072 149.671C50.2661 148.778 48.6377 148.368 48.6377 149.049ZM46.6334 149.854C46.6253 150.202 47.0731 150.914 47.6283 151.434C48.924 152.649 48.9321 151.999 47.6408 150.427C46.9685 149.609 46.6431 149.424 46.6334 149.854ZM45.6352 150.71C45.9142 151.588 45.9062 151.589 44.8196 150.879C44.2163 150.484 43.6704 150.221 43.607 150.294C43.2873 150.663 45.0546 153.852 45.5787 153.852C46.6814 153.852 47.1187 152.386 46.419 151.035C45.6853 149.62 45.2282 149.43 45.6352 150.71ZM51.666 153.219C50.6962 154 50.5548 154.296 50.9566 154.705C51.3608 155.116 51.6959 154.989 52.6727 154.055C54.696 152.122 53.8759 151.44 51.666 153.219ZM55.8258 154.398C54.7824 155.094 53.7499 156.027 53.5311 156.47C53.137 157.27 53.1338 157.27 53.1067 156.45C53.0914 155.996 53.3066 155.37 53.584 155.059C54.0088 154.584 53.9837 154.574 53.4257 154.992C51.9689 156.085 52.4708 158.242 54.0423 157.641C54.5317 157.454 54.6387 157.556 54.4537 158.037C54.1073 158.938 54.398 158.851 55.6727 157.672C56.2756 157.115 56.9329 156.76 57.1332 156.883C57.7494 157.263 59.9366 155.914 59.7 155.299C59.5817 154.991 59.6786 154.619 59.916 154.473C60.1531 154.327 60.3473 153.946 60.3473 153.626C60.3473 152.612 57.8657 153.036 55.8258 154.398ZM41.5716 160.411C40.143 161.465 38.574 163.168 38.5562 163.684C38.5489 163.884 38.8614 163.769 39.2499 163.428C40.3663 162.449 43.0817 161.197 44.7776 160.88C46.3176 160.592 46.3224 160.584 45.3643 160.055C43.985 159.292 42.9578 159.388 41.5716 160.411ZM23.4755 160.776C23.3467 161.097 23.251 161.002 23.2316 160.532C23.2142 160.108 23.3095 159.87 23.4436 160.004C23.5776 160.138 23.5922 160.485 23.4755 160.776ZM72.3827 160.912C72.2583 161.036 72.0326 160.813 71.8808 160.416C71.6619 159.841 71.708 159.795 72.1069 160.19C72.3831 160.464 72.507 160.789 72.3827 160.912ZM43.3886 162.891C43.3886 163.363 42.3852 163.993 40.8614 164.48C40.4709 164.605 39.9294 165.21 39.6585 165.826C39.3872 166.441 39.002 167.06 38.8025 167.202C38.198 167.631 38.985 168.439 39.7998 168.226C40.2185 168.117 40.6776 168.215 40.8202 168.446C41.1408 168.963 44.7994 165.131 44.6613 164.422C44.6068 164.142 44.8317 163.809 45.1612 163.683C45.4907 163.557 45.6788 163.242 45.5791 162.983C45.3348 162.349 43.3886 162.267 43.3886 162.891ZM54.826 166.146C54.272 166.777 53.5182 167.146 52.7837 167.146C51.8219 167.146 51.5009 167.415 50.936 168.692C50.5605 169.542 50.2528 170.36 50.2528 170.509C50.2528 170.946 53.5981 170.328 54.5934 169.708C55.0929 169.397 55.5019 168.818 55.5019 168.422C55.5019 167.631 56.9051 165.938 57.5604 165.938C57.7869 165.938 57.86 165.756 57.7227 165.535C57.2693 164.803 55.718 165.13 54.826 166.146ZM62.3662 168.758C62.3662 168.979 62.2067 169.161 62.0116 169.161C61.2037 169.161 58.7188 170.546 55.3001 172.901C52.3622 174.925 51.666 175.598 51.666 176.412C51.666 178.535 54.247 177.737 59.8672 173.875C62.6605 171.955 63.9813 170.384 63.9813 168.979C63.9813 168.624 63.634 168.355 63.1737 168.355C62.7296 168.355 62.3662 168.536 62.3662 168.758ZM62.1643 170.772C62.3016 170.994 62.2212 171.175 61.9862 171.175C61.7512 171.175 61.5586 170.994 61.5586 170.772C61.5586 170.55 61.6386 170.369 61.7367 170.369C61.8348 170.369 62.027 170.55 62.1643 170.772ZM61.1548 171.192C61.1548 171.953 59.7796 173.064 57.0872 174.476C54.6879 175.736 54.4719 175.786 54.8434 175.001C55.2795 174.079 57.7663 172.1 59.5038 171.294C60.8169 170.684 61.1548 170.663 61.1548 171.192ZM36.5761 177.52C37.078 178.159 37.0638 178.173 36.4234 177.672C35.7507 177.146 35.5371 176.815 35.8694 176.815C35.953 176.815 36.2712 177.132 36.5761 177.52ZM30.2913 186.156L31.4771 187.439L30.1871 186.458C29.4776 185.918 28.8873 185.341 28.8748 185.175C28.8376 184.668 29.0573 184.82 30.2913 186.156ZM31.0734 185.678C31.4751 186.121 31.7134 186.484 31.6023 186.484C31.4913 186.484 31.0714 186.121 30.6696 185.678C30.2678 185.235 30.0296 184.872 30.1406 184.872C30.2517 184.872 30.6716 185.235 31.0734 185.678ZM34.1017 185.666C34.1017 185.88 33.8292 185.951 33.496 185.824C33.1629 185.696 32.8904 185.521 32.8904 185.434C32.8904 185.347 33.1629 185.275 33.496 185.275C33.8292 185.275 34.1017 185.451 34.1017 185.666ZM28.4177 188.599C28.4609 187.901 29.2564 187.962 29.2564 188.664C29.2564 189.603 27.8831 189.104 27.59 188.058C27.0974 186.302 27.3106 185.845 27.8544 187.491C28.1472 188.377 28.4008 188.876 28.4177 188.599ZM27.2375 189.115C27.2375 189.455 27.5088 189.836 27.8407 189.963C29.0072 190.409 27.9752 190.915 25.9014 190.914L23.8054 190.913L25.1176 190.114C25.8396 189.675 26.4299 189.132 26.4299 188.907C26.4299 188.682 26.6116 188.498 26.8337 188.498C27.0558 188.498 27.2375 188.776 27.2375 189.115Z" fill="#E82D34" stroke="white" stroke-width="1.98511" mask="url(#path-10-inside-3_284_47)"/>
</svg>
