<svg width="302" height="254" viewBox="0 0 302 254" fill="none" xmlns="http://www.w3.org/2000/svg">
<path d="M170.648 72.8753C169.366 66.3478 166.832 64.6805 161.605 62.4733H200.671C194.61 65.0237 192.365 67.1311 191.628 72.8753C191.243 77.6477 191.656 80.428 195.245 85.8778L215.14 86.6208V89.9643H150.03V86.6208L165.584 85.8778C170.265 81.8141 171.042 78.8383 170.648 72.8753Z" fill="white" stroke="black" stroke-width="2"/>
<path d="M110.972 55.9623C106.358 57.1144 91.9382 59.9946 71.1743 62.2987C77.6523 72.9425 85.3734 76.4948 95.9756 73.8195C106.504 71.163 107.618 67.37 110.902 56.2L110.972 55.9623Z" fill="#E82D34" stroke="black" stroke-width="2"/>
<ellipse cx="181.792" cy="142.681" rx="20.1871" ry="20.1613" fill="#E82D34"/>
<path d="M291.842 62.4733C296.183 61.7499 298.376 56.8438 295.804 52.3451C284.533 48.8644 273.262 47.7354 253.121 45.1106C247.912 48.9989 248.797 53.792 252.776 56.324C256.756 58.8561 287.501 63.1968 291.842 62.4733Z" fill="white" stroke="black" stroke-width="2"/>
<path d="M147.498 59.2178C132.536 50.1153 126.242 41.5253 122.539 25.9393C125.031 23.9943 127.942 22.8101 132.305 23.769C133.35 35.3735 137.475 43.0868 149.668 51.6217C148.808 56.0727 148.455 57.7756 147.498 59.2178Z" fill="white" stroke="black" stroke-width="2"/>
<path d="M215.14 59.1953C230.102 50.0928 236.396 41.5028 240.099 25.9168C237.606 23.9718 234.696 22.7876 230.332 23.7465C229.288 35.3509 225.162 43.0643 212.97 51.5991C213.829 56.0502 214.183 57.753 215.14 59.1953Z" fill="white" stroke="black" stroke-width="2"/>
<path d="M185.293 103.546C213.037 106.477 229.585 135.966 217.104 161.068C216.742 161.794 216.341 162.787 215.899 164.048C214.869 166.983 213.077 169.375 210.523 171.224C208.521 172.673 206.729 174.26 204.746 175.631C193.375 183.498 178.984 185.501 166.118 180.127C154.462 175.258 146.763 166.682 143.024 154.401C142.178 151.623 141.667 148.878 141.491 146.165C140.149 125.587 154.206 107.886 174.365 103.932C177.781 103.265 181.424 103.136 185.293 103.546ZM196.969 158.485L199.946 155.398C200.004 155.338 200.08 155.3 200.162 155.29C200.243 155.279 200.326 155.296 200.396 155.339C203.473 157.186 206.229 158.73 209.958 159.526C211.794 159.923 213.009 161.337 214.186 162.726C214.41 162.987 214.608 162.969 214.781 162.674C219.882 153.87 221.341 144.527 219.158 134.645C216.676 123.418 209.118 113.929 198.898 108.804C180.035 99.3479 157.526 106.424 147.318 124.915C140.073 138.042 141.166 154.817 150.475 166.731C162.367 181.956 183.843 186.601 200.818 176.621C203.644 174.96 206.268 172.978 208.691 170.674C208.801 170.571 208.802 170.467 208.694 170.361L196.974 158.896C196.947 158.869 196.925 158.837 196.91 158.802C196.895 158.767 196.887 158.73 196.886 158.692C196.886 158.653 196.893 158.615 196.907 158.58C196.921 158.545 196.942 158.512 196.969 158.485ZM210.068 169.957C210.076 169.965 210.087 169.969 210.098 169.969C210.109 169.97 210.12 169.966 210.129 169.959C211.753 168.56 213.097 166.939 214.164 165.095C214.256 164.936 214.29 164.75 214.259 164.568C214.228 164.387 214.135 164.222 213.996 164.102C212.926 163.184 211.182 161.129 209.783 160.824C206.485 160.103 203.386 158.876 200.485 157.146C200.315 157.045 200.156 157.061 200.011 157.194L198.683 158.388C198.542 158.517 198.539 158.648 198.675 158.781L210.068 169.957Z" fill="#E82D34"/>
<path d="M181.138 114.2C181.138 116.022 180.414 117.771 179.125 119.059C177.836 120.348 176.088 121.072 174.265 121.072C172.443 121.072 170.694 120.348 169.406 119.059C168.117 117.771 167.393 116.022 167.393 114.2C167.393 112.377 168.117 110.629 169.406 109.34C170.694 108.051 172.443 107.327 174.265 107.327C176.088 107.327 177.836 108.051 179.125 109.34C180.414 110.629 181.138 112.377 181.138 114.2ZM179.735 114.622C179.832 113.238 179.358 111.871 178.417 110.821C177.475 109.772 176.144 109.126 174.716 109.026C174.009 108.977 173.299 109.063 172.628 109.28C171.956 109.496 171.336 109.839 170.802 110.289C170.268 110.739 169.831 111.286 169.516 111.9C169.201 112.515 169.015 113.184 168.967 113.869C168.87 115.253 169.344 116.62 170.286 117.67C171.227 118.719 172.558 119.365 173.986 119.464C174.693 119.514 175.403 119.428 176.074 119.211C176.746 118.995 177.366 118.652 177.9 118.202C178.434 117.752 178.871 117.205 179.186 116.591C179.501 115.976 179.688 115.307 179.735 114.622Z" fill="#E82D34"/>
<path d="M197.762 115.402C197.702 116.302 197.465 117.181 197.065 117.989C196.665 118.797 196.11 119.517 195.431 120.109C194.751 120.702 193.962 121.154 193.107 121.44C192.252 121.727 191.348 121.842 190.448 121.779C189.547 121.716 188.667 121.477 187.858 121.074C187.049 120.672 186.327 120.114 185.733 119.433C185.138 118.752 184.683 117.961 184.394 117.105C184.105 116.249 183.987 115.345 184.047 114.445C184.107 113.544 184.344 112.665 184.744 111.857C185.144 111.05 185.699 110.329 186.378 109.737C187.058 109.145 187.847 108.692 188.702 108.406C189.557 108.119 190.461 108.004 191.361 108.067C192.262 108.13 193.142 108.37 193.951 108.772C194.76 109.175 195.482 109.732 196.076 110.414C196.671 111.095 197.126 111.886 197.415 112.742C197.704 113.597 197.822 114.501 197.762 115.402ZM196.146 115.016C196.146 113.575 195.587 112.193 194.591 111.173C193.595 110.154 192.245 109.582 190.836 109.582C189.428 109.582 188.077 110.154 187.081 111.173C186.086 112.193 185.526 113.575 185.526 115.016C185.526 116.458 186.086 117.84 187.081 118.859C188.077 119.878 189.428 120.451 190.836 120.451C192.245 120.451 193.595 119.878 194.591 118.859C195.587 117.84 196.146 116.458 196.146 115.016Z" fill="#E82D34"/>
<path d="M167.392 122.158C167.392 123.98 166.668 125.728 165.379 127.017C164.091 128.306 162.342 129.03 160.52 129.03C158.697 129.03 156.949 128.306 155.66 127.017C154.371 125.728 153.647 123.98 153.647 122.158C153.647 120.335 154.371 118.587 155.66 117.298C156.949 116.009 158.697 115.285 160.52 115.285C162.342 115.285 164.091 116.009 165.379 117.298C166.668 118.587 167.392 120.335 167.392 122.158ZM165.789 122.146C165.789 120.756 165.237 119.423 164.254 118.44C163.271 117.458 161.938 116.905 160.548 116.905C159.158 116.905 157.825 117.458 156.842 118.44C155.859 119.423 155.307 120.756 155.307 122.146C155.307 123.536 155.859 124.869 156.842 125.852C157.825 126.835 159.158 127.387 160.548 127.387C161.938 127.387 163.271 126.835 164.254 125.852C165.237 124.869 165.789 123.536 165.789 122.146Z" fill="#E82D34"/>
<path d="M211.523 124.328C211.523 126.151 210.799 127.899 209.51 129.188C208.221 130.477 206.473 131.201 204.65 131.201C202.827 131.201 201.079 130.477 199.79 129.188C198.501 127.899 197.777 126.151 197.777 124.328C197.777 122.505 198.501 120.757 199.79 119.468C201.079 118.179 202.827 117.455 204.65 117.455C206.473 117.455 208.221 118.179 209.51 119.468C210.799 120.757 211.523 122.505 211.523 124.328ZM210.042 124.409C210.042 122.971 209.471 121.593 208.454 120.576C207.438 119.559 206.059 118.988 204.621 118.988C203.183 118.988 201.805 119.559 200.788 120.576C199.772 121.593 199.2 122.971 199.2 124.409C199.2 125.847 199.772 127.225 200.788 128.242C201.805 129.259 203.183 129.83 204.621 129.83C206.059 129.83 207.438 129.259 208.454 128.242C209.471 127.225 210.042 125.847 210.042 124.409Z" fill="#E82D34"/>
<path d="M188.372 143.138C188.372 144.96 187.648 146.708 186.359 147.997C185.071 149.286 183.322 150.01 181.5 150.01C179.677 150.01 177.929 149.286 176.64 147.997C175.351 146.708 174.627 144.96 174.627 143.138C174.627 141.315 175.351 139.567 176.64 138.278C177.929 136.989 179.677 136.265 181.5 136.265C183.322 136.265 185.071 136.989 186.359 138.278C187.648 139.567 188.372 141.315 188.372 143.138ZM186.891 143.219C186.891 141.781 186.32 140.402 185.304 139.386C184.287 138.369 182.908 137.798 181.471 137.798C180.033 137.798 178.654 138.369 177.638 139.386C176.621 140.402 176.05 141.781 176.05 143.219C176.05 144.656 176.621 146.035 177.638 147.052C178.654 148.068 180.033 148.639 181.471 148.639C182.908 148.639 184.287 148.068 185.304 147.052C186.32 146.035 186.891 144.656 186.891 143.219Z" fill="white"/>
<path d="M202.181 142.502C202.181 147.963 200.006 153.2 196.135 157.062C192.265 160.923 187.015 163.092 181.541 163.092C176.067 163.092 170.817 160.923 166.947 157.062C163.076 153.2 160.901 147.963 160.901 142.502C160.901 137.041 163.076 131.804 166.947 127.942C170.817 124.081 176.067 121.912 181.541 121.912C187.015 121.912 192.265 124.081 196.135 127.942C200.006 131.804 202.181 137.041 202.181 142.502ZM201.019 142.464C201.019 137.312 198.967 132.37 195.315 128.727C191.663 125.084 186.71 123.037 181.545 123.037C176.381 123.037 171.427 125.084 167.775 128.727C164.124 132.37 162.072 137.312 162.072 142.464C162.072 147.616 164.124 152.558 167.775 156.201C171.427 159.844 176.381 161.891 181.545 161.891C186.71 161.891 191.663 159.844 195.315 156.201C198.967 152.558 201.019 147.616 201.019 142.464Z" fill="#E82D34"/>
<path d="M159.435 136.627C159.435 138.449 158.711 140.197 157.422 141.486C156.133 142.775 154.385 143.499 152.562 143.499C150.739 143.499 148.991 142.775 147.702 141.486C146.413 140.197 145.689 138.449 145.689 136.627C145.689 134.804 146.413 133.056 147.702 131.767C148.991 130.478 150.739 129.754 152.562 129.754C154.385 129.754 156.133 130.478 157.422 131.767C158.711 133.056 159.435 134.804 159.435 136.627ZM157.829 136.683C157.829 135.297 157.278 133.968 156.298 132.987C155.318 132.007 153.988 131.456 152.602 131.456C151.215 131.456 149.886 132.007 148.906 132.987C147.925 133.968 147.375 135.297 147.375 136.683C147.375 138.07 147.925 139.399 148.906 140.38C149.886 141.36 151.215 141.911 152.602 141.911C153.988 141.911 155.318 141.36 156.298 140.38C157.278 139.399 157.829 138.07 157.829 136.683Z" fill="#E82D34"/>
<path d="M218.034 138.073C218.034 139.896 217.31 141.644 216.021 142.933C214.732 144.222 212.984 144.946 211.161 144.946C209.338 144.946 207.59 144.222 206.301 142.933C205.012 141.644 204.288 139.896 204.288 138.073C204.288 136.251 205.012 134.503 206.301 133.214C207.59 131.925 209.338 131.201 211.161 131.201C212.984 131.201 214.732 131.925 216.021 133.214C217.31 134.503 218.034 136.251 218.034 138.073ZM216.464 138.068C216.464 136.657 215.903 135.304 214.905 134.306C213.908 133.309 212.555 132.748 211.144 132.748C210.445 132.748 209.754 132.886 209.108 133.153C208.463 133.42 207.876 133.812 207.383 134.306C206.889 134.8 206.497 135.387 206.229 136.032C205.962 136.677 205.824 137.369 205.824 138.068C205.824 138.766 205.962 139.458 206.229 140.103C206.497 140.749 206.889 141.335 207.383 141.829C207.876 142.323 208.463 142.715 209.108 142.982C209.754 143.25 210.445 143.387 211.144 143.387C212.555 143.387 213.908 142.827 214.905 141.829C215.903 140.832 216.464 139.479 216.464 138.068Z" fill="#E82D34"/>
<path d="M160.158 151.819C160.158 153.642 159.434 155.39 158.145 156.679C156.856 157.968 155.108 158.692 153.285 158.692C151.463 158.692 149.714 157.968 148.426 156.679C147.137 155.39 146.413 153.642 146.413 151.819C146.413 149.996 147.137 148.248 148.426 146.959C149.714 145.67 151.463 144.946 153.285 144.946C155.108 144.946 156.856 145.67 158.145 146.959C159.434 148.248 160.158 149.996 160.158 151.819ZM158.502 151.825C158.502 150.445 157.955 149.123 156.979 148.148C156.004 147.172 154.682 146.625 153.302 146.625C152.62 146.625 151.943 146.759 151.312 147.02C150.682 147.282 150.108 147.665 149.625 148.148C149.143 148.63 148.759 149.204 148.498 149.835C148.237 150.465 148.102 151.142 148.102 151.825C148.102 152.507 148.237 153.184 148.498 153.815C148.759 154.445 149.143 155.019 149.625 155.502C150.108 155.984 150.682 156.367 151.312 156.629C151.943 156.89 152.62 157.025 153.302 157.025C154.682 157.025 156.004 156.477 156.979 155.502C157.955 154.526 158.502 153.204 158.502 151.825Z" fill="#E82D34"/>
<path d="M168.116 164.841C168.116 166.664 167.392 168.412 166.103 169.701C164.814 170.99 163.066 171.714 161.243 171.714C159.421 171.714 157.672 170.99 156.384 169.701C155.095 168.412 154.371 166.664 154.371 164.841C154.371 163.018 155.095 161.27 156.384 159.981C157.672 158.692 159.421 157.968 161.243 157.968C163.066 157.968 164.814 158.692 166.103 159.981C167.392 161.27 168.116 163.018 168.116 164.841ZM166.58 164.97C166.595 163.614 166.053 162.309 165.075 161.34C164.097 160.371 162.762 159.819 161.365 159.804C160.673 159.797 159.986 159.922 159.344 160.172C158.702 160.422 158.118 160.793 157.623 161.262C157.129 161.731 156.735 162.291 156.464 162.908C156.193 163.525 156.049 164.188 156.042 164.859C156.028 166.215 156.57 167.52 157.548 168.489C158.526 169.458 159.86 170.01 161.258 170.025C161.95 170.032 162.636 169.907 163.278 169.657C163.92 169.407 164.505 169.037 164.999 168.567C165.493 168.098 165.887 167.538 166.159 166.921C166.43 166.304 166.573 165.641 166.58 164.97Z" fill="#E82D34"/>
<path d="M182.585 172.075C182.585 172.978 182.407 173.872 182.062 174.705C181.716 175.539 181.21 176.297 180.572 176.935C179.934 177.573 179.176 178.08 178.342 178.425C177.508 178.77 176.615 178.948 175.712 178.948C173.889 178.948 172.141 178.224 170.852 176.935C169.563 175.646 168.839 173.898 168.839 172.075C168.839 170.253 169.563 168.505 170.852 167.216C172.141 165.927 173.889 165.203 175.712 165.203C176.615 165.203 177.508 165.38 178.342 165.726C179.176 166.071 179.934 166.577 180.572 167.216C181.21 167.854 181.716 168.611 182.062 169.445C182.407 170.279 182.585 171.173 182.585 172.075ZM180.942 171.944C180.942 171.25 180.805 170.562 180.54 169.921C180.274 169.279 179.885 168.697 179.394 168.206C178.903 167.715 178.32 167.325 177.678 167.059C177.037 166.794 176.349 166.657 175.655 166.657C174.961 166.657 174.273 166.794 173.632 167.059C172.99 167.325 172.407 167.715 171.916 168.206C171.426 168.697 171.036 169.279 170.77 169.921C170.505 170.562 170.368 171.25 170.368 171.944C170.368 173.346 170.925 174.691 171.916 175.683C172.908 176.674 174.253 177.231 175.655 177.231C177.057 177.231 178.402 176.674 179.394 175.683C180.385 174.691 180.942 173.346 180.942 171.944Z" fill="#E82D34"/>
<path d="M199.224 170.628C199.224 171.531 199.046 172.425 198.701 173.259C198.356 174.092 197.849 174.85 197.211 175.488C196.573 176.126 195.815 176.633 194.982 176.978C194.148 177.323 193.254 177.501 192.352 177.501C190.529 177.501 188.781 176.777 187.492 175.488C186.203 174.199 185.479 172.451 185.479 170.628C185.479 168.806 186.203 167.058 187.492 165.769C188.781 164.48 190.529 163.756 192.352 163.756C194.174 163.756 195.922 164.48 197.211 165.769C198.5 167.058 199.224 168.806 199.224 170.628ZM197.621 170.594C197.621 169.207 197.07 167.877 196.089 166.896C195.109 165.916 193.778 165.365 192.391 165.365C191.004 165.365 189.674 165.916 188.693 166.896C187.712 167.877 187.161 169.207 187.161 170.594C187.161 171.281 187.297 171.961 187.559 172.596C187.822 173.23 188.208 173.807 188.693 174.292C189.179 174.778 189.755 175.163 190.39 175.426C191.024 175.689 191.704 175.824 192.391 175.824C193.078 175.824 193.758 175.689 194.393 175.426C195.027 175.163 195.604 174.778 196.089 174.292C196.575 173.807 196.96 173.23 197.223 172.596C197.486 171.961 197.621 171.281 197.621 170.594Z" fill="#E82D34"/>
<path d="M155.093 89.9643H143.519C143.772 81.8976 144.475 78.3059 149.647 78.3906C153.492 78.3614 155.126 79.7274 155.093 89.9643Z" fill="#E82D34" stroke="black" stroke-width="2"/>
<path d="M171.009 89.9643H159.435C159.687 81.8976 160.39 78.3059 165.562 78.3906C169.407 78.3614 171.041 79.7274 171.009 89.9643Z" fill="#E82D34" stroke="black" stroke-width="2"/>
<path d="M186.925 89.9643H175.35C175.603 81.8976 176.306 78.3059 181.478 78.3906C185.323 78.3614 186.957 79.7274 186.925 89.9643Z" fill="#E82D34" stroke="black" stroke-width="2"/>
<path d="M202.841 89.9643H191.266C191.519 81.8976 192.222 78.3059 197.394 78.3906C201.239 78.3614 202.873 79.7274 202.841 89.9643Z" fill="#E82D34" stroke="black" stroke-width="2"/>
<path d="M219.48 89.9643H207.182C207.451 81.8976 208.198 78.3059 213.693 78.3906C217.778 78.3614 219.514 79.7274 219.48 89.9643Z" fill="#E82D34" stroke="black" stroke-width="2"/>
<path d="M292.493 26.4558L141.378 6.4897C170.669 4.21626 187.492 3.64964 219.541 6.4897C255.916 12.3429 284.71 19.8053 292.493 26.4558Z" fill="#E82D34" stroke="#E82D34"/>
<path d="M252.12 56.4098C256.734 57.5619 271.153 60.442 291.917 62.7462C285.439 73.39 277.718 76.9423 267.116 74.267C256.588 71.6104 255.473 67.8175 252.189 56.6475L252.12 56.4098Z" fill="#E82D34" stroke="black" stroke-width="2"/>
<path d="M142.532 233.254L87.7385 232.102L91.1992 233.83L142.532 233.254Z" fill="#E82D34" stroke="#E82D34"/>
<path d="M208.284 233.062L275.19 231.525L270.965 233.83L208.284 233.062Z" fill="#E82D34" stroke="#E82D34"/>
<path d="M252.036 109.639C250.725 97.161 242.993 89.9643 231.779 89.9643V199.576L243.806 201.375L252.036 199.576V109.639Z" fill="#E82D34" stroke="black" stroke-width="2"/>
<path d="M111.687 109.639C112.998 97.161 120.73 89.9643 131.944 89.9643V199.576L119.916 201.375L111.687 199.576V109.639Z" fill="#E82D34" stroke="black" stroke-width="2"/>
<path d="M131.944 89.9643L231.779 89.9643" stroke="black" stroke-width="2"/>
<path d="M110.621 195.587C91.1266 200.873 86.844 209.91 87.983 234.109C97.4871 236.922 274.506 236.601 277.794 234.109C281.082 231.617 282.496 200.102 255.156 195.587H110.621Z" fill="#E82D34" stroke="black" stroke-width="2"/>
<path d="M67.1854 52.6264C62.295 47.7325 56.6611 32.5328 67.9187 22.6838C79.1763 12.8348 205.669 -21.7452 291.825 24.4924C299.252 28.7921 304.905 35.7345 295.798 52.0139C279.111 48.4835 269.729 47.1098 252.97 45.2768C251.419 33.6794 248.211 29.3006 239.658 25.0654C235.471 23.6171 233.07 23.3136 229.24 23.8405C190.654 28.2755 169.62 28.0669 133.165 23.8405C128.474 23.4837 126.019 24.039 121.589 26.2904C113.534 30.0931 111.104 34.6833 108.857 45.2768C108.857 45.2768 72.0759 57.5202 67.1854 52.6264Z" fill="#E82D34" stroke="black" stroke-width="2"/>
<path d="M62.2789 32.0886C32.0628 42.1783 17.0635 65.7288 10.5523 86.7088C4.04113 107.689 3.6794 127.222 11.9992 148.563C20.319 169.905 33.7024 174.969 43.4691 181.48C53.2358 187.991 61.5552 191.247 61.5552 191.247M61.5552 191.247C77.4712 195.587 88.0899 211.199 73.4921 218.014C58.8943 224.829 21.5515 225.61 14.893 225.249C8.23446 224.887 4.40285 222.355 2.23269 218.014C0.0625261 213.674 -0.299265 204.63 10.1906 200.29C20.6804 195.949 40.6687 193.132 61.5552 191.247Z" stroke="black" stroke-width="2"/>
<path d="M70.4479 62.4733C66.107 61.7499 63.9143 56.8438 66.486 52.3451C77.7573 48.8644 89.0281 47.7354 109.169 45.1106C114.378 48.9989 113.494 53.792 109.514 56.324C105.534 58.8561 74.7889 63.1968 70.4479 62.4733Z" fill="white" stroke="black" stroke-width="2"/>
<path d="M207.182 52.7068H154.732C152.864 52.3566 152.21 51.6719 152.2 49.0896V44.3872C151.014 42.8708 149.306 42.5786 149.306 44.3872V49.0896V53.792C149.064 56.1174 147.859 58.1326 147.859 59.5796C147.859 61.0265 148.675 62.1357 150.753 62.8351H212.246C213.887 62.6853 215.14 60.6648 215.14 59.5796C215.14 58.4944 213.766 56.5874 213.331 53.792V49.0896V44.3872C213.331 41.8551 210.799 42.5786 210.437 44.3872C210.076 46.1958 210.437 49.0896 210.437 49.0896C210.308 52.0666 209.519 52.7377 207.182 52.7068Z" fill="white" stroke="black" stroke-width="2"/>
<path d="M54.5313 253H7V151.228H23.4961V86.9206C29.2197 81.6534 37.8822 84.6844 38.3147 86.9206C38.7473 89.1568 38.3147 151.228 38.3147 151.228H54.5313V253Z" fill="#E82D34" stroke="black" stroke-width="2"/>
<path d="M11.5971 215.31C10.8259 204.548 10.7131 198.113 10.8461 187.161C26.4359 185.406 35.0786 185.437 50.6684 187.161C51.3247 197.15 51.095 203.888 50.293 215.31C34.9833 216.65 26.2606 216.662 11.5971 215.31Z" fill="white" stroke="black" stroke-width="2"/>
</svg>
