<svg width="232" height="305" viewBox="0 0 232 305" fill="none" xmlns="http://www.w3.org/2000/svg">
<rect x="0.628858" y="256.659" width="268.888" height="155.015" transform="rotate(-72.2097 0.628858 256.659)" stroke="#E82D34"/>
<rect x="23.8868" y="228.463" width="222.543" height="127.428" transform="rotate(-72.2097 23.8868 228.463)" stroke="#E82D34" stroke-width="3"/>
<rect x="17.973" y="243.62" width="129.428" height="6.40419" transform="rotate(17.7903 17.973 243.62)" stroke="#E82D34"/>
<path d="M111.8 33.9061L110.563 33.5093L107.903 41.8003L109.139 42.197L109.006 42.6135L104.854 41.2812L104.987 40.8647L106.224 41.2615L108.65 33.6994L103.254 40.8972L102.825 40.7594L102.527 32.3807L100.347 39.1748L101.525 39.7538L101.392 40.1703L98.294 39.1763L98.4276 38.7598L99.8788 39.0245L102.481 30.9157L101.244 30.519L101.378 30.1025L104.215 31.0129L104.476 38.4756L108.966 32.5373L111.934 33.4896L111.8 33.9061Z" fill="#E82D34"/>
<path d="M114.354 44.4443C113.026 44.0183 112.099 43.2377 111.574 42.1024C111.056 40.9698 111.01 39.7441 111.433 38.4252C111.864 37.0802 112.628 36.086 113.725 35.4425C114.83 34.8018 116.038 34.6917 117.348 35.1121C118.667 35.5353 119.581 36.3262 120.09 37.4848C120.607 38.6462 120.654 39.8863 120.231 41.2052C119.827 42.4634 119.052 43.4159 117.907 44.0628C116.77 44.7125 115.586 44.8397 114.354 44.4443ZM117.214 35.5286C116.815 35.4006 116.423 35.3848 116.038 35.4814C115.656 35.5692 115.32 35.7344 115.032 35.9768C114.747 36.2106 114.476 36.5018 114.221 36.8505C113.965 37.1992 113.752 37.5518 113.58 37.9082C113.419 38.2587 113.281 38.6162 113.164 38.9806C112.913 39.7616 112.797 40.5569 112.815 41.3665C112.835 42.1674 113.073 42.8276 113.529 43.347C113.783 43.6582 114.105 43.8765 114.496 44.0018C114.973 44.1549 115.432 44.1541 115.875 43.9993C116.328 43.8385 116.72 43.5719 117.05 43.1993C117.392 42.8208 117.678 42.4198 117.91 41.9965C118.15 41.5759 118.342 41.14 118.487 40.6888C118.585 40.3851 118.665 40.0758 118.727 39.761C118.799 39.4489 118.848 39.1155 118.876 38.7607C118.915 38.4001 118.91 38.0586 118.86 37.7364C118.813 37.4055 118.732 37.0923 118.616 36.7968C118.509 36.504 118.333 36.2466 118.089 36.0246C117.853 35.8053 117.562 35.64 117.214 35.5286Z" fill="#E82D34"/>
<path d="M129.734 39.0434L130.163 39.1812L129.182 42.2399L128.752 42.1021C128.937 41.319 128.901 40.6234 128.647 40.0153C128.395 39.3985 127.905 38.9732 127.176 38.7393C126.69 38.5834 126.222 38.5959 125.771 38.7768C125.332 38.9517 124.948 39.2399 124.618 39.6413C124.297 40.0455 124.024 40.465 123.798 40.8999C123.572 41.3347 123.387 41.7777 123.242 42.2289C123.097 42.6801 122.996 43.1453 122.938 43.6243C122.883 44.0947 122.88 44.5818 122.928 45.0855C122.977 45.5893 123.135 46.0371 123.402 46.429C123.68 46.8149 124.062 47.0858 124.548 47.2417C125.181 47.445 125.779 47.3734 126.339 47.0271C126.909 46.6835 127.333 46.1974 127.611 45.5689L128.028 45.7025L127.105 48.579L126.701 48.4495L126.89 47.1894C126.499 47.4849 126.058 47.6642 125.569 47.7274C125.091 47.7846 124.61 47.7353 124.124 47.5794C122.866 47.1756 122.01 46.4129 121.556 45.2912C121.114 44.1636 121.096 42.9663 121.503 41.6995C121.767 40.8752 122.166 40.156 122.698 39.5419C123.238 38.9306 123.895 38.4953 124.667 38.2358C125.442 37.9678 126.242 37.966 127.066 38.2305C128.159 38.5813 128.873 39.2073 129.206 40.1085L129.734 39.0434Z" fill="#E82D34"/>
<path d="M135.265 44.8234C135.353 44.7273 135.472 44.579 135.623 44.3784C135.671 44.3174 135.742 44.2157 135.836 44.0734C135.938 43.9339 136.014 43.8293 136.065 43.7596C136.117 43.6899 136.193 43.5852 136.295 43.4458C136.4 43.2976 136.48 43.1843 136.534 43.1059C136.587 43.0275 136.654 42.9244 136.733 42.7967C136.824 42.6631 136.888 42.5688 136.925 42.5136C137.324 41.8952 137.884 41.7016 138.604 41.9327C138.951 42.0441 139.205 42.2213 139.366 42.4645C139.531 42.699 139.558 42.9854 139.45 43.3238C139.366 43.5841 139.21 43.7732 138.981 43.8911C138.751 44.0089 138.507 44.0261 138.246 43.9426C137.995 43.8618 137.81 43.7212 137.692 43.5208C137.575 43.3204 137.557 43.0944 137.637 42.8428C137.718 42.5911 137.873 42.4064 138.102 42.2885C137.993 42.2725 137.883 42.2852 137.774 42.3268C137.645 42.3715 137.502 42.5028 137.346 42.7207C137.292 42.7991 137.214 42.908 137.112 43.0475C137.019 43.1898 136.954 43.2885 136.917 43.3437C136.826 43.4773 136.695 43.6603 136.525 43.8928C136.44 44.009 136.324 44.1774 136.176 44.3981C136.006 44.6306 135.873 44.8079 135.776 44.93C135.475 45.3023 135.141 45.4919 134.775 45.4989L134.758 45.551L135.032 45.6387C135.309 45.7278 135.545 45.8275 135.74 45.9377C135.937 46.0392 136.088 46.1643 136.194 46.313C136.302 46.453 136.384 46.5846 136.44 46.7079C136.496 46.8312 136.521 47.0067 136.515 47.2344C136.521 47.4563 136.513 47.6452 136.491 47.801C136.481 47.951 136.455 48.1818 136.413 48.4936C136.378 48.7216 136.353 48.9337 136.338 49.1299C136.311 49.3031 136.291 49.4546 136.278 49.5844C136.265 49.7143 136.249 49.8528 136.231 50C136.171 50.5741 136.449 50.9601 137.065 51.1578L137.469 51.2872L137.335 51.7037L135.89 51.2401C135.309 51.0536 134.913 50.7972 134.701 50.4711C134.499 50.1477 134.458 49.6943 134.578 49.1108C134.584 49.0934 134.589 49.0328 134.593 48.929C134.607 48.828 134.616 48.74 134.621 48.665C134.636 48.4689 134.661 48.2568 134.696 48.0287C134.736 47.7833 134.78 47.4672 134.828 47.0805C134.867 46.7487 134.852 46.4808 134.784 46.277C134.727 46.0672 134.569 45.8874 134.311 45.7376C134.146 45.6559 133.942 45.576 133.699 45.4981L132.762 45.1974L131.429 49.3494L132.666 49.7461L132.532 50.1626L128.367 48.8262L128.501 48.4097L129.737 48.8064L132.398 40.5155L131.161 40.1187L131.295 39.7022L135.46 41.0387L135.326 41.4552L134.09 41.0584L132.895 44.7809L133.702 45.0398C134.049 45.1512 134.344 45.2026 134.586 45.1941C134.831 45.177 135.057 45.0534 135.265 44.8234Z" fill="#E82D34"/>
<path d="M142.024 53.3233C140.697 52.8973 139.77 52.1167 139.244 50.9814C138.727 49.8488 138.68 48.6231 139.104 47.3042C139.535 45.9592 140.299 44.965 141.396 44.3215C142.501 43.6808 143.709 43.5707 145.019 43.9911C146.338 44.4144 147.252 45.2052 147.76 46.3638C148.278 47.5252 148.325 48.7653 147.902 50.0842C147.498 51.3424 146.723 52.2949 145.578 52.9419C144.441 53.5916 143.257 53.7187 142.024 53.3233ZM144.885 44.4076C144.486 44.2796 144.094 44.2638 143.709 44.3604C143.327 44.4482 142.991 44.6134 142.703 44.8558C142.417 45.0896 142.147 45.3808 141.891 45.7295C141.636 46.0782 141.422 46.4308 141.251 46.7872C141.09 47.1377 140.952 47.4952 140.835 47.8596C140.584 48.6406 140.468 49.4359 140.485 50.2455C140.506 51.0464 140.744 51.7066 141.199 52.226C141.454 52.5372 141.776 52.7555 142.166 52.8808C142.644 53.0339 143.103 53.0331 143.545 52.8783C143.999 52.7175 144.391 52.4509 144.721 52.0783C145.062 51.6998 145.349 51.2989 145.581 50.8755C145.821 50.4549 146.013 50.019 146.158 49.5678C146.256 49.2641 146.336 48.9548 146.398 48.64C146.47 48.328 146.519 47.9945 146.547 47.6398C146.586 47.2791 146.581 46.9376 146.531 46.6154C146.484 46.2845 146.403 45.9713 146.287 45.6758C146.18 45.383 146.004 45.1256 145.76 44.9036C145.524 44.6843 145.232 44.519 144.885 44.4076Z" fill="#E82D34"/>
<path d="M151.724 56.3208L147.611 55.0011L147.745 54.5846L148.981 54.9814L151.641 46.6904L150.405 46.2936L150.539 45.8771L154.574 47.1718C156.699 47.854 157.545 48.8719 157.111 50.2255C156.896 50.8936 156.491 51.3377 155.894 51.5577C155.3 51.769 154.637 51.7908 153.906 51.6233L153.889 51.6753C155.152 52.2144 155.873 52.9052 156.052 53.7476C156.099 54.0497 156.067 54.3742 155.955 54.7213C155.808 55.1812 155.577 55.557 155.263 55.8487C154.958 56.1432 154.608 56.3417 154.211 56.4442C153.826 56.5407 153.421 56.5784 152.998 56.5572C152.582 56.5389 152.158 56.4601 151.724 56.3208ZM150.673 55.5243L151.662 55.8417C152.278 56.0394 152.805 55.9787 153.242 55.6596C153.683 55.3319 154.006 54.847 154.212 54.2049C154.635 52.886 154.235 52.0302 153.011 51.6377L152.022 51.3202L150.673 55.5243ZM152.168 50.8647L153.157 51.1821C153.695 51.3547 154.147 51.3035 154.513 51.0285C154.89 50.7476 155.168 50.3295 155.346 49.7742C155.421 49.5399 155.466 49.3103 155.481 49.0853C155.481 48.3101 155.069 47.7902 154.245 47.5257L153.334 47.2333L152.168 50.8647Z" fill="#E82D34"/>
<path d="M165.934 50.6591L166.363 50.797L165.382 53.8556L164.952 53.7178C165.136 52.9347 165.101 52.2391 164.846 51.631C164.595 51.0143 164.104 50.5889 163.375 50.3551C162.889 50.1991 162.421 50.2116 161.971 50.3925C161.532 50.5674 161.147 50.8556 160.818 51.257C160.497 51.6612 160.223 52.0808 159.998 52.5156C159.772 52.9504 159.587 53.3934 159.442 53.8446C159.297 54.2958 159.196 54.761 159.138 55.24C159.082 55.7104 159.079 56.1975 159.128 56.7013C159.177 57.2051 159.335 57.6529 159.602 58.0447C159.88 58.4306 160.262 58.7015 160.748 58.8575C161.381 59.0607 161.978 58.9891 162.539 58.6428C163.109 58.2992 163.533 57.8131 163.811 57.1846L164.227 57.3183L163.304 60.1947L162.901 60.0652L163.09 58.8052C162.698 59.1006 162.258 59.28 161.769 59.3431C161.291 59.4003 160.809 59.351 160.323 59.1951C159.065 58.7914 158.209 58.0286 157.756 56.9069C157.314 55.7793 157.296 54.5821 157.702 53.3152C157.967 52.4909 158.365 51.7717 158.897 51.1576C159.438 50.5463 160.094 50.111 160.867 49.8516C161.642 49.5835 162.442 49.5817 163.266 49.8462C164.359 50.197 165.072 50.823 165.405 51.7242L165.934 50.6591Z" fill="#E82D34"/>
<path d="M171.464 56.4391C171.553 56.343 171.672 56.1947 171.822 55.9941C171.871 55.9331 171.942 55.8314 172.035 55.6891C172.137 55.5497 172.214 55.4451 172.265 55.3753C172.316 55.3056 172.393 55.201 172.495 55.0615C172.6 54.9133 172.679 54.8 172.733 54.7216C172.787 54.6432 172.854 54.5401 172.933 54.4124C173.024 54.2789 173.087 54.1845 173.124 54.1293C173.524 53.511 174.084 53.3173 174.804 53.5484C175.151 53.6598 175.405 53.8371 175.566 54.0802C175.73 54.3147 175.758 54.6011 175.649 54.9395C175.566 55.1998 175.409 55.3889 175.18 55.5068C174.951 55.6246 174.706 55.6418 174.446 55.5583C174.194 55.4775 174.01 55.337 173.892 55.1365C173.775 54.9361 173.756 54.7101 173.837 54.4585C173.918 54.2068 174.073 54.0221 174.302 53.9042C174.192 53.8882 174.083 53.9009 173.974 53.9425C173.845 53.9872 173.702 54.1185 173.546 54.3364C173.492 54.4148 173.414 54.5237 173.312 54.6632C173.218 54.8055 173.153 54.9042 173.116 54.9594C173.026 55.093 172.895 55.276 172.725 55.5085C172.64 55.6247 172.523 55.7932 172.376 56.0138C172.206 56.2463 172.072 56.4236 171.976 56.5457C171.674 56.918 171.341 57.1077 170.975 57.1147L170.958 57.1667L171.231 57.2544C171.509 57.3435 171.745 57.4432 171.939 57.5534C172.137 57.6549 172.288 57.78 172.393 57.9287C172.501 58.0687 172.584 58.2003 172.64 58.3236C172.696 58.4469 172.721 58.6224 172.715 58.8502C172.72 59.072 172.712 59.2609 172.691 59.4167C172.681 59.5667 172.655 59.7976 172.612 60.1093C172.577 60.3373 172.552 60.5494 172.537 60.7456C172.51 60.9188 172.491 61.0703 172.478 61.2002C172.465 61.33 172.449 61.4685 172.43 61.6157C172.371 62.1899 172.649 62.5758 173.265 62.7735L173.668 62.9029L173.535 63.3194L172.09 62.8559C171.509 62.6693 171.112 62.413 170.901 62.0868C170.699 61.7634 170.657 61.31 170.778 60.7265C170.783 60.7091 170.788 60.6485 170.793 60.5447C170.806 60.4437 170.815 60.3557 170.82 60.2807C170.835 60.0846 170.86 59.8725 170.895 59.6444C170.936 59.399 170.98 59.083 171.027 58.6962C171.067 58.3644 171.052 58.0965 170.984 57.8927C170.926 57.6829 170.769 57.5031 170.511 57.3533C170.345 57.2716 170.141 57.1918 169.898 57.1138L168.961 56.8131L167.629 60.9651L168.866 61.3618L168.732 61.7783L164.567 60.4419L164.701 60.0254L165.937 60.4221L168.597 52.1312L167.361 51.7344L167.495 51.3179L171.66 52.6544L171.526 53.0709L170.289 52.6741L169.095 56.3966L169.902 56.6555C170.249 56.7669 170.544 56.8183 170.786 56.8099C171.03 56.7927 171.257 56.6691 171.464 56.4391Z" fill="#E82D34"/>
<path d="M186.951 58.0206L185.715 57.6238L183.054 65.9147L184.291 66.3115L184.157 66.728L179.992 65.3915L180.126 64.975L181.362 65.3718L183.538 58.5907L177.544 63.3571L177.314 64.0729L178.551 64.4697L178.417 64.8862L174.252 63.5497L174.386 63.1332L175.622 63.53L178.283 55.239L177.046 54.8423L177.18 54.4258L181.345 55.7622L181.211 56.1787L179.975 55.782L177.795 62.5761L183.781 57.8358L184.023 57.0809L182.786 56.6841L182.92 56.2676L187.085 57.6041L186.951 58.0206Z" fill="#E82D34"/>
<path d="M197.832 61.5118L196.595 61.115L193.935 69.406L195.171 69.8027L195.037 70.2192L190.872 68.8828L191.006 68.4663L192.243 68.863L194.419 62.0819L188.424 66.8483L188.195 67.5642L189.431 67.9609L189.298 68.3774L185.133 67.041L185.266 66.6245L186.503 67.0212L189.163 58.7303L187.927 58.3335L188.06 57.917L192.225 59.2535L192.092 59.67L190.855 59.2732L188.675 66.0674L194.661 61.327L194.903 60.5721L193.667 60.1753L193.8 59.7588L197.965 61.0953L197.832 61.5118ZM193.266 58.7403C192.771 58.5816 192.356 58.3384 192.021 58.0108C191.689 57.6745 191.594 57.285 191.736 56.8425C191.805 56.6256 191.93 56.4743 192.111 56.3887C192.294 56.2944 192.494 56.2821 192.711 56.3517C192.902 56.4129 193.052 56.528 193.16 56.6968C193.249 56.8687 193.265 57.0414 193.21 57.215C193.143 57.4232 193.022 57.5615 192.847 57.6297C192.721 57.6946 192.571 57.6991 192.397 57.6434C192.319 57.6184 192.26 57.5946 192.219 57.572C192.396 57.9158 192.784 58.1838 193.383 58.3759C193.99 58.5708 194.466 58.5799 194.809 58.4031C194.763 58.3978 194.701 58.3827 194.623 58.3576C194.449 58.3019 194.33 58.211 194.265 58.085C194.157 57.9162 194.135 57.732 194.199 57.5324C194.26 57.3415 194.378 57.2119 194.553 57.1437C194.731 57.0667 194.92 57.0603 195.119 57.1243C195.319 57.1884 195.464 57.3164 195.556 57.5085C195.659 57.6946 195.678 57.8875 195.614 58.0871C195.486 58.4862 195.195 58.7374 194.741 58.8404C194.347 58.963 193.856 58.9297 193.266 58.7403Z" fill="#E82D34"/>
<path d="M89.2729 51.3069L88.5788 51.0842L89.9987 46.6589L102.667 50.7239L101.247 55.1493L100.553 54.9265L101.007 51.0524L97.4925 49.9248L93.0863 63.6563L95.1471 64.3175L94.9244 65.0117L87.9827 62.7843L88.2055 62.0901L90.2663 62.7514L94.6724 49.0199L91.1582 47.8923L89.2729 51.3069Z" fill="#E82D34"/>
<path d="M108.688 61.9394C108.009 61.7213 107.364 61.4427 106.755 61.1037L104.737 67.3946L107.014 68.1255L106.792 68.8197L99.6331 66.5226L99.8558 65.8285L101.917 66.4897L106.351 52.6715L104.29 52.0102L104.513 51.316L111.649 53.6061C114.079 54.3857 115.476 55.5756 115.84 57.1758C115.937 57.7655 115.875 58.4074 115.652 59.1016C115.179 60.5767 114.28 61.5402 112.954 61.9922C111.629 62.4442 110.207 62.4266 108.688 61.9394ZM108.521 61.1199C109.504 61.4355 110.372 61.2912 111.124 60.6871C111.876 60.0831 112.414 59.2749 112.739 58.2626C113.426 56.1222 112.743 54.7226 110.689 54.0636L109.171 53.5764L106.985 60.3879C107.358 60.6671 107.87 60.9111 108.521 61.1199Z" fill="#E82D34"/>
<path d="M123.37 57.032L124.538 73.7484L126.599 74.4097L126.376 75.1038L119.304 72.8346L119.527 72.1405L121.588 72.8017L121.393 68.337L116.426 66.743L114.006 70.034L115.666 70.9015L115.443 71.5956L110.692 70.0712L110.915 69.3771L113.232 69.7617L122.763 56.8371L123.37 57.032ZM121.066 60.4082L116.894 66.1037L121.363 67.5376L121.066 60.4082Z" fill="#E82D34"/>
<path d="M149.682 66.5757L147.622 65.9145L143.188 79.7327L145.248 80.394L145.026 81.0882L138.106 78.8677L138.328 78.1735L140.389 78.8348L144.433 66.2313L135.44 78.2276L134.724 77.9979L134.228 64.0334L130.595 75.357L132.558 76.322L132.335 77.0161L127.173 75.3595L127.395 74.6653L129.814 75.1064L134.15 61.5919L132.09 60.9306L132.312 60.2364L137.041 61.7539L137.477 74.1917L144.959 64.2945L149.905 65.8816L149.682 66.5757Z" fill="#E82D34"/>
<path d="M153.517 83.8129L146.662 81.6133L146.885 80.9191L148.946 81.5804L153.38 67.7621L151.319 67.1008L151.542 66.4067L158.266 68.5645C161.81 69.7014 163.219 71.3979 162.495 73.6539C162.138 74.7675 161.462 75.5076 160.467 75.8742C159.477 76.2264 158.372 76.2628 157.154 75.9836L157.126 76.0703C159.23 76.9689 160.432 78.1201 160.731 79.5241C160.809 80.0276 160.755 80.5685 160.569 81.147C160.323 81.9135 159.939 82.5398 159.416 83.026C158.908 83.5169 158.323 83.8476 157.662 84.0184C157.02 84.1793 156.346 84.2421 155.64 84.2069C154.948 84.1762 154.24 84.0449 153.517 83.8129ZM151.766 82.4853L153.414 83.0143C154.441 83.3438 155.319 83.2426 156.048 82.7109C156.781 82.1647 157.32 81.3565 157.663 80.2863C158.369 78.0881 157.702 76.6618 155.663 76.0075L154.014 75.4785L151.766 82.4853ZM154.258 74.7193L155.906 75.2483C156.803 75.536 157.556 75.4507 158.166 74.9923C158.795 74.5241 159.257 73.8273 159.554 72.9017C159.68 72.5112 159.755 72.1285 159.779 71.7536C159.779 70.4616 159.092 69.5951 157.718 69.1543L156.2 68.667L154.258 74.7193Z" fill="#E82D34"/>
<path d="M172.263 72.7208L173.431 89.4372L175.492 90.0985L175.269 90.7927L168.197 88.5235L168.42 87.8293L170.481 88.4906L170.287 84.0258L165.319 82.4318L162.899 85.7228L164.559 86.5903L164.336 87.2845L159.585 85.7601L159.808 85.0659L162.125 85.4505L171.656 72.5259L172.263 72.7208ZM169.96 76.097L165.787 81.7925L170.256 83.2264L169.96 76.097Z" fill="#E82D34"/>
<path d="M197.231 81.833L195.17 81.1717L190.736 94.99L192.797 95.6513L192.574 96.3454L185.632 94.118L185.855 93.4238L187.916 94.0851L191.543 82.7832L181.552 90.7272L181.17 91.9203L183.23 92.5816L183.008 93.2758L176.066 91.0483L176.289 90.3542L178.349 91.0154L182.783 77.1972L180.723 76.5359L180.945 75.8417L187.887 78.0692L187.664 78.7633L185.604 78.1021L181.97 89.4257L191.946 81.525L192.35 80.2669L190.289 79.6056L190.512 78.9114L197.454 81.1389L197.231 81.833ZM189.621 77.2139C188.797 76.9494 188.105 76.5441 187.547 75.998C186.993 75.4375 186.834 74.7884 187.071 74.0509C187.187 73.6893 187.395 73.4372 187.696 73.2945C188.002 73.1374 188.336 73.1168 188.697 73.2328C189.015 73.3349 189.265 73.5267 189.446 73.808C189.593 74.0945 189.62 74.3824 189.528 74.6717C189.416 75.0187 189.215 75.2492 188.923 75.3629C188.713 75.471 188.463 75.4786 188.174 75.3858C188.044 75.344 187.945 75.3043 187.877 75.2666C188.172 75.8397 188.818 76.2863 189.816 76.6065C190.828 76.9313 191.621 76.9464 192.194 76.6518C192.117 76.6431 192.014 76.6178 191.883 76.576C191.594 76.4832 191.395 76.3318 191.287 76.1216C191.107 75.8403 191.069 75.5333 191.176 75.2007C191.278 74.8825 191.475 74.6666 191.767 74.5528C192.063 74.4246 192.378 74.4138 192.71 74.5206C193.043 74.6273 193.286 74.8407 193.438 75.1608C193.61 75.4711 193.642 75.7925 193.535 76.1252C193.322 76.7904 192.837 77.2089 192.08 77.3808C191.424 77.5851 190.604 77.5295 189.621 77.2139Z" fill="#E82D34"/>
<path d="M96.5968 96.0024L97.0263 96.1402L96.0449 99.1989L95.6153 99.0611C95.7996 98.278 95.7644 97.5824 95.5097 96.9743C95.2578 96.3575 94.7674 95.9322 94.0386 95.6983C93.5526 95.5424 93.0845 95.5549 92.634 95.7357C92.1951 95.9107 91.8107 96.1989 91.4809 96.6003C91.1598 97.0045 90.8864 97.424 90.6608 97.8589C90.4351 98.2937 90.2499 98.7367 90.1051 99.1879C89.9603 99.6391 89.8589 100.104 89.8009 100.583C89.7457 101.054 89.7425 101.541 89.7914 102.045C89.8403 102.548 89.9981 102.996 90.2647 103.388C90.5429 103.774 90.9249 104.045 91.4108 104.201C92.0442 104.404 92.6414 104.332 93.2024 103.986C93.772 103.642 94.196 103.156 94.4742 102.528L94.8907 102.662L93.9677 105.538L93.5642 105.409L93.7532 104.148C93.3617 104.444 92.9214 104.623 92.4321 104.686C91.9544 104.744 91.4726 104.694 90.9866 104.538C89.7285 104.135 88.8726 103.372 88.419 102.25C87.9769 101.123 87.9592 99.9253 88.3657 98.6585C88.6302 97.8342 89.0284 97.115 89.5604 96.5009C90.1011 95.8896 90.7576 95.4542 91.5299 95.1948C92.305 94.9267 93.1048 94.9249 93.9291 95.1895C95.0224 95.5403 95.7355 96.1663 96.0684 97.0675L96.5968 96.0024Z" fill="#E82D34"/>
<path d="M99.9506 100.782C100.766 101.044 101.332 101.489 101.647 102.116C101.965 102.735 101.996 103.444 101.74 104.242L97.8746 103.002C97.852 103.042 97.824 103.115 97.7906 103.219L97.7154 103.453C97.5038 104.113 97.4674 104.718 97.6062 105.27C97.7478 105.813 98.1222 106.182 98.7296 106.377C99.0854 106.491 99.4341 106.493 99.7758 106.382C100.129 106.266 100.434 106.062 100.69 105.771L100.94 106.11C100.593 106.506 100.163 106.77 99.652 106.903C99.1433 107.026 98.633 107.006 98.121 106.842C97.2099 106.55 96.5601 106.04 96.1715 105.312C95.7857 104.576 95.7361 103.761 96.0229 102.867C96.3041 101.991 96.8143 101.355 97.5534 100.961C98.2925 100.566 99.0916 100.507 99.9506 100.782ZM98.0473 102.598L100.182 103.283C100.366 102.5 100.352 101.902 100.14 101.489C100.04 101.323 99.8992 101.211 99.717 101.152C99.1703 100.977 98.6138 101.459 98.0473 102.598Z" fill="#E82D34"/>
<path d="M100.113 111.113L100.247 110.697L101.223 111.01L103.909 102.641L102.932 102.328L103.066 101.911L104.055 102.229L105.728 102.564L105.298 103.905C105.909 103.163 106.713 102.952 107.711 103.273C108.57 103.548 109.139 104.027 109.418 104.71C109.696 105.393 109.699 106.16 109.426 107.01C109.148 107.878 108.66 108.534 107.961 108.98C107.272 109.429 106.511 109.52 105.678 109.252C104.784 108.966 104.269 108.394 104.132 107.536L102.85 111.532L103.891 111.866L103.758 112.283L100.113 111.113ZM104.876 105.22L104.508 106.365C104.366 106.807 104.376 107.255 104.536 107.709C104.7 108.154 104.99 108.443 105.406 108.577C105.684 108.666 105.955 108.657 106.219 108.55C106.483 108.444 106.707 108.267 106.891 108.02C107.085 107.775 107.245 107.53 107.372 107.284C107.499 107.037 107.604 106.784 107.687 106.524C107.774 106.255 107.834 105.992 107.869 105.735C107.915 105.472 107.932 105.195 107.92 104.904C107.911 104.605 107.827 104.343 107.669 104.12C107.519 103.9 107.302 103.744 107.015 103.652C106.555 103.505 106.121 103.605 105.713 103.952C105.316 104.294 105.037 104.716 104.876 105.22Z" fill="#E82D34"/>
<path d="M109.771 109.532C109.86 109.255 110.02 109.057 110.249 108.939C110.478 108.821 110.732 108.807 111.009 108.896C111.269 108.979 111.467 109.139 111.602 109.373C111.715 109.62 111.729 109.873 111.646 110.134C111.557 110.411 111.393 110.608 111.155 110.723C110.926 110.841 110.677 110.857 110.408 110.77C110.13 110.681 109.935 110.528 109.823 110.31C109.691 110.095 109.674 109.836 109.771 109.532Z" fill="#E82D34"/>
<path d="M125.472 109.187C125.475 109.714 125.854 110.099 126.609 110.341L127.351 110.579L128.541 106.87L127.305 106.473L127.439 106.057L131.604 107.393L131.47 107.81L130.233 107.413L129.043 111.122L129.772 111.356C130.527 111.599 131.063 111.507 131.381 111.083C132.102 110.089 132.638 109.343 132.99 108.843C133.217 108.524 133.46 108.319 133.718 108.23C133.979 108.132 134.296 108.142 134.67 108.262C134.982 108.362 135.213 108.537 135.363 108.786C135.513 109.035 135.537 109.316 135.437 109.628C135.348 109.906 135.192 110.109 134.968 110.239C134.754 110.371 134.508 110.392 134.23 110.303C133.978 110.223 133.789 110.081 133.663 109.877C133.548 109.668 133.53 109.442 133.608 109.199C133.706 108.896 133.869 108.685 134.098 108.567C133.98 108.548 133.869 108.565 133.766 108.618C133.631 108.68 133.487 108.816 133.334 109.025C133.266 109.118 133.18 109.234 133.078 109.374C132.976 109.513 132.915 109.599 132.895 109.631C132.876 109.663 132.822 109.741 132.734 109.866C132.649 109.982 132.582 110.071 132.534 110.132C132.454 110.231 132.34 110.391 132.193 110.611C132.125 110.704 131.986 110.899 131.776 111.195C131.509 111.579 131.143 111.782 130.676 111.804L130.66 111.856L130.998 111.965C131.31 112.065 131.571 112.178 131.78 112.302C132.073 112.492 132.268 112.703 132.366 112.935C132.475 113.162 132.513 113.447 132.48 113.79C132.449 114.125 132.417 114.402 132.385 114.621C132.353 114.84 132.332 115.039 132.323 115.218C132.258 115.657 132.216 115.983 132.195 116.197C132.148 116.555 132.185 116.825 132.308 117.008C132.44 117.194 132.684 117.344 133.04 117.458L133.404 117.575L133.27 117.991L131.774 117.511C130.784 117.194 130.35 116.624 130.47 115.801C130.473 115.764 130.481 115.68 130.494 115.55C130.515 115.423 130.531 115.313 130.542 115.221C130.627 114.597 130.687 114.129 130.72 113.814L130.775 113.329C130.848 112.864 130.776 112.521 130.561 112.298C130.354 112.079 130.003 111.89 129.508 111.731L128.909 111.539L127.573 115.704L128.81 116.101L128.676 116.517L124.511 115.181L124.645 114.764L125.881 115.161L127.217 110.996L126.606 110.8C126.137 110.649 125.745 110.605 125.428 110.666C125.112 110.727 124.851 110.959 124.645 111.362C124.592 111.469 124.517 111.613 124.421 111.793C124.398 111.833 124.345 111.926 124.26 112.071C124.184 112.219 124.123 112.333 124.078 112.415C124.033 112.496 123.969 112.605 123.887 112.741C123.813 112.88 123.761 112.983 123.73 113.05C123.688 113.122 123.596 113.289 123.455 113.55C123.04 114.278 122.311 114.475 121.27 114.141L119.903 113.702L120.037 113.286L120.401 113.403C121.044 113.609 121.527 113.4 121.851 112.777C121.891 112.713 121.966 112.584 122.076 112.39C122.132 112.274 122.203 112.143 122.288 111.998C122.463 111.662 122.693 111.243 122.978 110.741C123.405 109.978 124.134 109.763 125.167 110.094L125.583 110.228L125.6 110.176C125.371 110.025 125.229 109.856 125.175 109.666C125.112 109.474 125.078 109.266 125.073 109.045L125.066 108.396C125.062 108.318 125.059 108.208 125.058 108.063C125.065 107.922 125.066 107.827 125.063 107.778C125.062 107.72 125.059 107.657 125.052 107.588C125.057 107.513 125.059 107.432 125.058 107.346C125.066 107.262 125.069 107.192 125.069 107.134C125.065 107.056 125.062 106.931 125.06 106.758C125.067 106.588 125.07 106.46 125.069 106.373C125.072 106.125 125.038 105.932 124.967 105.795C124.897 105.686 124.812 105.606 124.714 105.556C124.832 105.785 124.847 106.034 124.761 106.303C124.672 106.581 124.52 106.771 124.305 106.874C124.101 106.972 123.861 106.976 123.583 106.887C123.314 106.801 123.125 106.644 123.016 106.418C122.918 106.185 122.913 105.935 122.999 105.666C123.105 105.336 123.295 105.115 123.571 105.002C123.846 104.89 124.149 104.886 124.478 104.992C124.834 105.106 125.085 105.278 125.232 105.507C125.39 105.73 125.464 106.036 125.454 106.425C125.447 106.595 125.446 106.853 125.45 107.199L125.466 108.625C125.469 108.674 125.467 108.74 125.46 108.824C125.463 108.902 125.466 108.97 125.466 109.027C125.467 109.085 125.469 109.138 125.472 109.187Z" fill="#E82D34"/>
<path d="M146.684 112.691L145.447 112.295L142.787 120.586L144.023 120.982L143.889 121.399L139.724 120.062L139.858 119.646L141.095 120.043L142.381 116.034L138.333 114.735L137.047 118.744L138.283 119.141L138.15 119.557L133.985 118.221L134.118 117.804L135.355 118.201L138.015 109.91L136.779 109.513L136.912 109.097L141.077 110.433L140.944 110.85L139.707 110.453L138.467 114.319L142.515 115.617L143.755 111.752L142.519 111.355L142.652 110.939L146.817 112.275L146.684 112.691Z" fill="#E82D34"/>
<path d="M145.8 118.796L145.988 118.211L148.552 119.033L148.364 119.619L145.8 118.796Z" fill="#E82D34"/>
<path d="M153.598 118.169C154.396 118.425 154.976 118.884 155.338 119.545C155.711 120.201 155.773 120.92 155.522 121.701C155.244 122.568 154.711 123.23 153.923 123.685C153.145 124.144 152.326 124.235 151.467 123.959C150.521 123.656 149.88 123.087 149.545 122.252C149.219 121.42 149.209 120.527 149.515 119.572C149.963 118.175 150.791 117.148 151.996 116.492C153.202 115.836 154.541 115.6 156.013 115.786L155.906 116.21C155.109 116.07 154.306 116.228 153.499 116.687C152.694 117.137 152.087 117.732 151.677 118.471L151.725 118.501C152.236 118.043 152.86 117.932 153.598 118.169ZM150.955 123.049C151.099 123.286 151.31 123.45 151.587 123.539C151.865 123.628 152.13 123.622 152.382 123.521C152.638 123.412 152.858 123.233 153.042 122.986C153.235 122.742 153.39 122.5 153.505 122.259C153.632 122.013 153.737 121.76 153.821 121.499C153.902 121.248 153.962 120.985 154.002 120.71C154.051 120.439 154.072 120.149 154.066 119.841C154.06 119.532 153.984 119.26 153.841 119.022C153.708 118.779 153.503 118.612 153.225 118.523C152.956 118.437 152.69 118.447 152.426 118.554C152.174 118.655 151.951 118.827 151.757 119.071C151.576 119.31 151.42 119.556 151.29 119.811C151.163 120.058 151.058 120.311 150.975 120.572C150.891 120.832 150.825 121.098 150.776 121.369C150.739 121.635 150.723 121.922 150.73 122.23C150.736 122.538 150.811 122.811 150.955 123.049Z" fill="#E82D34"/>
<path d="M161.397 122.638C161.202 123.246 160.761 123.726 160.073 124.08C159.394 124.436 158.699 124.62 157.987 124.631L160.135 125.32L161.42 123.952L161.837 124.086L160.384 126.692L155.412 125.096L155.545 124.68C156.142 124.728 156.764 124.654 157.41 124.46C158.065 124.268 158.598 123.98 159.009 123.595C159.348 123.254 159.591 122.853 159.739 122.393C160.056 121.404 159.751 120.76 158.822 120.463C158.423 120.334 158.06 120.347 157.733 120.501C157.415 120.657 157.192 120.935 157.064 121.334C157.014 121.49 156.995 121.623 157.008 121.732C157.128 121.627 157.246 121.555 157.364 121.516C157.493 121.472 157.645 121.477 157.818 121.533C158.035 121.603 158.183 121.722 158.263 121.891C158.352 122.063 158.361 122.257 158.291 122.474C158.213 122.717 158.078 122.884 157.886 122.976C157.703 123.07 157.494 123.08 157.26 123.005C156.887 122.885 156.649 122.656 156.547 122.317C156.454 121.981 156.47 121.617 156.596 121.227C156.81 120.559 157.204 120.12 157.778 119.912C158.361 119.707 158.991 119.713 159.668 119.93C160.032 120.047 160.355 120.203 160.637 120.399C161.428 121.007 161.681 121.753 161.397 122.638Z" fill="#E82D34"/>
<path d="M166.779 123.762L167.37 124.469C167.669 124.88 167.881 125.264 168.006 125.62C168.142 125.97 168.151 126.332 168.031 126.705C167.794 127.442 167.318 127.926 166.603 128.156C165.888 128.386 165.153 128.38 164.398 128.138C163.947 127.993 163.546 127.797 163.194 127.55C162.843 127.304 162.573 126.982 162.384 126.587C162.195 126.191 162.173 125.768 162.318 125.317C162.468 124.848 162.784 124.505 163.266 124.286C163.747 124.067 164.282 123.937 164.869 123.896C164.42 123.417 164.078 122.948 163.842 122.49C163.618 122.025 163.584 121.55 163.74 121.064C163.96 120.379 164.393 119.939 165.039 119.744C165.685 119.55 166.36 119.565 167.063 119.791C167.696 119.994 168.232 120.338 168.669 120.823C169.116 121.311 169.246 121.845 169.059 122.427C168.923 122.852 168.637 123.176 168.201 123.4C167.766 123.624 167.291 123.745 166.779 123.762ZM165.263 120.792C165.146 121.157 165.173 121.505 165.343 121.837C165.4 121.961 165.517 122.147 165.696 122.395C165.862 122.621 166.041 122.855 166.231 123.098L166.485 123.424C166.806 123.201 167.048 122.982 167.213 122.767C167.389 122.546 167.534 122.258 167.648 121.902C167.938 121 167.64 120.407 166.755 120.123C166.443 120.022 166.137 120.034 165.839 120.159C165.552 120.277 165.36 120.488 165.263 120.792ZM164.645 127.772C165.027 127.894 165.383 127.874 165.712 127.712C166.042 127.55 166.266 127.282 166.386 126.909C166.453 126.701 166.472 126.492 166.444 126.282C166.418 126.063 166.344 125.848 166.221 125.636C166.106 125.427 165.994 125.252 165.886 125.112C165.787 124.975 165.646 124.801 165.465 124.59L165.185 124.256C164.846 124.386 164.545 124.596 164.28 124.884C164.024 125.175 163.84 125.494 163.729 125.841C163.589 126.275 163.601 126.671 163.764 127.03C163.926 127.388 164.22 127.635 164.645 127.772Z" fill="#E82D34"/>
<path d="M73.5959 138.919C76.692 139.912 78.7862 141.532 79.8786 143.779C80.9709 146.025 81.0312 148.663 80.0593 151.692C79.1487 154.53 77.4866 156.554 75.073 157.766C72.6868 158.987 70.0963 159.149 67.3016 158.252C64.1507 157.241 61.8603 155.573 60.4304 153.248C59.0366 150.905 58.8257 148.219 59.7976 145.19C60.7782 142.134 62.5537 140.086 65.1241 139.044C67.7033 137.976 70.5272 137.934 73.5959 138.919ZM69.2933 157.131C71.3209 157.781 73.2001 157.481 74.931 156.231C76.6619 154.981 77.8644 153.305 78.5386 151.204C79.2478 148.994 79.2853 146.899 78.6512 144.92C78.0531 142.922 76.6992 141.585 74.5895 140.908C72.3976 140.205 70.4542 140.469 68.7595 141.701C67.0921 142.941 65.8995 144.68 65.1815 146.918C64.4636 149.155 64.4398 151.254 65.1101 153.215C65.7892 155.148 67.1836 156.454 69.2933 157.131Z" fill="#E82D34"/>
<path d="M92.8503 145.549C95.0423 146.252 96.7665 147.377 98.0229 148.924C99.3155 150.452 99.6334 152.24 98.9768 154.286C98.3551 156.223 97.1524 157.523 95.3687 158.184C93.5937 158.819 91.6393 158.929 89.5056 158.515L89.4531 158.679C94.6646 160.802 96.71 163.611 95.5892 167.103C94.8888 169.286 93.4281 170.683 91.2071 171.295C89.0135 171.915 86.7659 171.856 84.4644 171.118C82.4917 170.485 80.9193 169.499 79.7473 168.16C78.6027 166.829 78.3194 165.264 78.8973 163.463C79.1862 162.562 79.6686 161.859 80.3446 161.354C81.0292 160.821 81.81 160.696 82.6867 160.977C83.3991 161.205 83.9088 161.595 84.2159 162.145C84.5503 162.703 84.6037 163.338 84.3761 164.047C84.1659 164.702 83.7766 165.209 83.208 165.568C82.658 165.964 82.0543 166.056 81.3967 165.845C80.9035 165.686 80.4859 165.387 80.1438 164.946C80.0554 165.881 80.3752 166.721 81.1031 167.466C81.8223 168.239 82.6751 168.783 83.6614 169.1C85.3328 169.636 86.7551 169.535 87.9285 168.798C89.1292 168.07 90.001 166.86 90.5438 165.168C91.5945 161.894 90.4074 159.707 86.9825 158.608L85.9139 158.265L86.3342 156.956L87.4028 157.299C88.9097 157.782 90.1951 157.638 91.2588 156.866C92.3499 156.102 93.145 154.943 93.6441 153.387C94.686 150.14 93.5631 147.989 90.2752 146.934C89.8094 146.785 89.2532 146.682 88.6066 146.625C87.6423 146.616 86.7948 146.856 86.0641 147.344C85.3607 147.84 84.8602 148.552 84.5625 149.48C85.3108 148.938 86.1096 148.803 86.9589 149.075C87.6439 149.295 88.1262 149.676 88.4059 150.217C88.6943 150.731 88.7291 151.329 88.5102 152.011C88.265 152.775 87.817 153.323 87.1663 153.656C86.5155 153.989 85.7928 154.028 84.9982 153.773C84.0392 153.466 83.3865 152.91 83.0398 152.107C82.7206 151.312 82.7143 150.437 83.0207 149.482C83.6949 147.381 84.9606 146.027 86.8178 145.419C88.6749 144.811 90.6858 144.854 92.8503 145.549Z" fill="#E82D34"/>
<path d="M116.703 159.974C116.09 161.884 114.699 163.394 112.53 164.504C110.388 165.622 108.194 166.197 105.947 166.229L112.729 168.405L116.782 164.107L118.097 164.529L113.519 172.721L97.8197 167.684L98.24 166.374C100.125 166.527 102.087 166.299 104.126 165.689C106.192 165.088 107.873 164.183 109.168 162.973C110.237 161.902 111.004 160.643 111.468 159.197C112.466 156.086 111.499 154.061 108.567 153.12C107.307 152.715 106.161 152.754 105.13 153.236C104.127 153.726 103.423 154.599 103.021 155.854C102.863 156.346 102.805 156.763 102.845 157.107C103.223 156.777 103.598 156.551 103.969 156.43C104.377 156.29 104.855 156.308 105.403 156.483C106.088 156.703 106.556 157.079 106.809 157.612C107.088 158.153 107.119 158.764 106.9 159.447C106.655 160.211 106.229 160.736 105.623 161.023C105.045 161.319 104.386 161.349 103.646 161.111C102.468 160.733 101.717 160.011 101.395 158.944C101.099 157.886 101.149 156.744 101.543 155.516C102.217 153.415 103.46 152.038 105.271 151.385C107.109 150.741 109.097 150.762 111.234 151.448C112.385 151.817 113.405 152.31 114.296 152.926C116.794 154.842 117.596 157.191 116.703 159.974Z" fill="#E82D34"/>
<path d="M123.588 157.308L124.008 155.998L135.31 159.624L134.89 160.934L131.807 159.945L126.804 175.539L129.886 176.528L129.466 177.838L118.164 174.212L118.584 172.902L121.666 173.891L126.67 158.297L123.588 157.308Z" fill="#E82D34"/>
<path d="M137.354 161.725L137.774 160.415L149.077 164.042L148.656 165.352L145.574 164.363L140.57 179.957L143.653 180.946L143.232 182.256L131.93 178.629L132.35 177.319L135.433 178.308L140.437 162.714L137.354 161.725Z" fill="#E82D34"/>
<path d="M159.234 166.85C161.426 167.553 163.151 168.678 164.407 170.225C165.7 171.753 166.018 173.541 165.361 175.587C164.739 177.525 163.537 178.824 161.753 179.486C159.978 180.12 158.023 180.23 155.89 179.816L155.837 179.98C161.049 182.104 163.094 184.912 161.973 188.405C161.273 190.588 159.812 191.985 157.591 192.596C155.398 193.217 153.15 193.158 150.849 192.419C148.876 191.786 147.303 190.8 146.131 189.461C144.987 188.13 144.704 186.565 145.281 184.764C145.57 183.864 146.053 183.161 146.729 182.655C147.413 182.122 148.194 181.997 149.071 182.278C149.783 182.507 150.293 182.896 150.6 183.446C150.934 184.005 150.988 184.639 150.76 185.348C150.55 186.003 150.161 186.51 149.592 186.869C149.042 187.265 148.438 187.357 147.781 187.146C147.288 186.988 146.87 186.688 146.528 186.247C146.44 187.182 146.759 188.022 147.487 188.767C148.206 189.54 149.059 190.084 150.046 190.401C151.717 190.937 153.139 190.837 154.313 190.1C155.513 189.371 156.385 188.161 156.928 186.47C157.979 183.195 156.792 181.009 153.367 179.91L152.298 179.567L152.718 178.257L153.787 178.6C155.294 179.083 156.579 178.939 157.643 178.167C158.734 177.403 159.529 176.244 160.028 174.689C161.07 171.442 159.947 169.291 156.659 168.236C156.193 168.086 155.637 167.983 154.991 167.926C154.026 167.917 153.179 168.157 152.448 168.645C151.745 169.142 151.244 169.854 150.947 170.781C151.695 170.239 152.494 170.104 153.343 170.377C154.028 170.596 154.51 170.977 154.79 171.518C155.078 172.032 155.113 172.63 154.894 173.312C154.649 174.076 154.201 174.625 153.55 174.958C152.9 175.29 152.177 175.329 151.382 175.075C150.423 174.767 149.771 174.211 149.424 173.408C149.105 172.613 149.098 171.738 149.405 170.783C150.079 168.682 151.345 167.328 153.202 166.72C155.059 166.112 157.07 166.155 159.234 166.85Z" fill="#E82D34"/>
<path d="M45.4432 202.626C45.5315 202.53 45.6508 202.382 45.8013 202.181C45.8496 202.12 45.9205 202.018 46.014 201.876C46.1162 201.736 46.1929 201.632 46.244 201.562C46.295 201.492 46.3717 201.388 46.4739 201.248C46.5788 201.1 46.6582 200.987 46.7121 200.908C46.766 200.83 46.8326 200.727 46.9118 200.599C47.0025 200.466 47.0663 200.371 47.1032 200.316C47.5025 199.698 48.0623 199.504 48.7825 199.735C49.1296 199.847 49.3838 200.024 49.545 200.267C49.7091 200.502 49.7368 200.788 49.6282 201.126C49.5447 201.387 49.3883 201.576 49.159 201.694C48.9298 201.811 48.6851 201.829 48.4247 201.745C48.1731 201.664 47.9885 201.524 47.871 201.323C47.7535 201.123 47.7351 200.897 47.8158 200.645C47.8966 200.394 48.0515 200.209 48.2808 200.091C48.1711 200.075 48.0617 200.088 47.9527 200.129C47.8235 200.174 47.6809 200.305 47.5248 200.523C47.4709 200.602 47.3929 200.711 47.2907 200.85C47.1972 200.992 47.132 201.091 47.0952 201.146C47.0045 201.28 46.874 201.463 46.7037 201.695C46.6185 201.812 46.5023 201.98 46.3549 202.201C46.1846 202.433 46.0511 202.61 45.9545 202.733C45.6532 203.105 45.3196 203.294 44.9537 203.301L44.937 203.354L45.2103 203.441C45.488 203.53 45.724 203.63 45.9183 203.74C46.1154 203.842 46.2667 203.967 46.3721 204.116C46.4803 204.256 46.5625 204.387 46.6186 204.51C46.6748 204.634 46.6998 204.809 46.6937 205.037C46.6991 205.259 46.6911 205.448 46.6698 205.604C46.66 205.754 46.6338 205.984 46.5912 206.296C46.5563 206.524 46.5313 206.736 46.5162 206.932C46.4893 207.106 46.4694 207.257 46.4565 207.387C46.4435 207.517 46.4278 207.655 46.4093 207.803C46.3494 208.377 46.6276 208.763 47.2436 208.96L47.6471 209.09L47.5135 209.506L46.0687 209.043C45.4874 208.856 45.0911 208.6 44.8799 208.274C44.6775 207.95 44.6363 207.497 44.7566 206.913C44.7621 206.896 44.7672 206.835 44.7718 206.732C44.7851 206.631 44.7942 206.543 44.7991 206.468C44.8142 206.271 44.8392 206.059 44.8741 205.831C44.9145 205.586 44.9585 205.27 45.0061 204.883C45.0456 204.551 45.031 204.283 44.9624 204.079C44.9053 203.87 44.7477 203.69 44.4895 203.54C44.3243 203.458 44.1202 203.379 43.8773 203.301L42.9402 203L41.6079 207.152L42.8444 207.549L42.7107 207.965L38.5457 206.629L38.6794 206.212L39.9158 206.609L42.5762 198.318L41.3397 197.921L41.4734 197.505L45.6384 198.841L45.5047 199.258L44.2683 198.861L43.0738 202.583L43.8808 202.842C44.2279 202.954 44.5224 203.005 44.7644 202.997C45.0091 202.98 45.2354 202.856 45.4432 202.626Z" fill="#E82D34"/>
<path d="M52.203 211.126C50.8754 210.7 49.9487 209.919 49.423 208.784C48.9059 207.651 48.859 206.426 49.2822 205.107C49.7138 203.762 50.4778 202.768 51.5743 202.124C52.6795 201.483 53.8873 201.373 55.1975 201.794C56.5164 202.217 57.4302 203.008 57.939 204.166C58.4564 205.328 58.5035 206.568 58.0803 207.887C57.6765 209.145 56.9019 210.097 55.7564 210.744C54.6196 211.394 53.4352 211.521 52.203 211.126ZM55.0639 202.21C54.6647 202.082 54.2726 202.066 53.8875 202.163C53.5052 202.251 53.1699 202.416 52.8815 202.658C52.596 202.892 52.3255 203.183 52.07 203.532C51.8146 203.881 51.6009 204.233 51.4292 204.59C51.2688 204.94 51.1302 205.298 51.0133 205.662C50.7627 206.443 50.6463 207.238 50.664 208.048C50.6846 208.849 50.9225 209.509 51.378 210.029C51.6322 210.34 51.9545 210.558 52.345 210.683C52.8222 210.836 53.2819 210.836 53.724 210.681C54.1775 210.52 54.5693 210.253 54.8994 209.881C55.241 209.502 55.5276 209.101 55.7591 208.678C55.9994 208.257 56.1919 207.822 56.3367 207.37C56.4341 207.067 56.5142 206.757 56.5769 206.443C56.6484 206.13 56.6979 205.797 56.7256 205.442C56.7648 205.082 56.7595 204.74 56.7098 204.418C56.6628 204.087 56.5815 203.774 56.4658 203.478C56.3587 203.186 56.1829 202.928 55.9383 202.706C55.7024 202.487 55.4109 202.322 55.0639 202.21Z" fill="#E82D34"/>
<path d="M70.4884 207.274L69.252 206.878L66.5916 215.169L67.828 215.565L67.6944 215.982L63.5294 214.645L63.663 214.229L64.8995 214.626L66.1859 210.617L62.138 209.318L60.8517 213.327L62.0882 213.724L61.9545 214.14L57.7895 212.804L57.9232 212.387L59.1596 212.784L61.82 204.493L60.5835 204.096L60.7172 203.68L64.8822 205.016L64.7485 205.433L63.5121 205.036L62.2717 208.902L66.3195 210.2L67.5599 206.335L66.3234 205.938L66.4571 205.521L70.6221 206.858L70.4884 207.274Z" fill="#E82D34"/>
<path d="M71.0969 209.939L70.6804 209.805L71.5324 207.15L79.1335 209.589L78.2815 212.244L77.865 212.111L78.1371 209.786L76.0286 209.11L73.3849 217.348L74.6214 217.745L74.4877 218.162L70.3227 216.825L70.4564 216.409L71.6929 216.806L74.3366 208.567L72.228 207.89L71.0969 209.939Z" fill="#E82D34"/>
<path d="M82.7461 216.318C82.3383 216.187 81.9517 216.02 81.5863 215.817L80.3751 219.591L81.7417 220.03L81.6081 220.447L77.3129 219.068L77.4466 218.652L78.6831 219.049L81.3435 210.758L80.107 210.361L80.2406 209.944L84.5228 211.318C85.9805 211.786 86.8185 212.5 87.0368 213.46C87.0956 213.814 87.0581 214.199 86.9245 214.616C86.6405 215.501 86.1009 216.079 85.3056 216.35C84.5104 216.621 83.6572 216.611 82.7461 216.318ZM82.6455 215.827C83.2355 216.016 83.7562 215.929 84.2074 215.567C84.6587 215.205 84.9818 214.72 85.1767 214.112C85.5888 212.828 85.1787 211.988 83.9466 211.593L83.0355 211.301L81.7241 215.387C81.9479 215.555 82.255 215.701 82.6455 215.827Z" fill="#E82D34"/>
<path d="M89.8771 223.215C88.5495 222.789 87.6229 222.008 87.0971 220.873C86.58 219.74 86.5331 218.514 86.9563 217.196C87.3879 215.851 88.1519 214.856 89.2485 214.213C90.3537 213.572 91.5614 213.462 92.8716 213.883C94.1906 214.306 95.1044 215.097 95.6131 216.255C96.1305 217.417 96.1776 218.657 95.7544 219.976C95.3507 221.234 94.5761 222.186 93.4306 222.833C92.2938 223.483 91.1093 223.61 89.8771 223.215ZM92.738 214.299C92.3388 214.171 91.9467 214.155 91.5616 214.252C91.1793 214.34 90.844 214.505 90.5557 214.747C90.2701 214.981 89.9996 215.272 89.7441 215.621C89.4887 215.97 89.2751 216.322 89.1033 216.679C88.943 217.029 88.8043 217.387 88.6874 217.751C88.4368 218.532 88.3204 219.327 88.3381 220.137C88.3587 220.938 88.5967 221.598 89.0521 222.117C89.3063 222.429 89.6287 222.647 90.0191 222.772C90.4964 222.925 90.956 222.924 91.3981 222.77C91.8516 222.609 92.2435 222.342 92.5736 221.97C92.9151 221.591 93.2017 221.19 93.4333 220.767C93.6735 220.346 93.866 219.91 94.0108 219.459C94.1082 219.155 94.1883 218.846 94.2511 218.531C94.3225 218.219 94.372 217.886 94.3998 217.531C94.4389 217.17 94.4336 216.829 94.3839 216.507C94.337 216.176 94.2556 215.863 94.1399 215.567C94.0329 215.274 93.8571 215.017 93.6125 214.795C93.3766 214.576 93.0851 214.41 92.738 214.299Z" fill="#E82D34"/>
<path d="M106.454 218.815L105.217 218.418L102.557 226.709L103.794 227.106L103.66 227.522L99.4949 226.186L99.6286 225.77L100.865 226.166L103.525 217.875L101.17 217.119C101.153 217.171 101.124 217.248 101.081 217.349C101.051 217.445 101.023 217.517 100.997 217.567C100.896 217.793 100.808 218.023 100.733 218.257C100.66 218.454 100.544 218.756 100.384 219.164C100.233 219.575 100.114 219.886 100.027 220.098C98.8174 223.212 97.6905 224.875 96.6467 225.085C96.2932 225.173 95.969 225.169 95.674 225.075C95.3269 224.963 95.0783 224.769 94.9282 224.491C94.7868 224.216 94.7717 223.905 94.8831 223.558C94.9722 223.28 95.1284 223.077 95.3517 222.947C95.5838 222.821 95.8386 222.802 96.1163 222.891C96.3679 222.972 96.5468 223.115 96.6528 223.322C96.7704 223.522 96.7887 223.748 96.708 224C96.6523 224.173 96.5272 224.325 96.3327 224.454C96.1496 224.577 95.9699 224.615 95.7936 224.568C95.8401 224.602 95.8894 224.627 95.9415 224.644C96.1844 224.722 96.4306 224.7 96.6799 224.579C96.938 224.461 97.1765 224.27 97.3954 224.005C97.6143 223.74 97.7975 223.498 97.9449 223.277C98.0922 223.056 98.2308 222.818 98.3605 222.563C99.0065 221.325 99.6327 219.866 100.239 218.185C100.278 218.063 100.316 217.96 100.352 217.876C100.405 217.712 100.449 217.591 100.482 217.516C100.522 217.424 100.572 217.282 100.633 217.091L99.3084 216.522L99.442 216.106L106.588 218.399L106.454 218.815Z" fill="#E82D34"/>
<path d="M108.671 219.526L107.435 219.13L107.568 218.713L111.733 220.05L111.6 220.466L110.363 220.069L109.202 223.688C109.358 223.709 109.557 223.744 109.8 223.793C110.066 223.86 110.307 223.927 110.524 223.997C110.975 224.142 111.375 224.313 111.723 224.511C112.083 224.703 112.404 224.94 112.686 225.222C112.981 225.498 113.17 225.832 113.255 226.223C113.34 226.614 113.309 227.039 113.162 227.499C112.872 228.402 112.325 228.987 111.521 229.255C110.717 229.524 109.856 229.511 108.936 229.215L104.641 227.837L104.774 227.421L106.011 227.817L108.671 219.526ZM107.703 228.36L108.77 228.703C109.412 228.909 109.952 228.838 110.389 228.49C110.837 228.136 111.169 227.625 111.383 226.957C111.584 226.333 111.585 225.792 111.386 225.336C111.188 224.88 110.781 224.553 110.165 224.356C109.827 224.247 109.46 224.168 109.064 224.117L107.703 228.36Z" fill="#E82D34"/>
<path d="M126.008 225.09L124.772 224.693L122.111 232.984L123.348 233.381L123.214 233.797L119.049 232.461L119.183 232.044L120.419 232.441L121.706 228.432L117.658 227.133L116.371 231.142L117.608 231.539L117.474 231.955L113.309 230.619L113.443 230.202L114.679 230.599L117.34 222.308L116.103 221.911L116.237 221.495L120.402 222.831L120.268 223.248L119.032 222.851L117.791 226.717L121.839 228.016L123.08 224.15L121.843 223.753L121.977 223.337L126.142 224.673L126.008 225.09Z" fill="#E82D34"/>
<path d="M128.22 225.799L126.984 225.403L127.117 224.986L131.282 226.322L131.149 226.739L129.912 226.342L128.751 229.961C128.933 229.99 129.123 230.023 129.323 230.058C129.589 230.124 129.778 230.175 129.891 230.211C132.199 230.952 133.09 232.142 132.564 233.782C132.274 234.685 131.721 235.259 130.906 235.504C130.099 235.752 129.231 235.728 128.302 235.43L124.19 234.11L124.323 233.693L125.56 234.09L128.22 225.799ZM127.252 234.633L128.267 234.959C128.892 235.159 129.411 235.092 129.825 234.756C130.251 234.414 130.567 233.922 130.773 233.279C130.981 232.629 130.994 232.068 130.81 231.597C130.626 231.127 130.217 230.79 129.584 230.587C129.306 230.498 128.983 230.432 128.613 230.39L127.252 234.633ZM138.659 229.149L137.422 228.752L134.762 237.043L135.998 237.44L135.865 237.856L131.7 236.52L131.833 236.103L133.07 236.5L135.73 228.209L134.494 227.812L134.627 227.396L138.792 228.732L138.659 229.149Z" fill="#E82D34"/>
<path d="M149.535 232.639L148.299 232.242L145.639 240.533L146.875 240.93L146.741 241.346L142.576 240.01L142.71 239.593L143.947 239.99L146.122 233.209L140.128 237.975L139.899 238.691L141.135 239.088L141.002 239.505L136.837 238.168L136.97 237.752L138.207 238.148L140.867 229.857L139.631 229.461L139.764 229.044L143.929 230.381L143.796 230.797L142.559 230.4L140.379 237.195L146.365 232.454L146.607 231.699L145.37 231.303L145.504 230.886L149.669 232.222L149.535 232.639ZM144.97 229.867C144.475 229.709 144.06 229.466 143.725 229.138C143.393 228.802 143.298 228.412 143.44 227.97C143.509 227.753 143.634 227.601 143.815 227.516C143.998 227.422 144.198 227.409 144.415 227.479C144.606 227.54 144.756 227.655 144.864 227.824C144.953 227.996 144.969 228.169 144.914 228.342C144.847 228.55 144.726 228.689 144.551 228.757C144.425 228.822 144.275 228.826 144.101 228.771C144.023 228.746 143.964 228.722 143.923 228.699C144.1 229.043 144.488 229.311 145.087 229.503C145.694 229.698 146.17 229.707 146.513 229.53C146.467 229.525 146.405 229.51 146.327 229.485C146.153 229.429 146.034 229.338 145.969 229.212C145.861 229.043 145.839 228.859 145.903 228.66C145.964 228.469 146.082 228.339 146.257 228.271C146.435 228.194 146.624 228.187 146.823 228.252C147.023 228.316 147.168 228.444 147.26 228.636C147.363 228.822 147.382 229.015 147.318 229.214C147.19 229.613 146.899 229.865 146.445 229.968C146.051 230.09 145.56 230.057 144.97 229.867Z" fill="#E82D34"/>
<path d="M68.7008 224.646L67.4643 224.249L67.5979 223.833L74.4962 226.046L73.64 228.714L73.2105 228.576L73.5556 226.204L70.3928 225.189L69.2359 228.794C69.4984 228.811 69.8812 228.901 70.3845 229.062C70.827 229.204 71.2267 229.375 71.5834 229.576C71.9401 229.777 72.2628 230.024 72.5514 230.317C72.8428 230.602 73.0354 230.942 73.1292 231.335C73.2229 231.729 73.196 232.156 73.0485 232.616C72.7617 233.51 72.2047 234.082 71.3776 234.333C70.5591 234.588 69.6899 234.567 68.7702 234.272L64.6702 232.956L64.8039 232.54L66.0404 232.937L68.7008 224.646ZM67.7324 233.48L68.6045 233.759C69.2552 233.968 69.8036 233.915 70.2497 233.598C70.7071 233.276 71.0417 232.785 71.2533 232.126C71.4649 231.466 71.4686 230.903 71.2645 230.436C71.0719 229.962 70.6545 229.622 70.0124 229.416C69.6566 229.302 69.3519 229.238 69.0981 229.224L67.7324 233.48Z" fill="#E82D34"/>
<path d="M85.9107 230.168L84.6742 229.771L82.0138 238.062L83.2503 238.459L83.1166 238.876L78.9516 237.539L79.0853 237.123L80.3218 237.519L82.4977 230.738L76.5036 235.505L76.2739 236.22L77.5104 236.617L77.3767 237.034L73.2117 235.697L73.3454 235.281L74.5819 235.678L77.2423 227.387L76.0058 226.99L76.1394 226.573L80.3044 227.91L80.1708 228.326L78.9343 227.93L76.7542 234.724L82.7399 229.983L82.9822 229.228L81.7457 228.832L81.8793 228.415L86.0443 229.752L85.9107 230.168Z" fill="#E82D34"/>
<path d="M95.4763 233.237L94.2399 232.841L91.5795 241.132L92.816 241.528L92.6823 241.945L88.5173 240.608L88.651 240.192L89.8874 240.589L92.5478 232.298L90.192 231.542C90.1753 231.594 90.1459 231.671 90.1038 231.772C90.0732 231.867 90.0452 231.94 90.0198 231.989C89.9186 232.215 89.8304 232.445 89.7552 232.679C89.6825 232.876 89.5663 233.179 89.4066 233.587C89.2556 233.998 89.1366 234.309 89.0497 234.52C87.8397 237.635 86.7129 239.297 85.6691 239.508C85.3156 239.595 84.9914 239.592 84.6963 239.497C84.3493 239.386 84.1007 239.191 83.9506 238.913C83.8091 238.638 83.7941 238.327 83.9055 237.98C83.9946 237.703 84.1508 237.499 84.3741 237.37C84.6061 237.243 84.861 237.224 85.1387 237.314C85.3903 237.394 85.5691 237.538 85.6752 237.744C85.7927 237.945 85.8111 238.171 85.7304 238.422C85.6747 238.596 85.5496 238.747 85.3551 238.876C85.172 238.999 84.9923 239.037 84.816 238.99C84.8625 239.024 84.9118 239.05 84.9638 239.066C85.2068 239.144 85.453 239.123 85.7023 239.002C85.9604 238.884 86.1989 238.692 86.4178 238.427C86.6367 238.163 86.8199 237.92 86.9672 237.699C87.1146 237.479 87.2532 237.241 87.3829 236.986C88.0289 235.748 88.6551 234.288 89.2616 232.607C89.3006 232.486 89.3383 232.383 89.3749 232.299C89.4278 232.134 89.4711 232.014 89.5048 231.939C89.5441 231.846 89.5944 231.704 89.6556 231.513L88.3308 230.945L88.4644 230.528L95.61 232.821L95.4763 233.237Z" fill="#E82D34"/>
<path d="M100.731 244.527L93.6631 242.26L93.7967 241.843L95.0332 242.24L97.6936 233.949L96.4571 233.552L96.5907 233.136L103.32 235.295L102.464 237.963L102.047 237.829L102.327 235.436L99.3856 234.492L98.1536 238.332L99.9237 238.9L100.686 237.464L101.115 237.602L100.008 241.051L99.5919 240.918L99.79 239.316L98.0199 238.748L96.7252 242.783L100.005 243.835L101.212 241.595L101.628 241.729L100.731 244.527Z" fill="#E82D34"/>
<path d="M104.39 238.567L103.974 238.433L104.826 235.778L112.427 238.217L111.575 240.872L111.158 240.739L111.43 238.414L109.322 237.738L106.678 245.977L107.915 246.373L107.781 246.79L103.616 245.453L103.75 245.037L104.986 245.434L107.63 237.195L105.521 236.518L104.39 238.567Z" fill="#E82D34"/>
</svg>
