<svg width="177" height="50" viewBox="0 0 177 50" fill="none" xmlns="http://www.w3.org/2000/svg">
<path d="M118.506 37.2147C120.196 40.877 67.7968 5.35581 67.7968 5.35581L69.4959 2.28171L83.6548 12.0629L96.3977 16.8138L122.45 32.1843L119.901 35.2584C119.901 35.2584 116.816 33.5524 118.506 37.2147Z" fill="#E82D34" stroke="black" stroke-width="2"/>
<path d="M48.9191 15.5224C42.6758 13.3445 39.715 7.34963 35.1172 2H70.0502L83.0092 11.8601C110.888 18.8688 123.836 13.721 132.026 2.56344C145.651 4.97965 154.827 12.8911 174.002 37.7781L118.787 37.4964C108.001 22.0486 98.0115 21.195 83.0092 11.8601L70.0502 2C67.001 6.25509 64.9547 12.3799 57.089 15.5224V36.933H48.9191V15.5224Z" fill="#E82D34"/>
<path d="M70.0502 2C67.001 6.25509 64.9547 12.3799 57.089 15.5224V36.933H48.9191V15.5224C42.6758 13.3445 39.715 7.34963 35.1172 2H70.0502ZM70.0502 2L83.0092 11.8601M83.0092 11.8601C98.0115 21.195 108.001 22.0486 118.787 37.4964L174.002 37.7781C154.827 12.8911 145.651 4.97965 132.026 2.56344C123.836 13.721 110.888 18.8688 83.0092 11.8601Z" stroke="black" stroke-width="2"/>
<rect x="48.6388" y="31.0169" width="8.45153" height="6.19779" fill="black"/>
<path d="M122.678 25.9741C123.383 30.1458 119.066 32.7648 119.066 32.7648C118.708 32.226 118.088 30.0059 118.468 25.4365C118.849 20.867 115.243 18.0191 113.393 17.1664C113.393 17.1664 127.028 14.0729 126.418 15.4349C125.808 16.7968 119.5 19.941 119.5 19.941C119.5 19.941 121.974 21.8024 122.678 25.9741Z" fill="white"/>
<path d="M147.341 29.7578C149.689 29.6257 150.466 33.0741 150.466 33.0741C150.124 33.289 148.839 33.5413 146.436 32.8314C144.033 32.1215 141.973 34.5303 141.243 35.8235C141.243 35.8235 141.574 25.4165 142.218 25.9965C142.861 26.5766 143.63 31.5514 143.63 31.5514C143.63 31.5514 144.993 29.89 147.341 29.7578Z" fill="white"/>
<path d="M154.01 25.3958C158.507 29.3328 157.871 35.0781 157.871 35.0781C157.097 34.753 154.526 32.8266 150.438 27.722C146.35 22.6173 141.01 22.0792 138.851 22.4482C138.851 22.4482 145.805 9.79026 146.662 11.6533C147.52 13.5163 145.939 21.1877 145.939 21.1877C145.939 21.1877 149.514 21.4589 154.01 25.3958Z" fill="white"/>
<path d="M129.106 15.9265C128.643 9.15952 133.117 4.91955 133.117 4.91955C133.443 5.79406 133.935 9.39564 133.289 16.8059C132.642 24.2162 136.086 28.8413 137.888 30.2275C137.888 30.2275 124.06 35.2205 124.75 33.0127C125.44 30.805 131.936 25.7169 131.936 25.7169C131.936 25.7169 129.568 22.6936 129.106 15.9265Z" fill="white"/>
<path d="M86.3888 48.0833C88.0791 51.7457 35.6796 16.2245 35.6796 16.2245L37.3787 13.1504L51.5376 22.9316L64.2805 27.6825L90.3329 43.053L87.7843 46.1271C87.7843 46.1271 84.6985 44.421 86.3888 48.0833Z" fill="#E82D34" stroke="black" stroke-width="2"/>
<path d="M16.802 26.3911C10.5586 24.2132 7.59777 18.2183 3 12.8687H37.933L50.892 22.7288C78.7708 29.7375 91.719 24.5896 99.9086 13.4321C113.534 15.8483 122.71 23.7598 141.885 48.6468L86.6701 48.3651C75.8843 32.9172 65.8943 32.0636 50.892 22.7288L37.933 12.8687C34.8838 17.1237 32.8375 23.2485 24.9718 26.3911V47.8016H16.802V26.3911Z" fill="#E82D34"/>
<path d="M37.933 12.8687C34.8838 17.1237 32.8375 23.2485 24.9718 26.3911V47.8016H16.802V26.3911C10.5586 24.2132 7.59777 18.2183 3 12.8687H37.933ZM37.933 12.8687L50.892 22.7288M50.892 22.7288C65.8943 32.0636 75.8843 32.9172 86.6701 48.3651L141.885 48.6468C122.71 23.7598 113.534 15.8483 99.9086 13.4321C91.719 24.5896 78.7708 29.7375 50.892 22.7288Z" stroke="black" stroke-width="2"/>
<rect x="16.5216" y="41.8856" width="8.45153" height="6.19779" fill="black"/>
<path d="M90.5612 36.8427C91.2655 41.0144 86.9486 43.6334 86.9486 43.6334C86.591 43.0946 85.9709 40.8746 86.3512 36.3051C86.7315 31.7356 83.1259 28.8878 81.2756 28.035C81.2756 28.035 94.9106 24.9416 94.3007 26.3035C93.6908 27.6655 87.383 30.8096 87.383 30.8096C87.383 30.8096 89.8568 32.671 90.5612 36.8427Z" fill="white"/>
<path d="M115.224 40.6265C117.572 40.4943 118.349 43.9427 118.349 43.9427C118.007 44.1576 116.721 44.41 114.318 43.7001C111.916 42.9902 109.856 45.399 109.126 46.6921C109.126 46.6921 109.457 36.2851 110.1 36.8652C110.744 37.4452 111.513 42.4201 111.513 42.4201C111.513 42.4201 112.876 40.7586 115.224 40.6265Z" fill="white"/>
<path d="M121.893 36.2645C126.389 40.2014 125.754 45.9467 125.754 45.9467C124.979 45.6216 122.409 43.6953 118.321 38.5906C114.233 33.486 108.893 32.9478 106.734 33.3168C106.734 33.3168 113.687 20.6589 114.545 22.5219C115.403 24.385 113.822 32.0564 113.822 32.0564C113.822 32.0564 117.397 32.3275 121.893 36.2645Z" fill="white"/>
<path d="M96.9887 26.7952C96.5262 20.0282 100.999 15.7882 100.999 15.7882C101.326 16.6627 101.818 20.2643 101.171 27.6746C100.525 35.0848 103.968 39.7099 105.771 41.0962C105.771 41.0962 91.9433 46.0892 92.6329 43.8814C93.3226 41.6736 99.8191 36.5855 99.8191 36.5855C99.8191 36.5855 97.4511 33.5622 96.9887 26.7952Z" fill="white"/>
</svg>
