<svg width="104" height="104" viewBox="0 0 104 104" fill="none" xmlns="http://www.w3.org/2000/svg">
<circle cx="52" cy="52" r="50.5" fill="black" stroke="#E82D34" stroke-width="3"/>
<circle cx="52.234" cy="52.2351" r="38.0294" stroke="#E82D34" stroke-width="3"/>
<path d="M47.5896 66.0008V49.659C56.5893 48.334 61.0891 44.2117 61.0891 37.2922C61.0891 34.4459 60.194 32.1885 58.4037 30.52C56.6618 28.8514 54.3877 28.0172 51.5814 28.0172C48.0008 28.0172 45.1219 29.195 42.9445 31.5505C44.3961 31.5505 45.5574 31.9186 46.4283 32.6547C47.3476 33.3908 47.8073 34.4705 47.8073 35.8936C47.8073 37.2186 47.3718 38.3228 46.5009 39.2061C45.6783 40.0895 44.6138 40.5311 43.3074 40.5311C41.9526 40.5311 40.8398 40.0895 39.9688 39.2061C39.0495 38.4209 38.5898 37.2432 38.5898 35.6728C38.5898 32.6792 40.0172 30.2991 42.872 28.5325C45.7267 26.7658 48.775 25.8824 52.0168 25.8824C56.5651 25.8824 60.3149 27.0602 63.2665 29.4158C66.2664 31.7714 67.7663 35.1575 67.7663 39.5742C67.7663 44.1872 65.976 48.0886 62.3955 51.2784C58.815 54.4192 54.6538 56.2349 49.9121 56.7257V66.0008H47.5896ZM43.5252 73.2883C43.5252 71.7179 44.009 70.442 44.9767 69.4605C45.9444 68.479 47.2025 67.9883 48.7508 67.9883C50.2024 67.9883 51.4604 68.479 52.5249 69.4605C53.4926 70.5401 53.9764 71.8161 53.9764 73.2883C53.9764 74.8587 53.4684 76.1346 52.4523 77.1161C51.4846 78.0976 50.2508 78.5883 48.7508 78.5883C47.2025 78.5883 45.9686 78.1221 45.0493 77.1897C44.0332 76.3064 43.5252 75.0059 43.5252 73.2883Z" fill="#E82D34"/>
</svg>
